<?xml version="1.0" encoding="UTF-8"?><svg id="Layer_2" xmlns="http://www.w3.org/2000/svg" viewBox="0 0 277.64 277.64"><defs><style>.cls-1{stroke-width:0px;}</style></defs><g id="Elements"><g id="_28"><path class="cls-1" d="m0,0v277.64h277.64V0H0Zm268.81,268.81H8.83V8.83h259.98v259.98Z"/><path class="cls-1" d="m47.32,70.88c14.28,0,25.9-11.62,25.9-25.9s-11.62-25.9-25.9-25.9-25.9,11.62-25.9,25.9,11.62,25.9,25.9,25.9Zm0-42.97c9.41,0,17.07,7.66,17.07,17.07s-7.66,17.07-17.07,17.07-17.07-7.66-17.07-17.07,7.66-17.07,17.07-17.07Z"/><circle class="cls-1" cx="108.45" cy="44.98" r="21.48" transform="translate(-8.66 53.25) rotate(-26.57)"/><path class="cls-1" d="m169.32,70.88c14.28,0,25.9-11.62,25.9-25.9s-11.62-25.9-25.9-25.9-25.9,11.62-25.9,25.9,11.62,25.9,25.9,25.9Zm0-42.97c9.41,0,17.07,7.66,17.07,17.07s-7.66,17.07-17.07,17.07-17.07-7.66-17.07-17.07,7.66-17.07,17.07-17.07Z"/><circle class="cls-1" cx="231.19" cy="44.98" r="21.48"/><path class="cls-1" d="m47.32,133.22c14.28,0,25.9-11.62,25.9-25.9s-11.62-25.9-25.9-25.9-25.9,11.62-25.9,25.9,11.62,25.9,25.9,25.9Zm0-42.97c9.41,0,17.07,7.66,17.07,17.07s-7.66,17.07-17.07,17.07-17.07-7.66-17.07-17.07,7.66-17.07,17.07-17.07Z"/><path class="cls-1" d="m108.45,133.22c14.28,0,25.9-11.62,25.9-25.9s-11.62-25.9-25.9-25.9-25.9,11.62-25.9,25.9,11.62,25.9,25.9,25.9Zm0-42.97c9.41,0,17.07,7.66,17.07,17.07s-7.66,17.07-17.07,17.07-17.07-7.66-17.07-17.07,7.66-17.07,17.07-17.07Z"/><circle class="cls-1" cx="169.32" cy="107.32" r="21.48" transform="translate(-30.18 126.93) rotate(-37.98)"/><path class="cls-1" d="m231.19,133.22c14.28,0,25.9-11.62,25.9-25.9s-11.62-25.9-25.9-25.9-25.9,11.62-25.9,25.9,11.62,25.9,25.9,25.9Zm0-42.97c9.41,0,17.07,7.66,17.07,17.07s-7.66,17.07-17.07,17.07-17.07-7.66-17.07-17.07,7.66-17.07,17.07-17.07Z"/><circle class="cls-1" cx="47.32" cy="169.66" r="21.48"/><path class="cls-1" d="m108.45,195.56c14.28,0,25.9-11.62,25.9-25.9s-11.62-25.9-25.9-25.9-25.9,11.62-25.9,25.9,11.62,25.9,25.9,25.9Zm0-42.97c9.41,0,17.07,7.66,17.07,17.07s-7.66,17.07-17.07,17.07-17.07-7.66-17.07-17.07,7.66-17.07,17.07-17.07Z"/><path class="cls-1" d="m169.32,195.56c14.28,0,25.9-11.62,25.9-25.9s-11.62-25.9-25.9-25.9-25.9,11.62-25.9,25.9,11.62,25.9,25.9,25.9Zm0-42.97c9.41,0,17.07,7.66,17.07,17.07s-7.66,17.07-17.07,17.07-17.07-7.66-17.07-17.07,7.66-17.07,17.07-17.07Z"/><path class="cls-1" d="m231.19,195.56c14.28,0,25.9-11.62,25.9-25.9s-11.62-25.9-25.9-25.9-25.9,11.62-25.9,25.9,11.62,25.9,25.9,25.9Zm0-42.97c9.41,0,17.07,7.66,17.07,17.07s-7.66,17.07-17.07,17.07-17.07-7.66-17.07-17.07,7.66-17.07,17.07-17.07Z"/><path class="cls-1" d="m47.32,257.91c14.28,0,25.9-11.62,25.9-25.9s-11.62-25.9-25.9-25.9-25.9,11.62-25.9,25.9,11.62,25.9,25.9,25.9Zm0-42.97c9.41,0,17.07,7.66,17.07,17.07s-7.66,17.07-17.07,17.07-17.07-7.66-17.07-17.07,7.66-17.07,17.07-17.07Z"/><circle class="cls-1" cx="108.45" cy="232.01" r="21.48" transform="translate(-55.92 35.61) rotate(-14.87)"/><path class="cls-1" d="m169.32,257.91c14.28,0,25.9-11.62,25.9-25.9s-11.62-25.9-25.9-25.9-25.9,11.62-25.9,25.9,11.62,25.9,25.9,25.9Zm0-42.97c9.41,0,17.07,7.66,17.07,17.07s-7.66,17.07-17.07,17.07-17.07-7.66-17.07-17.07,7.66-17.07,17.07-17.07Z"/><circle class="cls-1" cx="231.19" cy="232.01" r="21.48"/></g></g></svg>