<?xml version="1.0" encoding="UTF-8"?><svg id="Layer_2" xmlns="http://www.w3.org/2000/svg" viewBox="0 0 307.39 184.7"><defs><style>.cls-1{stroke-width:0px;}</style></defs><g id="Elements"><g id="_25"><path class="cls-1" d="m231.15,77.81l6.16-6.16c14.28-14.28,14.28-37.42,0-51.7l-4.11-4.11-32.01,32.01-17.52-17.52.35-.35L154.05,0l-.35.35-.35-.35-29.97,29.97.35.35-17.52,17.52L74.2,15.83l-4.11,4.11c-14.28,14.28-14.28,37.42,0,51.7l6.16,6.16L0,154.05l4.11,4.12c14.28,14.28,37.42,14.28,51.7,0l50.39-50.39,17.52,17.52-44.59,44.59,4.11,4.11c14.28,14.28,37.42,14.28,51.7,0l18.74-18.74,18.74,18.74c14.28,14.28,37.42,14.28,51.7,0l4.11-4.11-44.59-44.59,17.52-17.52,50.39,50.39c14.28,14.28,37.42,14.28,51.7,0l4.11-4.12-76.24-76.24Zm-77.45,17.52l-17.52-17.52,17.52-17.52,17.52,17.52-17.52,17.52Z"/></g></g></svg>