<?xml version="1.0" encoding="UTF-8"?><svg id="Layer_2" xmlns="http://www.w3.org/2000/svg" viewBox="0 0 307.39 203.44"><defs><style>.cls-1{stroke-width:0px;}</style></defs><g id="Elements"><g id="_33"><path class="cls-1" d="m291.78,123.74h-35.96c-17.8,0-34.68,7.86-46.15,21.47l-14.68,17.43c-5.12,6.08-12.66,9.59-20.61,9.59h-41.37c-7.95,0-15.49-3.51-20.61-9.59l-14.68-17.43c-11.46-13.61-28.35-21.47-46.15-21.47H15.61c-8.62,0-15.61,6.99-15.61,15.61s6.99,15.61,15.61,15.61h34.68c9.4,0,18.32,4.15,24.37,11.34l13.54,16.07c11.26,13.36,27.84,21.08,45.31,21.08h9.5s0,0,0,0h21.39s0,0,0,0h9.5c17.47,0,34.05-7.71,45.31-21.08l13.54-16.07c6.05-7.19,14.97-11.34,24.37-11.34h34.68c8.62,0,15.61-6.99,15.61-15.61,0-8.62-6.99-15.61-15.61-15.61Z"/><path class="cls-1" d="m15.61,79.71h35.96c17.8,0,34.68-7.86,46.15-21.47l14.68-17.43c5.12-6.08,12.66-9.59,20.61-9.59h41.37c7.95,0,15.49,3.51,20.61,9.59l14.68,17.43c11.46,13.61,28.35,21.47,46.15,21.47h35.96c8.62,0,15.61-6.99,15.61-15.61,0-8.62-6.99-15.61-15.61-15.61h-34.68c-9.4,0-18.32-4.15-24.37-11.34l-13.54-16.07C207.94,7.71,191.36,0,173.89,0h-9.5s0,0,0,0h-21.39s0,0,0,0h-9.5C116.03,0,99.45,7.71,88.2,21.08l-13.54,16.07c-6.05,7.19-14.97,11.34-24.37,11.34H15.61c-8.62,0-15.61,6.99-15.61,15.61s6.99,15.61,15.61,15.61Z"/></g></g></svg>