<?xml version="1.0" encoding="UTF-8"?><svg id="Layer_2" xmlns="http://www.w3.org/2000/svg" viewBox="0 0 143.05 141.99"><g id="_9"><g><path d="M0,27.38v38.48H36.71l30.14-26.29V0H27.73L0,27.38ZM28.78,6.17v28.69L5.13,57.32V29.52L28.78,6.17Zm6.01,54.56H8.99l23.51-22.33h27.88l-25.6,22.33Z"/><path d="M103.93,0l-27.73,27.38v38.48h36.71l30.14-26.29V0h-39.13Zm1.05,6.17v28.69l-23.65,22.46V29.52L104.98,6.17Zm6.01,54.56h-25.8l23.51-22.33h27.88l-25.6,22.33Z"/><path d="M0,103.51v38.48H36.71l30.14-26.29v-39.57H27.73L0,103.51Zm28.78-21.21v28.69l-23.65,22.46v-27.8l23.65-23.35Zm6.01,54.56H8.99l23.51-22.33h27.88l-25.6,22.33Z"/><path d="M76.2,103.51v38.48h36.71l30.14-26.29v-39.57h-39.13l-27.73,27.38Zm28.78-21.21v28.69l-23.65,22.46v-27.8l23.65-23.35Zm6.01,54.56h-25.8l23.51-22.33h27.88l-25.6,22.33Z"/></g></g></svg>