<?xml version="1.0" encoding="UTF-8"?><svg id="Layer_2" xmlns="http://www.w3.org/2000/svg" viewBox="0 0 505.04 127.56"><defs><style>.cls-1{stroke-width:0px;}</style></defs><g id="Elements"><g id="_08"><polygon class="cls-1" points="78.55 0 44.11 53.18 9.67 0 0 6.26 37.25 63.78 0 121.3 9.67 127.56 44.11 74.37 78.55 127.56 88.22 121.3 50.97 63.78 88.22 6.26 78.55 0"/><polygon class="cls-1" points="182.75 0 148.31 53.18 113.87 0 104.2 6.26 141.45 63.78 104.2 121.3 113.87 127.56 148.31 74.37 182.75 127.56 192.42 121.3 155.17 63.78 192.42 6.26 182.75 0"/><polygon class="cls-1" points="286.96 0 252.52 53.18 218.08 0 208.41 6.26 245.66 63.78 208.41 121.3 218.08 127.56 252.52 74.37 286.96 127.56 296.63 121.3 259.38 63.78 296.63 6.26 286.96 0"/><polygon class="cls-1" points="391.16 0 356.72 53.18 322.28 0 312.61 6.26 349.86 63.78 312.61 121.3 322.28 127.56 356.72 74.37 391.16 127.56 400.83 121.3 363.58 63.78 400.83 6.26 391.16 0"/><polygon class="cls-1" points="505.04 6.26 495.37 0 460.93 53.18 426.49 0 416.82 6.26 454.07 63.78 416.82 121.3 426.49 127.56 460.93 74.37 495.37 127.56 505.04 121.3 467.79 63.78 505.04 6.26"/></g></g></svg>