<?xml version="1.0" encoding="UTF-8"?><svg id="Layer_2" xmlns="http://www.w3.org/2000/svg" viewBox="0 0 125.89 125.1"><g id="_7"><g><path d="M83.8,98.17l-.04,.04v-.04l-3.43,1.08c-.71,.22-1.44,.34-2.18,.34h-30c-.74,0-1.48-.11-2.18-.34l-3.43-1.08v.04l-.04-.04-24.04,23.37c-1.33,1.3-.42,3.56,1.44,3.56h18.54c.53,0,1.03-.21,1.42-.57l9.31-7.43c.38-.36,.89-.56,1.42-.56h25.12c.53,0,1.04,.2,1.42,.56l9.31,7.43c.38,.36,.89,.56,1.42,.56h18.54c1.86,0,2.78-2.26,1.44-3.55l-24.04-23.37Z"/><path d="M42.49,26.93l.04-.04v.04l3.43-1.08c.71-.22,1.44-.34,2.18-.34h30c.74,0,1.48,.11,2.18,.34l3.43,1.08v-.04l.04,.04L107.84,3.56C109.17,2.26,108.25,0,106.39,0h-18.54c-.53,0-1.03,.21-1.42,.57l-9.31,7.43c-.38,.36-.89,.56-1.42,.56h-25.12c-.53,0-1.04-.2-1.42-.56L39.85,.57c-.38-.36-.89-.56-1.42-.56H19.89c-1.86,0-2.78,2.26-1.44,3.55l24.04,23.37Z"/><path d="M26.88,83.16h.04l-1.08-3.43c-.22-.71-.34-1.44-.34-2.18v-30c0-.74,.11-1.48,.34-2.18l1.08-3.43h-.04l.04-.04L3.56,17.85C2.26,16.52,0,17.44,0,19.3v18.54c0,.53,.21,1.03,.57,1.42l7.43,9.31c.36,.38,.56,.89,.56,1.42v25.12c0,.53-.2,1.04-.56,1.42L.57,85.84c-.36,.38-.56,.89-.56,1.42v18.54c0,1.86,2.26,2.78,3.55,1.44l23.37-24.04-.04-.04Z"/><path d="M125.32,85.84l-7.43-9.31c-.36-.38-.56-.89-.56-1.42v-25.12c0-.53,.2-1.04,.56-1.42l7.43-9.31c.36-.38,.56-.89,.56-1.42V19.3c0-1.86-2.26-2.78-3.55-1.44l-23.37,24.04,.04,.04h-.04l1.08,3.43c.22,.71,.34,1.44,.34,2.18v30c0,.74-.11,1.48-.34,2.18l-1.08,3.43h.04l-.04,.04,23.37,24.04c1.3,1.33,3.56,.42,3.56-1.44v-18.54c0-.53-.21-1.03-.57-1.42Z"/></g></g></svg>