<?xml version="1.0" encoding="UTF-8"?><svg id="Layer_2" xmlns="http://www.w3.org/2000/svg" viewBox="0 0 125.04 125.04"><g id="_9"><g><path d="M37.78,41.48c2.1,.43,4.11,.84,5.78,.78,.09-1.74,.04-3.6-.01-5.55-.05-1.99-.11-4.05-.02-6.13-.22,1.54-.59,3.08-1.19,4.6l-.18,.4c-.35,.69-.79,1.3-1.31,1.83-1.78,1.78-4.49,2.55-7.41,2-2.19-.34-4.25-.91-6.25-1.46-5.66-1.56-8.25-2.01-10.64-.09-.72,.67-1.42,1.37-2.16,2.11L.62,53.72C.1,57.39-.09,61.11,.04,64.81l19.49-19.49c5.73-6.42,12.96-4.93,18.25-3.84Z"/><path d="M10.05,30.23c6.67-5.55,13.94-3.55,19.78-1.94,1.31,.36,2.57,.71,3.78,.97,.35-2.34,.12-5.05-.12-7.87-.39-4.65-.86-10.13,1.55-15.05-6.04,2.96-11.71,6.94-16.73,11.97-4.33,4.33-7.89,9.14-10.68,14.26,.71-.71,1.44-1.44,2.22-2.16l.2-.17Z"/><path d="M48.84,16.04c.78-.79,1.55-1.57,2.32-2.34L64.81,.04c-3.7-.13-7.42,.05-11.1,.58l-5.49,5.49c-.75,.75-1.5,1.5-2.26,2.27l-.14,.15-.16,.14c-2.86,2.47-2.71,5.95-2.21,11.88,.19,2.22,.39,4.59,.31,7.01,.51-3.94,1.8-7.85,4.88-11.33l.18-.2Z"/><path d="M42.33,72.01l.25-.2c6.2-4.6,12.92-3.38,18.32-2.39,1.59,.29,3.11,.57,4.55,.7,.24-2.2,.16-4.55,.06-6.99-.19-5.01-.4-10.69,2.39-16.27l.24-.47,.33-.41c.88-1.11,1.8-2.05,2.66-2.92l29.85-29.85c-2.01-1.57-4.09-3-6.23-4.29l-26.48,26.48c-.87,.87-1.56,1.59-2.17,2.26l-.08,.08c-2.37,2.49-2.31,5.53-2,10.69,.25,4.09,.52,8.73-1.32,13.35l-.38,.95-.73,.73c-1.4,1.4-3.1,1.97-4.22,2.34l-.48,.16-.5,.06c-3.57,.43-6.84-.26-9.73-.86-3.95-.83-6.12-1.2-8.07,.15-.64,.48-1.28,1.07-1.93,1.69l-27.73,27.73c1.29,2.14,2.72,4.22,4.29,6.23l26.46-26.46c.82-.82,1.67-1.67,2.66-2.51Z"/><path d="M124.36,53.29l-23.9,23.9c-.62,.62-1.26,1.28-1.8,2-1.72,2.46-1.65,5.49-1.39,10.21,.2,3.6,.42,7.68-.76,11.79l-.06,.21c-.36,1.09-.93,1.92-1.56,2.55-1.25,1.25-2.77,1.76-3.58,2.03l-.58,.19-.61,.05c-3.11,.24-6.08-.28-8.96-.78-5.29-.92-7.81-1.12-9.75,.82-.76,.76-1.51,1.51-2.25,2.24l-15.87,15.87c3.26,.48,6.55,.71,9.84,.68l11.29-11.29c.85-.85,1.78-1.76,2.89-2.58l.28-.21,.3-.17c5.91-3.26,12.03-2.01,16.95-1.01,1.29,.26,2.54,.52,3.71,.68,.46-2.21,.29-4.79,.1-7.48-.38-5.54-.84-12.44,4.6-18.05,.83-.85,1.66-1.68,2.48-2.5l19.31-19.31c.03-3.29-.19-6.58-.68-9.84Z"/><path d="M64.34,99.17c5.81-5.81,13.16-4.53,18.53-3.59,1.56,.27,3.07,.53,4.44,.64,.21-1.95,.09-4.07-.03-6.29-.28-5.23-.6-11.16,3.27-16.6l.08-.1c.93-1.24,1.92-2.27,2.77-3.12l28.18-28.18c-.88-2.52-1.92-4.99-3.12-7.4l-27.88,27.88c-.77,.8-1.54,1.58-2.3,2.39l-.03,.03c-2.53,2.63-2.63,6.07-2.59,11.47,.02,3.09,.05,6.29-.65,9.56l-.06,.27-.09,.26c-.27,.81-.78,2.33-2.03,3.58-.64,.64-1.46,1.2-2.55,1.56l-.21,.06c-3.96,1.13-7.88,.84-11.33,.59-4.77-.35-7.56-.45-9.6,1.66l-.06,.06-24.53,24.53c2.41,1.21,4.88,2.25,7.4,3.12l20.15-20.15c.74-.74,1.49-1.49,2.25-2.25Z"/><path d="M83.02,119.4c-.49,.4-.98,.89-1.52,1.43l-1.84,1.84c3.35-.95,6.64-2.19,9.82-3.71-2.45-.38-4.62-.44-6.46,.44Z"/><path d="M110.42,91.92c-2.22,2.29-2.13,5.29-1.79,10.4,.05,.74,.1,1.51,.14,2.28,6.7-7.35,11.33-15.92,13.89-24.94l-9.86,9.86c-.79,.79-1.59,1.59-2.38,2.4Z"/><path d="M32.66,57.26l.09-.07c5.62-3.98,11.35-2.78,15.95-1.82,1.85,.39,3.62,.76,5.24,.78,.39-2.14,.24-4.58,.09-7.12-.33-5.52-.74-12.38,4.69-18.14,.71-.78,1.49-1.59,2.46-2.57L85.25,4.26c-2.62-1.02-5.29-1.86-8.01-2.52l-18.99,18.99c-.74,.74-1.47,1.48-2.2,2.22-2.8,3.25-2.67,8-2.52,13.48,.07,2.67,.15,5.42-.14,8.17l-.02,.23-.05,.23c-.27,1.35-.91,3.04-2.38,4.51-.67,.67-1.5,1.29-2.55,1.81l-.47,.24-.51,.13c-4.12,1.07-8.12,.25-11.66-.48-5.44-1.12-7.15-1.15-8.82,.77l-.23,.25L1.75,77.25c.65,2.71,1.49,5.39,2.52,8.01l25.46-25.46c.88-.83,1.83-1.71,2.93-2.54Z"/><path d="M69.47,82.22c2.12,.16,4.16,.31,5.98,.12,.23-1.84,.21-3.85,.19-5.96-.04-5.69-.1-12.76,5.37-18.46,.79-.84,1.59-1.66,2.39-2.48l.07-.07,29.63-29.63c-1.45-1.99-3.04-3.92-4.76-5.76l-30.13,30.13c-.55,.56-1.1,1.12-1.59,1.69-1.41,3.17-1.27,6.79-1.12,10.95,.14,3.81,.29,7.75-.72,11.92l-.12,.41c-.35,1.05-.99,2.07-1.83,2.91-1.51,1.51-3.7,2.49-6.13,2.2-2.66-.04-5.18-.5-7.61-.94-4.94-.9-7.88-1.32-10.44,.49-.63,.54-1.26,1.17-1.92,1.83l-26.76,26.76c1.85,1.72,3.77,3.3,5.76,4.76l26.23-26.23c5.39-5.56,12.1-5.05,17.5-4.65Z"/><path d="M43.52,30.57c.14-1.01,.22-2.01,.25-3.01-.13,1-.21,2.01-.25,3.01Z"/></g></g></svg>