<?xml version="1.0" encoding="UTF-8"?><svg id="Layer_2" xmlns="http://www.w3.org/2000/svg" viewBox="0 0 134.97 134.97"><g id="_3"><g><path d="M67.48,0C30.27,0,0,30.27,0,67.48s30.27,67.48,67.48,67.48,67.48-30.27,67.48-67.48S104.69,0,67.48,0Zm0,130.67c-34.84,0-63.19-28.35-63.19-63.19S32.64,4.29,67.48,4.29s63.19,28.35,63.19,63.19-28.35,63.19-63.19,63.19Z"/><path d="M79.63,52.39c4.23,0,7.65-3.47,7.65-7.75s-3.43-7.75-7.65-7.75-7.65,3.47-7.65,7.75,3.43,7.75,7.65,7.75Z"/><path d="M55.33,52.39c4.23,0,7.65-3.47,7.65-7.75s-3.43-7.75-7.65-7.75-7.65,3.47-7.65,7.75,3.43,7.75,7.65,7.75Z"/><path d="M68.59,77.92c-19.41,0-35.19-12.88-35.19-28.71h-4.29c0,18.2,17.71,33.01,39.49,33.01s39.49-14.81,39.49-33.01h-4.29c0,15.83-15.79,28.71-35.19,28.71Z"/></g></g></svg>