<?xml version="1.0" encoding="UTF-8"?><svg id="Layer_2" xmlns="http://www.w3.org/2000/svg" viewBox="0 0 120.37 120.37"><g id="_9"><path d="M87.86,7.4l-4.69-4.69c-3.46-3.46-9.06-3.46-12.52,0l-4.36,4.36c-3.46,3.46-9.06,3.46-12.52,0l-4.47-4.47c-3.46-3.46-9.06-3.46-12.52,0l-4.58,4.58c-3.46,3.46-3.46,9.06,0,12.52l4.47,4.47c3.46,3.46,3.46,9.06,0,12.52h0c-3.46,3.46-9.06,3.46-12.52,0l-4.47-4.47c-3.46-3.46-9.06-3.46-12.52,0l-4.58,4.58c-3.46,3.46-3.46,9.06,0,12.52l4.47,4.47c3.46,3.46,3.46,9.06,0,12.52l-4.36,4.36c-3.46,3.46-3.46,9.06,0,12.52l4.69,4.69c3.46,3.46,9.06,3.46,12.52,0l4.36-4.36c3.46-3.46,9.06-3.46,12.52,0l.08,.08c3.46,3.46,3.46,9.06,0,12.52l-4.36,4.36c-3.46,3.46-3.46,9.06,0,12.52l4.69,4.69c3.46,3.46,9.06,3.46,12.52,0l4.36-4.36c3.46-3.46,9.06-3.46,12.52,0l4.47,4.47c3.46,3.46,9.06,3.46,12.52,0l4.58-4.58c3.46-3.46,3.46-9.06,0-12.52l-4.47-4.47c-3.46-3.46-3.46-9.06,0-12.52h0c3.46-3.46,9.06-3.46,12.52,0l4.47,4.47c3.46,3.46,9.06,3.46,12.52,0l4.58-4.58c3.46-3.46,3.46-9.06,0-12.52l-4.47-4.47c-3.46-3.46-3.46-9.06,0-12.52l4.36-4.36c3.46-3.46,3.46-9.06,0-12.52l-4.69-4.69c-3.46-3.46-9.06-3.46-12.52,0l-4.36,4.36c-3.46,3.46-9.06,3.46-12.52,0l-.08-.08c-3.46-3.46-3.46-9.06,0-12.52l4.36-4.36c3.46-3.46,3.46-9.06,0-12.52Zm-21.38,59.09h0c-3.46,3.46-9.06,3.46-12.52,0l-.08-.08c-3.46-3.46-3.46-9.06,0-12.52h0c3.46-3.46,9.06-3.46,12.52,0l.08,.08c3.46,3.46,3.46,9.06,0,12.52Z"/></g></svg>