<?xml version="1.0" encoding="UTF-8"?><svg id="Layer_2" xmlns="http://www.w3.org/2000/svg" viewBox="0 0 131.19 131.19"><g id="_5"><g><path d="M69.88,.14C30.34-2.39-2.39,30.34,.14,69.88c2.09,32.68,28.49,59.08,61.17,61.17,39.54,2.53,72.27-30.2,69.75-69.75C128.96,28.63,102.57,2.23,69.88,.14Zm-.28,126.68C32.62,129.18,2.01,98.57,4.38,61.59,6.33,31.02,31.02,6.33,61.59,4.38c36.98-2.36,67.59,28.25,65.23,65.23-1.95,30.57-26.64,55.26-57.21,57.21Z"/><path d="M35.76,76.26v-21.32c0-1.52-1.64-2.47-2.96-1.71l-18.47,10.66c-1.31,.76-1.31,2.66,0,3.41l18.47,10.66c1.31,.76,2.96-.19,2.96-1.71Z"/><path d="M95.43,54.93v21.32c0,1.52,1.64,2.47,2.96,1.71l18.47-10.66c1.31-.76,1.31-2.66,0-3.41l-18.47-10.66c-1.31-.76-2.96,.19-2.96,1.71Z"/><path d="M67.3,116.75l10.66-18.47c.76-1.31-.19-2.96-1.71-2.96h-21.32c-1.52,0-2.47,1.64-1.71,2.96l10.66,18.47c.76,1.31,2.66,1.31,3.41,0Z"/><path d="M54.93,35.66h21.32c1.52,0,2.47-1.64,1.71-2.96l-10.66-18.47c-.76-1.31-2.66-1.31-3.41,0l-10.66,18.47c-.76,1.31,.19,2.96,1.71,2.96Z"/></g></g></svg>