<?xml version="1.0" encoding="UTF-8"?><svg id="Layer_2" xmlns="http://www.w3.org/2000/svg" viewBox="0 0 180.59 87.86"><g id="_9"><path d="M153.53,12.43C138.29,5.22,118.57,.92,97.38,.13c-1.55-.09-3.12-.13-4.7-.13-.32,0-.63,0-.95,0-.48,0-.96,0-1.44,0-23.85,0-46.31,4.42-63.23,12.43C9.61,20.7,0,31.88,0,43.93s9.61,23.23,27.06,31.49c16.93,8.02,39.38,12.43,63.23,12.43,.48,0,.96,0,1.44,0,.32,0,.63,0,.95,0,1.58,0,3.14-.05,4.7-.13,21.18-.79,40.9-5.08,56.14-12.3,17.45-8.27,27.06-19.45,27.06-31.49s-9.61-23.23-27.06-31.49Zm-1.88,3.98c14.69,6.96,23.25,15.88,24.4,25.31h-23.35c-.73-11.04-6.99-21.3-17.79-29.09-2.08-1.5-4.28-2.87-6.59-4.12,8.55,1.97,16.43,4.62,23.33,7.89ZM90.48,4.66V41.73h-17.56c.55-18.98,8.18-34.88,17.56-37.07Zm0,41.47v37.07c-9.38-2.18-17-18.08-17.56-37.07h17.56Zm4.4,37.07V46.13h17.56c-.55,18.98-8.18,34.88-17.56,37.07Zm0-41.47V4.66c9.38,2.18,17,18.08,17.56,37.07h-17.56Zm-26.36,0h-31.42c1.4-17.97,19.78-32.78,43.91-36.45-7.19,7.05-12.08,20.51-12.49,36.45Zm0,4.4c.41,15.94,5.3,29.4,12.49,36.45-24.13-3.67-42.52-18.48-43.91-36.45h31.42Zm48.33,0h31.42c-1.4,17.97-19.78,32.78-43.91,36.45,7.19-7.05,12.08-20.51,12.49-36.45Zm0-4.4c-.41-15.94-5.3-29.4-12.49-36.45,24.13,3.67,42.52,18.48,43.91,36.45h-31.42ZM28.95,16.41c9.01-4.27,19.68-7.48,31.32-9.5-3.49,1.64-6.77,3.55-9.79,5.73-10.81,7.79-17.06,18.05-17.79,29.09H4.54c1.16-9.44,9.71-18.36,24.4-25.31Zm0,55.03c-14.69-6.96-23.25-15.88-24.4-25.31h28.14c.73,11.04,6.99,21.3,17.79,29.09,3.02,2.18,6.3,4.09,9.79,5.73-11.64-2.02-22.31-5.23-31.32-9.5Zm122.7,0c-6.91,3.27-14.79,5.92-23.33,7.89,2.31-1.25,4.51-2.62,6.59-4.12,10.81-7.79,17.06-18.05,17.79-29.09h23.35c-1.16,9.44-9.71,18.36-24.4,25.31Z"/></g></svg>