<?xml version="1.0" encoding="UTF-8"?><svg id="Layer_2" xmlns="http://www.w3.org/2000/svg" viewBox="0 0 120.73 57.34"><g id="_7"><path d="M0,24.73v7.88c0,13.66,11.07,24.73,24.73,24.73H96c13.66,0,24.73-11.07,24.73-24.73v-7.88c0-13.66-11.07-24.73-24.73-24.73H24.73C11.07,0,0,11.07,0,24.73ZM28.67,3.94h4.99c13.66,0,24.73,11.07,24.73,24.73h0c0,13.66-11.07,24.73-24.73,24.73h-4.99c-13.66,0-24.73-11.07-24.73-24.73h0c0-13.66,11.07-24.73,24.73-24.73Zm63.39,49.47h-4.99c-13.66,0-24.73-11.07-24.73-24.73h0c0-13.66,11.07-24.73,24.73-24.73h4.99c13.66,0,24.73,11.07,24.73,24.73h0c0,13.66-11.07,24.73-24.73,24.73Z"/></g></svg>