<?xml version="1.0" encoding="UTF-8"?><svg id="Layer_2" xmlns="http://www.w3.org/2000/svg" viewBox="0 0 126.07 126.07"><g id="_9"><g><path d="M61.98,64.09h.12s-.08-.06-.12-.09v-2.31c-.36,.51-.71,1.02-1.04,1.54-2.21-1.65-4.33-3.46-6.31-5.44-7.2-2.96-14.9-4.36-22.57-4.26,4.56-7.85,5.91-16.56,5.03-25.16h24.89V61.68c.67-.96,1.37-1.92,2.1-2.85,5.87-7.13,8.56-15.27,8.93-23.55,7.91,2.95,16.37,3.91,24.69,3.13v23.26c.67-.96,1.37-1.92,2.1-2.85,5.67-6.89,8.21-14.55,8.6-22.4,6.28-1.75,12.28-4.48,17.67-8.07h-17.99c-1.22-9.89-5.3-19.74-10.38-28.37V28.37h-24.89c-1.03-10.15-5.17-20.14-10.83-28.37V27.07c-8.16-5.24-17.54-8.36-27-9.07-1.96-6.46-5.01-12.61-8.72-18V18.05c-9.41,.82-18.55,4.15-26.26,10.32H26.26v25.51c-9.36,1.08-18.46,4.48-26.26,10.21H24.87c-4.96,8.25-8.05,17.43-8.85,26.66-5.84,1.96-11.31,5.02-16.02,9.06H15.99c.77,9.3,4.03,18.36,10.27,26.26v-26.26h25.6c.95,9.3,4.29,18.36,10.12,26.26v-26.26h1.06c-.35-.22-.7-.44-1.06-.65v-35.07Zm-10.38,28.84c-8.08-3.98-16.86-5.33-25.34-4.43v-24.41H60.39c-5.58,8.9-8.54,18.88-8.79,28.84Z"/><path d="M126.07,64.09h-28.37v-2.41c-.55,.79-1.09,1.59-1.6,2.41H62.11c8.56,6.06,18.57,9.65,28.76,10.38-3.19,8.2-4.51,16.91-3.78,25.34h-24.05c8.29,5.11,16.59,9.63,26.13,10.6,1.77,5.63,4.59,10.94,8.53,15.66v-15.76c10.51-1.05,19.96-5.25,28.37-10.51h-28.37v-25.29c9.94-.55,19.79-3.9,28.37-10.43Z"/></g></g></svg>