<?xml version="1.0" encoding="UTF-8"?><svg id="Layer_2" xmlns="http://www.w3.org/2000/svg" viewBox="0 0 136.11 116.08"><g id="_7"><g><path d="M121.74,90.68l-32.64-32.64L121.44,25.69c6.16-6.16,6.08-16.39-.52-22.09-5.84-5.04-14.68-4.79-20.23,.75l-32.64,32.64L35.71,4.65C29.55-1.51,19.32-1.43,13.62,5.17c-5.04,5.84-4.79,14.68,.75,20.23L47.02,58.04,14.67,90.39c-6.16,6.16-6.08,16.39,.52,22.09,5.84,5.04,14.68,4.79,20.23-.75l32.64-32.64,32.35,32.35c6.16,6.16,16.39,6.08,22.09-.51,5.05-5.84,4.79-14.68-.75-20.23Z"/><path d="M12.84,63.47c6.04-7.94-2.93-16.91-10.86-10.86-6.04,7.94,2.93,16.91,10.86,10.86Z"/><path d="M134.13,52.61c-7.94-6.04-16.91,2.93-10.86,10.86,7.94,6.04,16.91-2.93,10.86-10.86Z"/></g></g></svg>