<?xml version="1.0" encoding="UTF-8"?><svg id="Layer_2" xmlns="http://www.w3.org/2000/svg" viewBox="0 0 341.42 131.6"><defs><style>.cls-1{stroke-width:0px;}</style></defs><g id="Elements"><g id="_14"><path class="cls-1" d="m155.89,5.93l-52.03,52.03c-3.06,3.06-7.21,4.78-11.54,4.78h-42.45c-4.68,0-9.17,1.84-12.51,5.12L4.91,99.73c-10.42,10.24-3.17,27.96,11.44,27.96h68.19c4.33,0,8.48-1.72,11.54-4.78l88.43-88.43c7.89-7.89,7.89-20.67,0-28.55-7.9-7.9-20.71-7.9-28.62,0Z"/><path class="cls-1" d="m325.07,3.91h-68.19c-4.33,0-8.48,1.72-11.54,4.78l-88.43,88.43c-7.88,7.88-7.88,20.67,0,28.55h0c7.9,7.9,20.71,7.9,28.62,0l52.03-52.03c3.06-3.06,7.21-4.78,11.54-4.78h42.45c4.68,0,9.17-1.84,12.51-5.12l32.45-31.88c10.42-10.24,3.17-27.96-11.44-27.96Z"/></g></g></svg>