<?xml version="1.0" encoding="UTF-8"?><svg id="Layer_2" xmlns="http://www.w3.org/2000/svg" viewBox="0 0 148.22 148.22"><g id="_2"><path d="M145.74,71.76h-59.77s-.03-.03,0-.04l55.29-23.03c1.26-.53,1.82-2.03,1.18-3.27-.57-1.1-1.95-1.5-3.09-1.03l-55.06,22.94s-.04-.02-.02-.04L126.43,25.11c.88-.88,1.02-2.3,.23-3.25-.9-1.07-2.5-1.12-3.47-.16l-42.64,42.64s-.05,0-.04-.02L102.7,8.25c.48-1.21-.11-2.57-1.32-3.05-1.21-.48-2.57,.11-3.05,1.32l-21.83,55.15s-.04,.02-.04,0V2.47c0-1.24-.9-2.35-2.14-2.46-1.39-.12-2.56,.97-2.56,2.34V62.24s-.03,.03-.04,0L48.68,6.97c-.5-1.2-1.88-1.77-3.07-1.27-1.2,.5-1.76,1.88-1.27,3.07l22.98,55.17s-.02,.04-.04,.02L25.03,21.71c-.97-.97-2.57-.92-3.47,.16-.8,.95-.65,2.38,.23,3.25l42.55,42.55s0,.05-.02,.04L8.25,45.51c-1.21-.48-2.57,.11-3.05,1.32-.48,1.21,.11,2.57,1.32,3.05l55.15,21.83s.02,.04,0,.04H2.47c-1.24,0-2.35,.9-2.46,2.14-.12,1.39,.97,2.56,2.34,2.56H62.24s.03,.03,0,.04L6.97,99.53c-1.2,.5-1.76,1.88-1.27,3.07,.38,.9,1.25,1.45,2.17,1.45,.3,0,.61-.06,.9-.18l55.17-22.98s.04,.02,.02,.04L21.8,123.09c-.96,.96-1.02,2.58-.02,3.49,.45,.41,1.02,.61,1.59,.61,.6,0,1.2-.23,1.66-.69l42.64-42.64s.05,0,.04,.02l-22.19,56.07c-.48,1.21,.11,2.57,1.32,3.05,.28,.11,.58,.17,.86,.17,.94,0,1.82-.56,2.19-1.49l21.83-55.15s.04-.02,.04,0v59.19c0,1.24,.9,2.35,2.14,2.46,1.39,.12,2.56-.97,2.56-2.34v-59.89s.03-.03,.04,0l23.03,55.29c.38,.9,1.25,1.45,2.17,1.45,.3,0,.61-.06,.9-.18,1.2-.5,1.76-1.88,1.27-3.07l-22.98-55.17s.02-.04,.04-.02l42.26,42.26c.46,.46,1.06,.69,1.66,.69,.57,0,1.14-.21,1.59-.61,1-.91,.94-2.54-.02-3.49l-42.54-42.54s0-.05,.02-.04l56.07,22.19c.28,.11,.58,.17,.86,.17,.94,0,1.82-.56,2.19-1.49,.48-1.21-.11-2.57-1.32-3.05l-55.15-21.83s-.02-.04,0-.04h59.32c1.37,0,2.46-1.17,2.34-2.56-.11-1.23-1.22-2.14-2.46-2.14Z"/></g></svg>