<?xml version="1.0" encoding="UTF-8"?><svg id="Layer_2" xmlns="http://www.w3.org/2000/svg" viewBox="0 0 95.84 103.85"><g id="_5"><path d="M88.23,28.41v-6.89h-7.22v-7.71h-7.61V6.93h-8.47V0H0V75.44H8.47v6.93h7.61v6.89h7.22v7.71h7.61v6.89H95.84V28.41h-7.61Zm-3.12-3.77v3.77h-4.1v-3.77h4.1ZM16.08,72.32h-4.49V10.05H61.82v3.77H16.08v58.51Zm3.12-55.39H61.82v4.59H23.3v50.8h-4.1V16.93Zm51.09,11.48h-5.35v-3.77h5.35v3.77Zm3.12-3.77h4.49v3.77h-4.49v-3.77ZM30.91,72.32h-4.49V24.64H61.82v3.77H30.91v43.91Zm3.12-40.8h27.79v40.8h-27.79V31.53Zm30.91,43.91V31.53h5.35v47.72H34.03v-3.81h30.91Zm0-53.92v-4.59h5.35v4.59h-5.35ZM23.3,75.44v3.81h-4.1v-3.81h4.1Zm3.12,0h4.49v3.81h-4.49v-3.81Zm4.49,6.93v3.77h-4.49v-3.77h4.49Zm3.12,0h39.37V31.53h4.49v54.61H34.03v-3.77Zm46.99,6.89V31.53h4.1v62.32H34.03v-4.59h46.99Zm-3.12-72.32v4.59h-4.49v-4.59h4.49Zm-7.61-6.89v3.77h-5.35v-3.77h5.35ZM3.12,72.32V3.12H61.82v3.81H8.47V72.32H3.12Zm8.47,6.93v-3.81h4.49v3.81h-4.49Zm7.61,6.89v-3.77h4.1v3.77h-4.1Zm7.22,7.71v-4.59h4.49v4.59h-4.49Zm66.31,6.89H34.03v-3.77h54.2V31.53h4.49V100.74Z"/></g></svg>