<?xml version="1.0" encoding="UTF-8"?><svg id="Layer_2" xmlns="http://www.w3.org/2000/svg" viewBox="0 0 247.64 211.19"><defs><style>.cls-1{stroke-width:0px;}</style></defs><g id="Elements"><g id="_23"><path class="cls-1" d="m221.49,164.99l-39.72-39.72c-10.86-10.86-10.86-28.47,0-39.33l39.22-39.22c10.4-10.4,11.2-27.37,1.15-38.11-10.51-11.23-28.14-11.45-38.92-.67l-39.72,39.72c-10.86,10.86-28.47,10.86-39.33,0L64.93,8.43C54.53-1.97,37.56-2.77,26.82,7.28c-11.23,10.51-11.45,28.14-.67,38.92l39.72,39.72c10.86,10.86,10.86,28.47,0,39.33l-39.22,39.22c-10.4,10.4-11.2,27.37-1.15,38.11,10.51,11.23,28.14,11.45,38.92.67l39.72-39.72c10.86-10.86,28.47-10.86,39.33,0l39.22,39.22c10.4,10.4,27.37,11.2,38.11,1.15,11.23-10.51,11.45-28.14.67-38.92Z"/><ellipse class="cls-1" cx="13.49" cy="105.6" rx="13.42" ry="13.53" transform="translate(-70.68 40.41) rotate(-44.96)"/><path class="cls-1" d="m236.44,92.3c-9.23-1.51-17.1,6.35-15.58,15.59.92,5.59,5.43,10.1,11.02,11.02,9.23,1.51,17.1-6.35,15.59-15.59-.92-5.59-5.43-10.1-11.02-11.02Z"/></g></g></svg>