<?xml version="1.0" encoding="UTF-8"?><svg id="Layer_2" xmlns="http://www.w3.org/2000/svg" viewBox="0 0 306.35 182.68"><defs><style>.cls-1{stroke-width:0px;}</style></defs><g id="Elements"><g id="_04"><path class="cls-1" d="m304.22,141.05l-49.72-49.72,49.72-49.72c4.54-4.54,1.33-12.31-5.1-12.31h-42.52c-3.98,0-7.21,3.23-7.21,7.21v16.98c0,1.91-.76,3.75-2.11,5.1l-12.76,12.76-17.83-17.83c-4.53-4.53-1.35-12.26,5.03-12.31,3.97-.03,7.28-2.97,7.28-6.93v-14.82c0-1.91-.76-3.75-2.11-5.1l-12.25-12.25c-1.35-1.35-3.19-2.11-5.1-2.11h-42.96c-3.98,0-7.21,3.23-7.21,7.21v25.97c0,1.91.76,3.75,2.11,5.1l48.6,48.6c2.46,2.46,2.46,6.45,0,8.91l-48.6,48.6c-1.35,1.35-2.11,3.19-2.11,5.1v25.97c0,3.98,3.23,7.21,7.21,7.21h42.96c1.91,0,3.75-.76,5.1-2.11l12.25-12.25c1.35-1.35,2.11-3.19,2.11-5.1v-14.81c0-3.97-3.31-6.9-7.28-6.93-6.38-.06-9.56-7.79-5.03-12.31l17.83-17.83,12.75,12.76c1.35,1.35,2.11,3.19,2.11,5.1v16.98c0,3.98,3.23,7.21,7.21,7.21h42.52c6.43,0,9.64-7.77,5.1-12.31Z"/><path class="cls-1" d="m96.26,95.8c-2.46-2.46-2.46-6.45,0-8.91l48.6-48.6c1.35-1.35,2.11-3.19,2.11-5.1V7.21c0-3.98-3.23-7.21-7.21-7.21h-42.96c-1.91,0-3.75.76-5.1,2.11l-12.25,12.25c-1.35,1.35-2.11,3.19-2.11,5.1v14.82c0,3.97,3.31,6.9,7.28,6.93,6.38.06,9.56,7.79,5.03,12.31l-17.83,17.83-12.76-12.76c-1.35-1.35-2.11-3.19-2.11-5.1v-16.98c0-3.98-3.23-7.21-7.21-7.21H7.23c-6.43,0-9.64,7.77-5.1,12.31l49.72,49.72L2.13,141.05c-4.54,4.54-1.33,12.31,5.1,12.31h42.52c3.98,0,7.21-3.23,7.21-7.21v-16.98c0-1.91.76-3.75,2.11-5.1l12.75-12.76,17.83,17.83c4.53,4.53,1.35,12.26-5.03,12.31-3.97.03-7.28,2.97-7.28,6.93v14.81c0,1.91.76,3.75,2.11,5.1l12.25,12.25c1.35,1.35,3.19,2.11,5.1,2.11h42.96c3.98,0,7.21-3.23,7.21-7.21v-25.97c0-1.91-.76-3.75-2.11-5.1l-48.6-48.6Z"/><rect class="cls-1" x="144.46" y="81.37" width="19.94" height="19.94" rx="1.58" ry="1.58" transform="translate(-19.35 135.95) rotate(-45)"/></g></g></svg>