<?xml version="1.0" encoding="UTF-8"?><svg id="Layer_2" xmlns="http://www.w3.org/2000/svg" viewBox="0 0 1338.47 156.48"><defs><style>.cls-1{stroke-width:0px;}</style></defs><g id="Elements"><g id="_17"><path class="cls-1" d="m8.51,17.01h72.97c4.7,0,8.51-3.81,8.51-8.51s-3.81-8.51-8.51-8.51H8.51C3.81,0,0,3.81,0,8.51s3.81,8.51,8.51,8.51Z"/><path class="cls-1" d="m167,17.01h142.24c4.7,0,8.51-3.81,8.51-8.51s-3.81-8.51-8.51-8.51h-142.24c-4.7,0-8.51,3.81-8.51,8.51s3.81,8.51,8.51,8.51Z"/><path class="cls-1" d="m249.82,139.47h-91.58c-4.7,0-8.51,3.81-8.51,8.51s3.81,8.51,8.51,8.51h91.58c4.7,0,8.51-3.81,8.51-8.51s-3.81-8.51-8.51-8.51Z"/><path class="cls-1" d="m100.24,139.31H8.66c-4.7,0-8.51,3.81-8.51,8.51s3.81,8.51,8.51,8.51h91.58c4.7,0,8.51-3.81,8.51-8.51s-3.81-8.51-8.51-8.51Z"/><path class="cls-1" d="m480.03,0h-18.18c-4.7,0-8.51,3.81-8.51,8.51s3.81,8.51,8.51,8.51h18.18c4.7,0,8.51-3.81,8.51-8.51s-3.81-8.51-8.51-8.51Z"/><path class="cls-1" d="m411.89,8.51c0-4.7-3.81-8.51-8.51-8.51h-56.35c-4.7,0-8.51,3.81-8.51,8.51s3.81,8.51,8.51,8.51h56.35c4.7,0,8.51-3.81,8.51-8.51Z"/><path class="cls-1" d="m310.08,78.24c0-4.7-3.81-8.51-8.51-8.51h-21.34c-4.7,0-8.51,3.81-8.51,8.51s3.81,8.51,8.51,8.51h21.34c4.7,0,8.51-3.81,8.51-8.51Z"/><path class="cls-1" d="m422.14,78.24c0-4.7-3.81-8.51-8.51-8.51h-47.48c-4.7,0-8.51,3.81-8.51,8.51s3.81,8.51,8.51,8.51h47.48c4.7,0,8.51-3.81,8.51-8.51Z"/><path class="cls-1" d="m337.05,139.47h-22.72c-4.7,0-8.51,3.81-8.51,8.51s3.81,8.51,8.51,8.51h22.72c4.7,0,8.51-3.81,8.51-8.51s-3.81-8.51-8.51-8.51Z"/><path class="cls-1" d="m450.54,139.47h-22.72c-4.7,0-8.51,3.81-8.51,8.51s3.81,8.51,8.51,8.51h22.72c4.7,0,8.51-3.81,8.51-8.51s-3.81-8.51-8.51-8.51Z"/><path class="cls-1" d="m564.04,139.47h-53.95c-4.7,0-8.51,3.81-8.51,8.51s3.81,8.51,8.51,8.51h53.95c4.7,0,8.51-3.81,8.51-8.51s-3.81-8.51-8.51-8.51Z"/><path class="cls-1" d="m560.28,78.24c0-4.7-3.81-8.51-8.51-8.51h-53.95c-4.7,0-8.51,3.81-8.51,8.51s3.81,8.51,8.51,8.51h53.95c4.7,0,8.51-3.81,8.51-8.51Z"/><path class="cls-1" d="m639.7,139.47h-25.32c-4.7,0-8.51,3.81-8.51,8.51s3.81,8.51,8.51,8.51h25.32c4.7,0,8.51-3.81,8.51-8.51s-3.81-8.51-8.51-8.51Z"/><path class="cls-1" d="m639.7,69.73h-25.32c-4.7,0-8.51,3.81-8.51,8.51s3.81,8.51,8.51,8.51h25.32c4.7,0,8.51-3.81,8.51-8.51s-3.81-8.51-8.51-8.51Z"/><path class="cls-1" d="m640.07,0h-56.35c-4.7,0-8.51,3.81-8.51,8.51s3.81,8.51,8.51,8.51h56.35c4.7,0,8.51-3.81,8.51-8.51s-3.81-8.51-8.51-8.51Z"/><path class="cls-1" d="m171.87,78.24c0-4.7-3.81-8.51-8.51-8.51h-27.01c-4.7,0-8.51,3.81-8.51,8.51s3.81,8.51,8.51,8.51h27.01c4.7,0,8.51-3.81,8.51-8.51Z"/><path class="cls-1" d="m190.53,69.73c-4.7,0-8.51,3.81-8.51,8.51s3.81,8.51,8.51,8.51h27.01c4.7,0,8.51-3.81,8.51-8.51s-3.81-8.51-8.51-8.51h-27.01Z"/><path class="cls-1" d="m8.51,86.75h31.04c4.7,0,8.51-3.81,8.51-8.51s-3.81-8.51-8.51-8.51H8.51c-4.7,0-8.51,3.81-8.51,8.51s3.81,8.51,8.51,8.51Z"/><path class="cls-1" d="m698.4,17.01h72.97c4.7,0,8.51-3.81,8.51-8.51s-3.81-8.51-8.51-8.51h-72.97c-4.7,0-8.51,3.81-8.51,8.51s3.81,8.51,8.51,8.51Z"/><path class="cls-1" d="m856.89,17.01h142.24c4.7,0,8.51-3.81,8.51-8.51s-3.81-8.51-8.51-8.51h-142.24c-4.7,0-8.51,3.81-8.51,8.51s3.81,8.51,8.51,8.51Z"/><path class="cls-1" d="m939.71,139.47h-91.58c-4.7,0-8.51,3.81-8.51,8.51s3.81,8.51,8.51,8.51h91.58c4.7,0,8.51-3.81,8.51-8.51s-3.81-8.51-8.51-8.51Z"/><path class="cls-1" d="m790.13,139.31h-91.58c-4.7,0-8.51,3.81-8.51,8.51s3.81,8.51,8.51,8.51h91.58c4.7,0,8.51-3.81,8.51-8.51s-3.81-8.51-8.51-8.51Z"/><path class="cls-1" d="m1169.93,0h-18.18c-4.7,0-8.51,3.81-8.51,8.51s3.81,8.51,8.51,8.51h18.18c4.7,0,8.51-3.81,8.51-8.51s-3.81-8.51-8.51-8.51Z"/><path class="cls-1" d="m1101.79,8.51c0-4.7-3.81-8.51-8.51-8.51h-56.35c-4.7,0-8.51,3.81-8.51,8.51s3.81,8.51,8.51,8.51h56.35c4.7,0,8.51-3.81,8.51-8.51Z"/><path class="cls-1" d="m999.97,78.24c0-4.7-3.81-8.51-8.51-8.51h-21.34c-4.7,0-8.51,3.81-8.51,8.51s3.81,8.51,8.51,8.51h21.34c4.7,0,8.51-3.81,8.51-8.51Z"/><path class="cls-1" d="m1112.04,78.24c0-4.7-3.81-8.51-8.51-8.51h-47.48c-4.7,0-8.51,3.81-8.51,8.51s3.81,8.51,8.51,8.51h47.48c4.7,0,8.51-3.81,8.51-8.51Z"/><path class="cls-1" d="m1026.94,139.47h-22.72c-4.7,0-8.51,3.81-8.51,8.51s3.81,8.51,8.51,8.51h22.72c4.7,0,8.51-3.81,8.51-8.51s-3.81-8.51-8.51-8.51Z"/><path class="cls-1" d="m1140.44,139.47h-22.72c-4.7,0-8.51,3.81-8.51,8.51s3.81,8.51,8.51,8.51h22.72c4.7,0,8.51-3.81,8.51-8.51s-3.81-8.51-8.51-8.51Z"/><path class="cls-1" d="m1253.93,139.47h-53.95c-4.7,0-8.51,3.81-8.51,8.51s3.81,8.51,8.51,8.51h53.95c4.7,0,8.51-3.81,8.51-8.51s-3.81-8.51-8.51-8.51Z"/><path class="cls-1" d="m1250.18,78.24c0-4.7-3.81-8.51-8.51-8.51h-53.95c-4.7,0-8.51,3.81-8.51,8.51s3.81,8.51,8.51,8.51h53.95c4.7,0,8.51-3.81,8.51-8.51Z"/><path class="cls-1" d="m1329.59,139.47h-25.32c-4.7,0-8.51,3.81-8.51,8.51s3.81,8.51,8.51,8.51h25.32c4.7,0,8.51-3.81,8.51-8.51s-3.81-8.51-8.51-8.51Z"/><path class="cls-1" d="m1329.59,69.73h-25.32c-4.7,0-8.51,3.81-8.51,8.51s3.81,8.51,8.51,8.51h25.32c4.7,0,8.51-3.81,8.51-8.51s-3.81-8.51-8.51-8.51Z"/><path class="cls-1" d="m1338.47,8.51c0-4.7-3.81-8.51-8.51-8.51h-56.35c-4.7,0-8.51,3.81-8.51,8.51s3.81,8.51,8.51,8.51h56.35c4.7,0,8.51-3.81,8.51-8.51Z"/><path class="cls-1" d="m861.76,78.24c0-4.7-3.81-8.51-8.51-8.51h-27.01c-4.7,0-8.51,3.81-8.51,8.51s3.81,8.51,8.51,8.51h27.01c4.7,0,8.51-3.81,8.51-8.51Z"/><path class="cls-1" d="m880.42,69.73c-4.7,0-8.51,3.81-8.51,8.51s3.81,8.51,8.51,8.51h27.01c4.7,0,8.51-3.81,8.51-8.51s-3.81-8.51-8.51-8.51h-27.01Z"/><path class="cls-1" d="m698.4,86.75h31.04c4.7,0,8.51-3.81,8.51-8.51s-3.81-8.51-8.51-8.51h-31.04c-4.7,0-8.51,3.81-8.51,8.51s3.81,8.51,8.51,8.51Z"/></g></g></svg>