<?xml version="1.0" encoding="UTF-8"?><svg id="Layer_2" xmlns="http://www.w3.org/2000/svg" viewBox="0 0 129.23 129.23"><g id="_1"><path d="M109.51,41.76h-6.72c-8.44,0-15.31-6.87-15.31-15.31v-6.72c0-10.87-8.85-19.72-19.72-19.72h-6.28c-10.87,0-19.72,8.85-19.72,19.72v6.72c0,8.44-6.87,15.31-15.31,15.31h-6.72C8.85,41.76,0,50.6,0,61.48v6.28c0,10.87,8.85,19.72,19.72,19.72h6.72c8.44,0,15.31,6.87,15.31,15.31v6.72c0,10.87,8.85,19.72,19.72,19.72h6.28c10.87,0,19.72-8.85,19.72-19.72v-6.72c0-8.44,6.87-15.31,15.31-15.31h6.72c10.87,0,19.72-8.85,19.72-19.72v-6.28c0-10.87-8.85-19.72-19.72-19.72Zm15.31,26c0,8.44-6.87,15.31-15.31,15.31h-6.72c-10.87,0-19.72,8.85-19.72,19.72v6.72c0,8.44-6.87,15.31-15.31,15.31h-6.28c-8.44,0-15.31-6.87-15.31-15.31v-6.72c0-10.87-8.85-19.72-19.72-19.72h-6.72c-8.44,0-15.31-6.87-15.31-15.31v-6.28c0-8.44,6.87-15.31,15.31-15.31h6.72c10.87,0,19.72-8.85,19.72-19.72v-6.72c0-8.44,6.87-15.31,15.31-15.31h6.28c8.44,0,15.31,6.87,15.31,15.31v6.72c0,10.87,8.85,19.72,19.72,19.72h6.72c8.44,0,15.31,6.87,15.31,15.31v6.28Z"/></g></svg>