<?xml version="1.0" encoding="UTF-8"?><svg id="Layer_2" xmlns="http://www.w3.org/2000/svg" viewBox="0 0 189 205.25"><defs><style>.cls-1{stroke-width:0px;}</style></defs><g id="Elements"><g id="_28"><path class="cls-1" d="m149.5,84.16c-21.81,0-39.5,17.68-39.5,39.5s17.68,39.5,39.5,39.5,39.5-17.68,39.5-39.5-17.68-39.5-39.5-39.5Z"/><circle class="cls-1" cx="39.5" cy="123.65" r="39.5" transform="translate(-10.06 3.68) rotate(-4.73)"/><path class="cls-1" d="m89.71,56.85v35.9c0,2.64,2.14,4.79,4.79,4.79s4.79-2.14,4.79-4.79v-35.9c13.53-2.28,23.85-14.03,23.85-28.21,0-15.82-12.82-28.64-28.64-28.64s-28.64,12.82-28.64,28.64c0,14.18,10.32,25.93,23.85,28.21Z"/><path class="cls-1" d="m94.5,160.87c-12.26,0-22.19,9.94-22.19,22.19s9.94,22.19,22.19,22.19,22.19-9.94,22.19-22.19-9.94-22.19-22.19-22.19Z"/></g></g></svg>