<?xml version="1.0" encoding="UTF-8"?><svg id="Layer_2" xmlns="http://www.w3.org/2000/svg" viewBox="0 0 141.86 139.3"><g id="_8"><path d="M133.31,67.77c-6.01-4.11-7.87-12.28-4.25-18.6,4.1-7.13,3.46-15.55-1.67-21.98-5.13-6.43-13.19-8.93-21.05-6.52-6.96,2.13-14.51-1.5-17.19-8.28-3.02-7.65-10-12.4-18.22-12.4s-15.2,4.75-18.22,12.4c-2.67,6.77-10.22,10.41-17.19,8.28-7.86-2.41-15.93,.09-21.05,6.52-5.13,6.43-5.77,14.85-1.67,21.98,3.63,6.31,1.76,14.48-4.25,18.6C1.77,72.41-1.31,80.28,.52,88.29c1.83,8.01,8.01,13.76,16.14,15.01,7.2,1.1,12.42,7.65,11.9,14.92-.6,8.2,3.63,15.51,11.04,19.08,7.41,3.57,15.76,2.32,21.8-3.26,5.35-4.94,13.73-4.94,19.08,0,3.76,3.47,8.41,5.27,13.18,5.27,2.89,0,5.82-.66,8.62-2.01,7.41-3.57,11.64-10.88,11.04-19.08-.53-7.26,4.7-13.82,11.9-14.92,8.13-1.24,14.31-6.99,16.14-15.01,1.83-8.01-1.25-15.88-8.03-20.52Zm2.63,19.29c-1.03,4.51-4.61,9.7-11.58,10.77-10.04,1.53-17.32,10.67-16.58,20.79,.51,7.03-3.75,11.68-7.92,13.69-4.16,2.01-10.46,2.44-15.64-2.34-7.46-6.89-19.14-6.89-26.59,0-5.18,4.78-11.47,4.35-15.64,2.34-4.16-2.01-8.43-6.65-7.92-13.69,.74-10.12-6.54-19.26-16.58-20.79-6.97-1.06-10.55-6.26-11.58-10.77-1.03-4.51-.06-10.74,5.76-14.72,8.38-5.74,10.98-17.12,5.92-25.93-3.51-6.11-1.68-12.15,1.2-15.77,2.25-2.82,6.07-5.33,10.83-5.33,1.35,0,2.78,.2,4.27,.66,9.71,2.97,20.23-2.1,23.96-11.54,2.59-6.56,8.45-8.89,13.07-8.89s10.48,2.34,13.07,8.89c3.73,9.44,14.25,14.51,23.96,11.54,6.74-2.06,12.22,1.06,15.1,4.68,2.88,3.61,4.71,9.65,1.2,15.77-5.06,8.8-2.46,20.19,5.92,25.93,5.82,3.98,6.79,10.22,5.76,14.72Z"/></g></svg>