<?xml version="1.0" encoding="UTF-8"?><svg id="Layer_2" xmlns="http://www.w3.org/2000/svg" viewBox="0 0 115.07 129.66"><g id="_3"><g><circle cx="57.54" cy="64.83" r="8.68"/><path d="M107.59,69.9c-1.14-1.69-2.38-3.39-3.73-5.07,1.35-1.69,2.59-3.38,3.73-5.07,7.73-11.52,9.53-21.83,5.08-29.03-4.83-7.82-16.34-10.64-31.75-7.87-.44-1.11-.89-2.21-1.37-3.27C73.82,6.96,66,0,57.54,0s-16.28,6.96-22.01,19.59c-.48,1.05-.93,2.15-1.37,3.26-1.18-.21-2.35-.39-3.51-.54-13.76-1.77-23.79,1.22-28.24,8.42-3.84,6.21-3.07,14.62,2.22,24.32,1.75,3.21,3.98,6.49,6.62,9.78-2.69,3.35-4.96,6.71-6.72,9.97-5.19,9.62-5.93,17.97-2.12,24.13,3.62,5.84,10.91,8.91,20.89,8.91,2.31,0,4.77-.16,7.35-.5,1.15-.15,2.32-.33,3.51-.54,.44,1.11,.89,2.21,1.37,3.26,5.73,12.63,13.55,19.59,22.01,19.59s16.28-6.96,22.01-19.59c.48-1.06,.93-2.15,1.37-3.27,3.86,.69,7.48,1.04,10.8,1.04,9.95,0,17.33-3.06,20.94-8.91,4.45-7.2,2.65-17.5-5.08-29.03Zm1.58-37.01c3.5,5.66,1.68,14.62-5,24.57-.93,1.38-1.94,2.77-3.02,4.15-4.02-4.57-8.76-9.04-14.06-13.27-.94-7.76-2.53-15.06-4.73-21.57,13.11-2.21,23.03,.01,26.8,6.11ZM31.11,64.83c0-13.66,2-26.61,5.67-37.25,10.98,2.47,23.04,7.59,34.65,14.77,4.15,2.57,8.09,5.31,11.77,8.16,.5,4.63,.76,9.42,.76,14.31s-.26,9.68-.76,14.31c-3.68,2.86-7.62,5.59-11.77,8.16-11.61,7.18-23.68,12.3-34.65,14.77-3.68-10.64-5.67-23.59-5.67-37.25Zm-3.7,10.67c-4.09-3.5-7.72-7.09-10.82-10.66,3.1-3.57,6.73-7.17,10.82-10.67-.27,3.49-.41,7.06-.41,10.67s.14,7.17,.41,10.67Zm60.26-21.35c4.04,3.45,7.68,7.04,10.84,10.68-3.16,3.64-6.8,7.23-10.84,10.68,.27-3.5,.41-7.07,.41-10.68s-.14-7.18-.41-10.68ZM39.27,21.29c4.95-10.92,11.61-17.18,18.27-17.18s13.31,6.26,18.27,17.18c3.05,6.72,5.3,14.75,6.66,23.52-2.83-2.06-5.79-4.06-8.86-5.95-11.79-7.3-24.08-12.54-35.36-15.16,.33-.82,.68-1.62,1.03-2.4ZM5.9,32.89c3.5-5.66,12.33-8.03,24.22-6.5,.85,.11,1.71,.24,2.59,.39-2.2,6.51-3.79,13.82-4.73,21.59-5.29,4.23-10.03,8.72-14.04,13.26C5.09,50.34,1.76,39.59,5.9,32.89ZM30.12,103.27c-11.89,1.53-20.72-.84-24.22-6.5-4.13-6.68-.8-17.43,8.04-28.73,4.01,4.54,8.75,9.03,14.03,13.26,.94,7.76,2.53,15.07,4.73,21.58-.87,.15-1.73,.28-2.59,.39Zm27.42,22.28c-6.66,0-13.31-6.26-18.27-17.18-.35-.78-.7-1.58-1.03-2.4,11.28-2.62,23.57-7.87,35.36-15.16,3.07-1.9,6.03-3.89,8.86-5.96-1.36,8.77-3.61,16.79-6.66,23.52-4.95,10.92-11.61,17.18-18.27,17.18Zm51.64-28.78c-3.77,6.09-13.69,8.32-26.8,6.11,2.2-6.51,3.79-13.81,4.73-21.57,5.3-4.23,10.04-8.7,14.06-13.27,1.08,1.38,2.09,2.77,3.02,4.15,6.68,9.96,8.5,18.91,5,24.57Z"/></g></g></svg>