<?xml version="1.0" encoding="UTF-8"?><svg id="Layer_2" xmlns="http://www.w3.org/2000/svg" viewBox="0 0 177.23 86.5"><g id="_0"><path d="M150.6,12.19C135.5,5.04,115.92,.81,94.92,.11c-1.31-.06-2.63-.11-3.96-.11-.19,0-.38,0-.58,.01-.59,0-1.17-.01-1.76-.01-23.37,0-45.39,4.33-61.98,12.19C9.46,20.33,0,31.36,0,43.25s9.46,22.92,26.63,31.06c16.6,7.86,38.61,12.19,61.98,12.19,.59,0,1.18,0,1.76-.01,.19,0,.38,.01,.58,.01,1.33,0,2.65-.04,3.96-.11,21.01-.71,40.59-4.93,55.68-12.08,17.17-8.13,26.63-19.16,26.63-31.06s-9.46-22.92-26.63-31.06Zm-40.55,31.06c0,20.52-8.49,37.88-18.65,38.38-.23,0-.45,0-.68,.01-10.25-.26-18.87-17.73-18.87-38.39S80.48,5.11,90.73,4.85c.23,0,.45,0,.68,.01,10.15,.5,18.65,17.87,18.65,38.38Zm-43.03,0c0,16.17,4.68,30.01,11.78,37.43-24.05-3.92-42.04-19.22-42.04-37.43S54.74,9.74,78.79,5.82c-7.1,7.42-11.78,21.26-11.78,37.43Zm47.88,0c0-16.17-4.68-30.01-11.78-37.43,24.05,3.92,42.04,19.22,42.04,37.43s-17.99,33.51-42.04,37.43c7.1-7.42,11.78-21.26,11.78-37.43ZM28.7,69.93c-15.39-7.29-23.86-16.76-23.86-26.68S13.32,23.86,28.7,16.57c8.32-3.94,18.08-6.95,28.72-8.94-2.8,1.42-5.46,3.01-7.93,4.79-11.34,8.18-17.59,19.13-17.59,30.83s6.25,22.65,17.59,30.83c2.47,1.78,5.13,3.37,7.93,4.79-10.65-1.99-20.41-5-28.72-8.94Zm119.82,0c-6.24,2.96-13.3,5.39-20.94,7.26,1.67-.97,3.29-2,4.83-3.11,11.34-8.18,17.59-19.13,17.59-30.83s-6.25-22.65-17.59-30.83c-1.54-1.11-3.16-2.14-4.83-3.11,7.64,1.87,14.7,4.31,20.94,7.26,15.39,7.29,23.86,16.76,23.86,26.68s-8.47,19.39-23.86,26.68Z"/></g></svg>