<?xml version="1.0" encoding="UTF-8"?><svg id="Layer_2" xmlns="http://www.w3.org/2000/svg" viewBox="0 0 141.02 139.53"><g id="_8"><g><path d="M70.51,70.51l.09-.09c-.05,0-.1,.01-.15,.02l-1.63-1.63c.11,.61,.23,1.22,.35,1.83-2.73,.4-5.5,.61-8.3,.61-7.18,2.99-13.61,7.45-18.95,12.94-2.33-8.77-7.53-15.88-14.22-21.33l17.58-17.58,23.54,23.54c-.21-1.16-.39-2.32-.53-3.5-.89-9.19-4.74-16.83-10.32-22.95,7.67-3.5,14.33-8.8,19.65-15.23l16.43,16.43c-.21-1.16-.39-2.32-.53-3.49-.86-8.87-4.48-16.08-9.75-21.9,3.2-5.67,5.51-11.84,6.78-18.18l-12.71,12.71C69.99,6.58,60.15,2.51,50.47,0l20.04,20.04-17.58,17.58c-7.9-6.44-17.88-10.57-27.69-12.39l19.12,19.12c-9.47,2.06-18.3,6.48-25.48,12.67-5.94-3.18-12.45-5.37-18.88-6.56l12.75,12.75c-6.07,7.22-10.17,16.03-11.26,25.85l18.56-18.56,18.03,18.02c-5.85,7.38-9.87,16.21-11.34,25.77l17.57-17.57c2.32,9.33,6.62,18,12.58,25.09-2.74,5.51-4.44,11.54-4.92,17.72l11.3-11.3c7.11,6.03,15.82,10.12,25.81,11.3l-18.56-18.56,18.09-18.09c7.24,5.9,16,9.94,25.7,11.41l-18.56-18.56,.75-.75c-.4,.1-.81,.19-1.21,.28l-24.77-24.77Zm-7.99,42.48l-17.25-17.25,24.11-24.11c2.34,10.23,7.3,19.37,14.17,26.58-8.52,2.9-15.68,8.14-21.03,14.77Z"/><path d="M141.02,50.47l-20.04,20.04-17.86-17.86c6.63-7.42,11.23-16.74,12.67-27.41l-20.04,20.04-1.7-1.7c.17,.95,.36,1.9,.57,2.83l-24.02,24.02c10.33-1.77,19.93-6.3,27.65-12.98,3.54,8.04,8.76,15.14,15.23,20.57l-16.99,16.99c9.47-2.24,18.52-4.92,25.95-10.97,5.23,2.72,10.97,4.48,17.09,5.04l-11.13-11.13c6.68-8.16,10.39-17.81,12.62-27.46Z"/></g></g></svg>