<?xml version="1.0" encoding="UTF-8"?><svg id="Layer_2" xmlns="http://www.w3.org/2000/svg" viewBox="0 0 190.97 269.46"><defs><style>.cls-1{stroke-width:0px;}</style></defs><g id="Elements"><g id="_11"><path class="cls-1" d="m103.06,31.43c0-17.33-14.1-31.43-31.43-31.43H31.43C14.1,0,0,14.1,0,31.43v151.21c0,17.33,14.1,31.43,31.43,31.43s31.43-14.1,31.43-31.43v-36.92c0-5.4,2.66-10.45,7.11-13.5l19.43-13.32c8.55-5.86,13.66-15.55,13.66-25.92V31.43Zm-15.06,61.54c0,5.4-2.66,10.45-7.11,13.5l-19.43,13.32h0c-8.55,5.86-13.66,15.55-13.66,25.92v36.92c0,9.03-7.34,16.37-16.37,16.37s-16.37-7.34-16.37-16.37V31.43c0-9.03,7.34-16.37,16.37-16.37h40.2c9.03,0,16.37,7.34,16.37,16.37v61.54Z"/><path class="cls-1" d="m51.53,32.56h0c-7.53,0-13.64,6.11-13.64,13.64v37.12c0,7.53,6.11,13.64,13.64,13.64h0c7.53,0,13.64-6.11,13.64-13.64v-37.12c0-7.53-6.11-13.64-13.64-13.64Z"/><path class="cls-1" d="m189.97,224.15c-10.11,0-18.3-8.19-18.3-18.3v-49.81c0-10.11,8.19-18.3,18.3-18.3.34,0,.67.03,1,.05v-63.74c0-14.31-11.6-25.92-25.92-25.92s-25.92,11.6-25.92,25.92v45.55c0,8.55-4.21,16.55-11.27,21.38l-21.07,14.44c-7.05,4.83-11.27,12.83-11.27,21.38v66.74c0,14.31,11.6,25.92,25.92,25.92h43.6c14.31,0,25.92-11.6,25.92-25.92v-19.44c-.33.02-.66.05-1,.05Z"/></g></g></svg>