<?xml version="1.0" encoding="UTF-8"?><svg id="Layer_2" xmlns="http://www.w3.org/2000/svg" viewBox="0 0 129.62 129.62"><g id="_1"><g><path d="M104.74,75.25v.06l-.03-.03-1.13,2.16c-.7,1.34-1.59,2.56-2.66,3.62l-19.58,19.58c-1.06,1.06-2.29,1.96-3.62,2.66l-2.16,1.13,.03,.03h-.06l-.21,14.99c-.12,8.61,10.29,13.01,16.38,6.92h0c.37-.37,.59-.87,.61-1.4l1.33-11.84c.02-.53,.23-1.03,.61-1.4l17.76-17.76c.37-.37,.87-.59,1.4-.61l11.84-1.33c.53-.02,1.03-.23,1.4-.61h0c6.09-6.09,1.7-16.5-6.92-16.38l-14.99,.21Z"/><path d="M25.16,54.09v-.06l.03,.03,1.13-2.16c.7-1.34,1.59-2.56,2.66-3.62l19.58-19.58c1.06-1.06,2.29-1.96,3.62-2.66l2.16-1.13-.03-.03h.06l.21-14.99c.12-8.61-10.29-13.01-16.38-6.92h0c-.37,.37-.59,.87-.61,1.4l-1.33,11.84c-.02,.53-.23,1.03-.61,1.4l-17.76,17.76c-.37,.37-.87,.59-1.4,.61l-11.84,1.33c-.53,.02-1.03,.23-1.4,.61h0c-6.09,6.09-1.7,16.5,6.92,16.38l14.99-.21Z"/><path d="M53.89,104.88l.03-.03-2.16-1.13c-1.34-.7-2.56-1.59-3.62-2.66l-19.58-19.58c-1.06-1.06-1.96-2.29-2.66-3.62l-1.13-2.16-.03,.03v-.06l-14.99-.21c-8.61-.12-13.01,10.29-6.92,16.38h0c.37,.37,.87,.59,1.4,.61l11.84,1.33c.53,.02,1.03,.23,1.4,.61l17.76,17.76c.37,.37,.59,.87,.61,1.4l1.33,11.84c.02,.53,.23,1.03,.61,1.4h0c6.09,6.09,16.5,1.7,16.38-6.92l-.21-14.99h-.06Z"/><path d="M125.39,37.18l-11.84-1.33c-.53-.02-1.03-.23-1.4-.61l-17.76-17.76c-.37-.37-.59-.87-.61-1.4l-1.33-11.84c-.02-.53-.23-1.03-.61-1.4h0c-6.09-6.09-16.5-1.7-16.38,6.92l.21,14.99h.06l-.03,.03,2.16,1.13c1.34,.7,2.56,1.59,3.62,2.66l19.58,19.58c1.06,1.06,1.96,2.29,2.66,3.62l1.13,2.16,.03-.03v.06l14.99,.21c8.61,.12,13.01-10.29,6.92-16.38h0c-.37-.37-.87-.59-1.4-.61Z"/></g></g></svg>