<?xml version="1.0" encoding="UTF-8"?><svg id="Layer_2" xmlns="http://www.w3.org/2000/svg" viewBox="0 0 373.13 185.1"><defs><style>.cls-1{stroke-width:0px;}</style></defs><g id="Elements"><g id="_19"><path class="cls-1" d="m10.07,109.98c-5.56,0-10.07,4.51-10.07,10.07s4.51,10.07,10.07,10.07,10.07-4.51,10.07-10.07-4.51-10.07-10.07-10.07Z"/><circle class="cls-1" cx="69.15" cy="120.04" r="10.07"/><circle class="cls-1" cx="69.15" cy="175.03" r="10.07"/><circle class="cls-1" cx="127.93" cy="120.04" r="10.07"/><circle class="cls-1" cx="127.93" cy="175.03" r="10.07"/><path class="cls-1" d="m186.71,164.96c-5.56,0-10.07,4.51-10.07,10.07s4.51,10.07,10.07,10.07,10.07-4.51,10.07-10.07-4.51-10.07-10.07-10.07Z"/><path class="cls-1" d="m245.49,109.98c-5.56,0-10.07,4.51-10.07,10.07s4.51,10.07,10.07,10.07,10.07-4.51,10.07-10.07-4.51-10.07-10.07-10.07Z"/><path class="cls-1" d="m304.27,109.98c-5.56,0-10.07,4.51-10.07,10.07s4.51,10.07,10.07,10.07,10.07-4.51,10.07-10.07-4.51-10.07-10.07-10.07Z"/><path class="cls-1" d="m363.06,130.11c5.56,0,10.07-4.51,10.07-10.07s-4.51-10.07-10.07-10.07-10.07,4.51-10.07,10.07,4.51,10.07,10.07,10.07Z"/><path class="cls-1" d="m363.06,164.96c-5.56,0-10.07,4.51-10.07,10.07s4.51,10.07,10.07,10.07,10.07-4.51,10.07-10.07-4.51-10.07-10.07-10.07Z"/><path class="cls-1" d="m10.07,0C4.51,0,0,4.51,0,10.07s4.51,10.07,10.07,10.07,10.07-4.51,10.07-10.07S15.63,0,10.07,0Z"/><circle class="cls-1" cx="69.15" cy="10.07" r="10.07"/><circle class="cls-1" cx="69.15" cy="65.06" r="10.07"/><circle class="cls-1" cx="127.93" cy="10.07" r="10.07"/><circle class="cls-1" cx="127.93" cy="65.06" r="10.07"/><path class="cls-1" d="m186.71,54.99c-5.56,0-10.07,4.51-10.07,10.07s4.51,10.07,10.07,10.07,10.07-4.51,10.07-10.07-4.51-10.07-10.07-10.07Z"/><path class="cls-1" d="m245.49,0c-5.56,0-10.07,4.51-10.07,10.07s4.51,10.07,10.07,10.07,10.07-4.51,10.07-10.07-4.51-10.07-10.07-10.07Z"/><path class="cls-1" d="m304.27,0c-5.56,0-10.07,4.51-10.07,10.07s4.51,10.07,10.07,10.07,10.07-4.51,10.07-10.07-4.51-10.07-10.07-10.07Z"/><path class="cls-1" d="m304.27,54.99c-5.56,0-10.07,4.51-10.07,10.07s4.51,10.07,10.07,10.07,10.07-4.51,10.07-10.07-4.51-10.07-10.07-10.07Z"/></g></g></svg>