<?xml version="1.0" encoding="UTF-8"?><svg id="Layer_2" xmlns="http://www.w3.org/2000/svg" viewBox="0 0 222.43 219.73"><defs><style>.cls-1{stroke-width:0px;}</style></defs><g id="Elements"><g id="_19"><polygon class="cls-1" points="55.45 96.12 32.48 73.15 86.48 16 69.55 0 0 73.61 38.98 112.59 55.45 96.12"/><polygon class="cls-1" points="97.39 112.59 113.86 96.12 90.89 73.15 144.89 16 127.97 0 58.41 73.61 97.39 112.59"/><polygon class="cls-1" points="155.81 112.59 172.28 96.13 149.3 73.15 203.31 16 186.38 0 116.83 73.61 155.81 112.59"/><polygon class="cls-1" points="183.45 107.14 166.98 123.61 189.95 146.58 135.95 203.74 152.88 219.73 222.43 146.12 183.45 107.14"/><polygon class="cls-1" points="125.03 107.14 108.57 123.61 131.54 146.58 77.53 203.74 94.46 219.73 164.01 146.12 125.03 107.14"/><polygon class="cls-1" points="66.62 107.14 50.15 123.61 73.13 146.58 19.12 203.74 36.05 219.73 105.6 146.12 66.62 107.14"/></g></g></svg>