<?xml version="1.0" encoding="UTF-8"?><svg id="Layer_2" xmlns="http://www.w3.org/2000/svg" viewBox="0 0 139.87 97.21"><g id="_0"><g><path d="M118.4,11.2l-8.83-9.11c-1.3-1.34-3.09-2.1-4.96-2.1h-22.24c-3.81,0-6.9,3.09-6.9,6.9V26.17c0,3.81,3.09,6.9,6.9,6.9h17.52c3.81,0,6.9,3.09,6.9,6.9v17.25c0,3.81-3.09,6.9-6.9,6.9h-17.52c-3.81,0-6.9,3.09-6.9,6.9v19.26c0,3.81,3.09,6.9,6.9,6.9h22.24c1.87,0,3.66-.76,4.96-2.1l8.83-9.11c2.65-2.74,7.03-2.81,9.76-.15h0c4.38,4.25,11.71,1.14,11.71-4.96V16.31c0-6.1-7.33-9.2-11.71-4.96h0c-2.74,2.65-7.11,2.59-9.76-.15Z"/><path d="M11.71,11.36h0C7.33,7.11,0,10.21,0,16.31V80.9c0,6.1,7.33,9.2,11.71,4.96h0c2.74-2.65,7.11-2.59,9.76,.15l8.83,9.11c1.3,1.34,3.09,2.1,4.96,2.1h22.24c3.81,0,6.9-3.09,6.9-6.9v-19.26c0-3.81-3.09-6.9-6.9-6.9h-17.52c-3.81,0-6.9-3.09-6.9-6.9v-17.25c0-3.81,3.09-6.9,6.9-6.9h17.52c3.81,0,6.9-3.09,6.9-6.9V6.9c0-3.81-3.09-6.9-6.9-6.9h-22.24c-1.87,0-3.66,.76-4.96,2.1l-8.83,9.11c-2.65,2.74-7.03,2.81-9.76,.15Z"/></g></g></svg>