<?xml version="1.0" encoding="UTF-8"?><svg id="Layer_2" xmlns="http://www.w3.org/2000/svg" viewBox="0 0 132.62 133.6"><g id="_1"><g><path d="M29.07,133.6h24.08c4.62,0,8.36-3.74,8.36-8.36v-22.79c0-2.02-.73-3.97-2.06-5.5l-19.99-22.92c-1.59-1.82-3.89-2.87-6.3-2.87H8.36c-4.62,0-8.36,3.74-8.36,8.36v24.75c0,2.2,.87,4.31,2.41,5.88l20.7,20.97c1.57,1.59,3.72,2.49,5.95,2.49Zm-3.29-26.88h3.19c2.29,0,4.49,.94,6.07,2.6l5.09,5.36c5.06,5.33,1.28,14.12-6.07,14.12h-2.99c-2.24,0-4.38-.9-5.95-2.49l-5.29-5.36c-5.22-5.28-1.47-14.24,5.95-14.24Zm30.94-2.48h0c0,7.56-9.23,11.24-14.43,5.76l-4.12-4.34c-1.48-1.55-2.3-3.62-2.3-5.76v-.39c0-7.73,9.59-11.32,14.67-5.5l4.12,4.73c1.33,1.52,2.06,3.48,2.06,5.5Z"/><path d="M2.41,38.99l20.7,20.97c1.57,1.59,3.72,2.49,5.95,2.49h24.08c4.62,0,8.36-3.74,8.36-8.36V31.29c0-2.02-.73-3.97-2.06-5.5L39.46,2.87c-1.59-1.82-3.89-2.87-6.3-2.87H8.36C3.74,0,0,3.74,0,8.36v24.75c0,2.2,.87,4.31,2.41,5.88Zm23.36-3.43h3.19c2.29,0,4.49,.94,6.07,2.6l5.09,5.36c5.06,5.33,1.28,14.12-6.07,14.12h-2.99c-2.24,0-4.38-.9-5.95-2.49l-5.29-5.36c-5.22-5.28-1.47-14.24,5.95-14.24Zm30.94-2.48h0c0,7.56-9.23,11.24-14.43,5.76l-4.12-4.34c-1.48-1.55-2.3-3.62-2.3-5.76v-.39c0-7.73,9.59-11.32,14.67-5.5l4.12,4.73c1.33,1.52,2.06,3.48,2.06,5.5Z"/><path d="M100.17,133.6h24.08c4.62,0,8.36-3.74,8.36-8.36v-22.79c0-2.02-.73-3.97-2.06-5.5l-19.99-22.92c-1.59-1.82-3.89-2.87-6.3-2.87h-24.79c-4.62,0-8.36,3.74-8.36,8.36v24.75c0,2.2,.87,4.31,2.41,5.88l20.7,20.97c1.57,1.59,3.72,2.49,5.95,2.49Zm-3.29-26.88h3.19c2.29,0,4.49,.94,6.07,2.6l5.09,5.36c5.06,5.33,1.28,14.12-6.07,14.12h-2.99c-2.24,0-4.38-.9-5.95-2.49l-5.29-5.36c-5.22-5.28-1.47-14.24,5.95-14.24Zm30.94-2.48h0c0,7.56-9.23,11.24-14.43,5.76l-4.12-4.34c-1.48-1.55-2.3-3.62-2.3-5.76v-.39c0-7.73,9.59-11.32,14.67-5.5l4.12,4.73c1.33,1.52,2.06,3.48,2.06,5.5Z"/><path d="M100.17,62.44h24.08c4.62,0,8.36-3.74,8.36-8.36V31.29c0-2.02-.73-3.97-2.06-5.5L110.56,2.87c-1.59-1.82-3.89-2.87-6.3-2.87h-24.79c-4.62,0-8.36,3.74-8.36,8.36v24.75c0,2.2,.87,4.31,2.41,5.88l20.7,20.97c1.57,1.59,3.72,2.49,5.95,2.49Zm-3.29-26.88h3.19c2.29,0,4.49,.94,6.07,2.6l5.09,5.36c5.06,5.33,1.28,14.12-6.07,14.12h-2.99c-2.24,0-4.38-.9-5.95-2.49l-5.29-5.36c-5.22-5.28-1.47-14.24,5.95-14.24Zm30.94-2.48h0c0,7.56-9.23,11.24-14.43,5.76l-4.12-4.34c-1.48-1.55-2.3-3.62-2.3-5.76v-.39c0-7.73,9.59-11.32,14.67-5.5l4.12,4.73c1.33,1.52,2.06,3.48,2.06,5.5Z"/></g></g></svg>