<?xml version="1.0" encoding="UTF-8"?><svg id="Layer_2" xmlns="http://www.w3.org/2000/svg" viewBox="0 0 152.4 101.91"><g id="_9"><path d="M150.59,39.18c-1.57-10.25-9.29-19.69-22.15-26.91C114.36,4.36,95.68,0,75.84,0S37.33,4.36,23.24,12.27C11.22,19.02,3.68,27.72,1.47,37.21c-.1,.36-.2,.86-.3,1.47-.09,.54-.17,1.09-.23,1.63C.22,46.29-.26,57.54,.15,59.93c4.34,25.5,34.04,41.97,75.68,41.97h.02c19.65,0,37.49-4.32,51.58-12.5,13.57-7.87,22.38-18.74,24.81-30.61,.61-2.98-.66-16.32-1.64-19.62ZM25.35,16.02c13.45-7.56,31.39-11.72,50.49-11.72s37.04,4.16,50.49,11.72c13.06,7.34,20.25,16.95,20.25,27.08s-7.19,19.74-20.25,27.08c-13.45,7.56-31.39,11.72-50.49,11.72s-37.04-4.16-50.49-11.72c-13.06-7.34-20.25-16.95-20.25-27.08s7.19-19.74,20.25-27.08Zm122.67,41.91c-2.18,10.64-10.26,20.5-22.75,27.75-13.44,7.8-30.53,11.92-49.42,11.92h-.02c-19.43,0-36.47-3.68-49.28-10.65-12.57-6.84-20.23-16.43-22.16-27.74-.09-.5-.11-1.57-.1-2.95,3.65,6.64,10.07,12.69,18.95,17.67,14.09,7.91,32.77,12.27,52.6,12.27s38.52-4.36,52.6-12.27c9.46-5.31,16.14-11.83,19.63-18.98,.05,1.41,.04,2.5-.06,2.98Z"/></g></svg>