<?xml version="1.0" encoding="UTF-8"?><svg id="Layer_2" xmlns="http://www.w3.org/2000/svg" viewBox="0 0 372.05 172.29"><defs><style>.cls-1{stroke-width:0px;}</style></defs><g id="Elements"><g id="_14"><path class="cls-1" d="m335.44,0c-12.13,0-22.88,13.89-29.54,35.28-6.66-21.38-17.41-35.28-29.54-35.28s-23.15,14.25-29.79,36.09C239.92,14.25,229.06,0,216.78,0s-22.88,13.89-29.54,35.28C180.57,13.89,169.82,0,157.69,0c-13.06,0-24.52,16.1-31,40.32C120.21,16.1,108.76,0,95.7,0c-12.13,0-22.88,13.89-29.54,35.28C59.49,13.89,48.74,0,36.61,0,16.39,0,0,38.57,0,86.14s16.39,86.14,36.61,86.14c12.13,0,22.88-13.89,29.54-35.28,6.66,21.38,17.41,35.28,29.54,35.28,13.06,0,24.52-16.1,31-40.32,6.48,24.22,17.94,40.32,31,40.32,12.13,0,22.88-13.89,29.54-35.28,6.66,21.38,17.41,35.28,29.54,35.28s23.15-14.25,29.79-36.09c6.64,21.84,17.5,36.09,29.79,36.09s22.88-13.89,29.54-35.28c6.66,21.38,17.41,35.28,29.54,35.28,20.22,0,36.61-38.57,36.61-86.14S355.66,0,335.44,0Z"/></g></g></svg>