<?xml version="1.0" encoding="UTF-8"?><svg id="Layer_2" xmlns="http://www.w3.org/2000/svg" viewBox="0 0 194.38 267.33"><defs><style>.cls-1{stroke-width:0px;}</style></defs><g id="Elements"><g id="_26"><path class="cls-1" d="m168.7,103.08l-33.72-33.72,59.4-59.4c-27.22-16.2-62.91-12.67-86.33,10.75l-10.86,10.86-10.86-10.86C62.91-2.7,27.22-6.24,0,9.97l112.05,112.05c6.44,6.44,6.44,16.87,0,23.31l-14.86,14.86-14.86-14.86c-6.44-6.44-6.44-16.87,0-23.31l7.53-7.53-37.79-37.79-26.39,26.39c-16.89,16.89-16.89,44.27,0,61.16l33.72,33.72L0,257.37c27.22,16.2,62.91,12.67,86.33-10.76l82.37-82.37c16.89-16.89,16.89-44.27,0-61.16Z"/><path class="cls-1" d="m142.57,205.56l-37.79,37.79,3.26,3.26c23.42,23.42,59.11,26.95,86.33,10.76l-51.8-51.8Z"/></g></g></svg>