<?xml version="1.0" encoding="UTF-8"?><svg id="Layer_2" xmlns="http://www.w3.org/2000/svg" viewBox="0 0 135.55 135.55"><g id="_0"><g><path d="M24.24,101.69l26.57-26.57c4.06-4.06,4.06-10.64,0-14.7l-26.56-26.56c-4.92-4.92-13.26-3.75-16.5,2.41-10.33,19.67-10.33,43.35,0,63.02,3.23,6.16,11.58,7.32,16.5,2.41Z"/><path d="M101.69,111.31l-26.57-26.57c-4.06-4.06-10.64-4.06-14.7,0l-26.57,26.57c-4.92,4.92-3.75,13.26,2.41,16.5,19.67,10.33,43.35,10.33,63.02,0,6.16-3.23,7.32-11.58,2.41-16.5Z"/><path d="M127.8,99.28c10.33-19.67,10.33-43.35,0-63.02-3.23-6.16-11.58-7.32-16.5-2.41l-26.57,26.57c-4.06,4.06-4.06,10.64,0,14.7l26.57,26.57c4.92,4.92,13.26,3.75,16.5-2.41Z"/><path d="M33.86,24.25l26.56,26.56c4.06,4.06,10.64,4.06,14.7,0l26.57-26.57c4.92-4.92,3.75-13.26-2.41-16.5-19.67-10.33-43.35-10.33-63.02,0-6.16,3.23-7.32,11.58-2.41,16.5Z"/></g></g></svg>