<?xml version="1.0" encoding="UTF-8"?><svg id="Layer_2" xmlns="http://www.w3.org/2000/svg" viewBox="0 0 138.72 132.67"><g id="_0"><path d="M136.54,101.71h.02L69.2,0,1.84,102.18h.02c-1.23,1.9-1.86,3.88-1.86,5.91,0,7,7.52,13.37,21.18,17.92,12.9,4.3,30.01,6.67,48.18,6.67s35.28-2.37,48.18-6.67c13.66-4.55,21.18-10.91,21.18-17.92,0-2.2-.74-4.33-2.18-6.37ZM69.2,8.03l56.6,85.46c-2.44-1.19-5.2-2.31-8.27-3.34-12.9-4.3-30.01-6.67-48.18-6.67s-35.28,2.37-48.18,6.67c-3.1,1.03-5.88,2.16-8.33,3.37L69.2,8.03Zm46.93,113.77c-12.46,4.15-29.07,6.44-46.78,6.44s-34.32-2.29-46.78-6.44c-11.37-3.79-18.15-8.92-18.15-13.72s6.79-9.93,18.15-13.72c12.46-4.15,29.07-6.44,46.78-6.44s34.32,2.29,46.78,6.44c11.37,3.79,18.15,8.92,18.15,13.72s-6.79,9.93-18.15,13.72Z"/></g></svg>