<?xml version="1.0" encoding="UTF-8"?><svg id="Layer_2" xmlns="http://www.w3.org/2000/svg" viewBox="0 0 360.56 291.86"><defs><style>.cls-1{stroke-width:0px;}</style></defs><g id="Elements"><g id="_27"><path class="cls-1" d="m328.95,26.15c-9.23-12.26-19.7-26.15-40.5-26.15s-31.27,13.89-40.5,26.15c-8.78,11.65-16.36,21.72-31.61,21.72s-22.83-10.07-31.61-21.72C175.49,13.89,165.03,0,144.22,0s-31.27,13.89-40.5,26.15c-8.78,11.65-16.36,21.72-31.61,21.72s-22.83-10.06-31.61-21.72C31.27,13.89,20.8,0,0,0v11.13c15.25,0,22.83,10.07,31.61,21.72,9.23,12.26,19.7,26.15,40.5,26.15s31.27-13.89,40.5-26.15c8.78-11.65,16.36-21.72,31.61-21.72s22.83,10.07,31.61,21.72c9.23,12.26,19.7,26.15,40.5,26.15s31.27-13.89,40.5-26.15c8.78-11.65,16.36-21.72,31.61-21.72s22.83,10.07,31.61,21.72c9.23,12.26,19.7,26.15,40.5,26.15v-11.13c-15.25,0-22.83-10.07-31.61-21.72Z"/><path class="cls-1" d="m328.95,84.37c-9.23-12.26-19.7-26.15-40.5-26.15s-31.27,13.89-40.5,26.15c-8.78,11.65-16.36,21.72-31.61,21.72s-22.83-10.07-31.61-21.72c-9.23-12.26-19.7-26.15-40.5-26.15s-31.27,13.89-40.5,26.15c-8.78,11.65-16.36,21.72-31.61,21.72s-22.83-10.07-31.61-21.72c-9.23-12.26-19.7-26.15-40.5-26.15v11.13c15.25,0,22.83,10.07,31.61,21.72,9.23,12.26,19.7,26.15,40.5,26.15s31.27-13.9,40.5-26.15c8.78-11.65,16.36-21.72,31.61-21.72s22.83,10.07,31.61,21.72c9.23,12.26,19.7,26.15,40.5,26.15s31.27-13.89,40.5-26.15c8.78-11.65,16.36-21.72,31.61-21.72s22.83,10.07,31.61,21.72c9.23,12.26,19.7,26.15,40.5,26.15v-11.13c-15.25,0-22.83-10.07-31.61-21.72Z"/><path class="cls-1" d="m328.95,142.58c-9.23-12.26-19.7-26.15-40.5-26.15s-31.27,13.89-40.5,26.15c-8.78,11.65-16.36,21.72-31.61,21.72s-22.83-10.07-31.61-21.72c-9.23-12.26-19.7-26.15-40.5-26.15s-31.27,13.89-40.5,26.15c-8.78,11.65-16.36,21.72-31.61,21.72s-22.83-10.07-31.61-21.72c-9.23-12.26-19.7-26.15-40.5-26.15v11.13c15.25,0,22.83,10.07,31.61,21.72,9.23,12.26,19.7,26.15,40.5,26.15s31.27-13.9,40.5-26.15c8.78-11.65,16.36-21.72,31.61-21.72s22.83,10.07,31.61,21.72c9.23,12.26,19.7,26.15,40.5,26.15s31.27-13.89,40.5-26.15c8.78-11.65,16.36-21.72,31.61-21.72s22.83,10.07,31.61,21.72c9.23,12.26,19.7,26.15,40.5,26.15v-11.13c-15.25,0-22.83-10.07-31.61-21.72Z"/><path class="cls-1" d="m328.95,200.8c-9.23-12.26-19.7-26.15-40.5-26.15s-31.27,13.89-40.5,26.15c-8.78,11.65-16.36,21.72-31.61,21.72s-22.83-10.07-31.61-21.72c-9.23-12.26-19.7-26.15-40.5-26.15s-31.27,13.89-40.5,26.15c-8.78,11.65-16.36,21.72-31.61,21.72s-22.83-10.06-31.61-21.72c-9.23-12.26-19.7-26.15-40.5-26.15v11.13c15.25,0,22.83,10.07,31.61,21.72,9.23,12.26,19.7,26.15,40.5,26.15s31.27-13.89,40.5-26.15c8.78-11.65,16.36-21.72,31.61-21.72s22.83,10.07,31.61,21.72c9.23,12.26,19.7,26.15,40.5,26.15s31.27-13.89,40.5-26.15c8.78-11.65,16.36-21.72,31.61-21.72s22.83,10.07,31.61,21.72c9.23,12.26,19.7,26.15,40.5,26.15v-11.13c-15.25,0-22.83-10.07-31.61-21.72Z"/><path class="cls-1" d="m328.95,259.01c-9.23-12.26-19.7-26.15-40.5-26.15s-31.27,13.89-40.5,26.15c-8.78,11.65-16.36,21.72-31.61,21.72s-22.83-10.07-31.61-21.72c-9.23-12.26-19.7-26.15-40.5-26.15s-31.27,13.89-40.5,26.15c-8.78,11.65-16.36,21.72-31.61,21.72s-22.83-10.07-31.61-21.72c-9.23-12.26-19.7-26.15-40.5-26.15v11.13c15.25,0,22.83,10.07,31.61,21.72,9.23,12.26,19.7,26.15,40.5,26.15s31.27-13.9,40.5-26.15c8.78-11.65,16.36-21.72,31.61-21.72s22.83,10.07,31.61,21.72c9.23,12.26,19.7,26.15,40.5,26.15s31.27-13.89,40.5-26.15c8.78-11.65,16.36-21.72,31.61-21.72s22.83,10.07,31.61,21.72c9.23,12.26,19.7,26.15,40.5,26.15v-11.13c-15.25,0-22.83-10.07-31.61-21.72Z"/></g></g></svg>