<?xml version="1.0" encoding="UTF-8"?><svg id="Layer_2" xmlns="http://www.w3.org/2000/svg" viewBox="0 0 121.42 121.42"><g id="_0"><path d="M112.45,45.58l-6.56-3.59,2.1-7.18c1.8-6.14,.17-12.51-4.35-17.03-4.52-4.52-10.89-6.15-17.03-4.35l-7.18,2.1-3.59-6.56c-3.07-5.61-8.72-8.97-15.12-8.97s-12.05,3.35-15.12,8.97l-3.59,6.56-7.18-2.1c-6.14-1.8-12.51-.17-17.03,4.35-4.52,4.53-6.15,10.89-4.35,17.03l2.1,7.18-6.56,3.59C3.35,48.66,0,54.31,0,60.71s3.35,12.05,8.97,15.12l6.56,3.59-2.1,7.18c-1.8,6.14-.17,12.51,4.35,17.03,4.53,4.52,10.89,6.15,17.03,4.35l7.18-2.1,3.59,6.56c3.07,5.61,8.72,8.97,15.12,8.97s12.05-3.35,15.12-8.97l3.59-6.56,7.18,2.1c1.65,.48,3.31,.72,4.95,.72,4.48,0,8.78-1.76,12.09-5.07,4.53-4.53,6.15-10.89,4.35-17.03l-2.1-7.18,6.56-3.59c5.61-3.07,8.97-8.72,8.97-15.12s-3.35-12.05-8.97-15.12Zm-24.49-27.5c4.41-1.29,8.99-.12,12.24,3.13,3.25,3.25,4.42,7.83,3.13,12.24l-1.8,6.16-9.57-5.23c-2.08-1.14-3.79-2.84-4.92-4.92l-5.23-9.57,6.16-1.8Zm8.8,47.47l3.36,11.49-10.5,5.74c-2.9,1.59-5.27,3.95-6.85,6.85l-5.74,10.5-11.49-3.36c-1.59-.46-3.22-.7-4.85-.7s-3.26,.23-4.85,.7l-11.49,3.36-5.74-10.5c-1.59-2.9-3.96-5.27-6.85-6.85l-10.5-5.74,3.36-11.49c.93-3.17,.93-6.52,0-9.69l-3.36-11.49,10.5-5.74c2.9-1.58,5.27-3.95,6.85-6.85l5.74-10.5,11.49,3.36c3.17,.93,6.52,.93,9.69,0l11.49-3.36,5.74,10.5c1.58,2.9,3.95,5.27,6.85,6.85l10.5,5.74-3.36,11.49c-.93,3.17-.93,6.52,0,9.69ZM49.84,11.29c2.21-4.03,6.27-6.44,10.87-6.44s8.66,2.41,10.87,6.44l3.08,5.63-10.46,3.07c-2.28,.67-4.69,.67-6.96,0l-10.47-3.07,3.08-5.63Zm-31.76,22.16c-1.29-4.41-.12-8.99,3.13-12.24,3.25-3.25,7.83-4.42,12.24-3.13l6.16,1.8-5.23,9.57c-1.14,2.08-2.84,3.78-4.92,4.92l-9.57,5.23-1.8-6.16Zm-6.79,38.12c-4.03-2.21-6.44-6.27-6.44-10.87s2.41-8.66,6.44-10.87l5.63-3.08,3.07,10.47c.67,2.28,.67,4.69,0,6.96l-3.07,10.47-5.63-3.08Zm22.16,31.76c-4.41,1.29-8.99,.12-12.24-3.13-3.25-3.25-4.42-7.83-3.13-12.24l1.8-6.16,9.57,5.23c2.08,1.14,3.78,2.84,4.92,4.92l5.23,9.57-6.16,1.8Zm38.12,6.79c-2.21,4.03-6.27,6.44-10.87,6.44s-8.66-2.41-10.87-6.44l-3.08-5.63,10.47-3.07c2.28-.67,4.69-.67,6.96,0l10.47,3.07-3.08,5.63Zm31.76-22.16c1.29,4.41,.12,8.99-3.13,12.24s-7.83,4.42-12.24,3.13l-6.16-1.8,5.23-9.57c1.14-2.08,2.84-3.78,4.92-4.92l9.57-5.23,1.8,6.16Zm6.79-16.39l-5.63,3.08-3.07-10.47c-.67-2.28-.67-4.69,0-6.96l3.07-10.47,5.63,3.08c4.03,2.21,6.44,6.27,6.44,10.87s-2.41,8.66-6.44,10.87Z"/></g></svg>