<?xml version="1.0" encoding="UTF-8"?><svg id="Layer_2" xmlns="http://www.w3.org/2000/svg" viewBox="0 0 138.09 137.62"><g id="_8"><path d="M109.93,91.29l22.57,5.82-19.56-12.66c-3.33-2.16-2.03-7.32,1.93-7.63l23.23-1.82-22.62-5.62c-3.85-.96-4.29-6.26-.65-7.84l21.38-9.27-23.21,2.03c-3.96,.35-6.09-4.53-3.16-7.2l17.21-15.71-21.3,9.45c-3.63,1.61-7.23-2.3-5.33-5.79l11.18-20.45-17.08,15.86c-2.91,2.7-7.59,.17-6.92-3.74l3.94-22.97-11,20.54c-1.87,3.5-7.12,2.63-7.76-1.29L69.05,0l-3.74,23c-.64,3.92-5.88,4.8-7.76,1.29L46.55,3.75l3.94,22.97c.67,3.91-4.01,6.45-6.92,3.74L26.49,14.61l11.18,20.45c1.91,3.48-1.7,7.4-5.33,5.79L11.04,31.39l17.21,15.71c2.93,2.68,.8,7.55-3.16,7.2L1.88,52.27l21.38,9.27c3.64,1.58,3.2,6.88-.65,7.84L0,75l23.23,1.82c3.96,.31,5.27,5.47,1.93,7.63l-19.56,12.66,22.57-5.82c3.85-.99,6.76,3.46,4.3,6.59l-14.39,18.33,19.45-12.83c3.32-2.19,7.51,1.08,6.21,4.83l-7.66,22.01,14.23-18.45c2.43-3.14,7.46-1.42,7.44,2.55l-.1,23.3,7.47-22.07c1.27-3.76,6.59-3.76,7.87,0l7.47,22.07-.1-23.3c-.02-3.97,5.02-5.7,7.44-2.55l14.23,18.45-7.66-22.01c-1.31-3.75,2.89-7.02,6.21-4.83l19.45,12.83-14.39-18.33c-2.45-3.12,.46-7.58,4.3-6.59Z"/></g></svg>