<?xml version="1.0" encoding="UTF-8"?><svg id="Layer_2" xmlns="http://www.w3.org/2000/svg" viewBox="0 0 131.96 131.11"><g id="_1"><path d="M104.03,76.19c-1.94,1.07-4.35,.75-5.92-.81l-9.75-9.75,9.9-9.9c1.57-1.57,3.98-1.88,5.92-.81,7.12,3.92,16.25,2.87,22.28-3.17,7.56-7.56,7.31-19.97-.74-27.21-7.22-6.5-18.5-6.3-25.5,.43-6.28,6.04-7.42,15.33-3.43,22.56,1.07,1.94,.74,4.34-.82,5.91l-9.9,9.9-18.39-18.39v-.14h-.14l-.02-.02v-3.29c0-2.22,1.48-4.14,3.61-4.76,7.81-2.26,13.52-9.46,13.52-18C84.65,8.06,75.7-.54,64.89,.03c-9.7,.51-17.54,8.63-17.73,18.34-.17,8.71,5.6,16.09,13.52,18.38,2.13,.61,3.6,2.54,3.6,4.76v3.29l-18.39,18.39-9.75-9.75c-1.56-1.56-1.89-3.97-.82-5.91,3.99-7.23,2.85-16.53-3.43-22.56-7-6.73-18.29-6.93-25.5-.43-8.05,7.24-8.3,19.65-.74,27.21,6.04,6.04,15.16,7.09,22.28,3.17,1.94-1.07,4.35-.75,5.92,.81l9.75,9.75-9.9,9.9c-1.57,1.57-3.98,1.88-5.92,.81-7.12-3.92-16.25-2.87-22.28,3.17-7.56,7.56-7.31,19.97,.74,27.21,7.22,6.49,18.5,6.3,25.5-.43,6.28-6.04,7.42-15.33,3.43-22.56-1.07-1.94-.74-4.34,.82-5.91l9.9-9.9,18.39,18.39v.14h.14l.02,.02v3.29c0,2.22-1.48,4.14-3.61,4.76-7.81,2.26-13.52,9.46-13.52,18,0,10.69,8.95,19.29,19.76,18.72,9.7-.51,17.54-8.63,17.73-18.34,.17-8.71-5.6-16.09-13.52-18.38-2.12-.61-3.6-2.54-3.6-4.76v-3.29l18.39-18.39,9.75,9.75c1.56,1.56,1.89,3.97,.82,5.91-3.99,7.23-2.85,16.53,3.43,22.56,7,6.73,18.29,6.93,25.5,.43,8.05-7.24,8.3-19.65,.74-27.21-6.04-6.04-15.16-7.09-22.28-3.17Zm-39.75,5.38l-16.1-16.1,16.1-16.1v32.2Zm3.4,.16V49.53l16.1,16.1-16.1,16.1Z"/></g></svg>