<?xml version="1.0" encoding="UTF-8"?><svg id="Layer_2" xmlns="http://www.w3.org/2000/svg" viewBox="0 0 272.57 38.17"><g id="_0"><g><path d="M253.49,0H19.08C8.56,0,0,8.56,0,19.08s8.56,19.08,19.08,19.08H253.49c10.52,0,19.08-8.56,19.08-19.08S264.01,0,253.49,0Zm0,31.71H19.08c-6.96,0-12.62-5.66-12.62-12.62S12.12,6.46,19.08,6.46H253.49c6.96,0,12.62,5.66,12.62,12.62s-5.66,12.62-12.62,12.62Z"/><path d="M176.28,12.86H20.51c-3.32,0-6.02,2.69-6.02,6.02h0c0,3.32,2.69,6.02,6.02,6.02H176.28c3.32,0,6.02-2.69,6.02-6.02h0c0-3.32-2.69-6.02-6.02-6.02Z"/></g></g></svg>