<?xml version="1.0" encoding="UTF-8"?><svg id="Layer_2" xmlns="http://www.w3.org/2000/svg" viewBox="0 0 88.93 111.06"><g id="_7"><path d="M87.18,0c-.97,0-1.75,.78-1.75,1.75V27.18c-2.21-5.2-5.43-9.99-9.55-14.12C67.44,4.64,56.29,0,44.46,0,26.08,0,10.27,11.21,3.5,27.16V1.75c0-.97-.78-1.75-1.75-1.75S0,.78,0,1.75V109.31c0,.97,.78,1.75,1.75,1.75s1.75-.78,1.75-1.75v-25.42c2.21,5.2,5.43,9.99,9.55,14.12,8.42,8.42,19.58,13.06,31.4,13.06,18.38,0,34.2-11.21,40.96-27.16v25.41c0,.97,.78,1.75,1.75,1.75s1.75-.78,1.75-1.75V1.75c0-.97-.78-1.75-1.75-1.75ZM44.46,107.56c-10.89,0-21.16-4.27-28.93-12.03-7.76-7.76-12.03-18.04-12.03-28.93v-22.14C3.5,21.88,21.88,3.5,44.46,3.5c10.89,0,21.16,4.27,28.93,12.03,7.76,7.76,12.03,18.04,12.03,28.93v22.14c0,22.58-18.37,40.96-40.96,40.96Z"/></g></svg>