<?xml version="1.0" encoding="UTF-8"?><svg id="Layer_2" xmlns="http://www.w3.org/2000/svg" viewBox="0 0 134.74 137.81"><g id="_0"><path d="M134.74,60.3v-4.68h-40.87c-5.97,0-11.64,1.32-16.74,3.67,2.5-5.23,3.9-11.07,3.9-17.24V18.74h-4.68v23.3c0,9.03-3.4,17.28-8.97,23.55-5.58-6.27-8.97-14.52-8.97-23.55V0h-4.68V42.04c0,6.17,1.4,12.01,3.9,17.24-5.1-2.35-10.77-3.67-16.74-3.67H23.42v4.68h17.45c8.83,0,16.91,3.25,23.13,8.61-6.22,5.36-14.3,8.61-23.13,8.61H0v4.68H40.87c5.97,0,11.64-1.32,16.74-3.67-2.5,5.23-3.9,11.07-3.9,17.24v23.3h4.68v-23.3c0-9.03,3.4-17.28,8.97-23.55,5.58,6.27,8.97,14.52,8.97,23.55v42.04h4.68v-42.04c0-6.17-1.4-12.01-3.9-17.24,5.1,2.35,10.77,3.67,16.74,3.67h17.45v-4.68h-17.45c-8.83,0-16.91-3.25-23.13-8.61,6.22-5.36,14.3-8.61,23.13-8.61h40.87Z"/></g></svg>