<?xml version="1.0" encoding="UTF-8"?><svg id="Layer_2" xmlns="http://www.w3.org/2000/svg" viewBox="0 0 128.11 128.17"><g id="_1"><path d="M128.11,64.06C128.11,28.74,99.38,0,64.06,0S0,28.74,0,64.06s26,61.23,58.94,63.85c1.68,.17,3.39,.27,5.12,.27s3.44-.09,5.12-.27c32.94-2.62,58.94-30.25,58.94-63.85Zm-62.57,59.8c-.49,.01-.99,.02-1.48,.02s-.99,0-1.48-.02c-6.99-.74-12.46-6.68-12.46-13.86,0-7.69,6.26-13.94,13.94-13.94s13.94,6.26,13.94,13.94c0,7.19-5.47,13.12-12.46,13.86Zm14.09-4.5c1.65-2.74,2.61-5.94,2.61-9.37,0-10.02-8.15-18.18-18.18-18.18s-18.18,8.15-18.18,18.18c0,3.42,.95,6.63,2.61,9.37-8-5.14-13.31-14.11-13.31-24.31,0-15.93,12.96-28.88,28.88-28.88s28.88,12.96,28.88,28.88c0,10.2-5.31,19.17-13.31,24.31Zm10.25-3.6c4.56-5.68,7.3-12.88,7.3-20.71,0-18.26-14.86-33.12-33.12-33.12s-33.12,14.86-33.12,33.12c0,7.83,2.74,15.03,7.3,20.71-11.56-8.14-19.13-21.59-19.13-36.77,0-24.78,20.16-44.94,44.94-44.94s44.94,20.16,44.94,44.94c0,15.18-7.57,28.63-19.13,36.77Zm12.06-5.44c7.05-8.51,11.3-19.43,11.3-31.33,0-27.12-22.06-49.18-49.18-49.18S14.88,51.88,14.88,79c0,11.89,4.25,22.81,11.3,31.33-13.39-10.98-21.94-27.64-21.94-46.27C4.23,31.07,31.07,4.23,64.06,4.23s59.82,26.84,59.82,59.82c0,18.63-8.56,35.29-21.94,46.27Z"/></g></svg>