<?xml version="1.0" encoding="UTF-8"?><svg id="Layer_2" xmlns="http://www.w3.org/2000/svg" viewBox="0 0 129.64 129.64"><g id="_2"><path d="M0,8.78V120.87c0,4.85,3.93,8.78,8.78,8.78H120.87c4.85,0,8.78-3.93,8.78-8.78V8.78c0-4.85-3.93-8.78-8.78-8.78H8.78C3.93,0,0,3.93,0,8.78ZM31.73,31.92l26.44,26.44c3.43,3.43,3.43,8.99,0,12.42l-26.44,26.44c-3.94,3.94-10.56,3.3-13.55-1.4-5.77-9.03-9.11-19.75-9.11-31.24s3.35-22.21,9.11-31.24c3-4.69,9.61-5.34,13.55-1.4Zm41.77,41.77l26.44,26.44c3.94,3.94,3.3,10.56-1.4,13.55-9.03,5.77-19.75,9.11-31.24,9.11s-22.21-3.35-31.24-9.11c-4.69-3-5.34-9.61-1.4-13.55l26.44-26.44c3.43-3.43,8.99-3.43,12.42,0Zm29.35,23.52l-26.44-26.44c-3.43-3.43-3.43-8.99,0-12.42l26.44-26.44c3.94-3.94,10.56-3.3,13.55,1.4,5.77,9.03,9.11,19.75,9.11,31.24s-3.35,22.21-9.11,31.24c-3,4.69-9.61,5.34-13.55,1.4ZM61.08,55.44l-26.44-26.44c-3.94-3.94-3.3-10.56,1.4-13.55,9.03-5.77,19.75-9.11,31.24-9.11s22.21,3.35,31.24,9.11c4.69,3,5.34,9.61,1.4,13.55l-26.44,26.44c-3.43,3.43-8.99,3.43-12.42,0ZM12.9,4.12h5.53c7.96,0,11.78,9.71,5.99,15.19C12.43,30.69,4.94,46.76,4.94,64.56s7.73,34.37,20.05,45.76c5.85,5.41,1.98,15.2-5.99,15.2h-6.1c-4.85,0-8.78-3.93-8.78-8.78V12.9c0-4.85,3.93-8.78,8.78-8.78ZM116.74,125.52h-1.16c-8.01,0-11.8-9.81-5.93-15.25,.35-.32,.69-.65,1.03-.98,5.54-5.38,14.84-1.37,14.84,6.35v1.1c0,4.85-3.93,8.78-8.78,8.78Zm-.6-121.4h.6c4.85,0,8.78,3.93,8.78,8.78v.57c0,7.79-9.34,11.67-14.94,6.25-.16-.15-.31-.3-.47-.45-5.77-5.45-1.9-15.15,6.04-15.15Z"/></g></svg>