<?xml version="1.0" encoding="UTF-8"?><svg id="Layer_2" xmlns="http://www.w3.org/2000/svg" viewBox="0 0 233.2 307.86"><defs><style>.cls-1{stroke-width:0px;}</style></defs><g id="Elements"><g id="_10"><path class="cls-1" d="m168.77,82.32c-6.77,0-12.26,5.49-12.26,12.26v139.79c0,6.77,5.49,12.26,12.26,12.26h0c6.77,0,12.26-5.49,12.26-12.26V94.58c0-6.77-5.49-12.26-12.26-12.26Z"/><path class="cls-1" d="m116.6,109.14h0c-6.77,0-12.26,5.49-12.26,12.26v174.22c0,6.77,5.49,12.26,12.26,12.26h0c6.77,0,12.26-5.49,12.26-12.26V121.39c0-6.77-5.49-12.26-12.26-12.26Z"/><path class="cls-1" d="m116.6,82.19h0c6.77,0,12.26-5.49,12.26-12.26V12.26c0-6.77-5.49-12.26-12.26-12.26s-12.26,5.49-12.26,12.26v57.68c0,6.77,5.49,12.26,12.26,12.26Z"/><path class="cls-1" d="m220.94,58.59c-6.77,0-12.26,5.49-12.26,12.26v57.68c0,6.77,5.49,12.26,12.26,12.26h0c6.77,0,12.26-5.49,12.26-12.26v-57.68c0-6.77-5.49-12.26-12.26-12.26Z"/><path class="cls-1" d="m12.26,58.59h0c-6.77,0-12.26,5.49-12.26,12.26v57.68c0,6.77,5.49,12.26,12.26,12.26,6.77,0,12.26-5.49,12.26-12.26v-57.68c0-6.77-5.49-12.26-12.26-12.26Z"/><path class="cls-1" d="m64.43,82.32c-6.77,0-12.26,5.49-12.26,12.26v139.79c0,6.77,5.49,12.26,12.26,12.26s12.26-5.49,12.26-12.26V94.58c0-6.77-5.49-12.26-12.26-12.26Z"/></g></g></svg>