<?xml version="1.0" encoding="UTF-8"?><svg id="Layer_2" xmlns="http://www.w3.org/2000/svg" viewBox="0 0 91.56 161.32"><g id="_2"><g><circle cx="45.78" cy="80.66" r="12.46"/><path d="M45.78,143.69c-4.87,0-8.81,3.95-8.81,8.81s3.95,8.81,8.81,8.81,8.81-3.95,8.81-8.81-3.95-8.81-8.81-8.81Z"/><circle cx="45.78" cy="8.81" r="8.81"/><path d="M45.78,34.88C20.54,34.88,0,55.42,0,80.66s20.54,45.78,45.78,45.78,45.78-20.54,45.78-45.78-20.54-45.78-45.78-45.78Zm0,88.48c-23.54,0-42.7-19.15-42.7-42.7S22.23,37.96,45.78,37.96s42.7,19.15,42.7,42.7-19.15,42.7-42.7,42.7Z"/></g></g></svg>