<?xml version="1.0" encoding="UTF-8"?><svg id="Layer_2" xmlns="http://www.w3.org/2000/svg" viewBox="0 0 91.15 91.15"><g id="_7"><path d="M91.15,0H0V91.15H91.15V0Zm-17.5,17.37l-27.89,27.89L17.87,17.37c7.32-6.82,17.12-11,27.89-11s20.57,4.18,27.89,11Zm-29.94,29.94l-27.89,27.89c-6.82-7.32-11-17.12-11-27.89s4.18-20.57,11-27.89l27.89,27.89Zm-25.84,29.94l27.89-27.89,27.89,27.89c-7.32,6.82-17.12,11-27.89,11s-20.57-4.18-27.89-11Zm29.94-29.94l27.89-27.89c6.82,7.32,11,17.12,11,27.89s-4.18,20.57-11,27.89l-27.89-27.89ZM88.25,2.9V36.51C83.43,17.54,66.21,3.47,45.76,3.47S7.15,18.33,2.9,38.09V2.9H88.25ZM2.9,88.25v-31.72c3.13,14.57,13.52,26.47,27.19,31.72H2.9Zm85.35-30.14v30.14h-26.82c13.17-5.06,23.3-16.29,26.82-30.14Z"/></g></svg>