<?xml version="1.0" encoding="UTF-8"?><svg id="Layer_2" xmlns="http://www.w3.org/2000/svg" viewBox="0 0 239.09 287.52"><defs><style>.cls-1{stroke-width:0px;}</style></defs><g id="Elements"><g id="_35"><path class="cls-1" d="m234.82,62.27h0c-5.69-5.69-14.92-5.69-20.61,0l-64.89,64.89c-5.61,5.61-15.2,1.64-15.2-6.3v-9.94c0-4.92-3.99-8.9-8.9-8.9h-11.34c-4.92,0-8.9,3.99-8.9,8.9v9.94c0,7.93-9.59,11.9-15.2,6.3L24.88,62.27c-5.69-5.69-14.92-5.69-20.61,0h0c-5.69,5.69-5.69,14.92,0,20.61l88.37,88.37c3.48,3.48,3.48,9.11,0,12.59l-23.48,23.48c-3.48,3.48-3.48,9.11,0,12.59l8.02,8.02c3.48,3.48,9.11,3.48,12.59,0h0c5.61-5.61,15.2-1.64,15.2,6.3v38.72c0,8.05,6.53,14.57,14.57,14.57h0c8.05,0,14.57-6.53,14.57-14.57v-38.72c0-7.93,9.59-11.9,15.2-6.3h0c3.48,3.48,9.11,3.48,12.59,0l8.02-8.02c3.48-3.48,3.48-9.11,0-12.59l-23.48-23.48c-3.48-3.48-3.48-9.11,0-12.59l88.37-88.37c5.69-5.69,5.69-14.92,0-20.61Z"/><rect class="cls-1" x="104.97" y="0" width="29.15" height="75.52" rx="14.57" ry="14.57"/></g></g></svg>