<?xml version="1.0" encoding="UTF-8"?><svg id="Layer_2" xmlns="http://www.w3.org/2000/svg" viewBox="0 0 131.51 126.11"><g id="_0"><path d="M131.51,63.05c0-15.66-5.99-30-15.87-41.03-.06-.17-.14-.33-.25-.49-.21-.29-.48-.5-.79-.65C102.56,8.07,85.12,0,65.76,0,29.5,0,0,28.28,0,63.05c0,7.7,1.48,15.39,4.34,22.54,2.81,7.01,6.92,13.47,12.02,19.04,5.15,5.62,11.3,10.31,18.05,13.84,7.81,4.08,16.37,6.54,25.14,7.36,9.5,.89,19.14-.27,28.18-3.35,8.16-2.78,15.76-7.14,22.26-12.81,1.69-1.48,3.31-3.04,4.84-4.68,.3-.14,.57-.35,.78-.64,.12-.16,.2-.33,.26-.51,9.75-11,15.65-25.24,15.65-40.78Zm-18.03,37.23c-5.42-3.74-11.22-6.76-17.29-9.02,2.63-7.13,4.26-14.66,4.75-22.37,.76-11.86-1.15-23.52-5.37-34.22,6.22-2.25,12.15-5.3,17.7-9.1,8.81,10.19,14.11,23.25,14.11,37.48s-5.22,27.07-13.9,37.23Zm-43.82,21.57c-.61,.04-1.23,.07-1.84,.09v-31.48h0c7.87-.07,15.57,1.06,22.91,3.33-4.68,10.79-11.86,20.45-21.07,28.07Zm-6.09,.14c-8.97-7.38-16.03-16.69-20.75-27.09,6.65-2.41,13.65-3.86,20.86-4.3v31.34l-.12,.06Zm-6.98-.67c-12.87-1.84-24.44-7.5-33.43-15.72,4.95-3.74,10.25-6.81,15.82-9.19,4.19,9.3,10.15,17.79,17.61,24.91ZM67.82,4.3c9.67,7.52,17.2,17.1,22.18,27.85-7.12,2.12-14.57,3.17-22.18,3.11h0V4.3Zm-4.13,1.24v29.58c-6.94-.43-13.69-1.79-20.12-4.04,4.7-9.74,11.51-18.48,20.12-25.54Zm-23.99,24.06c-5.75-2.38-11.21-5.49-16.3-9.31,9.4-8.52,21.6-14.23,35.12-15.75-7.97,7.11-14.32,15.65-18.82,25.06Zm23.99,9.65v47.2c-7.69,.47-15.25,2.06-22.44,4.68-2.79-7.14-4.5-14.73-4.99-22.51-.75-11.74,1.24-23.26,5.62-33.77,6.97,2.47,14.28,3.95,21.82,4.39Zm4.79,47.05c-.22,0-.44,0-.66,0V39.39c.22,0,.44,0,.66,0,7.95,0,15.73-1.16,23.17-3.42,4.06,10.21,5.9,21.33,5.17,32.65-.47,7.34-2.02,14.51-4.54,21.3-7.62-2.39-15.62-3.62-23.8-3.62ZM110.43,22.51c-5.17,3.48-10.7,6.27-16.47,8.35-4.47-9.81-10.95-18.7-19.15-26.09,13.93,1.97,26.35,8.41,35.62,17.74Zm-90.03,.7c5.49,4.18,11.4,7.58,17.62,10.17-4.59,11.06-6.68,23.17-5.89,35.51,.53,8.21,2.33,16.21,5.27,23.75-6.12,2.59-11.91,5.95-17.22,10.02-9.97-10.47-16.05-24.38-16.05-39.62s6.17-29.35,16.27-39.84Zm56.38,97.81c7.66-7.4,13.73-16.23,17.88-25.92,5.61,2.08,10.97,4.84,16,8.25-8.86,9.01-20.64,15.37-33.88,17.67Z"/></g></svg>