<?xml version="1.0" encoding="UTF-8"?><svg id="Layer_2" xmlns="http://www.w3.org/2000/svg" viewBox="0 0 892.69 176.37"><defs><style>.cls-1{stroke-width:0px;}</style></defs><g id="Elements"><g id="_16"><path class="cls-1" d="m2.54,172.06c.96.62,3.2,1.58,5.55,1.58,4.35,0,5.7-2.77,5.66-4.85-.04-3.5-3.2-5.01-6.47-5.01h-1.89v-2.54h1.89c2.46,0,5.58-1.27,5.58-4.24,0-2-1.27-3.77-4.39-3.77-2,0-3.93.89-5.01,1.66l-.89-2.46c1.31-.96,3.85-1.93,6.55-1.93,4.93,0,7.16,2.93,7.16,5.97,0,2.58-1.54,4.78-4.62,5.89v.08c3.08.62,5.58,2.93,5.58,6.43,0,4.01-3.12,7.51-9.13,7.51-2.81,0-5.28-.89-6.51-1.69l.92-2.62Z"/><path class="cls-1" d="m85.73,153.76h-9.55l-.96,6.43c.58-.08,1.12-.15,2.04-.15,1.93,0,3.85.42,5.39,1.35,1.96,1.12,3.58,3.27,3.58,6.43,0,4.89-3.89,8.55-9.32,8.55-2.73,0-5.05-.77-6.24-1.54l.85-2.58c1.04.62,3.08,1.39,5.35,1.39,3.2,0,5.93-2.08,5.93-5.43-.04-3.24-2.19-5.55-7.2-5.55-1.43,0-2.54.15-3.47.27l1.62-12.02h11.98v2.85Z"/><path class="cls-1" d="m154.12,153.3c-.69-.04-1.58,0-2.54.15-5.31.89-8.13,4.78-8.7,8.9h.12c1.19-1.58,3.27-2.89,6.05-2.89,4.43,0,7.55,3.2,7.55,8.09,0,4.58-3.12,8.82-8.32,8.82s-8.86-4.16-8.86-10.67c0-4.93,1.77-8.82,4.24-11.29,2.08-2.04,4.85-3.31,8.01-3.7,1-.15,1.85-.19,2.46-.19v2.77Zm-.96,14.44c0-3.58-2.04-5.74-5.16-5.74-2.04,0-3.93,1.27-4.85,3.08-.23.38-.39.89-.39,1.5.08,4.12,1.96,7.16,5.51,7.16,2.93,0,4.89-2.43,4.89-6.01Z"/><path class="cls-1" d="m219.36,175.95v-6.82h-11.63v-2.23l11.17-15.98h3.66v15.56h3.51v2.66h-3.51v6.82h-3.2Zm0-9.47v-8.36c0-1.31.04-2.62.12-3.93h-.12c-.77,1.46-1.39,2.54-2.08,3.7l-6.12,8.51v.08h8.2Z"/><path class="cls-1" d="m277.62,169.59c0-3.16,1.89-5.39,4.97-6.7l-.04-.12c-2.77-1.31-3.97-3.47-3.97-5.62,0-3.97,3.35-6.66,7.74-6.66,4.85,0,7.28,3.04,7.28,6.16,0,2.12-1.04,4.39-4.12,5.85v.12c3.12,1.23,5.04,3.43,5.04,6.47,0,4.35-3.74,7.28-8.51,7.28-5.24,0-8.4-3.12-8.4-6.78Zm13.48-.15c0-3.04-2.12-4.51-5.51-5.47-2.93.85-4.51,2.77-4.51,5.16-.12,2.54,1.81,4.78,5.01,4.78s5.01-1.89,5.01-4.47Zm-9.32-12.52c0,2.5,1.89,3.85,4.78,4.62,2.16-.73,3.81-2.27,3.81-4.54,0-2-1.19-4.08-4.24-4.08-2.81,0-4.35,1.85-4.35,4.01Z"/><path class="cls-1" d="m361.27,153.3c-.69-.04-1.58,0-2.54.15-5.31.89-8.13,4.78-8.7,8.9h.12c1.19-1.58,3.27-2.89,6.05-2.89,4.43,0,7.55,3.2,7.55,8.09,0,4.58-3.12,8.82-8.32,8.82s-8.86-4.16-8.86-10.67c0-4.93,1.77-8.82,4.24-11.29,2.08-2.04,4.85-3.31,8.01-3.7,1-.15,1.85-.19,2.46-.19v2.77Zm-.96,14.44c0-3.58-2.04-5.74-5.16-5.74-2.04,0-3.93,1.27-4.85,3.08-.23.38-.39.89-.39,1.5.08,4.12,1.96,7.16,5.51,7.16,2.93,0,4.89-2.43,4.89-6.01Z"/><path class="cls-1" d="m417.99,173.56c.73.08,1.58,0,2.73-.12,1.96-.27,3.81-1.08,5.24-2.43,1.66-1.5,2.85-3.7,3.31-6.66h-.12c-1.39,1.7-3.39,2.7-5.89,2.7-4.51,0-7.39-3.39-7.39-7.66,0-4.74,3.43-8.9,8.55-8.9s8.28,4.16,8.28,10.55c0,5.51-1.85,9.36-4.31,11.75-1.93,1.89-4.58,3.04-7.28,3.35-1.23.19-2.31.23-3.12.19v-2.77Zm1.23-14.4c0,3.12,1.89,5.32,4.81,5.32,2.27,0,4.04-1.12,4.93-2.62.19-.31.31-.69.31-1.23,0-4.28-1.58-7.55-5.12-7.55-2.89,0-4.93,2.54-4.93,6.08Z"/><path class="cls-1" d="m484.77,169.59c0-3.16,1.89-5.39,4.97-6.7l-.04-.12c-2.77-1.31-3.97-3.47-3.97-5.62,0-3.97,3.35-6.66,7.74-6.66,4.85,0,7.28,3.04,7.28,6.16,0,2.12-1.04,4.39-4.12,5.85v.12c3.12,1.23,5.04,3.43,5.04,6.47,0,4.35-3.74,7.28-8.51,7.28-5.24,0-8.4-3.12-8.4-6.78Zm13.48-.15c0-3.04-2.12-4.51-5.51-5.47-2.93.85-4.51,2.77-4.51,5.16-.12,2.54,1.81,4.78,5.01,4.78s5.01-1.89,5.01-4.47Zm-9.32-12.52c0,2.5,1.89,3.85,4.78,4.62,2.16-.73,3.81-2.27,3.81-4.54,0-2-1.19-4.08-4.24-4.08-2.81,0-4.35,1.85-4.35,4.01Z"/><path class="cls-1" d="m564.6,175.95v-6.82h-11.63v-2.23l11.17-15.98h3.66v15.56h3.5v2.66h-3.5v6.82h-3.2Zm0-9.47v-8.36c0-1.31.04-2.62.12-3.93h-.12c-.77,1.46-1.39,2.54-2.08,3.7l-6.12,8.51v.08h8.2Z"/><path class="cls-1" d="m623.18,175.95v-2.08l2.66-2.58c6.39-6.08,9.28-9.32,9.32-13.09,0-2.54-1.23-4.89-4.97-4.89-2.27,0-4.16,1.16-5.32,2.12l-1.08-2.39c1.73-1.46,4.2-2.54,7.09-2.54,5.39,0,7.66,3.7,7.66,7.28,0,4.62-3.35,8.36-8.63,13.44l-2,1.85v.08h11.25v2.81h-15.98Z"/><path class="cls-1" d="m707.17,153.76h-9.55l-.96,6.43c.58-.08,1.12-.15,2.04-.15,1.93,0,3.85.42,5.39,1.35,1.96,1.12,3.58,3.27,3.58,6.43,0,4.89-3.89,8.55-9.32,8.55-2.74,0-5.05-.77-6.24-1.54l.85-2.58c1.04.62,3.08,1.39,5.35,1.39,3.2,0,5.93-2.08,5.93-5.43-.04-3.24-2.19-5.55-7.2-5.55-1.43,0-2.54.15-3.47.27l1.62-12.02h11.98v2.85Z"/><path class="cls-1" d="m762.08,172.06c.96.62,3.2,1.58,5.55,1.58,4.35,0,5.7-2.77,5.66-4.85-.04-3.5-3.2-5.01-6.47-5.01h-1.89v-2.54h1.89c2.46,0,5.58-1.27,5.58-4.24,0-2-1.27-3.77-4.39-3.77-2,0-3.93.89-5.01,1.66l-.89-2.46c1.31-.96,3.85-1.93,6.55-1.93,4.93,0,7.16,2.93,7.16,5.97,0,2.58-1.54,4.78-4.62,5.89v.08c3.08.62,5.58,2.93,5.58,6.43,0,4.01-3.12,7.51-9.13,7.51-2.81,0-5.28-.89-6.51-1.69l.92-2.62Z"/><path class="cls-1" d="m840.8,175.95v-6.82h-11.63v-2.23l11.17-15.98h3.66v15.56h3.5v2.66h-3.5v6.82h-3.2Zm0-9.47v-8.36c0-1.31.04-2.62.12-3.93h-.12c-.77,1.46-1.39,2.54-2.08,3.7l-6.12,8.51v.08h8.2Z"/><rect class="cls-1" width="22.12" height="99.99"/><rect class="cls-1" x="157.6" width="22.12" height="53.98"/><rect class="cls-1" x="291.51" y="30.67" width="12.99" height="69.32"/><rect class="cls-1" x="86.45" y="30.67" width="6.49" height="69.32"/><rect class="cls-1" x="380.71" width="13.56" height="99.99"/><rect class="cls-1" x="414.14" width="13.56" height="69.32"/><rect class="cls-1" x="447.57" width="13.56" height="99.99"/><rect class="cls-1" x="481" y="76.68" width="13.56" height="23.31"/><rect class="cls-1" x="514.43" width="13.56" height="99.99"/><rect class="cls-1" x="605.61" y="30.67" width="13.56" height="69.32"/><rect class="cls-1" x="696.78" width="13.56" height="99.99"/><rect class="cls-1" x="787.96" width="13.56" height="69.32"/><rect class="cls-1" x="879.13" width="13.56" height="99.99"/></g></g></svg>