<?xml version="1.0" encoding="UTF-8"?><svg id="Layer_2" xmlns="http://www.w3.org/2000/svg" viewBox="0 0 181.22 249.25"><defs><style>.cls-1{stroke-width:0px;}</style></defs><g id="Elements"><g id="_31"><circle class="cls-1" cx="28.09" cy="28.09" r="28.09" transform="translate(-8.61 43.29) rotate(-67.5)"/><path class="cls-1" d="m153.13,0c-15.51,0-28.09,12.57-28.09,28.09s12.57,28.09,28.09,28.09,28.09-12.57,28.09-28.09S168.65,0,153.13,0Z"/><path class="cls-1" d="m90.61,91.48c-15.51,0-28.09,12.57-28.09,28.09s12.57,28.09,28.09,28.09,28.09-12.57,28.09-28.09-12.58-28.09-28.09-28.09Z"/><path class="cls-1" d="m90.61,193.08c-15.51,0-28.09,12.57-28.09,28.09s12.57,28.09,28.09,28.09,28.09-12.57,28.09-28.09-12.58-28.09-28.09-28.09Z"/></g></g></svg>