<?xml version="1.0" encoding="UTF-8"?><svg id="Layer_2" xmlns="http://www.w3.org/2000/svg" viewBox="0 0 301.06 236.79"><defs><style>.cls-1{stroke-width:0px;}</style></defs><g id="Elements"><g id="_06"><path class="cls-1" d="m178.32,68.53l29.28-29.28c1.72-1.72,4.06-2.69,6.49-2.69h23.89c2.63,0,5.16-1.03,7.04-2.88l18.26-17.94c5.86-5.76,1.78-15.74-6.44-15.74h-38.38c-2.44,0-4.77.97-6.49,2.69l-49.77,49.77c-4.44,4.44-4.44,11.63,0,16.07,4.45,4.45,11.66,4.45,16.11,0Z"/><path class="cls-1" d="m90.2,2.69c-1.72-1.72-4.06-2.69-6.49-2.69h-38.38c-8.22,0-12.3,9.97-6.44,15.74l18.26,17.94c1.88,1.85,4.41,2.88,7.04,2.88h23.89c2.44,0,4.77.97,6.49,2.69l29.28,29.28c4.45,4.45,11.66,4.45,16.11,0h0c4.44-4.44,4.44-11.63,0-16.07L90.2,2.69Z"/><path class="cls-1" d="m245.03,203.12c-1.88-1.85-4.41-2.88-7.04-2.88h-23.89c-2.44,0-4.77-.97-6.49-2.69l-29.28-29.28c-4.45-4.45-11.66-4.45-16.11,0h0c-4.44,4.44-4.44,11.63,0,16.07l49.77,49.77c1.72,1.72,4.06,2.69,6.49,2.69h38.38c8.22,0,12.3-9.97,6.44-15.74l-18.26-17.94Z"/><path class="cls-1" d="m139.97,168.26c-4.45-4.45-11.66-4.45-16.11,0l-29.28,29.28c-1.72,1.72-4.06,2.69-6.49,2.69h-23.89c-2.63,0-5.16,1.03-7.04,2.88l-18.26,17.94c-5.86,5.76-1.79,15.74,6.44,15.74h38.38c2.44,0,4.77-.97,6.49-2.69l49.77-49.77c4.44-4.44,4.44-11.63,0-16.07h0Z"/><path class="cls-1" d="m245.85,68.52h-23.89c-2.63,0-5.16,1.03-7.04,2.88l-18.26,17.94c-5.86,5.76-1.79,15.74,6.44,15.74h38.38c2.44,0,4.77-.97,6.49-2.69l49.77-49.77c4.44-4.44,4.44-11.63,0-16.07h0c-4.45-4.45-11.66-4.45-16.11,0l-29.28,29.28c-1.72,1.72-4.06,2.69-6.49,2.69Z"/><path class="cls-1" d="m53.1,102.39c1.72,1.72,4.06,2.69,6.49,2.69h38.38c8.22,0,12.3-9.97,6.44-15.74l-18.26-17.94c-1.88-1.85-4.41-2.88-7.04-2.88h-23.89c-2.44,0-4.77-.97-6.49-2.69l-29.28-29.28c-4.45-4.45-11.66-4.45-16.11,0-4.44,4.44-4.44,11.63,0,16.07l49.77,49.77Z"/><path class="cls-1" d="m247.96,135.62c-1.72-1.72-4.06-2.69-6.49-2.69h-38.38c-8.22,0-12.3,9.97-6.44,15.74l18.26,17.94c1.88,1.85,4.41,2.88,7.04,2.88h23.89c2.44,0,4.77.97,6.49,2.69l29.28,29.28c4.45,4.45,11.66,4.45,16.11,0h0c4.44-4.44,4.44-11.63,0-16.07l-49.77-49.77Z"/><path class="cls-1" d="m55.21,169.49h23.89c2.63,0,5.16-1.03,7.04-2.88l18.26-17.94c5.86-5.76,1.78-15.74-6.44-15.74h-38.38c-2.44,0-4.77.97-6.49,2.69L3.33,185.39c-4.44,4.44-4.44,11.63,0,16.07,4.45,4.45,11.66,4.45,16.11,0l29.28-29.28c1.72-1.72,4.06-2.69,6.49-2.69Z"/></g></g></svg>