<?xml version="1.0" encoding="UTF-8"?><svg id="Layer_2" xmlns="http://www.w3.org/2000/svg" viewBox="0 0 163.39 75.38"><g id="_3"><path d="M163.39,22.79C163.39,7.99,121.3,0,81.7,0,60.25,0,40.06,2.18,24.85,6.15,13.51,9.1,0,14.39,0,22.79v29.8c0,14.8,42.09,22.79,81.7,22.79,21.45,0,41.64-2.18,56.85-6.15,11.33-2.96,24.85-8.24,24.85-16.64V22.79h0ZM25.86,10.05c14.89-3.88,34.72-6.02,55.83-6.02s40.95,2.14,55.83,6.02c10.55,2.75,21.83,7.54,21.83,12.74s-11.28,9.99-21.83,12.74c-14.89,3.88-34.72,6.02-55.83,6.02s-40.95-2.14-55.83-6.02c-10.55-2.75-21.83-7.54-21.83-12.74S15.31,12.8,25.86,10.05ZM159.36,30.27v14.83c-3.58-3.11-9.11-5.55-14.84-7.41,5.69-1.85,11.25-4.29,14.84-7.42ZM18.84,37.7c-5.72,1.86-11.23,4.3-14.81,7.4v-14.81c3.28,2.86,8.4,5.34,14.81,7.41Zm-14.81,14.89h0v-.02c.03-5.23,11.35-10.01,22.14-12.79,14.93,3.69,34.42,5.66,53.51,5.79v25.77c-20.36-.13-39.4-2.26-53.82-6.01-10.55-2.75-21.83-7.54-21.83-12.74Zm133.5,12.74c-14.41,3.76-33.46,5.88-53.82,6.01v-25.77c20.07-.13,38.93-2.17,53.49-5.8,10.81,2.79,22.16,7.58,22.16,12.82s-11.28,9.99-21.83,12.74Z"/></g></svg>