<?xml version="1.0" encoding="UTF-8"?><svg id="Layer_2" xmlns="http://www.w3.org/2000/svg" viewBox="0 0 123.89 150.36"><g id="_8"><path d="M123.89,126.2L78.4,47.42V16.46c0-9.08-7.38-16.46-16.46-16.46s-16.46,7.38-16.46,16.46v30.96L0,126.2H45.48v7.7c0,9.08,7.38,16.46,16.46,16.46s16.46-7.38,16.46-16.46v-7.7h45.48Zm-10.39-6h-35.1V59.41l35.1,60.79Zm-41.09,0h-20.92V49.03l10.46-18.12,10.46,18.12V120.2ZM51.48,16.46c0-5.77,4.69-10.46,10.46-10.46s10.46,4.69,10.46,10.46v20.57l-10.46-18.12-10.46,18.12V16.46ZM10.39,120.2L45.48,59.41v60.79H10.39Zm62.02,13.7c0,5.77-4.69,10.46-10.46,10.46s-10.46-4.69-10.46-10.46v-7.7h20.92v7.7Z"/></g></svg>