<?xml version="1.0" encoding="UTF-8"?><svg id="Layer_2" xmlns="http://www.w3.org/2000/svg" viewBox="0 0 121.98 121.98"><g id="_5"><g><path d="M121.98,28.13c0-15.54-12.59-28.13-28.13-28.13-13.16,0-24.2,9.03-27.28,21.22-.56,2.21-.85,4.53-.85,6.91v28.13h28.13c15.54,0,28.13-12.59,28.13-28.13Z"/><path d="M0,93.85c0,15.54,12.59,28.13,28.13,28.13,13.16,0,24.2-9.03,27.28-21.22,.56-2.21,.85-4.53,.85-6.91v-28.13H28.13c-15.54,0-28.13,12.59-28.13,28.13Z"/><path d="M21.22,55.41c2.21,.56,4.53,.85,6.91,.85h28.13V28.13C56.27,12.59,43.67,0,28.13,0S0,12.59,0,28.13c0,13.16,9.03,24.2,21.22,27.28Z"/><path d="M100.76,66.57c-2.21-.56-4.53-.85-6.91-.85h-28.13v28.13c0,15.54,12.59,28.13,28.13,28.13s28.13-12.59,28.13-28.13c0-13.16-9.03-24.2-21.22-27.28Z"/></g></g></svg>