<?xml version="1.0" encoding="UTF-8"?><svg id="Layer_2" xmlns="http://www.w3.org/2000/svg" viewBox="0 0 149.73 129.67"><g id="_7"><g><path d="M74.86,97.8c-5.04,0-9.14,4.1-9.14,9.14s4.1,9.14,9.14,9.14,9.14-4.1,9.14-9.14-4.1-9.14-9.14-9.14Zm0,13.64c-2.48,0-4.5-2.02-4.5-4.5s2.02-4.5,4.5-4.5,4.5,2.02,4.5,4.5-2.02,4.5-4.5,4.5Z"/><path d="M74.86,0L0,129.67H149.73L74.86,0Zm0,9.29l66.82,115.74H8.04L74.86,9.29Z"/><path d="M81.38,91.65l1.78-51.14h-16.59l1.78,51.14h13.03Zm-3.03-46.49l-1.45,41.85h-4.06l-1.45-41.85h6.97Z"/></g></g></svg>