<?xml version="1.0" encoding="UTF-8"?><svg id="Layer_2" xmlns="http://www.w3.org/2000/svg" viewBox="0 0 127.14 127.14"><g id="_8"><path d="M97.35,17.24L80.22,.11l-16.8,16.8L46.51,0,29.48,17.02l16.91,16.91-12.46,12.46L17.02,29.48,0,46.51l16.91,16.91L.11,80.22l17.13,17.13,16.8-16.8,12.54,12.54-16.8,16.8,17.13,17.13,16.8-16.8,16.91,16.91,17.02-17.02-16.91-16.91,12.46-12.46,16.91,16.91,17.02-17.02-16.91-16.91,16.8-16.8-17.13-17.13-16.8,16.8-12.54-12.54,16.8-16.8Zm-21.28,46.37l-12.46,12.46-12.54-12.54,12.46-12.46,12.54,12.54Z"/></g></svg>