<?xml version="1.0" encoding="UTF-8"?><svg id="Layer_2" xmlns="http://www.w3.org/2000/svg" viewBox="0 0 95.05 95.05"><g id="_9"><g><path d="M47.44,73.62c13.59,0,24.64-11.29,24.64-25.17s-11.05-25.17-24.64-25.17-24.64,11.29-24.64,25.17,11.05,25.17,24.64,25.17Zm21.61-25.17c0,3.54-.82,6.89-2.27,9.86-2.74,1.24-5.66,1.87-8.69,1.87-11.92,0-21.61-9.94-21.61-22.15,0-3.42,.78-6.81,2.26-9.85,2.66-1.21,5.61-1.88,8.7-1.88,11.92,0,21.61,9.94,21.61,22.15ZM34.53,30.7c-.71,2.37-1.07,4.85-1.07,7.34,0,13.88,11.05,25.17,24.64,25.17,2.08,0,4.12-.26,6.09-.77-3.97,4.98-10,8.16-16.74,8.16-11.92,0-21.61-9.94-21.61-22.15,0-7.26,3.42-13.71,8.7-17.75Z"/><path d="M0,0V95.05H95.05V0H0ZM92.03,92.03H3.02V3.02H92.03V92.03Z"/></g></g></svg>