<?xml version="1.0" encoding="UTF-8"?><svg id="Layer_2" xmlns="http://www.w3.org/2000/svg" viewBox="0 0 220.22 257.39"><defs><style>.cls-1{stroke-width:0px;}</style></defs><g id="Elements"><g id="_29"><path class="cls-1" d="m199.89,50.65l-53.5-38.87c-21.63-15.72-50.92-15.72-72.55,0L20.35,50.65C3.01,63.25-4.19,85.4,2.43,105.78l11.17,34.39c13.56,41.74,52.07,70.9,95.96,71.14,44.13.24,83.01-27.87,96.63-69.8l11.61-35.73c6.6-20.32-.63-42.57-17.91-55.13Zm-.57,49.12l-11.61,35.73c-10.97,33.77-42.23,56.44-77.74,56.37-35.58-.06-66.84-23.76-77.84-57.6l-11.21-34.51c-4.01-12.35.35-25.77,10.85-33.4l42.07-30.57c21.63-15.72,50.92-15.72,72.55,0l42.07,30.57c10.47,7.61,14.85,21.09,10.85,33.4Z"/><path class="cls-1" d="m110.12,76.13c-8.93,0-16.17,7.24-16.17,16.17s7.24,16.17,16.17,16.17,16.17-7.24,16.17-16.17-7.24-16.17-16.17-16.17Z"/><path class="cls-1" d="m110.12,124.28c-6.32,0-11.44,5.12-11.44,11.44s5.12,11.44,11.44,11.44,11.44-5.12,11.44-11.44-5.12-11.44-11.44-11.44Z"/><path class="cls-1" d="m110.12,234.51c-6.32,0-11.44,5.12-11.44,11.44s5.12,11.44,11.44,11.44,11.44-5.12,11.44-11.44-5.12-11.44-11.44-11.44Z"/></g></g></svg>