<?xml version="1.0" encoding="UTF-8"?><svg id="Layer_2" xmlns="http://www.w3.org/2000/svg" viewBox="0 0 136.97 160.73"><g id="_6"><g><path d="M86.65,84.35c-11.26,9.85-14.77,23.25-12.82,26.02,2.03,2.88,18.07,3.23,27.4-1.38,9.33-4.61,15.45-15.76,12.91-23.97-2.28-7.39-16.76-10.06-27.49-.67Z"/><path d="M50.43,84.35c-10.73-9.39-25.21-6.72-27.49,.67-2.54,8.21,3.58,19.36,12.91,23.97,9.33,4.61,25.37,4.26,27.4,1.38,1.96-2.77-1.56-16.17-12.82-26.02Z"/><path d="M135.28,56.59c-2.49-11.95-7.51-23.04-14.51-32.06C111.97,13.19,95.77-.26,68.48,0,41.21-.26,25,13.19,16.2,24.53,9.2,33.56,4.18,44.64,1.69,56.59c-2.28,10.92-2.25,21.74,.09,30.46,2.99,11.16,10.65,25.43,21.02,39.15,10.72,14.18,22.84,25.61,33.25,31.36,3.84,2.12,8.14,3.17,12.44,3.17s8.6-1.06,12.44-3.17c10.41-5.74,22.53-17.17,33.25-31.36,10.37-13.72,18.04-27.99,21.02-39.15,2.33-8.72,2.36-19.54,.09-30.46Zm-4.99,29.14c-5.51,20.61-29.86,55.26-51.83,67.38-6.16,3.4-13.81,3.4-19.97,0-21.96-12.12-46.31-46.77-51.83-67.38-4.02-15.02-.66-39.8,13.53-58.09C28.22,17.32,42.94,5.08,67.68,5.08c.26,0,.52,0,.78,0h.05c25.2-.27,40.15,12.13,48.25,22.57,14.19,18.29,17.55,43.07,13.53,58.09Z"/></g></g></svg>