<?xml version="1.0" encoding="UTF-8"?><svg id="Layer_2" xmlns="http://www.w3.org/2000/svg" viewBox="0 0 242.95 242.36"><defs><style>.cls-1{stroke-width:0px;}</style></defs><g id="Elements"><g id="_03"><path class="cls-1" d="m108.27,153.58l13.2-13.2-19.2-19.2-6,6c-2.07,2.07-5.42,2.07-7.49,0l-6-6.01-8.19,8.19c-2.07,2.07-2.07,5.42,0,7.49l19.26,19.26c2.07,2.07,2.07,5.42,0,7.49l-43.85,43.85c-2.07,2.07-5.42,2.07-7.49,0l-19.26-19.26c-2.07-2.07-5.42-2.07-7.49,0l-14.2,14.2c-2.07,2.07-2.07,5.42,0,7.49l11.94,11.94c2.07,2.07,5.42,2.07,7.49,0,2.07-2.07,5.42-2.07,7.49,0l18.97,18.97c2.07,2.07,5.42,2.07,7.49,0l22.6-22.6c2.07-2.07,2.07-5.42,0-7.49l-.56-.56c-2.07-2.07-2.07-5.42,0-7.49l12.07-12.07c2.07-2.07,5.42-2.07,7.49,0l.56.56c2.07,2.07,5.42,2.07,7.49,0l16.89-16.89-13.2-13.2c-2.07-2.07-2.07-5.42,0-7.49Z"/><path class="cls-1" d="m227.2,188.2c-2.07-2.07-5.42-2.07-7.49,0l-19.26,19.26c-2.07,2.07-5.42,2.07-7.49,0l-43.85-43.85c-2.07-2.07-2.07-5.42,0-7.49l19.26-19.26c2.07-2.07,2.07-5.42,0-7.49l-8.19-8.19-6.01,6.01c-2.07,2.07-5.42,2.07-7.49,0l-6.01-6.01-19.2,19.2,13.2,13.2c2.07,2.07,2.07,5.42,0,7.49l-13.2,13.2,16.89,16.89c2.07,2.07,5.42,2.07,7.49,0l.56-.56c2.07-2.07,5.42-2.07,7.49,0l12.07,12.07c2.07,2.07,2.07,5.42,0,7.49l-.56.56c-2.07,2.07-2.07,5.42,0,7.49l22.6,22.6c2.07,2.07,5.42,2.07,7.49,0l18.97-18.97c2.07-2.07,5.42-2.07,7.49,0,2.07,2.07,5.42,2.07,7.49,0l11.94-11.94c2.07-2.07,2.07-5.42,0-7.49l-14.2-14.2Z"/><path class="cls-1" d="m134.68,88.78l-13.2,13.2,19.2,19.2,6-6c2.07-2.07,5.42-2.07,7.49,0l6.01,6.01,8.19-8.19c2.07-2.07,2.07-5.42,0-7.49l-19.26-19.26c-2.07-2.07-2.07-5.42,0-7.49l43.85-43.85c2.07-2.07,5.42-2.07,7.49,0l19.26,19.26c2.07,2.07,5.42,2.07,7.49,0l14.2-14.2c2.07-2.07,2.07-5.42,0-7.49l-11.94-11.94c-2.07-2.07-5.42-2.07-7.49,0-2.07,2.07-5.42,2.07-7.49,0L195.5,1.55c-2.07-2.07-5.42-2.07-7.49,0l-22.6,22.6c-2.07,2.07-2.07,5.42,0,7.49l.56.56c2.07,2.07,2.07,5.42,0,7.49l-12.07,12.07c-2.07,2.07-5.42,2.07-7.49,0l-.56-.56c-2.07-2.07-5.42-2.07-7.49,0l-16.89,16.89,13.2,13.2c2.07,2.07,2.07,5.42,0,7.49Z"/><path class="cls-1" d="m96.27,115.17l6.01,6.01,19.2-19.2-13.2-13.2c-2.07-2.07-2.07-5.42,0-7.49l13.2-13.2-16.89-16.89c-2.07-2.07-5.42-2.07-7.49,0l-.56.56c-2.07,2.07-5.42,2.07-7.49,0l-12.07-12.07c-2.07-2.07-2.07-5.42,0-7.49l.56-.56c2.07-2.07,2.07-5.42,0-7.49L54.94,1.55c-2.07-2.07-5.42-2.07-7.49,0l-18.97,18.97c-2.07,2.07-5.42,2.07-7.49,0s-5.42-2.07-7.49,0L1.55,32.46c-2.07,2.07-2.07,5.42,0,7.49l14.2,14.2c2.07,2.07,5.42,2.07,7.49,0l19.26-19.26c2.07-2.07,5.42-2.07,7.49,0l43.85,43.85c2.07,2.07,2.07,5.42,0,7.49l-19.26,19.26c-2.07,2.07-2.07,5.42,0,7.49l8.19,8.19,6-6.01c2.07-2.07,5.42-2.07,7.49,0Z"/></g></g></svg>