<?xml version="1.0" encoding="UTF-8"?><svg id="Layer_2" xmlns="http://www.w3.org/2000/svg" viewBox="0 0 152.14 153.83"><defs><style>.cls-1{stroke-width:0px;}</style></defs><g id="Elements"><g id="_02"><path class="cls-1" d="m130.36,43.55c12.01,0,21.78-9.77,21.78-21.78S142.37,0,130.36,0s-21.78,9.77-21.78,21.78,9.77,21.78,21.78,21.78Zm0-35.36c7.49,0,13.59,6.09,13.59,13.59s-6.09,13.59-13.59,13.59-13.59-6.09-13.59-13.59,6.09-13.59,13.59-13.59Z"/><path class="cls-1" d="m21.78,0C9.77,0,0,9.77,0,21.78s9.77,21.78,21.78,21.78,21.78-9.77,21.78-21.78S33.78,0,21.78,0Zm0,35.36c-7.49,0-13.59-6.09-13.59-13.59s6.09-13.59,13.59-13.59,13.59,6.09,13.59,13.59-6.09,13.59-13.59,13.59Z"/><path class="cls-1" d="m76.07,0c-12.01,0-21.78,9.77-21.78,21.78s9.77,21.78,21.78,21.78,21.78-9.77,21.78-21.78S88.08,0,76.07,0Zm0,35.36c-7.49,0-13.59-6.09-13.59-13.59s6.09-13.59,13.59-13.59,13.59,6.09,13.59,13.59-6.09,13.59-13.59,13.59Z"/><path class="cls-1" d="m130.36,55.14c-12.01,0-21.78,9.77-21.78,21.78s9.77,21.78,21.78,21.78,21.78-9.77,21.78-21.78-9.77-21.78-21.78-21.78Zm0,35.36c-7.49,0-13.59-6.09-13.59-13.59s6.09-13.59,13.59-13.59,13.59,6.09,13.59,13.59-6.09,13.59-13.59,13.59Z"/><path class="cls-1" d="m21.78,55.14c-12.01,0-21.78,9.77-21.78,21.78s9.77,21.78,21.78,21.78,21.78-9.77,21.78-21.78-9.77-21.78-21.78-21.78Zm0,35.36c-7.49,0-13.59-6.09-13.59-13.59s6.09-13.59,13.59-13.59,13.59,6.09,13.59,13.59-6.09,13.59-13.59,13.59Z"/><path class="cls-1" d="m76.07,55.14c-12.01,0-21.78,9.77-21.78,21.78s9.77,21.78,21.78,21.78,21.78-9.77,21.78-21.78-9.77-21.78-21.78-21.78Zm0,35.36c-7.49,0-13.59-6.09-13.59-13.59s6.09-13.59,13.59-13.59,13.59,6.09,13.59,13.59-6.09,13.59-13.59,13.59Z"/><path class="cls-1" d="m130.36,110.28c-12.01,0-21.78,9.77-21.78,21.78s9.77,21.78,21.78,21.78,21.78-9.77,21.78-21.78-9.77-21.78-21.78-21.78Zm0,35.36c-7.49,0-13.59-6.09-13.59-13.59s6.09-13.59,13.59-13.59,13.59,6.09,13.59,13.59-6.09,13.59-13.59,13.59Z"/><path class="cls-1" d="m21.78,110.28c-12.01,0-21.78,9.77-21.78,21.78s9.77,21.78,21.78,21.78,21.78-9.77,21.78-21.78-9.77-21.78-21.78-21.78Zm0,35.36c-7.49,0-13.59-6.09-13.59-13.59s6.09-13.59,13.59-13.59,13.59,6.09,13.59,13.59-6.09,13.59-13.59,13.59Z"/><path class="cls-1" d="m76.07,110.28c-12.01,0-21.78,9.77-21.78,21.78s9.77,21.78,21.78,21.78,21.78-9.77,21.78-21.78-9.77-21.78-21.78-21.78Zm0,35.36c-7.49,0-13.59-6.09-13.59-13.59s6.09-13.59,13.59-13.59,13.59,6.09,13.59,13.59-6.09,13.59-13.59,13.59Z"/></g></g></svg>