<?xml version="1.0" encoding="UTF-8"?><svg id="Layer_2" xmlns="http://www.w3.org/2000/svg" viewBox="0 0 116.93 116.93"><g id="_3"><g><path d="M71.95,26.57c-1.75,0-3.17,1.42-3.17,3.17v36.14c0,1.75,1.42,3.17,3.17,3.17s3.17-1.42,3.17-3.17V29.74c0-1.75-1.42-3.17-3.17-3.17Z"/><path d="M58.47,33.5c-1.75,0-3.17,1.42-3.17,3.17v50.95c0,1.75,1.42,3.17,3.17,3.17,1.75,0,3.17-1.42,3.17-3.17V36.67c0-1.75-1.42-3.17-3.17-3.17Z"/><path d="M85.44,55.58c-1.75,0-3.17,1.42-3.17,3.17v14.91c0,1.75,1.42,3.17,3.17,3.17s3.17-1.42,3.17-3.17v-14.91c0-1.75-1.42-3.17-3.17-3.17Z"/><path d="M31.49,55.58h0c-1.75,0-3.17,1.42-3.17,3.17v14.91c0,1.75,1.42,3.17,3.17,3.17s3.17-1.42,3.17-3.17v-14.91c0-1.75-1.42-3.17-3.17-3.17Z"/><path d="M44.98,26.57c-1.75,0-3.17,1.42-3.17,3.17v36.14c0,1.75,1.42,3.17,3.17,3.17s3.17-1.42,3.17-3.17V29.74c0-1.75-1.42-3.17-3.17-3.17Z"/><path d="M58.47,0C26.23,0,0,26.23,0,58.47s26.23,58.47,58.47,58.47,58.47-26.23,58.47-58.47S90.7,0,58.47,0Zm0,110.25c-28.55,0-51.78-23.23-51.78-51.78S29.91,6.69,58.47,6.69s51.78,23.23,51.78,51.78-23.23,51.78-51.78,51.78Z"/></g></g></svg>