<?xml version="1.0" encoding="UTF-8"?><svg id="Layer_2" xmlns="http://www.w3.org/2000/svg" viewBox="0 0 131.45 131.45"><g id="_2"><path d="M129.64,64.31h-10.98c-.15-14.49-11.94-26.2-26.46-26.2-11.22,0-20.81,6.99-24.66,16.85V1.81c0-1-.81-1.81-1.81-1.81s-1.81,.81-1.81,1.81V10.13c-14.87,.81-26.72,13.16-26.72,28.23,0,11.61,7.03,21.6,17.06,25.95H1.81c-1,0-1.81,.81-1.81,1.81s.81,1.81,1.81,1.81H12.93c1.42,13.28,12.66,23.62,26.31,23.62,11.22,0,20.81-6.99,24.66-16.85v44.82h0v10.12c0,1,.81,1.81,1.81,1.81s1.81-.81,1.81-1.81v-10.1c14.87-.82,26.71-13.17,26.71-28.23,0-9.7-4.91-18.28-12.38-23.37h47.77c1,0,1.81-.81,1.81-1.81s-.81-1.81-1.81-1.81ZM40.81,38.36c0-13.08,10.23-23.81,23.1-24.61V62.97c-12.87-.81-23.1-11.54-23.1-24.61Zm49.81,52.94c0,13.07-10.22,23.8-23.09,24.61v-47.98h6.29c9.76,3.29,16.81,12.52,16.81,23.37Z"/></g></svg>