<?xml version="1.0" encoding="UTF-8"?><svg id="Layer_2" xmlns="http://www.w3.org/2000/svg" viewBox="0 0 121.57 120.75"><g id="_5"><path d="M106.96,35.73c-3.91-2.14-7.11-5.34-9.25-9.25l-9.61-17.56C85.05,3.33,79.43,0,73.07,0,68.3,0,63.95,1.87,60.79,5.15,57.62,1.87,53.27,0,48.51,0c-6.36,0-11.99,3.33-15.04,8.92l-11.14,20.38c-1.13,2.07-2.83,3.76-4.9,4.9l-2.81,1.54C5.46,40.73,0,49.95,0,60.37s5.46,19.64,14.61,24.65l2.81,1.54c2.07,1.13,3.76,2.83,4.9,4.9l11.14,20.38c3.05,5.58,8.68,8.92,15.04,8.92h0c4.76,0,9.11-1.87,12.28-5.15,3.17,3.28,7.52,5.15,12.28,5.15,6.36,0,11.99-3.33,15.04-8.92l9.61-17.56c2.14-3.91,5.34-7.11,9.25-9.25,9.15-5,14.61-14.22,14.61-24.65s-5.46-19.64-14.61-24.65ZM60.79,106.82l-9.67-17.68c-1.58-2.88-3.93-5.24-6.81-6.81-8.15-4.46-13.01-12.66-13.01-21.95s4.87-17.49,13.01-21.95c2.88-1.58,5.24-3.93,6.81-6.81l9.67-17.68,9.67,17.68c1.58,2.88,3.93,5.24,6.81,6.81,8.15,4.46,13.01,12.66,13.01,21.95s-4.87,17.49-13.01,21.95c-2.88,1.58-5.24,3.93-6.81,6.81l-9.67,17.68Zm-12.28,9.1c-4.57,0-8.61-2.4-10.81-6.41l-11.14-20.38c-1.58-2.88-3.93-5.24-6.81-6.81l-2.81-1.54c-7.58-4.14-12.1-11.78-12.1-20.41s4.52-16.27,12.1-20.41l2.81-1.54c2.88-1.58,5.24-3.93,6.81-6.81l11.14-20.38c2.19-4.01,6.23-6.41,10.81-6.41,3.72,0,7.08,1.58,9.39,4.33l-11.01,20.14c-1.13,2.07-2.83,3.76-4.9,4.9-9.72,5.32-15.52,15.11-15.52,26.18s5.8,20.87,15.52,26.18c2.07,1.13,3.76,2.83,4.9,4.9l11.01,20.14c-2.31,2.75-5.67,4.33-9.39,4.33Zm56.14-35.14c-4.72,2.58-8.58,6.44-11.17,11.17l-9.61,17.56c-2.19,4.01-6.23,6.41-10.81,6.41-3.72,0-7.08-1.58-9.39-4.33l11.01-20.14c1.13-2.07,2.83-3.76,4.9-4.9,9.72-5.32,15.52-15.11,15.52-26.18s-5.8-20.87-15.52-26.18c-2.07-1.13-3.76-2.83-4.9-4.9l-11.01-20.14c2.31-2.75,5.67-4.33,9.39-4.33,4.57,0,8.61,2.4,10.81,6.41l9.61,17.56c2.58,4.72,6.44,8.58,11.17,11.17,7.58,4.14,12.1,11.78,12.1,20.41s-4.52,16.27-12.1,20.41Z"/></g></svg>