<?xml version="1.0" encoding="UTF-8"?><svg id="Layer_2" xmlns="http://www.w3.org/2000/svg" viewBox="0 0 147.82 147.63"><g id="_1"><path d="M110.49,79.61l37.33-1.85-36.96-5.62,36.2-9.33-37.33,1.93,33.58-16.43-36.18,9.41,29.58-22.85-33.54,16.5,24.38-28.34-29.54,22.91L116.19,13.26l-24.32,28.39L103.09,6l-18.11,32.7L88.81,1.51l-11.15,35.68L73.91,0l-3.74,37.19L59.01,1.51l3.82,37.18L44.73,6l11.23,35.65L31.63,13.26l18.17,32.66L20.27,23.02l24.38,28.34L11.11,34.86l29.58,22.85L4.51,48.3l33.58,16.43L.76,62.8l36.2,9.33L0,77.75l37.33,1.85L2.27,92.55l36.94-5.7L7.47,106.6l35.04-13.02-27.12,25.73,31.7-19.81-21.39,30.66,27.07-25.78-14.78,34.34,21.32-30.7-7.56,36.61,14.71-34.37-.04,37.38,7.49-36.62,7.49,36.62-.04-37.38,14.71,34.37-7.56-36.61,21.32,30.7-14.78-34.34,27.07,25.78-21.39-30.66,31.7,19.81-27.12-25.73,35.04,13.02-31.74-19.74,36.94,5.7-35.07-12.95Zm-36.58,10.08c-8.77,0-15.88-7.11-15.88-15.88s7.11-15.88,15.88-15.88,15.88,7.11,15.88,15.88-7.11,15.88-15.88,15.88Z"/></g></svg>