<?xml version="1.0" encoding="UTF-8"?><svg id="Layer_2" xmlns="http://www.w3.org/2000/svg" viewBox="0 0 264.42 278.52"><defs><style>.cls-1{stroke-width:0px;}</style></defs><g id="Elements"><g id="_05"><path class="cls-1" d="m31.77,246.11l-1.46-9.64c-.37-2.46-1.25-4.77-2.6-6.86l-11.12-17.22c-.42-.65-.76-1.33-1.04-2.04l-5.38-13.95c-1.09-2.83-.97-6.02.32-8.75l5.68-12.05c1.3-2.76,1.86-5.83,1.61-8.87l-1.29-15.94c-.05-.67-.05-1.35.02-2.02l1.64-16.24c.18-1.78.8-3.52,1.78-5.01l5.3-8.03c4.71-7.13,3.6-16.55-2.64-22.4l-10.54-9.88c-1.58-1.48-2.69-3.38-3.2-5.49l-2.18-8.94c-.93-3.82.25-7.89,3.07-10.63l6.47-6.26c6.54-6.33,7.17-16.45,1.46-23.54-3.82-4.74-3.17-11.54,1.48-15.47l14.21-12.03L29.25,0l-14.21,12.03c-7.3,6.18-8.33,16.87-2.32,24.32,3.63,4.51,3.23,10.95-.93,14.98l-6.47,6.26C.88,61.88-.97,68.28.49,74.29l2.18,8.94c.81,3.31,2.55,6.29,5.03,8.62l10.54,9.88c3.97,3.72,4.68,9.71,1.68,14.25l-5.3,8.03c-1.55,2.35-2.52,5.07-2.8,7.87l-1.64,16.24c-.11,1.05-.12,2.12-.03,3.17l1.29,15.94c.16,1.94-.2,3.89-1.03,5.65l-5.68,12.05c-2.03,4.3-2.21,9.32-.5,13.76l5.38,13.95c.43,1.11.97,2.18,1.63,3.2l11.12,17.23c.86,1.33,1.41,2.8,1.65,4.37l1.46,9.64c.61,4.01-1.01,8.04-4.24,10.51L.48,273.47l3.87,5.05,20.76-15.9c5.07-3.88,7.62-10.21,6.66-16.51Z"/><path class="cls-1" d="m60.65,246.11l-1.47-9.64c-.37-2.46-1.25-4.77-2.6-6.86l-11.12-17.23c-.41-.64-.76-1.32-1.03-2.03l-5.38-13.95c-1.09-2.83-.97-6.02.32-8.75l5.68-12.05c1.3-2.76,1.86-5.83,1.61-8.87l-1.29-15.94c-.05-.67-.05-1.35.02-2.02l1.64-16.24c.18-1.78.8-3.52,1.78-5.01l5.3-8.03c4.71-7.13,3.6-16.55-2.64-22.4l-10.54-9.88c-1.58-1.48-2.69-3.38-3.21-5.49l-2.18-8.94c-.93-3.82.25-7.89,3.07-10.63l6.46-6.26c6.54-6.33,7.17-16.45,1.46-23.54-3.82-4.74-3.17-11.54,1.48-15.48l14.21-12.03-4.11-4.86-14.21,12.03c-7.3,6.18-8.33,16.87-2.32,24.32,3.63,4.51,3.23,10.95-.93,14.98l-6.46,6.26c-4.44,4.3-6.29,10.7-4.83,16.71l2.18,8.94c.81,3.31,2.55,6.29,5.04,8.62l10.54,9.88c3.97,3.72,4.67,9.71,1.68,14.25l-5.3,8.03c-1.55,2.35-2.52,5.07-2.8,7.87l-1.64,16.24c-.11,1.05-.12,2.12-.03,3.17l1.29,15.94c.16,1.94-.2,3.89-1.03,5.64l-5.68,12.05c-2.03,4.3-2.21,9.32-.5,13.76l5.38,13.95c.43,1.12.98,2.19,1.63,3.2l11.12,17.23c.86,1.33,1.41,2.8,1.65,4.37l1.47,9.64c.61,4.01-1.01,8.04-4.24,10.51l-20.76,15.9,3.87,5.05,20.76-15.9c5.06-3.88,7.62-10.21,6.66-16.51Z"/><path class="cls-1" d="m89.53,246.11l-1.47-9.64c-.37-2.46-1.25-4.77-2.6-6.86l-11.12-17.23c-.41-.64-.76-1.32-1.03-2.03l-5.38-13.95c-1.09-2.83-.97-6.02.32-8.76l5.68-12.05c1.3-2.76,1.86-5.83,1.61-8.87l-1.29-15.94c-.05-.67-.05-1.35.02-2.02l1.64-16.24c.18-1.78.8-3.51,1.78-5.01l5.3-8.03c4.71-7.13,3.6-16.55-2.64-22.4l-10.54-9.88c-1.58-1.48-2.69-3.38-3.21-5.49l-2.18-8.94c-.93-3.82.25-7.89,3.07-10.63l6.46-6.26c6.54-6.33,7.17-16.45,1.46-23.54-3.82-4.74-3.17-11.54,1.48-15.48l14.21-12.03-4.11-4.86-14.21,12.03c-7.3,6.18-8.33,16.87-2.32,24.32,3.63,4.51,3.23,10.95-.93,14.98l-6.46,6.26c-4.44,4.3-6.29,10.7-4.83,16.71l2.18,8.94c.81,3.31,2.55,6.29,5.04,8.62l10.54,9.88c3.97,3.72,4.67,9.71,1.68,14.25l-5.3,8.03c-1.55,2.35-2.52,5.07-2.81,7.87l-1.64,16.24c-.11,1.05-.12,2.12-.03,3.17l1.29,15.94c.16,1.94-.2,3.89-1.03,5.64l-5.68,12.05c-2.03,4.3-2.21,9.31-.5,13.76l5.38,13.95c.43,1.12.98,2.19,1.63,3.2l11.12,17.23c.86,1.33,1.42,2.8,1.65,4.36l1.47,9.64c.61,4.01-1.01,8.04-4.24,10.51l-20.76,15.9,3.87,5.05,20.76-15.9c5.06-3.88,7.62-10.21,6.66-16.51Z"/><path class="cls-1" d="m118.42,246.11l-1.47-9.64c-.37-2.46-1.25-4.77-2.6-6.86l-11.12-17.23c-.41-.64-.76-1.32-1.03-2.03l-5.38-13.95c-1.09-2.82-.97-6.01.32-8.75l5.68-12.05c1.3-2.76,1.86-5.83,1.61-8.87l-1.29-15.93c-.05-.68-.05-1.36.02-2.02l1.64-16.24c.18-1.78.8-3.51,1.78-5.01l5.3-8.03c4.71-7.13,3.59-16.55-2.64-22.4l-10.54-9.88c-1.58-1.48-2.69-3.38-3.21-5.49l-2.18-8.94c-.93-3.82.25-7.89,3.07-10.63l6.47-6.26c6.54-6.33,7.17-16.45,1.46-23.54-3.82-4.74-3.17-11.54,1.48-15.48l14.21-12.03-4.11-4.86-14.21,12.03c-7.3,6.18-8.33,16.87-2.32,24.32,3.63,4.51,3.23,10.95-.93,14.98l-6.47,6.26c-4.44,4.3-6.29,10.7-4.83,16.71l2.18,8.94c.81,3.31,2.55,6.3,5.04,8.62l10.54,9.88c3.97,3.72,4.68,9.71,1.68,14.25l-5.3,8.03c-1.55,2.35-2.52,5.07-2.8,7.87l-1.64,16.24c-.11,1.04-.12,2.11-.03,3.17l1.29,15.94c.16,1.94-.2,3.89-1.03,5.64l-5.68,12.05c-2.03,4.3-2.21,9.32-.5,13.76l5.38,13.95c.43,1.12.98,2.19,1.63,3.2l11.12,17.23c.86,1.33,1.41,2.8,1.65,4.37l1.47,9.64c.61,4.01-1.01,8.04-4.24,10.51l-20.76,15.9,3.87,5.05,20.76-15.9c5.06-3.88,7.62-10.21,6.66-16.51Z"/><path class="cls-1" d="m147.3,246.11l-1.46-9.64c-.37-2.46-1.25-4.77-2.6-6.86l-11.12-17.23c-.41-.64-.76-1.32-1.04-2.03l-5.38-13.95c-1.09-2.82-.97-6.01.32-8.75l5.68-12.05c1.3-2.76,1.86-5.83,1.61-8.87l-1.29-15.94c-.05-.66-.05-1.34.02-2.02l1.64-16.24c.18-1.78.8-3.51,1.78-5.01l5.3-8.03c4.71-7.13,3.59-16.55-2.64-22.4l-10.54-9.88c-1.58-1.48-2.69-3.38-3.21-5.49l-2.18-8.94c-.93-3.82.25-7.9,3.07-10.63l6.47-6.26c6.54-6.33,7.17-16.45,1.46-23.54-3.82-4.74-3.17-11.54,1.48-15.48l14.21-12.03L144.78,0l-14.21,12.03c-7.31,6.18-8.33,16.87-2.32,24.32,3.63,4.51,3.23,10.95-.93,14.98l-6.47,6.26c-4.44,4.3-6.29,10.7-4.83,16.71l2.18,8.94c.81,3.31,2.55,6.3,5.04,8.62l10.54,9.88c3.97,3.72,4.68,9.71,1.68,14.25l-5.3,8.03c-1.55,2.35-2.52,5.07-2.8,7.87l-1.64,16.24c-.11,1.06-.12,2.13-.03,3.17l1.29,15.94c.16,1.94-.2,3.89-1.03,5.65l-5.68,12.05c-2.03,4.3-2.21,9.32-.5,13.76l5.38,13.96c.43,1.12.98,2.19,1.63,3.19l11.12,17.23c.86,1.33,1.41,2.8,1.65,4.37l1.46,9.64c.61,4.01-1.01,8.04-4.23,10.51l-20.76,15.9,3.87,5.05,20.76-15.9c5.06-3.88,7.62-10.21,6.66-16.51Z"/><path class="cls-1" d="m176.18,246.11l-1.46-9.64c-.37-2.46-1.25-4.77-2.6-6.86l-11.12-17.23c-.41-.64-.76-1.32-1.04-2.03l-5.38-13.95c-1.09-2.83-.97-6.02.32-8.75l5.68-12.05c1.3-2.76,1.86-5.83,1.61-8.87l-1.29-15.94c-.05-.66-.05-1.34.02-2.02l1.64-16.24c.18-1.78.8-3.51,1.78-5.01l5.3-8.03c4.71-7.13,3.6-16.55-2.64-22.4l-10.54-9.88c-1.58-1.48-2.69-3.38-3.2-5.49l-2.18-8.94c-.93-3.82.25-7.9,3.07-10.63l6.47-6.26c6.54-6.33,7.17-16.45,1.46-23.54-3.82-4.74-3.17-11.54,1.48-15.48l14.21-12.03L173.66,0l-14.21,12.03c-7.31,6.18-8.33,16.87-2.32,24.32,3.63,4.51,3.23,10.95-.93,14.98l-6.47,6.26c-4.44,4.3-6.29,10.7-4.83,16.71l2.18,8.94c.81,3.31,2.55,6.29,5.03,8.62l10.54,9.88c3.97,3.72,4.68,9.71,1.68,14.25l-5.3,8.03c-1.55,2.35-2.52,5.07-2.8,7.87l-1.64,16.24c-.11,1.06-.12,2.13-.03,3.17l1.29,15.94c.16,1.94-.2,3.89-1.03,5.65l-5.68,12.05c-2.03,4.3-2.21,9.32-.5,13.76l5.38,13.96c.43,1.12.98,2.19,1.63,3.19l11.12,17.23c.86,1.33,1.41,2.8,1.65,4.37l1.46,9.64c.61,4.01-1.01,8.04-4.24,10.51l-20.76,15.9,3.87,5.05,20.76-15.9c5.07-3.88,7.62-10.21,6.66-16.51Z"/><path class="cls-1" d="m205.07,246.11l-1.46-9.64c-.37-2.46-1.25-4.77-2.6-6.86l-11.12-17.22c-.42-.65-.76-1.33-1.04-2.04l-5.38-13.95c-1.09-2.83-.97-6.02.32-8.75l5.68-12.05c1.3-2.76,1.86-5.83,1.61-8.87l-1.29-15.94c-.05-.67-.05-1.35.02-2.02l1.64-16.24c.18-1.78.8-3.52,1.78-5.01l5.3-8.03c4.71-7.13,3.6-16.55-2.64-22.4l-10.54-9.88c-1.58-1.48-2.69-3.38-3.2-5.49l-2.18-8.94c-.93-3.82.25-7.89,3.07-10.63l6.47-6.26c6.54-6.33,7.17-16.45,1.46-23.54-3.82-4.74-3.17-11.54,1.48-15.48l14.21-12.03L202.54,0l-14.21,12.03c-7.31,6.18-8.33,16.87-2.32,24.32,3.63,4.51,3.23,10.95-.93,14.98l-6.47,6.26c-4.44,4.3-6.29,10.7-4.83,16.71l2.18,8.94c.81,3.31,2.55,6.29,5.03,8.62l10.54,9.88c3.97,3.72,4.68,9.71,1.68,14.25l-5.3,8.03c-1.55,2.35-2.52,5.07-2.8,7.87l-1.64,16.24c-.11,1.05-.12,2.12-.03,3.18l1.29,15.94c.16,1.94-.2,3.89-1.03,5.65l-5.68,12.05c-2.03,4.3-2.21,9.32-.5,13.76l5.38,13.95c.43,1.11.97,2.18,1.63,3.2l11.12,17.23c.86,1.33,1.41,2.8,1.65,4.37l1.46,9.64c.61,4.01-1.01,8.04-4.24,10.51l-20.76,15.9,3.87,5.05,20.76-15.9c5.07-3.88,7.62-10.21,6.66-16.51Z"/><path class="cls-1" d="m233.95,246.11l-1.46-9.64c-.37-2.46-1.25-4.77-2.6-6.86l-11.12-17.22c-.42-.65-.76-1.33-1.04-2.04l-5.38-13.95c-1.09-2.83-.97-6.02.32-8.75l5.68-12.05c1.3-2.76,1.86-5.83,1.61-8.87l-1.29-15.94c-.05-.67-.05-1.35.02-2.02l1.64-16.24c.18-1.78.8-3.52,1.78-5.01l5.3-8.03c4.71-7.13,3.6-16.55-2.64-22.4l-10.54-9.88c-1.58-1.48-2.69-3.38-3.2-5.49l-2.18-8.94c-.93-3.82.25-7.89,3.07-10.63l6.47-6.26c6.54-6.33,7.17-16.45,1.46-23.54-3.82-4.74-3.17-11.54,1.48-15.47l14.21-12.03-4.11-4.86-14.21,12.03c-7.3,6.18-8.33,16.87-2.32,24.32,3.63,4.51,3.23,10.95-.93,14.98l-6.47,6.26c-4.44,4.3-6.29,10.7-4.83,16.71l2.18,8.94c.81,3.31,2.55,6.29,5.03,8.62l10.54,9.88c3.97,3.72,4.67,9.71,1.68,14.25l-5.3,8.03c-1.55,2.35-2.52,5.07-2.8,7.87l-1.64,16.24c-.11,1.05-.12,2.12-.03,3.17l1.29,15.94c.16,1.94-.2,3.89-1.03,5.65l-5.68,12.05c-2.03,4.3-2.21,9.32-.5,13.76l5.38,13.95c.43,1.11.97,2.18,1.63,3.2l11.12,17.23c.86,1.33,1.41,2.8,1.65,4.37l1.46,9.64c.61,4.01-1.01,8.04-4.24,10.51l-20.76,15.9,3.87,5.05,20.76-15.9c5.07-3.88,7.62-10.21,6.66-16.51Z"/><path class="cls-1" d="m261.37,236.47c-.37-2.46-1.25-4.77-2.6-6.86l-11.12-17.23c-.41-.64-.76-1.32-1.03-2.03l-5.38-13.95c-1.09-2.83-.97-6.02.32-8.75l5.68-12.05c1.3-2.76,1.86-5.83,1.61-8.87l-1.29-15.94c-.05-.67-.05-1.35.02-2.02l1.64-16.24c.18-1.78.8-3.52,1.78-5.01l5.3-8.03c4.71-7.13,3.6-16.55-2.64-22.4l-10.54-9.88c-1.58-1.48-2.69-3.38-3.21-5.49l-2.18-8.94c-.93-3.82.25-7.89,3.07-10.63l6.46-6.26c6.54-6.33,7.17-16.45,1.46-23.54-3.82-4.74-3.17-11.54,1.48-15.48l14.21-12.03-4.11-4.86-14.21,12.03c-7.3,6.18-8.33,16.87-2.32,24.32,3.63,4.51,3.23,10.95-.93,14.98l-6.46,6.26c-4.44,4.3-6.29,10.7-4.83,16.71l2.18,8.94c.81,3.31,2.55,6.29,5.04,8.62l10.54,9.88c3.97,3.72,4.67,9.71,1.68,14.25l-5.3,8.03c-1.55,2.35-2.52,5.07-2.8,7.87l-1.64,16.24c-.11,1.05-.12,2.12-.03,3.17l1.29,15.94c.16,1.94-.2,3.89-1.03,5.64l-5.68,12.05c-2.03,4.3-2.21,9.32-.5,13.76l5.38,13.95c.43,1.12.98,2.19,1.63,3.2l11.12,17.23c.86,1.33,1.42,2.8,1.65,4.36l1.47,9.64c.61,4.01-1.01,8.04-4.24,10.51l-20.76,15.9,3.87,5.05,20.76-15.9c5.06-3.88,7.62-10.21,6.66-16.51l-1.47-9.64Z"/></g></g></svg>