<?xml version="1.0" encoding="UTF-8"?><svg id="Layer_2" xmlns="http://www.w3.org/2000/svg" viewBox="0 0 125.5 125.5"><g id="_5"><path d="M64.16,.02C28.45-.77-.77,28.45,.02,64.16c.74,33.42,27.91,60.59,61.33,61.33,35.72,.79,64.94-28.43,64.15-64.15C124.75,27.92,97.58,.75,64.16,.02Zm-1.41,4.02c31.7,0,57.6,25.25,58.67,56.69h-33.03c-1.03-13.25-12.14-23.71-25.65-23.71s-24.61,10.47-25.65,23.71H4.08C5.15,29.29,31.05,4.04,62.75,4.04Zm21.65,57.29c.84,13.08-9.99,23.9-23.07,23.06-10.81-.69-19.54-9.42-20.23-20.23-.84-13.08,9.99-23.9,23.07-23.07,10.81,.69,19.54,9.42,20.23,20.23Zm-21.65,60.13c-31.7,0-57.6-25.25-58.67-56.69H37.11c1.03,13.25,12.14,23.71,25.65,23.71s24.61-10.47,25.65-23.71h33.03c-1.07,31.44-26.98,56.69-58.67,56.69Z"/></g></svg>