<?xml version="1.0" encoding="UTF-8"?><svg id="Layer_2" xmlns="http://www.w3.org/2000/svg" viewBox="0 0 456.77 98.39"><defs><style>.cls-1{stroke-width:0px;}</style></defs><g id="Elements"><g id="_25"><circle class="cls-1" cx="45.29" cy="49.2" r="45.29" transform="translate(-21.52 46.43) rotate(-45)"/><path class="cls-1" d="m407.58,0c-22.47,0-41.45,15.14-47.31,35.76-5.73-18.45-22.93-31.85-43.26-31.85s-37.53,13.4-43.26,31.85C267.88,15.14,248.9,0,226.43,0s-41.45,15.14-47.31,35.76c-5.73-18.45-22.93-31.85-43.26-31.85-25.01,0-45.29,20.28-45.29,45.29s20.28,45.29,45.29,45.29c20.33,0,37.53-13.4,43.26-31.85,5.86,20.61,24.85,35.76,47.31,35.76s41.45-15.14,47.31-35.76c5.73,18.45,22.93,31.85,43.26,31.85s37.53-13.4,43.26-31.85c5.86,20.61,24.85,35.76,47.31,35.76,27.13,0,49.2-22.07,49.2-49.2S434.7,0,407.58,0Zm-181.15,90.57c-22.82,0-41.38-18.56-41.38-41.38S203.62,7.82,226.43,7.82s41.38,18.56,41.38,41.38-18.56,41.38-41.38,41.38Zm181.15,0c-22.82,0-41.38-18.56-41.38-41.38s18.56-41.38,41.38-41.38,41.38,18.56,41.38,41.38-18.56,41.38-41.38,41.38Z"/></g></g></svg>