<?xml version="1.0" encoding="UTF-8"?><svg id="Layer_2" xmlns="http://www.w3.org/2000/svg" viewBox="0 0 215.69 215.69"><g id="Elements"><g id="_63"><path d="m107.85,97.98L36.6,26.73l2.99-2.45c39.55-32.38,96.96-32.38,136.51,0l2.99,2.45-71.25,71.24ZM47.07,27.3l60.78,60.78,60.77-60.77C132.81.22,82.87.22,47.07,27.3Z"/><path d="m26.74,179.09l-2.45-2.99c-32.38-39.55-32.38-96.96,0-136.52l2.45-2.99,71.25,71.25L26.74,179.09Zm.57-132.03C.22,82.87.22,132.81,27.31,168.62l60.78-60.78L27.31,47.06Z"/><path d="m107.85,215.69c-24.24,0-48.48-8.1-68.26-24.29l-2.99-2.45,71.25-71.25,71.25,71.25-2.99,2.45c-19.78,16.19-44.02,24.29-68.26,24.29Zm-60.78-27.31c35.81,27.09,85.75,27.09,121.56,0l-60.78-60.78-60.78,60.78Z"/><path d="m188.95,179.09l-71.25-71.25,71.24-71.25,2.45,2.99c32.38,39.55,32.39,96.96,0,136.51l-2.45,2.99Zm-61.35-71.25l60.78,60.78c27.08-35.81,27.08-85.74,0-121.55l-60.77,60.77Z"/></g></g></svg>