<?xml version="1.0" encoding="UTF-8"?><svg id="Layer_2" xmlns="http://www.w3.org/2000/svg" viewBox="0 0 124.56 124.56"><g id="_3"><g><polygon points="15.49 124.56 15.49 124.56 0 109.08 0 109.08 0 109.08 0 116.97 5.06 122.03 7.59 124.56 15.49 124.56 15.49 124.56 15.49 124.56"/><polygon points="119.32 0 111.42 0 124.56 13.14 124.56 5.24 119.32 0"/><polygon points="93.81 0 124.56 30.75 124.56 22.86 101.7 0 93.81 0"/><polygon points="76.19 0 124.56 48.37 124.56 40.47 84.09 0 76.19 0"/><polygon points="58.58 0 124.56 65.98 124.56 58.09 66.47 0 58.58 0"/><polygon points="40.96 0 124.56 83.6 124.56 75.71 48.86 0 40.96 0"/><polygon points="23.95 0 124.56 100.61 124.56 92.71 31.85 0 23.95 0"/><polygon points="0 99.36 25.2 124.56 33.1 124.56 0 91.46 0 99.36"/><polygon points="0 81.74 42.82 124.56 50.72 124.56 0 73.84 0 81.74"/><polygon points="0 64.13 60.44 124.56 68.33 124.56 0 56.23 0 64.13"/><polygon points="0 46.51 78.05 124.56 85.95 124.56 0 38.61 0 46.51"/><polygon points="0 28.9 95.67 124.56 103.56 124.56 0 21 0 28.9"/><polygon points="0 11.28 113.28 124.56 121.18 124.56 0 3.38 0 11.28"/><polygon points="6.34 0 124.56 118.22 124.56 110.33 14.23 0 6.34 0"/></g></g></svg>