<?xml version="1.0" encoding="UTF-8"?><svg id="Layer_2" xmlns="http://www.w3.org/2000/svg" viewBox="0 0 140.86 58.13"><g id="_1"><path d="M136.38,32.01c-3.26-3.26-7.62-4.74-11.89-4.44-3,.21-5.95-.87-8.07-2.99l-.07-.07c-2.12-2.12-3.23-5.05-3.01-8.04,.37-5.02-1.73-10.18-6.28-13.52-2.29-1.68-4.95-2.64-7.65-2.87-4.39-.42-8.92,1.06-12.28,4.42-3.14,3.14-4.63,7.29-4.48,11.4,.28,7.5-6.67,12.28-13.71,11.83-5.93-.37-11.18-5.07-10.73-11.25,.37-5.02-1.73-10.18-6.28-13.52-2.29-1.68-4.95-2.64-7.65-2.87-4.39-.42-8.92,1.06-12.28,4.42-6.62,6.62-1.75,19.71-12.72,22.56-5.6,1.46-10.27,.43-14.78,4.93-5.98,5.96-6,15.67-.05,21.64,5.97,5.99,15.68,6,21.66,.01,3.26-3.26,4.75-7.63,4.45-11.89-.31-4.49,2.32-8.45,6.38-10.3,4.59-2.09,11.32-1.09,14.9,2.49,2.21,2.21,3.4,5.23,3.28,8.35-.15,4.09,1.33,8.24,4.45,11.36,8.51,8.53,24.15,3.88,25.85-8.35,.32-2.28,.1-4.63,.66-6.87,1.16-4.64,5.6-7.65,10.22-7.98,7.13-.51,14.23,4.17,13.95,11.83-.15,4.09,1.33,8.24,4.45,11.36,5.95,5.97,15.66,5.98,21.64,.03,6-5.98,6.01-15.68,.03-21.66Z"/></g></svg>