<?xml version="1.0" encoding="UTF-8"?><svg id="Layer_2" xmlns="http://www.w3.org/2000/svg" viewBox="0 0 89.92 135.05"><g id="_9"><path d="M89.92,44.96C89.92,20.17,69.75,0,44.96,0S0,20.17,0,44.96c0,9.53,2.98,18.38,8.06,25.66-3.73,6.35-5.88,13.75-5.88,21.65,0,23.63,19.15,42.78,42.78,42.78s42.78-19.15,42.78-42.78c0-7.9-2.14-15.3-5.88-21.65,5.08-7.28,8.06-16.13,8.06-25.66Zm-85.56,0C4.36,22.58,22.58,4.36,44.96,4.36s40.6,18.21,40.6,40.6c0,7.98-2.32,15.43-6.31,21.72-7.8-10.44-20.25-17.19-34.29-17.19s-26.48,6.76-34.29,17.19c-3.99-6.28-6.31-13.73-6.31-21.72Z"/></g></svg>