<?xml version="1.0" encoding="UTF-8"?><svg id="Layer_2" xmlns="http://www.w3.org/2000/svg" viewBox="0 0 157.3 155.6"><g id="_4"><g><circle cx="78.65" cy="76.95" r="22.62"/><path d="M157.3,74.44h-18.69c-1.28-31.11-26.35-56.18-57.46-57.46V0h-5V16.98c-31.11,1.28-56.18,26.35-57.46,57.46H0v5H18.69c1.28,31.11,26.35,56.18,57.46,57.46v18.69h5v-18.69c31.11-1.28,56.18-26.35,57.46-57.46h18.69v-5Zm-78.65,57.52c-30.34,0-55.02-24.68-55.02-55.02S48.31,21.93,78.65,21.93s55.02,24.68,55.02,55.02-24.68,55.02-55.02,55.02Z"/></g></g></svg>