<?xml version="1.0" encoding="UTF-8"?><svg id="Layer_2" xmlns="http://www.w3.org/2000/svg" viewBox="0 0 149.52 149.52"><g id="_1"><g><path d="M137.8,46.47h0l-10.04,10.04c-10.08,10.08-10.08,26.42,0,36.5l10.04,10.04h0c15.62-15.62,15.62-40.95,0-56.57Z"/><path d="M11.72,46.47h0c-15.62,15.62-15.62,40.95,0,56.57h0l10.04-10.04c10.08-10.08,10.08-26.42,0-36.5l-10.04-10.04Z"/><path d="M93.01,21.75l10.04-10.04h0c-15.62-15.62-40.95-15.62-56.57,0h0l10.04,10.04c10.08,10.08,26.42,10.08,36.5,0Z"/><path d="M56.51,127.77l-10.04,10.04h0c15.62,15.62,40.95,15.62,56.57,0h0l-10.04-10.04c-10.08-10.08-26.42-10.08-36.5,0Z"/><path d="M119.99,48.19c-40.94,19.64-40.17,15.31-14.87-25.76-25.3,41.07-28.99,44.34-29.74,0-2.59,44.34-5.88,41.54-29.74,0,23.87,41.54,24.67,45.82-14.87,25.76,37.88,22.94,33.29,24.48-14.87,25.76,48.16-1.28,52.25,.21,14.87,25.76,39.18-22.42,38.02-17.03,14.87,25.76,23.15-42.79,26.87-46.02,29.74,0,1.08-46.02,5.23-42.26,29.74,0-24.51-42.26-25.67-47.69,14.87-25.76-38.55-25.38-33.81-27.01,14.87-25.76-48.68-1.25-53.98-2.95-14.87-25.76Z"/></g></g></svg>