<?xml version="1.0" encoding="UTF-8"?><svg id="Layer_2" xmlns="http://www.w3.org/2000/svg" viewBox="0 0 227.28 265.5"><defs><style>.cls-1{stroke-width:0px;}</style></defs><g id="Elements"><g id="_16"><path class="cls-1" d="m88.3,213.62c10.02-3.61,16.76-13.57,16.76-24.77v-111.05c0-11.2-6.74-21.17-16.76-24.77l-16.36-5.89c-2.69-.97-5.48,1.15-5.48,4.16v164.07c0,3.01,2.79,5.13,5.48,4.16l16.36-5.89Z"/><path class="cls-1" d="m160.84,215.35V51.29c0-3.01-2.79-5.13-5.48-4.16l-16.36,5.89c-10.02,3.61-16.76,13.57-16.76,24.77v111.05c0,11.2,6.74,21.17,16.76,24.77l16.36,5.89c2.69.97,5.48-1.15,5.48-4.16Z"/><path class="cls-1" d="m158.01,260.02l-5.89-16.36c-3.61-10.02-13.57-16.76-24.78-16.76h-27.4c-11.2,0-21.17,6.74-24.77,16.76l-5.89,16.36c-.97,2.69,1.15,5.48,4.16,5.48h80.42c3.01,0,5.13-2.79,4.16-5.48Z"/><path class="cls-1" d="m99.94,38.6h27.4c11.2,0,21.17-6.74,24.78-16.76l5.89-16.36c.97-2.69-1.15-5.48-4.16-5.48h-80.42c-3.01,0-5.13,2.79-4.16,5.48l5.89,16.36c3.61,10.02,13.57,16.76,24.77,16.76Z"/><path class="cls-1" d="m198.34,234.2c17.31-5.89,28.95-22.14,28.95-40.42v-120.92c0-18.28-11.64-34.54-28.95-40.42h0c-10.38-3.53-21.16,4.19-21.16,15.15v171.46c0,10.96,10.78,18.68,21.16,15.15h0Z"/><path class="cls-1" d="m31.36,31.62C12.61,37.99,0,55.6,0,75.41v115.82c0,19.81,12.61,37.41,31.36,43.79h0c9.2,3.13,18.74-3.71,18.74-13.42V45.04c0-9.71-9.55-16.55-18.74-13.42h0Z"/></g></g></svg>