<?xml version="1.0" encoding="UTF-8"?><svg id="Layer_2" xmlns="http://www.w3.org/2000/svg" viewBox="0 0 168.07 253.94"><defs><style>.cls-1{stroke-width:0px;}</style></defs><g id="Elements"><g id="_12"><path class="cls-1" d="m52.95,0c-7.12,0-12.9,5.77-12.9,12.9v28.65c0,7.76-3.43,15.13-9.36,20.13l-13.28,11.18C6.37,82.16,0,95.86,0,110.29v7.85s0,0,0,0v17.67s0,0,0,0v7.85C0,158.09,6.37,171.78,17.41,181.08l13.28,11.18c5.94,5,9.36,12.37,9.36,20.13v28.65c0,7.12,5.77,12.9,12.9,12.9,7.12,0,12.9-5.77,12.9-12.9v-29.71c0-14.7-6.49-28.65-17.73-38.12l-14.4-12.13c-5.02-4.23-7.92-10.46-7.92-17.03v-34.18c0-6.57,2.9-12.8,7.92-17.03l14.4-12.13c11.24-9.47,17.73-23.42,17.73-38.12V12.9c0-7.12-5.77-12.9-12.9-12.9Z"/><path class="cls-1" d="m168.07,118.14v-7.85c0-14.43-6.37-28.13-17.41-37.43l-13.28-11.18c-5.94-5-9.36-12.37-9.36-20.13V12.9c0-7.12-5.77-12.9-12.9-12.9s-12.9,5.77-12.9,12.9v29.71c0,14.7,6.49,28.65,17.73,38.12l14.4,12.13c5.02,4.23,7.92,10.46,7.92,17.03v34.18c0,6.57-2.9,12.8-7.92,17.03l-14.4,12.13c-11.24,9.47-17.73,23.42-17.73,38.12v29.71c0,7.12,5.77,12.9,12.9,12.9,7.12,0,12.9-5.77,12.9-12.9v-28.65c0-7.76,3.43-15.13,9.36-20.13l13.28-11.18c11.04-9.3,17.41-23,17.41-37.43v-7.85h0v-17.67h0Z"/><circle class="cls-1" cx="84.77" cy="126.97" r="17.46" transform="translate(-42.14 42.11) rotate(-22.5)"/></g></g></svg>