<?xml version="1.0" encoding="UTF-8"?><svg id="Layer_2" xmlns="http://www.w3.org/2000/svg" viewBox="0 0 210.65 257.22"><defs><style>.cls-1{stroke-width:0px;}</style></defs><g id="Elements"><g id="_21"><path class="cls-1" d="m96.76,217.66c4.73-4.73,4.73-12.4,0-17.13l-63.36-63.36c-4.73-4.73-4.73-12.4,0-17.13l63.36-63.36c4.73-4.73,4.73-12.4,0-17.13h0c-4.73-4.73-12.4-4.73-17.13,0L6.66,112.52c-8.88,8.88-8.88,23.29,0,32.17l72.97,72.97c4.73,4.73,12.4,4.73,17.13,0h0Z"/><path class="cls-1" d="m203.99,112.52l-72.97-72.97c-4.73-4.73-12.4-4.73-17.13,0h0c-4.73,4.73-4.73,12.4,0,17.13l63.36,63.36c4.73,4.73,4.73,12.4,0,17.13l-63.36,63.36c-4.73,4.73-4.73,12.4,0,17.13h0c4.73,4.73,12.4,4.73,17.13,0l72.97-72.97c8.88-8.88,8.88-23.29,0-32.17Z"/><rect class="cls-1" x="90.3" y="113.58" width="30.05" height="30.05" rx="7.26" ry="7.26" transform="translate(-60.09 112.14) rotate(-45)"/><rect class="cls-1" x="96.31" y=".73" width="18.03" height="18.03" rx="7.26" ry="7.26" transform="translate(23.96 77.33) rotate(-45)"/><rect class="cls-1" x="96.31" y="238.47" width="18.03" height="18.03" rx="7.26" ry="7.26" transform="translate(-144.14 146.96) rotate(-45)"/></g></g></svg>