<?xml version="1.0" encoding="UTF-8"?><svg id="Layer_2" xmlns="http://www.w3.org/2000/svg" viewBox="0 0 63.67 113.8"><g id="_9"><g><path d="M58.09,71.27c-4.83-4.83-12.67-4.83-17.51,0h0c-4.83,4.83-12.67,4.83-17.51,0h0c-4.83-4.83-12.67-4.83-17.51,0l-1.95,1.95c-4.83,4.83-4.83,12.67,0,17.51l19.45,19.45c4.83,4.83,12.67,4.83,17.51,0l19.45-19.45c4.83-4.83,4.83-12.67,0-17.51l-1.95-1.95Z"/><path d="M5.57,42.53c4.83,4.83,12.67,4.83,17.51,0h0c4.83-4.83,12.67-4.83,17.51,0h0c4.83,4.83,12.67,4.83,17.51,0l1.95-1.95c4.83-4.83,4.83-12.67,0-17.51L40.59,3.63c-4.83-4.83-12.67-4.83-17.51,0L3.63,23.08c-4.83,4.83-4.83,12.67,0,17.51l1.95,1.95Z"/></g></g></svg>