<?xml version="1.0" encoding="UTF-8"?><svg id="Layer_2" xmlns="http://www.w3.org/2000/svg" viewBox="0 0 484.61 134.42"><defs><style>.cls-1{stroke-width:0px;}</style></defs><g id="Elements"><g id="_04"><circle class="cls-1" cx="360.06" cy="53.8" r="6.02"/><circle class="cls-1" cx="360.06" cy="80.62" r="6.02"/><circle class="cls-1" cx="340.45" cy="67.21" r="6.02"/><circle class="cls-1" cx="318.66" cy="67.21" r="6.02"/><circle class="cls-1" cx="422.33" cy="53.8" r="6.02"/><circle class="cls-1" cx="422.33" cy="80.62" r="6.02"/><circle class="cls-1" cx="402.71" cy="67.21" r="6.02"/><circle class="cls-1" cx="380.93" cy="67.21" r="6.02"/><path class="cls-1" d="m417.4,0H67.21C30.15,0,0,30.15,0,67.21s30.15,67.21,67.21,67.21h350.19c37.06,0,67.21-30.15,67.21-67.21S454.46,0,417.4,0Zm0,129.78H67.21c-34.5,0-62.57-28.07-62.57-62.57S32.71,4.64,67.21,4.64h350.19c34.5,0,62.57,28.07,62.57,62.57s-28.07,62.57-62.57,62.57Z"/></g></g></svg>