<?xml version="1.0" encoding="UTF-8"?><svg id="Layer_2" xmlns="http://www.w3.org/2000/svg" viewBox="0 0 143.63 116.47"><g id="_8"><path d="M142.82,89.43L92.92,3c-2.31-4.01-8.1-4.01-10.41,0l-6.86,11.88c-2.31,4.01-8.1,4.01-10.41,0l-.29-.5c-2.31-4.01-8.1-4.01-10.41,0L.81,107.46c-2.31,4.01,.58,9.01,5.2,9.01H113.49c4.63,0,7.52-5.01,5.2-9.01h0c-2.31-4.01,.58-9.01,5.2-9.01h13.72c4.63,0,7.52-5.01,5.2-9.01Zm-37.01,22.61H13.7c-4.63,0-7.52-5.01-5.2-9.01L54.55,23.25c2.31-4.01,8.1-4.01,10.41,0l1.2,2.08c1.07,1.86,1.07,4.15,0,6.01l-33.54,58.09c-2.31,4.01,.58,9.01,5.2,9.01H104.9c2.15,0,4.13,1.15,5.2,3l.91,1.58c2.31,4.01-.58,9.01-5.2,9.01Z"/></g></svg>