<?xml version="1.0" encoding="UTF-8"?><svg id="Layer_2" xmlns="http://www.w3.org/2000/svg" viewBox="0 0 219.94 145.71"><g id="_0"><path d="M219.94,68.16c0-4.07-6.27-5.25-14.2-6.73-3.33-.62-8.66-1.62-10.43-2.64,1.77-1.02,7.1-2.02,10.43-2.64,7.94-1.49,14.2-2.66,14.2-6.73,0-3.77-6.03-4.56-15.15-5.74-3.61-.47-8.86-1.15-10.75-1.92,1.09-1.82,5.22-5.73,7.79-8.17,6.75-6.39,10.82-10.25,8.66-13.22-2.17-2.99-7.14-.28-15.36,4.19-3.09,1.68-8.03,4.37-10.08,4.86-.16-2.09,.86-7.56,1.5-10.98,1.74-9.27,2.78-14.87-.76-16.02-3.45-1.12-5.83,3.9-9.78,12.2-1.67,3.52-4.44,9.33-5.77,10.39-4.58-.21-7.19-5.61-9.96-11.33-3.1-6.41-6.62-13.68-13.98-13.68s-10.88,7.27-13.98,13.68c-2.82,5.83-5.49,11.33-10.24,11.33s-7.42-5.5-10.24-11.33c-3.1-6.41-6.62-13.68-13.98-13.68s-10.88,7.27-13.98,13.68c-2.82,5.83-5.49,11.33-10.24,11.33s-7.42-5.5-10.24-11.33c-3.1-6.41-6.62-13.68-13.98-13.68-3.77,0-4.56,6.03-5.74,15.15-.47,3.61-1.15,8.86-1.92,10.75-1.82-1.09-5.73-5.22-8.17-7.79-6.39-6.75-10.25-10.82-13.22-8.66-2.99,2.17-.28,7.14,4.19,15.36,1.68,3.09,4.37,8.03,4.86,10.08-2.09,.16-7.56-.86-10.98-1.5-9.27-1.73-14.87-2.78-16.02,.76-1.12,3.45,3.9,5.83,12.2,9.78,3.26,1.55,8.49,4.03,10.08,5.45-1.7,1.03-7.12,2.05-10.49,2.68-7.94,1.49-14.2,2.66-14.2,6.73s6.27,5.25,14.2,6.73c3.33,.62,8.66,1.62,10.43,2.64-1.77,1.02-7.1,2.02-10.43,2.64-7.94,1.49-14.2,2.66-14.2,6.73s6.27,5.25,14.2,6.73c3.33,.62,8.66,1.62,10.43,2.64-1.77,1.02-7.1,2.02-10.43,2.64-7.94,1.49-14.2,2.66-14.2,6.73,0,3.77,6.03,4.56,15.15,5.74,3.61,.47,8.86,1.15,10.75,1.92-1.09,1.82-5.22,5.73-7.79,8.17-6.75,6.39-10.82,10.25-8.66,13.22,2.17,2.99,7.14,.28,15.36-4.19,3.09-1.68,8.03-4.37,10.08-4.86,.16,2.09-.86,7.56-1.5,10.98-1.74,9.27-2.78,14.87,.76,16.02,3.45,1.12,5.83-3.89,9.78-12.2,1.67-3.52,4.44-9.33,5.77-10.39,4.58,.21,7.19,5.61,9.96,11.33,3.1,6.41,6.62,13.68,13.98,13.68s10.88-7.27,13.98-13.68c2.82-5.83,5.49-11.33,10.24-11.33s7.42,5.5,10.24,11.33c3.1,6.41,6.62,13.68,13.98,13.68s10.88-7.27,13.98-13.68c2.82-5.83,5.49-11.33,10.24-11.33s7.42,5.5,10.24,11.33c3.1,6.41,6.62,13.68,13.98,13.68,3.77,0,4.56-6.03,5.74-15.15,.47-3.61,1.15-8.86,1.92-10.75,1.82,1.09,5.73,5.22,8.17,7.79,6.39,6.75,10.25,10.82,13.22,8.66,2.99-2.17,.28-7.14-4.19-15.36-1.68-3.09-4.37-8.03-4.86-10.08,2.09-.16,7.56,.86,10.98,1.5,9.27,1.74,14.87,2.78,16.02-.76,1.12-3.45-3.9-5.83-12.2-9.78-3.26-1.55-8.49-4.03-10.08-5.45,1.7-1.03,7.12-2.05,10.49-2.68,7.94-1.49,14.2-2.66,14.2-6.73s-6.27-5.25-14.2-6.73c-3.33-.62-8.66-1.62-10.43-2.64,1.77-1.02,7.1-2.02,10.43-2.64,7.94-1.49,14.2-2.66,14.2-6.73Zm-29.17,9.37c0,4.07,6.27,5.25,14.2,6.73,3.33,.63,8.66,1.62,10.43,2.65-1.77,1.02-7.1,2.02-10.43,2.65-7.94,1.49-14.2,2.66-14.2,6.73,0,3.03,4.38,5.26,12.78,9.25,2.58,1.23,6.07,2.88,8.21,4.18-2.63-.2-6.71-.97-9.48-1.49-9.16-1.71-13.64-2.43-15.37-.06-1.75,2.4,.33,6.47,4.82,14.71,1.33,2.45,3.3,6.05,4.3,8.47-1.97-1.69-4.76-4.63-6.65-6.63-6.5-6.86-9.75-10.11-12.6-9.19-2.76,.9-3.46,5.33-4.64,14.47-.48,3.73-1.27,9.8-2.17,11.5-4.41-.41-6.97-5.71-9.68-11.31-3.1-6.41-6.62-13.68-13.98-13.68s-10.88,7.27-13.98,13.68c-2.82,5.83-5.49,11.33-10.24,11.33s-7.42-5.5-10.24-11.33c-3.1-6.41-6.62-13.68-13.98-13.68s-10.88,7.27-13.98,13.68c-2.82,5.83-5.49,11.33-10.24,11.33s-7.42-5.5-10.24-11.33c-3.11-6.41-6.62-13.68-13.99-13.68-3.03,0-5.26,4.38-9.25,12.78-1.22,2.58-2.88,6.07-4.18,8.21,.2-2.63,.97-6.71,1.49-9.48,1.71-9.16,2.43-13.64,.06-15.37-2.4-1.75-6.47,.33-14.71,4.82-2.45,1.33-6.05,3.3-8.47,4.3,1.69-1.97,4.63-4.76,6.63-6.65,6.86-6.5,10.11-9.75,9.19-12.6-.9-2.76-5.33-3.46-14.47-4.64-3.27-.42-8.34-1.08-10.69-1.85,2.1-.94,6.89-1.84,9.97-2.41,7.94-1.49,14.2-2.66,14.2-6.73s-6.27-5.25-14.2-6.73c-3.33-.62-8.66-1.62-10.43-2.64,1.77-1.02,7.1-2.02,10.43-2.64,7.94-1.49,14.2-2.66,14.2-6.73s-6.27-5.25-14.2-6.73c-3.33-.63-8.66-1.62-10.43-2.65,1.77-1.02,7.1-2.02,10.43-2.65,7.94-1.49,14.2-2.66,14.2-6.73,0-3.03-4.38-5.26-12.78-9.25-2.58-1.23-6.07-2.88-8.21-4.18,2.63,.2,6.71,.97,9.48,1.49,9.16,1.71,13.64,2.43,15.37,.06,1.75-2.4-.33-6.47-4.82-14.71-1.33-2.45-3.3-6.05-4.3-8.47,1.97,1.69,4.76,4.63,6.65,6.63,6.5,6.86,9.75,10.11,12.6,9.19,2.76-.9,3.46-5.33,4.64-14.47,.48-3.73,1.27-9.8,2.17-11.5,4.41,.41,6.97,5.71,9.68,11.31,3.1,6.41,6.62,13.68,13.98,13.68s10.88-7.27,13.98-13.68c2.82-5.83,5.49-11.33,10.24-11.33s7.42,5.5,10.24,11.33c3.1,6.41,6.62,13.68,13.98,13.68s10.88-7.27,13.98-13.68c2.82-5.83,5.49-11.33,10.24-11.33s7.42,5.5,10.24,11.33c3.11,6.41,6.62,13.68,13.99,13.68,3.03,0,5.26-4.38,9.25-12.78,1.22-2.58,2.88-6.07,4.18-8.21-.2,2.63-.97,6.71-1.49,9.48-1.71,9.16-2.43,13.64-.06,15.37,2.4,1.75,6.47-.33,14.71-4.82,2.45-1.33,6.05-3.3,8.47-4.3-1.69,1.97-4.63,4.76-6.63,6.65-6.86,6.5-10.11,9.75-9.19,12.6,.9,2.76,5.33,3.46,14.47,4.64,3.27,.42,8.34,1.08,10.69,1.85-2.1,.94-6.89,1.84-9.97,2.41-7.94,1.49-14.2,2.66-14.2,6.73s6.27,5.25,14.2,6.73c3.33,.62,8.66,1.62,10.43,2.64-1.77,1.02-7.1,2.02-10.43,2.64-7.94,1.49-14.2,2.66-14.2,6.73Z"/></g></svg>