<?xml version="1.0" encoding="UTF-8"?><svg id="Layer_2" xmlns="http://www.w3.org/2000/svg" viewBox="0 0 125.9 125.9"><g id="_1"><path d="M107.46,107.46c.06-.06,.11-.13,.15-.2,11.3-11.38,18.29-27.05,18.29-44.31,0-8.56-1.72-16.73-4.83-24.18,0,0,0-.02,0-.03v-.02c-3.17-7.55-7.76-14.36-13.45-20.09-.04-.07-.09-.14-.15-.2-.06-.06-.13-.11-.2-.15C95.88,6.99,80.22,0,62.95,0c-8.56,0-16.73,1.72-24.18,4.83,0,0-.02,0-.03,0h-.02c-7.55,3.17-14.36,7.76-20.09,13.45-.07,.04-.14,.09-.2,.15-.06,.06-.11,.13-.15,.2C6.99,30.02,0,45.68,0,62.95c0,8.56,1.72,16.73,4.83,24.18,0,0,0,.02,0,.02h0c3.16,7.57,7.75,14.38,13.44,20.11,.04,.07,.09,.14,.15,.2s.13,.11,.2,.15c11.38,11.3,27.05,18.29,44.31,18.29,8.56,0,16.73-1.72,24.18-4.83,0,0,.02,0,.03,0,0,0,.01,0,.02-.01,7.55-3.16,14.36-7.75,20.08-13.43,.07-.04,.14-.09,.2-.15Zm-20.15,11.26l-5-12c5.11-2.27,9.74-5.4,13.73-9.21l9.18,9.18c-5.18,5-11.23,9.1-17.91,12.03Zm-66.64-12.03l9.18-9.18c4.19,4.01,9.09,7.27,14.51,9.56l-4.78,12.08c-7.08-2.95-13.48-7.2-18.91-12.45Zm-13.5-19.38l12-5c2.27,5.11,5.4,9.74,9.21,13.73l-9.18,9.18c-5-5.18-9.1-11.23-12.03-17.91ZM2.09,63.99H15.09c.12,5.78,1.27,11.3,3.28,16.41l-12,5c-2.64-6.64-4.15-13.86-4.28-21.4Zm3.89-22.47l12.08,4.78c-1.82,4.88-2.86,10.13-2.97,15.61H2.09c.12-7.16,1.48-14.03,3.89-20.39Zm13.22-20.84l9.18,9.18c-4.01,4.18-7.27,9.09-9.56,14.51l-12.08-4.78c2.95-7.08,7.2-13.48,12.45-18.91ZM38.59,7.18l5,12c-5.11,2.27-9.74,5.4-13.73,9.21l-9.18-9.18c5.18-5,11.23-9.1,17.91-12.03Zm66.64,12.03l-9.18,9.18c-4.18-4.01-9.09-7.27-14.51-9.56l4.78-12.08c7.08,2.95,13.48,7.2,18.91,12.45Zm13.5,19.38l-12,5c-2.27-5.11-5.4-9.74-9.21-13.73l9.18-9.18c5,5.18,9.1,11.23,12.03,17.91Zm5.08,23.32h-12.99c-.12-5.78-1.27-11.3-3.28-16.41l12-5c2.64,6.64,4.15,13.86,4.28,21.4Zm-3.89,22.47l-12.08-4.78c1.82-4.88,2.86-10.13,2.97-15.61h12.99c-.12,7.16-1.48,14.03-3.89,20.39Zm-26.71-22.47c-.11-3.38-.78-6.62-1.92-9.64l14.33-5.97c1.9,4.86,3,10.11,3.12,15.61h-15.52Zm-9.61-18.14c2.02,2.17,3.7,4.66,4.96,7.38l-21.15,8.81,16.2-16.2Zm-17.83,14.89l8.52-21.53c2.9,1.28,5.55,3.03,7.84,5.16l-16.36,16.36Zm-1.78-1.17v-22.72c2.92,.11,5.73,.66,8.36,1.59l-8.36,21.13Zm-2.08,.25l-8.84-21.21c2.77-1.04,5.74-1.65,8.84-1.76v22.97Zm-1.94,.75l-16.2-16.2c2.17-2.02,4.66-3.7,7.38-4.96l8.81,21.15Zm-1.3,1.64l-21.53-8.52c1.28-2.9,3.03-5.55,5.16-7.84l16.36,16.36Zm-1.17,1.78h-22.72c.11-2.92,.66-5.73,1.59-8.36l21.13,8.36Zm.25,2.08l-21.21,8.84c-1.04-2.77-1.65-5.74-1.76-8.84h22.97Zm.75,1.94l-16.2,16.2c-2.02-2.17-3.7-4.66-4.96-7.38l21.15-8.81Zm1.64,1.3l-8.52,21.53c-2.9-1.28-5.55-3.03-7.84-5.16l16.36-16.36Zm1.78,1.17v22.72c-2.92-.11-5.73-.66-8.36-1.59l8.36-21.13Zm2.08-.25l8.84,21.21c-2.77,1.04-5.74,1.65-8.84,1.76v-22.97Zm1.94-.75l16.2,16.2c-2.17,2.02-4.66,3.7-7.38,4.96l-8.81-21.15Zm1.31-1.64l21.53,8.52c-1.28,2.9-3.03,5.55-5.16,7.84l-16.36-16.36Zm1.17-1.78h22.72c-.11,2.92-.66,5.73-1.59,8.36l-21.13-8.36Zm-.25-2.08l21.21-8.84c1.04,2.77,1.65,5.74,1.76,8.84h-22.97Zm22.33-11.56c-1.37-2.97-3.2-5.69-5.41-8.05l10.97-10.97c3.62,3.79,6.6,8.2,8.76,13.06l-14.33,5.97Zm-6.88-9.53c-2.49-2.33-5.38-4.24-8.55-5.63l5.71-14.43c5.15,2.18,9.82,5.28,13.8,9.09l-10.97,10.97Zm-10.48-6.4c-2.87-1.03-5.94-1.63-9.13-1.74v-15.52c5.21,.12,10.2,1.11,14.84,2.83l-5.71,14.43Zm-11.21-1.74c-3.38,.11-6.62,.78-9.64,1.92l-5.97-14.33c4.86-1.9,10.11-3,15.61-3.12v15.52Zm-11.56,2.73c-2.97,1.37-5.69,3.2-8.05,5.41l-10.97-10.97c3.79-3.62,8.2-6.6,13.06-8.76l5.97,14.33Zm-9.53,6.88c-2.33,2.49-4.24,5.38-5.63,8.55l-14.43-5.71c2.18-5.15,5.28-9.82,9.09-13.8l10.97,10.97Zm-6.4,10.48c-1.03,2.87-1.63,5.94-1.74,9.13h-15.52c.12-5.21,1.11-10.2,2.83-14.84l14.43,5.71Zm-1.74,11.21c.11,3.38,.78,6.62,1.92,9.64l-14.33,5.97c-1.9-4.86-3-10.11-3.12-15.61h15.52Zm2.73,11.56c1.37,2.97,3.2,5.69,5.41,8.05l-10.97,10.97c-3.62-3.79-6.6-8.2-8.76-13.06l14.33-5.97Zm6.88,9.53c2.49,2.33,5.38,4.24,8.55,5.63l-5.71,14.43c-5.15-2.18-9.82-5.28-13.8-9.09l10.97-10.97Zm10.48,6.4c2.87,1.03,5.94,1.63,9.13,1.74v15.52c-5.21-.12-10.2-1.11-14.84-2.83l5.71-14.43Zm11.21,1.74c3.38-.11,6.62-.78,9.64-1.92l5.97,14.33c-4.86,1.9-10.11,3-15.61,3.12v-15.52Zm11.56-2.73c2.97-1.37,5.69-3.2,8.05-5.41l10.97,10.97c-3.79,3.62-8.2,6.6-13.06,8.76l-5.97-14.33Zm9.53-6.88c2.33-2.49,4.24-5.38,5.63-8.55l14.43,5.71c-2.18,5.15-5.28,9.82-9.09,13.8l-10.97-10.97Zm6.4-10.48c1.03-2.87,1.63-5.94,1.74-9.13h15.52c-.12,5.21-1.11,10.2-2.83,14.84l-14.43-5.71Zm-11.87-55.06c-4.88-1.82-10.13-2.86-15.61-2.97V2.09c7.16,.12,14.03,1.48,20.39,3.89l-4.78,12.08Zm-17.69-2.97c-5.78,.12-11.3,1.27-16.41,3.28l-5-12c6.64-2.64,13.86-4.15,21.4-4.28V15.09Zm-15.61,92.75c4.88,1.82,10.13,2.86,15.61,2.97v12.99c-7.16-.12-14.03-1.48-20.39-3.89l4.78-12.08Zm17.69,2.97c5.78-.12,11.3-1.27,16.41-3.28l5,12c-6.64,2.64-13.86,4.15-21.4,4.28v-12.99Zm33.52-14.77c4.01-4.18,7.27-9.09,9.56-14.51l12.08,4.78c-2.95,7.08-7.2,13.48-12.45,18.91l-9.18-9.18Z"/></g></svg>