<?xml version="1.0" encoding="UTF-8"?><svg id="Layer_2" xmlns="http://www.w3.org/2000/svg" viewBox="0 0 106.92 108.95"><g id="_6"><g><circle cx="9.27" cy="18.31" r="9.27" transform="translate(-10.28 24.53) rotate(-80.78)"/><circle cx="97.64" cy="18.31" r="9.27" transform="translate(-1.59 22.92) rotate(-13.28)"/><circle cx="9.27" cy="92.14" r="9.27" transform="translate(-34.56 10.56) rotate(-22.5)"/><circle cx="97.64" cy="92.14" r="9.27" transform="translate(-18.56 24.9) rotate(-13.28)"/><path d="M82.46,16.17C74.7,5.74,64.34,0,53.27,0S31.84,5.74,24.09,16.17c-7.62,10.25-11.82,23.86-11.82,38.3s4.2,28.05,11.82,38.3c7.75,10.43,18.12,16.17,29.19,16.17s21.43-5.74,29.19-16.17c7.62-10.25,11.82-23.86,11.82-38.3s-4.2-28.05-11.82-38.3Zm-29.19,88.84c-20.44,0-37.07-22.67-37.07-50.54S32.83,3.94,53.27,3.94s37.07,22.67,37.07,50.54-16.63,50.54-37.07,50.54Z"/></g></g></svg>