<?xml version="1.0" encoding="UTF-8"?><svg id="Layer_2" xmlns="http://www.w3.org/2000/svg" viewBox="0 0 265.21 265"><defs><style>.cls-1{stroke-width:0px;}</style></defs><g id="Elements"><g id="_24"><path class="cls-1" d="m247.07,124.49h-51.71s0,0,0,0l-70.65,70.65h.01s0,.01,0,.01v52.35c0,9.67,7.84,17.5,17.5,17.5s17.5-7.84,17.5-17.5v-30.61c0-4.64,1.84-9.09,5.13-12.38l39.89-39.89c3.28-3.28,7.74-5.13,12.38-5.13h30.59c9.76,0,17.65-7.99,17.5-17.78-.15-9.66-8.47-17.22-18.13-17.22Z"/><path class="cls-1" d="m140.49,69.85h0V17.5c0-9.67-7.84-17.5-17.5-17.5s-17.5,7.84-17.5,17.5v30.61c0,4.64-1.84,9.09-5.13,12.38l-39.89,39.89c-3.28,3.28-7.73,5.13-12.38,5.13h-30.59C7.74,105.51-.15,113.49,0,123.29c.15,9.66,8.47,17.22,18.13,17.22h51.71s0,0,0,0l70.65-70.65h-.01Z"/><path class="cls-1" d="m148.54,141.01v-17.13c0-4.1-3.33-7.43-7.43-7.43h-17.13c-4.1,0-7.43,3.33-7.43,7.43v17.13c0,4.1,3.33,7.43,7.43,7.43h17.13c4.1,0,7.43-3.33,7.43-7.43Z"/><path class="cls-1" d="m161.04,111.73h17.13c4.1,0,7.43-3.33,7.43-7.43v-17.13c0-4.1-3.33-7.43-7.43-7.43h-17.13c-4.1,0-7.43,3.33-7.43,7.43v17.13c0,4.1,3.33,7.43,7.43,7.43Z"/><path class="cls-1" d="m104.07,153.17h-17.13c-4.1,0-7.43,3.33-7.43,7.43v17.13c0,4.1,3.33,7.43,7.43,7.43h17.13c4.1,0,7.43-3.32,7.43-7.43v-17.13c0-4.1-3.33-7.43-7.43-7.43Z"/></g></g></svg>