<?xml version="1.0" encoding="UTF-8"?><svg id="Layer_2" xmlns="http://www.w3.org/2000/svg" viewBox="0 0 123.75 125.5"><g id="_6"><path d="M123.49,56.28C120.4,22.3,90.25-2.83,56.28,.26,22.3,3.34-2.83,33.49,.26,67.47c1,11.06,4.95,21.61,11.42,30.56-.46,2.18-.61,4.46-.4,6.79,.55,6.05,3.42,11.52,8.09,15.41,4.13,3.44,9.21,5.27,14.52,5.27,.7,0,1.4-.03,2.1-.1,3.78-.34,7.34-1.6,10.43-3.63,5.03,1.3,10.19,1.97,15.39,1.97,1.89,0,3.78-.09,5.67-.26,16.46-1.49,31.35-9.31,41.93-22,10.58-12.69,15.58-28.75,14.09-45.2ZM35.58,121.1c-4.9,.45-9.67-1.04-13.45-4.19-3.78-3.15-6.1-7.58-6.55-12.48-.92-10.11,6.56-19.08,16.67-20,4.9-.45,9.67,1.04,13.45,4.19,3.78,3.15,6.1,7.58,6.55,12.48,.44,4.9-1.04,9.67-4.19,13.45-3.15,3.78-7.58,6.1-12.48,6.55Zm20.69-22.47c-.96-5.22-3.68-9.9-7.8-13.33-4.67-3.89-10.57-5.73-16.62-5.18-.75,.07-1.49,.17-2.21,.31-2.69-4.65-4.31-9.76-4.8-15.19-.9-9.89,2.11-19.54,8.47-27.17,6.36-7.63,15.31-12.32,25.2-13.22,9.89-.9,19.54,2.11,27.16,8.47,7.63,6.36,12.33,15.31,13.22,25.2,.9,9.89-2.11,19.53-8.47,27.16-6.36,7.63-15.31,12.32-25.19,13.22-3.01,.27-6.02,.18-8.96-.27Zm49.79,.08c-9.84,11.81-23.69,19.07-38.99,20.46-5.58,.51-11.13,.21-16.55-.88,.29-.31,.58-.64,.86-.97,3.39-4.06,5.22-9.06,5.27-14.28,1.71,.22,3.44,.34,5.17,.34,1.26,0,2.53-.06,3.8-.17,11.04-1,21.03-6.24,28.13-14.76,7.1-8.52,10.46-19.29,9.45-30.33-1-11.04-6.25-21.03-14.76-28.13-8.52-7.1-19.29-10.45-30.33-9.45-11.04,1-21.03,6.25-28.13,14.76-7.1,8.52-10.45,19.29-9.45,30.33,.52,5.72,2.15,11.1,4.85,16.06-5.29,2.14-9.53,6.2-11.96,11.24-4.97-7.74-8.02-16.6-8.86-25.85C1.7,35.48,25.07,7.44,56.67,4.57c31.6-2.87,59.63,20.5,62.5,52.1,1.39,15.3-3.26,30.23-13.1,42.04Z"/></g></svg>