<?xml version="1.0" encoding="UTF-8"?><svg id="Layer_2" xmlns="http://www.w3.org/2000/svg" viewBox="0 0 617.12 169.54"><defs><style>.cls-1{stroke-width:0px;}</style></defs><g id="Elements"><g id="_31"><path class="cls-1" d="m577.21,126.34c-.97-.97-2.27-1.53-3.64-1.57l-30.74-3.45c-1.37-.04-2.67-.6-3.64-1.57l-46.11-46.11c-.97-.97-1.53-2.27-1.57-3.64l-3.45-30.74c-.04-1.37-.6-2.67-1.57-3.64L452.47,1.59c-3.41-3.41-9.25-.95-9.18,3.88l1.23,87.03h.16s-.08.08-.08.08l8.27,4.31c1.7.89,3.26,2.03,4.62,3.39l55.07,55.07c1.36,1.36,2.5,2.92,3.39,4.62l4.31,8.27.08-.08v.16s87.03,1.23,87.03,1.23c4.83.07,7.29-5.77,3.88-9.18l-34.04-34.02Z"/><path class="cls-1" d="m466.39,126.34c-.97-.97-2.27-1.53-3.64-1.57l-30.74-3.45c-1.37-.04-2.67-.6-3.64-1.57l-46.11-46.11c-.97-.97-1.53-2.27-1.57-3.64l-3.45-30.74c-.04-1.37-.6-2.67-1.57-3.64L341.65,1.59c-3.41-3.41-9.25-.95-9.18,3.88l1.23,87.03h.16s-.08.08-.08.08l8.27,4.31c1.7.89,3.26,2.03,4.62,3.39l55.07,55.07c1.36,1.36,2.5,2.92,3.39,4.62l4.31,8.27.08-.08v.16s87.03,1.23,87.03,1.23c4.83.07,7.29-5.77,3.88-9.18l-34.04-34.02Z"/><path class="cls-1" d="m355.56,126.34c-.97-.97-2.27-1.53-3.64-1.57l-30.74-3.45c-1.37-.04-2.67-.6-3.64-1.57l-46.11-46.11c-.97-.97-1.53-2.27-1.57-3.64l-3.45-30.74c-.04-1.37-.6-2.67-1.57-3.64L230.83,1.59c-3.41-3.41-9.25-.95-9.18,3.88l1.23,87.03h.16s-.08.08-.08.08l8.27,4.31c1.7.89,3.26,2.03,4.62,3.39l55.07,55.07c1.36,1.36,2.5,2.92,3.39,4.62l4.31,8.27.08-.08v.16s87.03,1.23,87.03,1.23c4.83.07,7.29-5.77,3.88-9.18l-34.04-34.02Z"/><path class="cls-1" d="m244.74,126.34c-.97-.97-2.27-1.53-3.64-1.57l-30.74-3.45c-1.37-.04-2.67-.6-3.64-1.57l-46.11-46.11c-.97-.97-1.53-2.27-1.57-3.64l-3.45-30.74c-.04-1.37-.6-2.67-1.57-3.64L120,1.59c-3.41-3.41-9.25-.95-9.18,3.88l1.23,87.03h.16s-.08.08-.08.08l8.27,4.31c1.7.89,3.26,2.03,4.62,3.39l55.07,55.07c1.36,1.36,2.5,2.92,3.39,4.62l4.31,8.27.08-.08v.16s87.03,1.23,87.03,1.23c4.83.07,7.29-5.77,3.88-9.18l-34.04-34.02Z"/><path class="cls-1" d="m133.92,126.34c-.97-.97-2.27-1.53-3.64-1.57l-30.74-3.45c-1.37-.04-2.67-.6-3.64-1.57l-46.11-46.11c-.97-.97-1.53-2.27-1.57-3.64l-3.45-30.74c-.04-1.37-.6-2.67-1.57-3.64L9.18,1.59C5.77-1.83-.07.64,0,5.46l1.23,87.03h.16s-.08.08-.08.08l8.27,4.31c1.7.89,3.26,2.03,4.62,3.39l55.07,55.07c1.36,1.36,2.5,2.92,3.39,4.62l4.31,8.27.08-.08v.16s87.03,1.23,87.03,1.23c4.83.07,7.29-5.77,3.88-9.18l-34.04-34.02Z"/><path class="cls-1" d="m15.11,139.32c-8.34,0-15.11,6.76-15.11,15.11s6.76,15.11,15.11,15.11,15.11-6.76,15.11-15.11-6.76-15.11-15.11-15.11Z"/><path class="cls-1" d="m602.01,30.22c8.34,0,15.11-6.76,15.11-15.11s-6.76-15.11-15.11-15.11-15.11,6.76-15.11,15.11,6.76,15.11,15.11,15.11Z"/><path class="cls-1" d="m602.01,62.31c-8.34,0-15.11,6.76-15.11,15.11s6.76,15.11,15.11,15.11,15.11-6.76,15.11-15.11-6.76-15.11-15.11-15.11Z"/><path class="cls-1" d="m534.95,30.22c8.34,0,15.11-6.76,15.11-15.11s-6.76-15.11-15.11-15.11-15.11,6.76-15.11,15.11,6.76,15.11,15.11,15.11Z"/></g></g></svg>