<?xml version="1.0" encoding="UTF-8"?><svg id="Layer_2" xmlns="http://www.w3.org/2000/svg" viewBox="0 0 135.91 99.68"><g id="_6"><path d="M135.91,41.52c0-4-3.06-7.46-8.23-10.34,5.16-2.88,8.23-6.34,8.23-10.34C135.91,7.3,100.9,0,67.95,0S0,7.3,0,20.83c0,4,3.06,7.46,8.23,10.34C3.06,34.06,0,37.51,0,41.52c0,3.55,2.41,6.66,6.55,9.33-4.14,2.67-6.55,5.79-6.55,9.33s2.41,6.66,6.55,9.33c-4.14,2.67-6.55,5.79-6.55,9.33,0,13.53,35.01,20.83,67.95,20.83s67.95-7.3,67.95-20.83c0-3.55-2.41-6.66-6.55-9.33,4.14-2.67,6.55-5.79,6.55-9.33s-2.41-6.66-6.55-9.33c4.14-2.67,6.55-5.79,6.55-9.33ZM4.33,20.83c0-4.5,9.14-8.69,17.7-11.12,12.24-3.47,28.55-5.39,45.93-5.39s33.69,1.91,45.93,5.39c8.55,2.43,17.7,6.62,17.7,11.12,0,2.92-3.86,5.71-8.91,7.98-13.18-5.33-34.35-8.13-54.72-8.13s-41.53,2.79-54.72,8.13c-5.05-2.26-8.91-5.06-8.91-7.98Zm109.56,28.23c1.83,.52,3.68,1.12,5.47,1.78-1.79,.67-3.64,1.27-5.47,1.78-12.24,3.47-28.55,5.39-45.93,5.39s-33.69-1.91-45.93-5.39c-1.83-.52-3.68-1.12-5.47-1.78,1.79-.67,3.64-1.27,5.47-1.78,12.24-3.47,28.55-5.39,45.93-5.39s33.69,1.91,45.93,5.39ZM22.02,31.95c-.85-.24-1.71-.5-2.56-.78,.85-.27,1.71-.53,2.56-.78,12.24-3.47,28.55-5.39,45.93-5.39s33.69,1.91,45.93,5.39c.85,.24,1.71,.5,2.56,.78-.85,.27-1.71,.53-2.56,.78-12.24,3.47-28.55,5.39-45.93,5.39s-33.69-1.91-45.93-5.39ZM4.33,41.52c0-2.92,3.86-5.71,8.91-7.98,8.26,3.34,19.65,5.68,32.02,6.97-13.51,1.4-25.85,4.07-34.22,7.92-3.92-2.05-6.7-4.43-6.7-6.91Zm0,18.67c0-2.48,2.78-4.86,6.7-6.91,6.68,3.07,15.88,5.39,26.18,6.91-10.3,1.52-19.51,3.84-26.18,6.91-3.92-2.05-6.7-4.43-6.7-6.91Zm63.63,2.16c17.38,0,33.69,1.91,45.93,5.39,1.83,.52,3.68,1.12,5.47,1.78-1.79,.67-3.64,1.27-5.47,1.78-12.24,3.47-28.55,5.39-45.93,5.39s-33.69-1.91-45.93-5.39c-1.83-.52-3.68-1.12-5.47-1.78,1.79-.67,3.64-1.27,5.47-1.78,12.24-3.47,28.55-5.39,45.93-5.39Zm63.63,16.5c0,4.49-9.14,8.69-17.7,11.12-12.24,3.47-28.55,5.39-45.93,5.39s-33.69-1.91-45.93-5.39c-8.55-2.43-17.7-6.62-17.7-11.12,0-2.48,2.78-4.86,6.7-6.91,12.94,5.95,35.38,9.07,56.93,9.07s43.99-3.13,56.93-9.07c3.92,2.05,6.7,4.43,6.7,6.91Zm0-18.67c0,2.48-2.78,4.86-6.7,6.91-6.68-3.07-15.88-5.39-26.18-6.91,10.3-1.52,19.51-3.84,26.18-6.91,3.92,2.05,6.7,4.43,6.7,6.91Zm-6.7-11.76c-8.37-3.85-20.72-6.51-34.22-7.92,12.37-1.28,23.76-3.63,32.02-6.97,5.05,2.26,8.91,5.06,8.91,7.98,0,2.48-2.78,4.86-6.7,6.91Z"/></g></svg>