<?xml version="1.0" encoding="UTF-8"?><svg id="Layer_2" xmlns="http://www.w3.org/2000/svg" viewBox="0 0 334.82 199.8"><defs><style>.cls-1{stroke-width:0px;}</style></defs><g id="Elements"><g id="_20"><path class="cls-1" d="m274.58,93.61c.96-.96,2.24-1.51,3.59-1.55l30.33-3.4c1.35-.04,2.63-.6,3.59-1.55l18.64-18.63c8.81-8.81,2.45-23.87-10.01-23.69l-64.74.91v.16l-.08-.08-3.65,7c-1.28,2.45-2.92,4.7-4.88,6.65l-3.49,3.49c-3.35,3.35-3.35,8.78,0,12.13l18.57,18.57c3.35,3.35,8.78,3.35,12.12,0h0Z"/><path class="cls-1" d="m87.45,59.43c-1.96-1.96-3.61-4.21-4.89-6.66l-3.64-6.98-.08.08v-.16l-64.74-.91c-12.46-.18-18.82,14.88-10.01,23.69l18.64,18.63c.95.95,2.24,1.51,3.59,1.55l30.33,3.4c1.35.04,2.63.6,3.59,1.55h0c3.35,3.35,8.78,3.35,12.12,0l18.57-18.57c3.35-3.35,3.35-8.78,0-12.13l-3.49-3.49Z"/><path class="cls-1" d="m105.74,139.11c.95.96,1.51,2.24,1.55,3.59l3.4,30.33c.04,1.35.59,2.63,1.55,3.59l18.63,18.64c8.81,8.81,23.87,2.45,23.69-10.01l-.91-64.74h-.16s.08-.08.08-.08l-6.99-3.64c-2.45-1.28-4.7-2.93-6.65-4.88l-6.17-6.17c-3.35-3.35-8.78-3.35-12.13,0l-18.57,18.57c-3.35,3.35-3.35,8.78,0,12.13l2.68,2.68Z"/><path class="cls-1" d="m228.53,139.55c-.95.96-1.51,2.24-1.55,3.59l-3.4,30.33c-.04,1.35-.59,2.63-1.55,3.59l-18.63,18.64c-8.81,8.81-23.87,2.45-23.69-10.01l.91-64.74h.16s-.08-.08-.08-.08l6.99-3.64c2.45-1.28,4.7-2.93,6.65-4.88l6.17-6.17c3.35-3.35,8.78-3.35,12.13,0l18.57,18.57c3.35,3.35,3.35,8.78,0,12.13l-2.68,2.68Z"/><path class="cls-1" d="m154.56,14.1c.18-12.46-14.88-18.82-23.69-10.01l-18.63,18.64c-.96.95-1.51,2.24-1.55,3.59l-3.4,30.33c-.04,1.35-.6,2.64-1.55,3.59l-2.67,2.67c-3.35,3.35-3.35,8.78,0,12.13l18.57,18.57c3.35,3.35,8.78,3.35,12.13,0l6.16-6.16c1.96-1.96,4.2-3.6,6.66-4.88l6.99-3.64-.08-.08h.16l.91-64.74Z"/><path class="cls-1" d="m60.24,105.74c-.96.96-2.24,1.51-3.59,1.55l-30.33,3.4c-1.35.04-2.63.6-3.59,1.55l-18.64,18.63c-8.81,8.81-2.45,23.87,10.01,23.69l64.74-.91v-.16s.08.08.08.08l3.64-6.99c1.28-2.45,2.92-4.69,4.88-6.65l3.5-3.5c3.35-3.35,3.35-8.78,0-12.13l-18.57-18.57c-3.35-3.35-8.78-3.35-12.13,0h0Z"/><path class="cls-1" d="m229.08,60.24c-.96-.95-1.51-2.24-1.55-3.59l-3.4-30.33c-.04-1.35-.6-2.63-1.55-3.59l-18.63-18.64c-8.81-8.81-23.87-2.45-23.69,10.01l.91,64.74h.16l-.08.08,6.99,3.64c2.45,1.28,4.7,2.93,6.66,4.88l6.16,6.16c3.35,3.35,8.78,3.35,12.13,0l18.57-18.57c3.35-3.35,3.35-8.78,0-12.13l-2.68-2.68Z"/><path class="cls-1" d="m312.08,112.24c-.96-.96-2.24-1.51-3.59-1.55l-30.33-3.4c-1.35-.04-2.63-.6-3.59-1.55h0c-3.35-3.35-8.78-3.35-12.13,0l-18.57,18.57c-3.35,3.35-3.35,8.78,0,12.13l3.49,3.49c1.96,1.96,3.61,4.2,4.88,6.66l3.64,6.99.08-.08v.16l64.74.92c12.46.18,18.82-14.88,10.01-23.69l-18.64-18.63Z"/></g></g></svg>