<?xml version="1.0" encoding="UTF-8"?><svg id="Layer_2" xmlns="http://www.w3.org/2000/svg" viewBox="0 0 271.55 259.71"><defs><style>.cls-1{stroke-width:0px;}</style></defs><g id="Elements"><g id="_01"><path class="cls-1" d="m15.08,120.95c2.31,2.31,6.06,2.31,8.37,0,2.31-2.31,6.06-2.31,8.37,0l21.2,21.2c2.31,2.31,6.06,2.31,8.37,0l25.26-25.26c2.31-2.31,2.31-6.06,0-8.37l-.63-.63c-2.31-2.31-2.31-6.06,0-8.37l13.49-13.49c2.31-2.31,6.06-2.31,8.37,0l.63.63c2.31,2.31,6.06,2.31,8.37,0l18.88-18.88-14.75-14.75c-2.31-2.31-2.31-6.06,0-8.37l14.75-14.75L107.6,1.73c-2.31-2.31-6.06-2.31-8.37,0l-15.87,15.87c-2.31,2.31-2.31,6.06,0,8.37l21.53,21.53c2.31,2.31,2.31,6.06,0,8.37l-49.01,49.01c-2.31,2.31-6.06,2.31-8.37,0l-21.53-21.53c-2.31-2.31-6.06-2.31-8.37,0l-15.87,15.87c-2.31,2.31-2.31,6.06,0,8.37l13.35,13.35Z"/><path class="cls-1" d="m150.53,53.03l-14.75,14.75,18.88,18.88c2.31,2.31,6.06,2.31,8.37,0l.63-.63c2.31-2.31,6.06-2.31,8.37,0l13.49,13.49c2.31,2.31,2.31,6.06,0,8.37l-.63.63c-2.31,2.31-2.31,6.06,0,8.37l25.26,25.26c2.31,2.31,6.06,2.31,8.37,0l21.2-21.2c2.31-2.31,6.06-2.31,8.37,0,2.31,2.31,6.06,2.31,8.37,0l13.35-13.35c2.31-2.31,2.31-6.06,0-8.37l-15.87-15.87c-2.31-2.31-6.06-2.31-8.37,0l-21.53,21.53c-2.31,2.31-6.06,2.31-8.37,0l-49.01-49.01c-2.31-2.31-2.31-6.06,0-8.37l21.53-21.53c2.31-2.31,2.31-6.06,0-8.37l-15.87-15.87c-2.31-2.31-6.06-2.31-8.37,0l-28.17,28.17,14.75,14.75c2.31,2.31,2.31,6.06,0,8.37Z"/><path class="cls-1" d="m121.02,160.48l14.75-14.75-28.17-28.17c-2.31-2.31-6.06-2.31-8.37,0l-15.87,15.87c-2.31,2.31-2.31,6.06,0,8.37l21.53,21.53c2.31,2.31,2.31,6.06,0,8.37l-49.01,49.01c-2.31,2.31-6.06,2.31-8.37,0l-21.53-21.53c-2.31-2.31-6.06-2.31-8.37,0l-15.87,15.87c-2.31,2.31-2.31,6.06,0,8.37l13.35,13.35c2.31,2.31,6.06,2.31,8.37,0,2.31-2.31,6.06-2.31,8.37,0l21.2,21.2c2.31,2.31,6.06,2.31,8.37,0l25.26-25.26c2.31-2.31,2.31-6.06,0-8.37l-.63-.63c-2.31-2.31-2.31-6.06,0-8.37l13.49-13.49c2.31-2.31,6.06-2.31,8.37,0l.63.63c2.31,2.31,6.06,2.31,8.37,0l18.88-18.88-14.75-14.75c-2.31-2.31-2.31-6.06,0-8.37Z"/><path class="cls-1" d="m253.94,199.18c-2.31-2.31-6.06-2.31-8.37,0l-21.53,21.53c-2.31,2.31-6.06,2.31-8.37,0l-49.01-49.01c-2.31-2.31-2.31-6.06,0-8.37l21.53-21.53c2.31-2.31,2.31-6.06,0-8.37l-15.87-15.87c-2.31-2.31-6.06-2.31-8.37,0l-28.17,28.17,14.75,14.75c2.31,2.31,2.31,6.06,0,8.37l-14.75,14.75,18.88,18.88c2.31,2.31,6.06,2.31,8.37,0l.63-.63c2.31-2.31,6.06-2.31,8.37,0l13.49,13.49c2.31,2.31,2.31,6.06,0,8.37l-.63.63c-2.31,2.31-2.31,6.06,0,8.37l25.26,25.26c2.31,2.31,6.06,2.31,8.37,0l21.2-21.2c2.31-2.31,6.06-2.31,8.37,0,2.31,2.31,6.06,2.31,8.37,0l13.35-13.35c2.31-2.31,2.31-6.06,0-8.37l-15.87-15.87Z"/></g></g></svg>