<?xml version="1.0" encoding="UTF-8"?><svg id="Layer_2" xmlns="http://www.w3.org/2000/svg" viewBox="0 0 255.77 227.15"><defs><style>.cls-1{stroke-width:0px;}</style></defs><g id="Elements"><g id="_27"><path class="cls-1" d="m195.34,9.68c-19.87-20.44-54.51-6.37-54.5,22.13h0c0,1.75.67,3.42,1.86,4.7l24.59,30.81c1.2,1.27,1.86,2.95,1.86,4.7v83.12c0,1.75-.67,3.43-1.86,4.7l-24.59,30.81c-1.2,1.27-1.86,2.95-1.86,4.7,0,28.5,34.64,42.57,54.5,22.13l34.57-35.56-.14-.14h.14l-2.44-7.76c-1.48-4.71-2.23-9.61-2.23-14.54v-91.69c0-4.98.76-9.94,2.26-14.69l2.42-7.69h-.14l.14-.14-34.57-35.56Z"/><path class="cls-1" d="m60.43,9.68L25.86,45.24l.14.14h-.14l2.42,7.69c1.5,4.75,2.26,9.71,2.26,14.69v91.69c0,4.93-.75,9.84-2.23,14.54l-2.44,7.76h.14l-.14.14,34.57,35.56c19.87,20.44,54.51,6.37,54.51-22.13,0-1.75-.67-3.42-1.86-4.7l-24.59-30.81c-1.2-1.27-1.86-2.95-1.86-4.7v-83.12c0-1.75.67-3.42,1.86-4.7l24.59-30.81c1.2-1.27,1.86-2.95,1.86-4.7h0c0-28.5-34.64-42.57-54.51-22.13Z"/><path class="cls-1" d="m249.79,58.09c-3.31,0-5.99,2.68-5.99,5.99v102.02c0,3.31,2.68,5.99,5.99,5.99s5.99-2.68,5.99-5.99v-102.02c0-3.31-2.68-5.99-5.99-5.99Z"/><path class="cls-1" d="m5.99,58.09c-3.31,0-5.99,2.68-5.99,5.99v102.02c0,3.31,2.68,5.99,5.99,5.99s5.99-2.68,5.99-5.99v-102.02c0-3.31-2.68-5.99-5.99-5.99Z"/></g></g></svg>