<?xml version="1.0" encoding="UTF-8"?><svg id="Layer_2" xmlns="http://www.w3.org/2000/svg" viewBox="0 0 174.63 316.76"><defs><style>.cls-1{stroke-width:0px;}</style></defs><g id="Elements"><g id="_30"><path class="cls-1" d="m129.95,170.64v-65.05c0-.67-.05-1.33-.13-1.97.08-.66.13-1.33.13-2.01V36.55c0-8.97-7.27-16.24-16.24-16.24s-16.24,7.27-16.24,16.24v49.2c0,5.07-2.37,9.85-6.4,12.92l-39.99,30.47c-4.03,3.07-6.4,7.85-6.4,12.92v65.05c0,.67.05,1.33.13,1.97-.08.66-.13,1.33-.13,2.01v65.05c0,8.97,7.27,16.24,16.24,16.24s16.24-7.27,16.24-16.24v-49.2c0-5.07,2.37-9.85,6.4-12.92l39.99-30.47c4.03-3.07,6.4-7.85,6.4-12.92Zm-38.89-2.94l-13.91,10.59v-20.38c0-5.07,2.37-9.85,6.4-12.92l13.91-10.59v20.38c0,5.07-2.37,9.85-6.4,12.92Z"/><path class="cls-1" d="m158.38,113.71c-8.97,0-16.24,7.27-16.24,16.24v49.2c0,5.07-2.37,9.85-6.4,12.92l-39.99,30.47c-4.03,3.07-6.4,7.85-6.4,12.92v65.05c0,8.97,7.27,16.24,16.24,16.24s16.24-7.27,16.24-16.24v-49.2c0-5.07,2.37-9.85,6.4-12.92l39.99-30.47c4.03-3.07,6.4-7.85,6.4-12.92v-65.05c0-8.97-7.27-16.24-16.24-16.24Z"/><path class="cls-1" d="m85.28,81.3V16.24c0-8.97-7.27-16.24-16.24-16.24s-16.24,7.27-16.24,16.24v49.2c0,5.07-2.37,9.85-6.4,12.92L6.4,108.83c-4.03,3.07-6.4,7.85-6.4,12.92v65.05c0,8.97,7.27,16.24,16.24,16.24s16.24-7.27,16.24-16.24v-49.2c0-5.07,2.37-9.85,6.4-12.92l39.99-30.47c4.03-3.07,6.4-7.85,6.4-12.92Z"/></g></g></svg>