<?xml version="1.0" encoding="UTF-8"?><svg id="Layer_2" xmlns="http://www.w3.org/2000/svg" viewBox="0 0 725 198.56"><defs><style>.cls-1{stroke-width:0px;}</style></defs><g id="Elements"><g id="_30"><path class="cls-1" d="m.76,50.38l-.04.04,4.5,2.35c.93.48,1.78,1.11,2.52,1.85l30,30c.74.74,1.36,1.59,1.85,2.52l2.35,4.5.04-.04v.09l47.41.67c2.63.04,3.97-3.14,2.11-5l-18.54-18.53c-.53-.53-1.24-.83-1.98-.86l-16.74-1.88c-.75-.02-1.45-.33-1.98-.86l-25.12-25.12c-.53-.53-.83-1.24-.86-1.98l-1.88-16.74c-.02-.75-.33-1.45-.86-1.98L5,.86C3.14-1-.04.35,0,2.98l.67,47.41h.09Z"/><path class="cls-1" d="m72.95,129.74l18.54-18.53c1.86-1.86.52-5.04-2.11-5l-47.41.67v.09l-.04-.04-2.35,4.5c-.48.93-1.11,1.78-1.85,2.52l-30,30c-.74.74-1.59,1.36-2.52,1.85l-4.5,2.35.04.04h-.09S0,195.59,0,195.59c-.04,2.63,3.14,3.97,5,2.11l18.53-18.54c.53-.53.83-1.24.86-1.98l1.88-16.74c.02-.75.33-1.45.86-1.98l25.12-25.12c.53-.53,1.24-.83,1.98-.86l16.74-1.88c.75-.02,1.45-.33,1.98-.86Z"/><path class="cls-1" d="m71.05,50.38l-.04.04,4.5,2.35c.93.48,1.78,1.11,2.52,1.85l30,30c.74.74,1.36,1.59,1.85,2.52l2.35,4.5.04-.04v.09l47.41.67c2.63.04,3.97-3.14,2.11-5l-18.54-18.53c-.53-.53-1.24-.83-1.98-.86l-16.74-1.88c-.75-.02-1.45-.33-1.98-.86l-25.12-25.12c-.53-.53-.83-1.24-.86-1.98l-1.88-16.74c-.02-.75-.33-1.45-.86-1.98L75.29.86c-1.86-1.86-5.04-.52-5,2.11l.67,47.41h.09Z"/><path class="cls-1" d="m143.24,129.74l18.54-18.53c1.86-1.86.52-5.04-2.11-5l-47.41.67v.09l-.04-.04-2.35,4.5c-.48.93-1.11,1.78-1.85,2.52l-30,30c-.74.74-1.59,1.36-2.52,1.85l-4.5,2.35.04.04h-.09s-.67,47.41-.67,47.41c-.04,2.63,3.14,3.97,5,2.11l18.53-18.54c.53-.53.83-1.24.86-1.98l1.88-16.74c.02-.75.33-1.45.86-1.98l25.12-25.12c.53-.53,1.24-.83,1.98-.86l16.74-1.88c.75-.02,1.45-.33,1.98-.86Z"/><path class="cls-1" d="m141.34,50.38l-.04.04,4.5,2.35c.93.48,1.78,1.11,2.52,1.85l30,30c.74.74,1.36,1.59,1.85,2.52l2.35,4.5.04-.04v.09s47.41.67,47.41.67c2.63.04,3.97-3.14,2.11-5l-18.54-18.53c-.53-.53-1.24-.83-1.98-.86l-16.74-1.88c-.75-.02-1.45-.33-1.98-.86l-25.12-25.12c-.53-.53-.83-1.24-.86-1.98l-1.88-16.74c-.02-.75-.33-1.45-.86-1.98L145.59.86c-1.86-1.86-5.04-.52-5,2.11l.67,47.41h.09Z"/><path class="cls-1" d="m213.54,129.74l18.54-18.53c1.86-1.86.52-5.04-2.11-5l-47.41.67v.09s-.04-.04-.04-.04l-2.35,4.5c-.48.93-1.11,1.78-1.85,2.52l-30,30c-.74.74-1.59,1.36-2.52,1.85l-4.5,2.35.04.04h-.09s-.67,47.41-.67,47.41c-.04,2.63,3.14,3.97,5,2.11l18.53-18.54c.53-.53.83-1.24.86-1.98l1.88-16.74c.02-.75.33-1.45.86-1.98l25.12-25.12c.53-.53,1.24-.83,1.98-.86l16.74-1.88c.75-.02,1.45-.33,1.98-.86Z"/><path class="cls-1" d="m211.64,50.38l-.04.04,4.5,2.35c.93.48,1.78,1.11,2.52,1.85l30,30c.74.74,1.36,1.59,1.85,2.52l2.35,4.5.04-.04v.09s47.41.67,47.41.67c2.63.04,3.97-3.14,2.11-5l-18.54-18.53c-.53-.53-1.24-.83-1.98-.86l-16.74-1.88c-.75-.02-1.45-.33-1.98-.86l-25.12-25.12c-.53-.53-.83-1.24-.86-1.98l-1.88-16.74c-.02-.75-.33-1.45-.86-1.98L215.88.86c-1.86-1.86-5.04-.52-5,2.11l.67,47.41h.09Z"/><path class="cls-1" d="m283.83,129.74l18.54-18.53c1.86-1.86.52-5.04-2.11-5l-47.41.67v.09s-.04-.04-.04-.04l-2.35,4.5c-.48.93-1.11,1.78-1.85,2.52l-30,30c-.74.74-1.59,1.36-2.52,1.85l-4.5,2.35.04.04h-.09s-.67,47.41-.67,47.41c-.04,2.63,3.14,3.97,5,2.11l18.53-18.54c.53-.53.83-1.24.86-1.98l1.88-16.74c.02-.75.33-1.45.86-1.98l25.12-25.12c.53-.53,1.24-.83,1.98-.86l16.74-1.88c.75-.02,1.45-.33,1.98-.86Z"/><path class="cls-1" d="m281.93,50.38l-.04.04,4.5,2.35c.93.48,1.78,1.11,2.52,1.85l30,30c.74.74,1.36,1.59,1.85,2.52l2.35,4.5.04-.04v.09s47.41.67,47.41.67c2.63.04,3.97-3.14,2.11-5l-18.54-18.53c-.53-.53-1.24-.83-1.98-.86l-16.74-1.88c-.75-.02-1.45-.33-1.98-.86l-25.12-25.12c-.53-.53-.83-1.24-.86-1.98l-1.88-16.74c-.02-.75-.33-1.45-.86-1.98L286.18.86c-1.86-1.86-5.04-.52-5,2.11l.67,47.41h.09Z"/><path class="cls-1" d="m354.12,129.74l18.54-18.53c1.86-1.86.52-5.04-2.11-5l-47.41.67v.09s-.04-.04-.04-.04l-2.35,4.5c-.48.93-1.11,1.78-1.85,2.52l-30,30c-.74.74-1.59,1.36-2.52,1.85l-4.5,2.35.04.04h-.09s-.67,47.41-.67,47.41c-.04,2.63,3.14,3.97,5,2.11l18.53-18.54c.53-.53.83-1.24.86-1.98l1.88-16.74c.02-.75.33-1.45.86-1.98l25.12-25.12c.53-.53,1.24-.83,1.98-.86l16.74-1.88c.75-.02,1.45-.33,1.98-.86Z"/><path class="cls-1" d="m352.23,50.38l-.04.04,4.5,2.35c.93.48,1.78,1.11,2.52,1.85l30,30c.74.74,1.36,1.59,1.85,2.52l2.35,4.5.04-.04v.09l47.41.67c2.63.04,3.97-3.14,2.11-5l-18.54-18.53c-.53-.53-1.24-.83-1.98-.86l-16.74-1.88c-.75-.02-1.45-.33-1.98-.86l-25.12-25.12c-.53-.53-.83-1.24-.86-1.98l-1.88-16.74c-.02-.75-.33-1.45-.86-1.98L356.47.86c-1.86-1.86-5.04-.52-5,2.11l.67,47.41h.09Z"/><path class="cls-1" d="m424.42,129.74l18.54-18.53c1.86-1.86.52-5.04-2.11-5l-47.41.67v.09l-.04-.04-2.35,4.5c-.48.93-1.11,1.78-1.85,2.52l-30,30c-.74.74-1.59,1.36-2.52,1.85l-4.5,2.35.04.04h-.09s-.67,47.41-.67,47.41c-.04,2.63,3.14,3.97,5,2.11l18.53-18.54c.53-.53.83-1.24.86-1.98l1.88-16.74c.02-.75.33-1.45.86-1.98l25.12-25.12c.53-.53,1.24-.83,1.98-.86l16.74-1.88c.75-.02,1.45-.33,1.98-.86Z"/><path class="cls-1" d="m422.52,50.38l-.04.04,4.5,2.35c.93.48,1.78,1.11,2.52,1.85l30,30c.74.74,1.36,1.59,1.85,2.52l2.35,4.5.04-.04v.09l47.41.67c2.63.04,3.97-3.14,2.11-5l-18.54-18.53c-.53-.53-1.24-.83-1.98-.86l-16.74-1.88c-.75-.02-1.45-.33-1.98-.86l-25.12-25.12c-.53-.53-.83-1.24-.86-1.98l-1.88-16.74c-.02-.75-.33-1.45-.86-1.98L426.76.86c-1.86-1.86-5.04-.52-5,2.11l.67,47.41h.09Z"/><path class="cls-1" d="m494.71,129.74l18.54-18.53c1.86-1.86.52-5.04-2.11-5l-47.41.67v.09l-.04-.04-2.35,4.5c-.48.93-1.11,1.78-1.85,2.52l-30,30c-.74.74-1.59,1.36-2.52,1.85l-4.5,2.35.04.04h-.09s-.67,47.41-.67,47.41c-.04,2.63,3.14,3.97,5,2.11l18.53-18.54c.53-.53.83-1.24.86-1.98l1.88-16.74c.02-.75.33-1.45.86-1.98l25.12-25.12c.53-.53,1.24-.83,1.98-.86l16.74-1.88c.75-.02,1.45-.33,1.98-.86Z"/><path class="cls-1" d="m492.81,50.38l-.04.04,4.5,2.35c.93.48,1.78,1.11,2.52,1.85l30,30c.74.74,1.36,1.59,1.85,2.52l2.35,4.5.04-.04v.09l47.41.67c2.63.04,3.97-3.14,2.11-5l-18.54-18.53c-.53-.53-1.24-.83-1.98-.86l-16.74-1.88c-.75-.02-1.45-.33-1.98-.86l-25.12-25.12c-.53-.53-.83-1.24-.86-1.98l-1.88-16.74c-.02-.75-.33-1.45-.86-1.98L497.06.86c-1.86-1.86-5.04-.52-5,2.11l.67,47.41h.09Z"/><path class="cls-1" d="m565,129.74l18.54-18.53c1.86-1.86.52-5.04-2.11-5l-47.41.67v.09l-.04-.04-2.35,4.5c-.48.93-1.11,1.78-1.85,2.52l-30,30c-.74.74-1.59,1.36-2.52,1.85l-4.5,2.35.04.04h-.09s-.67,47.41-.67,47.41c-.04,2.63,3.14,3.97,5,2.11l18.53-18.54c.53-.53.83-1.24.86-1.98l1.88-16.74c.02-.75.33-1.45.86-1.98l25.12-25.12c.53-.53,1.24-.83,1.98-.86l16.74-1.88c.75-.02,1.45-.33,1.98-.86Z"/><path class="cls-1" d="m563.11,50.38l-.04.04,4.5,2.35c.93.48,1.78,1.11,2.52,1.85l30,30c.74.74,1.36,1.59,1.85,2.52l2.35,4.5.04-.04v.09s47.41.67,47.41.67c2.63.04,3.97-3.14,2.11-5l-18.54-18.53c-.53-.53-1.24-.83-1.98-.86l-16.74-1.88c-.75-.02-1.45-.33-1.98-.86l-25.12-25.12c-.53-.53-.83-1.24-.86-1.98l-1.88-16.74c-.02-.75-.33-1.45-.86-1.98l-18.53-18.54c-1.86-1.86-5.04-.52-5,2.11l.67,47.41h.09Z"/><path class="cls-1" d="m635.3,129.74l18.54-18.53c1.86-1.86.52-5.04-2.11-5l-47.41.67v.09s-.04-.04-.04-.04l-2.35,4.5c-.48.93-1.11,1.78-1.85,2.52l-30,30c-.74.74-1.59,1.36-2.52,1.85l-4.5,2.35.04.04h-.09s-.67,47.41-.67,47.41c-.04,2.63,3.14,3.97,5,2.11l18.53-18.54c.53-.53.83-1.24.86-1.98l1.88-16.74c.02-.75.33-1.45.86-1.98l25.12-25.12c.53-.53,1.24-.83,1.98-.86l16.74-1.88c.75-.02,1.45-.33,1.98-.86Z"/><path class="cls-1" d="m633.4,50.38l-.04.04,4.5,2.35c.93.48,1.78,1.11,2.52,1.85l30,30c.74.74,1.36,1.59,1.85,2.52l2.35,4.5.04-.04v.09s47.41.67,47.41.67c2.63.04,3.97-3.14,2.11-5l-18.54-18.53c-.53-.53-1.24-.83-1.98-.86l-16.74-1.88c-.75-.02-1.45-.33-1.98-.86l-25.12-25.12c-.53-.53-.83-1.24-.86-1.98l-1.88-16.74c-.02-.75-.33-1.45-.86-1.98l-18.53-18.54c-1.86-1.86-5.04-.52-5,2.11l.67,47.41h.09Z"/><path class="cls-1" d="m722.02,106.21l-47.41.67v.09s-.04-.04-.04-.04l-2.35,4.5c-.48.93-1.11,1.78-1.85,2.52l-30,30c-.74.74-1.59,1.36-2.52,1.85l-4.5,2.35.04.04h-.09s-.67,47.41-.67,47.41c-.04,2.63,3.14,3.97,5,2.11l18.53-18.54c.53-.53.83-1.24.86-1.98l1.88-16.74c.02-.75.33-1.45.86-1.98l25.12-25.12c.53-.53,1.24-.83,1.98-.86l16.74-1.88c.75-.02,1.45-.33,1.98-.86l18.54-18.53c1.86-1.86.52-5.04-2.11-5Z"/></g></g></svg>