<?xml version="1.0" encoding="UTF-8"?><svg id="Layer_2" xmlns="http://www.w3.org/2000/svg" viewBox="0 0 125.31 125.31"><g id="_2"><g><polygon points="65.2 74.25 65.2 64.15 75.29 64.15 75.29 60.11 65.2 60.11 65.2 50.02 61.16 50.02 61.16 60.11 51.06 60.11 51.06 64.15 61.16 64.15 61.16 74.25 65.2 74.25"/><path d="M124.72,97.39l-19.46-19.46c-4.29-4.29-6.66-10-6.66-16.07s2.36-11.78,6.66-16.07l18.91-18.91c.79-.79,.79-2.07,0-2.86-.79-.79-2.07-.79-2.86,0l-18.91,18.91c-5.06,5.06-7.84,11.78-7.84,18.93s2.78,13.87,7.84,18.93l19.46,19.46c.39,.39,.91,.59,1.43,.59s1.03-.2,1.43-.59c.79-.79,.79-2.07,0-2.86Z"/><path d="M44.52,22.91c5.22,5.22,12.08,7.83,18.93,7.83s13.71-2.61,18.93-7.83L101.29,3.99c.79-.79,.79-2.07,0-2.86-.79-.79-2.07-.79-2.86,0l-18.91,18.91c-8.86,8.86-23.28,8.86-32.15,0L27.92,.59c-.79-.79-2.07-.79-2.86,0-.79,.79-.79,2.07,0,2.86l19.46,19.46Z"/><path d="M80.79,102.4c-10.44-10.44-27.42-10.44-37.86,0l-18.91,18.91c-.79,.79-.79,2.07,0,2.86,.79,.79,2.07,.79,2.86,0l18.91-18.91c8.86-8.86,23.28-8.86,32.15,0l19.46,19.46c.39,.39,.91,.59,1.43,.59s1.03-.2,1.43-.59c.79-.79,.79-2.07,0-2.86l-19.46-19.46Z"/><path d="M22.91,44.52L3.45,25.06c-.79-.79-2.07-.79-2.86,0-.79,.79-.79,2.07,0,2.86l19.46,19.46c4.29,4.29,6.66,10,6.66,16.07s-2.36,11.78-6.66,16.07L1.13,98.44c-.79,.79-.79,2.07,0,2.86,.39,.39,.91,.59,1.43,.59s1.03-.2,1.43-.59l18.91-18.91c5.06-5.06,7.84-11.78,7.84-18.93s-2.78-13.87-7.84-18.93Z"/></g></g></svg>