<?xml version="1.0" encoding="UTF-8"?><svg id="Layer_2" xmlns="http://www.w3.org/2000/svg" viewBox="0 0 90.79 90.79"><g id="_1"><path d="M0,0V90.79H90.79V0H0ZM87.9,22.57h-19.68V2.89h19.68V22.57Zm-41.06,0V2.89h18.5V22.57h-18.5Zm18.5,2.89v18.5h-18.5V25.45h18.5Zm-21.38-2.89H25.45V2.89h18.5V22.57Zm0,2.89v18.5H25.45V25.45h18.5Zm-21.38,18.5H2.89V25.45H22.57v18.5Zm0,2.89v18.5H2.89v-18.5H22.57Zm2.89,0h18.5v18.5H25.45v-18.5Zm18.5,21.38v19.68H25.45v-19.68h18.5Zm2.89,0h18.5v19.68h-18.5v-19.68Zm0-2.89v-18.5h18.5v18.5h-18.5Zm21.38-18.5h19.68v18.5h-19.68v-18.5Zm0-2.89V25.45h19.68v18.5h-19.68ZM22.57,2.89V22.57H2.89V2.89H22.57ZM2.89,68.22H22.57v19.68H2.89v-19.68Zm65.33,19.68v-19.68h19.68v19.68h-19.68Z"/></g></svg>