<?xml version="1.0" encoding="UTF-8"?><svg id="Layer_2" xmlns="http://www.w3.org/2000/svg" viewBox="0 0 212.83 237.47"><defs><style>.cls-1{stroke-width:0px;}</style></defs><g id="Elements"><g id="_34"><path class="cls-1" d="m104.12,0C51.46-.2-1.76,33.64.04,95.99c.66,22.65,8.06,45.99,18.51,65.57,16.85,31.55,43.02,59.03,74.58,73.04,8.45,3.75,18.01,3.85,26.45.1,49.69-22.1,103.85-94.67,91.44-155.25C200.23,26.68,151.17.18,104.12,0Zm54.54,155.39c-24.69,17.08-55.5,22.12-35.13-19.9,7.92-18.6,27.12-41.22,47.75-29.61,17.03,13.38.63,39.96-12.62,49.52Zm-115.14-49.52c20.62-11.61,39.83,11.01,47.75,29.61,20.38,42.02-10.44,36.98-35.13,19.9-13.25-9.56-29.65-36.14-12.62-49.52Z"/></g></g></svg>