<?xml version="1.0" encoding="UTF-8"?><svg id="Layer_2" xmlns="http://www.w3.org/2000/svg" viewBox="0 0 251.44 251.44"><defs><style>.cls-1{stroke-width:0px;}</style></defs><g id="Elements"><g id="_09"><path class="cls-1" d="m247.52,136.71l-58.52.83v.11s-.05-.05-.05-.05l-2.9,5.56c-.6,1.14-1.37,2.19-2.28,3.11l-37.03,37.03c-.91.91-1.96,1.68-3.11,2.28l-5.56,2.9.05.05h-.11s-.83,58.52-.83,58.52c-.05,3.25,3.88,4.9,6.17,2.61l22.87-22.89c.65-.65,1.03-1.53,1.06-2.45l2.32-20.67c.03-.92.41-1.8,1.06-2.45l31.01-31.01c.65-.65,1.53-1.03,2.45-1.06l20.67-2.32c.92-.03,1.79-.41,2.45-1.06l22.89-22.87c2.3-2.29.64-6.22-2.61-6.17Z"/><path class="cls-1" d="m108.56,1.31l-22.87,22.89c-.65.65-1.03,1.53-1.06,2.45l-2.32,20.67c-.03.92-.41,1.8-1.06,2.45l-31.01,31.01c-.65.65-1.53,1.03-2.45,1.06l-20.67,2.32c-.92.03-1.79.41-2.45,1.06L1.8,108.07c-2.3,2.29-.64,6.22,2.61,6.17l58.52-.83v-.11s.05.05.05.05l2.9-5.56c.6-1.14,1.37-2.19,2.28-3.11l37.03-37.03c.91-.91,1.96-1.68,3.11-2.28l5.56-2.9-.05-.05h.11s.83-58.52.83-58.52c.05-3.25-3.88-4.9-6.17-2.61Z"/><path class="cls-1" d="m113.06,189.25l.05-.05-5.56-2.9c-1.15-.6-2.19-1.36-3.11-2.28l-37.03-37.03c-.91-.91-1.68-1.96-2.28-3.11l-2.9-5.56-.05.05v-.11s-58.52-.83-58.52-.83c-3.25-.05-4.9,3.88-2.61,6.17l22.89,22.87c.65.65,1.53,1.03,2.45,1.06l20.67,2.32c.92.03,1.8.41,2.45,1.06l31.01,31.01c.65.65,1.03,1.53,1.06,2.45l2.32,20.67c.03.92.41,1.79,1.06,2.45l22.87,22.89c2.29,2.3,6.22.64,6.17-2.61l-.83-58.52h-.11Z"/><path class="cls-1" d="m138.38,62.19l-.05.05,5.56,2.9c1.15.6,2.19,1.37,3.11,2.28l37.03,37.03c.91.91,1.68,1.96,2.28,3.11l2.9,5.56.05-.05v.11s58.52.83,58.52.83c3.25.05,4.9-3.88,2.61-6.17l-22.89-22.87c-.65-.65-1.53-1.03-2.45-1.06l-20.67-2.32c-.92-.03-1.8-.41-2.45-1.06l-31.01-31c-.65-.65-1.03-1.53-1.06-2.45l-2.32-20.67c-.03-.92-.41-1.79-1.06-2.45L143.62,1.07c-2.29-2.3-6.22-.64-6.17,2.61l.83,58.52h.11Z"/></g></g></svg>