<?xml version="1.0" encoding="UTF-8"?><svg id="Layer_2" xmlns="http://www.w3.org/2000/svg" viewBox="0 0 502.86 135.51"><defs><style>.cls-1{stroke-width:0px;}</style></defs><g id="Elements"><g id="_07"><path class="cls-1" d="m13.01,28.42c4.25,3.27,9.06,6.98,18.43,6.98,7.71,0,11.45.25,15.42.52,3.94.27,8.01.54,16.02.54,10.44,0,15.5-8.89,19.58-16.04,4.09-7.19,6.93-11.55,11.86-11.55,4.62,0,8.59,12.3,11.49,21.27,4.35,13.49,8.85,27.43,19.94,27.43s15.48-10.17,19.73-19.14c4.02-8.49,7.01-14.06,11.7-14.06s8.37,9.77,11.55,18.39c4.39,11.9,8.93,24.2,19.88,24.2,9.15,0,13.91-3.04,18.1-5.72,3.78-2.41,6.76-4.32,13.32-4.32,10.99,0,15.51-12.68,19.9-24.94,3.03-8.49,6.8-19.05,11.53-19.05s7.78,4.3,11.87,11.38c4.07,7.05,9.14,15.82,19.56,15.82,7.28,0,10.82.94,14.58,1.94,4.14,1.1,8.42,2.23,16.85,2.23s12.55-.9,16.64-1.76c3.81-.81,7.4-1.57,14.79-1.57,5.46,0,8.21,3.07,12.26,8.07,4.09,5.06,9.19,11.37,19.17,11.37s14.79-5.14,18.87-9.27c3.66-3.7,6.55-6.63,12.55-6.63,10.39,0,15.46-8.59,19.54-15.49,4.07-6.9,6.82-11.12,11.89-11.12,8.71,0,13.3-1.83,17.36-3.45,3.79-1.51,7.06-2.81,14.07-2.81,4.53,0,8.69,14.27,11.45,23.71,4.52,15.48,8.79,30.11,19.98,30.11v-8.88c-4.53,0-8.69-14.27-11.45-23.71-4.52-15.48-8.79-30.11-19.98-30.11-8.71,0-13.3,1.83-17.36,3.45-3.79,1.51-7.06,2.82-14.07,2.82-10.39,0-15.46,8.59-19.54,15.49-4.07,6.9-6.82,11.12-11.89,11.12-9.71,0-14.79,5.14-18.87,9.27-3.66,3.7-6.55,6.63-12.55,6.63-5.46,0-8.21-3.07-12.26-8.07-4.09-5.06-9.19-11.37-19.17-11.37-8.32,0-12.55.9-16.64,1.76-3.81.81-7.4,1.57-14.79,1.57s-10.82-.94-14.58-1.94c-4.14-1.1-8.42-2.23-16.85-2.23-4.94,0-7.78-4.3-11.87-11.38-4.07-7.05-9.14-15.82-19.56-15.82-10.99,0-15.52,12.68-19.9,24.95-3.03,8.49-6.8,19.05-11.53,19.05-9.15,0-13.91,3.04-18.1,5.72-3.78,2.41-6.76,4.32-13.32,4.32-4.76,0-8.37-9.77-11.55-18.39-4.39-11.89-8.93-24.19-19.88-24.19s-15.48,10.17-19.73,19.14c-4.02,8.49-7,14.06-11.7,14.06s-8.59-12.3-11.49-21.28C109.89,13.94,105.39,0,94.3,0c-10.44,0-15.5,8.89-19.58,16.04-4.09,7.19-6.93,11.55-11.86,11.55-7.71,0-11.45-.25-15.42-.52-3.94-.27-8.01-.54-16.02-.54-6.35,0-9.28-2.27-13.01-5.13-4.25-3.27-9.06-6.98-18.43-6.98v8.88c6.35,0,9.28,2.27,13.01,5.13Z"/><path class="cls-1" d="m489.86,107.09c-4.25-3.27-9.06-6.98-18.43-6.98-7.71,0-11.45-.25-15.42-.52-3.94-.27-8.01-.54-16.02-.54-10.44,0-15.5,8.89-19.58,16.04-4.09,7.19-6.93,11.55-11.86,11.55-4.62,0-8.59-12.3-11.49-21.27-4.35-13.49-8.85-27.43-19.94-27.43s-15.48,10.17-19.73,19.14c-4.02,8.49-7.01,14.06-11.7,14.06s-8.37-9.77-11.55-18.39c-4.39-11.9-8.93-24.2-19.88-24.2-9.15,0-13.91,3.04-18.1,5.72-3.78,2.41-6.76,4.32-13.32,4.32-10.99,0-15.51,12.68-19.9,24.94-3.03,8.49-6.8,19.05-11.53,19.05s-7.78-4.3-11.87-11.38c-4.07-7.05-9.14-15.82-19.56-15.82-7.28,0-10.82-.94-14.58-1.94-4.14-1.1-8.42-2.23-16.85-2.23s-12.55.9-16.64,1.76c-3.81.81-7.4,1.57-14.79,1.57-5.46,0-8.21-3.07-12.26-8.07-4.09-5.06-9.19-11.37-19.17-11.37s-14.79,5.14-18.87,9.27c-3.66,3.7-6.55,6.63-12.55,6.63-10.39,0-15.46,8.59-19.54,15.49-4.07,6.9-6.82,11.12-11.89,11.12-8.71,0-13.3,1.83-17.36,3.45-3.79,1.51-7.06,2.81-14.07,2.81-4.53,0-8.69-14.27-11.45-23.71-4.52-15.48-8.79-30.11-19.98-30.11v8.88c4.53,0,8.69,14.27,11.45,23.71,4.52,15.48,8.79,30.11,19.98,30.11,8.71,0,13.3-1.83,17.36-3.45,3.79-1.51,7.06-2.82,14.07-2.82,10.39,0,15.46-8.59,19.54-15.49,4.07-6.9,6.82-11.12,11.89-11.12,9.71,0,14.79-5.14,18.87-9.27,3.66-3.7,6.55-6.63,12.55-6.63,5.46,0,8.21,3.07,12.26,8.07,4.09,5.06,9.19,11.37,19.17,11.37,8.32,0,12.55-.9,16.64-1.76,3.81-.81,7.4-1.57,14.79-1.57s10.82.94,14.58,1.94c4.14,1.1,8.42,2.23,16.85,2.23,4.94,0,7.78,4.3,11.87,11.38,4.07,7.05,9.14,15.82,19.56,15.82,10.99,0,15.52-12.68,19.9-24.95,3.03-8.49,6.8-19.05,11.53-19.05,9.15,0,13.91-3.04,18.1-5.72,3.78-2.41,6.76-4.32,13.32-4.32,4.76,0,8.37,9.77,11.55,18.39,4.39,11.89,8.93,24.19,19.88,24.19s15.48-10.17,19.73-19.14c4.02-8.49,7-14.06,11.7-14.06s8.59,12.3,11.49,21.28c4.35,13.49,8.85,27.43,19.94,27.43,10.44,0,15.5-8.89,19.58-16.04,4.09-7.19,6.93-11.55,11.86-11.55,7.71,0,11.45.25,15.42.52,3.94.27,8.01.54,16.02.54,6.35,0,9.28,2.27,13.01,5.13,4.25,3.27,9.06,6.98,18.43,6.98v-8.88c-6.35,0-9.28-2.27-13.01-5.13Z"/></g></g></svg>