<?xml version="1.0" encoding="UTF-8"?><svg id="Layer_2" xmlns="http://www.w3.org/2000/svg" viewBox="0 0 133.2 97.66"><g id="_0"><path d="M130.45,59.49L72.73,2.52c-3.44-3.39-8.98-3.36-12.37,.08L2.57,61.16c-1.61,1.63-2.52,3.83-2.52,6.13L0,88.69c-.01,4.83,3.9,8.76,8.73,8.77l115.7,.2c4.86,0,8.8-3.95,8.76-8.81l-.15-23.2c-.02-2.32-.95-4.54-2.6-6.17Zm-58.37-18.87l38.53,37.77c5.6,5.49,1.7,15.01-6.14,15l-76.18-.13c-7.79-.01-11.68-9.43-6.17-14.94L59.76,40.68c3.39-3.39,8.88-3.42,12.31-.06Zm-3.99-13.69l.05-2.24c.15-7.68,9.43-11.45,14.89-6.05l43.2,42.64c1.65,1.63,2.59,3.85,2.6,6.17v2.02c.06,7.78-9.3,11.75-14.86,6.31l-43.26-42.41c-1.72-1.69-2.67-4.01-2.62-6.42Zm-4.23-.35v.58c-.06,2.26-.98,4.41-2.57,6.01L19.21,75.23c-5.52,5.52-14.95,1.6-14.93-6.21h0c0-2.29,.91-4.49,2.52-6.13L48.88,20.26c5.55-5.63,15.13-1.58,14.97,6.32Z"/></g></svg>