<?xml version="1.0" encoding="UTF-8"?><svg id="Layer_2" xmlns="http://www.w3.org/2000/svg" viewBox="0 0 118.17 118.17"><g id="_5"><path d="M118.17,58.81c0-15.33-11.69-27.94-26.64-29.4l12.06-12.06-1.3-1.38c-.08-.08-.16-.16-.24-.24-11.77-11.77-30.61-12.25-42.96-1.47V0c-.09,0-.19,0-.28,0-15.34,0-27.94,11.68-29.4,26.64l-12.06-12.06-1.38,1.3c-.08,.08-.16,.16-.24,.23l1.38,1.39-1.38-1.39h0c-5.95,5.95-9.23,13.86-9.23,22.27,0,7.69,2.75,14.96,7.76,20.69H0c0,.09,0,.19,0,.28,0,15.34,11.68,27.94,26.64,29.4l-12.06,12.06,1.3,1.38c.08,.08,.16,.16,.24,.24,6.14,6.14,14.21,9.21,22.27,9.21,7.39,0,14.78-2.59,20.69-7.75v14.26c.09,0,.19,0,.28,0,15.34,0,27.94-11.69,29.4-26.64l12.06,12.06,1.38-1.3c.08-.08,.16-.16,.24-.24,11.77-11.77,12.25-30.61,1.46-42.97h14.26c0-.09,0-.19,0-.28ZM60.28,18.5c5.38-5.38,12.44-8.07,19.5-8.07,6.54,0,13.08,2.3,18.28,6.91l-12.05,12.05c-14.23,1.25-25.56,12.58-26.81,26.81l-.08,.08s-.02-.03-.04-.04V19.77c.38-.43,.77-.86,1.19-1.27ZM18.5,57.89c-5.21-5.21-8.08-12.14-8.08-19.5,0-6.8,2.45-13.23,6.93-18.28l12.05,12.05c1.25,14.23,12.58,25.56,26.81,26.81l.08,.08s-.03,.02-.04,.03H19.77c-.43-.38-.86-.78-1.27-1.19Zm39.4,41.78c-10.36,10.36-26.97,10.74-37.79,1.15l12.05-12.05c14.23-1.25,25.56-12.58,26.81-26.81l.08-.08s.02,.03,.04,.04v36.47c-.38,.43-.77,.86-1.19,1.27Zm41.78-39.4c10.36,10.36,10.74,26.97,1.15,37.79l-12.05-12.05c-1.25-14.23-12.58-25.56-26.81-26.81l-.08-.08s.03-.02,.04-.04h36.47c.43,.38,.86,.77,1.27,1.19Z"/></g></svg>