<?xml version="1.0" encoding="UTF-8"?><svg id="Layer_2" xmlns="http://www.w3.org/2000/svg" viewBox="0 0 146.85 146.35"><g id="_7"><path d="M109.14,82.72l37.71-2.96-36.71-9.13,34.71-15.04-37.69,3.29,27.94-25.5-34.58,15.35L118.68,15.54l-27.72,25.74L97.35,3.99l-17.86,33.35L73.42,0l-6.06,37.34L49.5,3.99l6.39,37.29L28.17,15.54l18.15,33.19L11.75,33.38l27.94,25.5L2,55.59l34.71,15.04L0,79.76l37.71,2.96L5.95,103.27l36.63-9.45-23.37,29.75,31.58-20.83-12.44,35.73,23.1-29.95-.17,37.83,12.13-35.83,12.13,35.83-.17-37.83,23.1,29.95-12.44-35.73,31.58,20.83-23.37-29.75,36.63,9.45-31.76-20.55Zm-3.95,20.2l-18.5-12.21,7.29,20.94-13.54-17.55,.1,22.17-7.11-21-7.11,21,.1-22.17-13.54,17.55,7.29-20.94-18.5,12.21,13.69-17.43-21.47,5.54,18.61-12.04-22.1-1.73,21.51-5.35-20.34-8.82,22.08,1.93-16.37-14.94,20.26,8.99-10.64-19.45,16.24,15.08-3.74-21.85,10.47,19.54,3.55-21.88,3.55,21.88,10.47-19.54-3.74,21.85,16.24-15.08-10.64,19.45,20.26-8.99-16.37,14.94,22.08-1.93-20.34,8.82,21.51,5.35-22.1,1.73,18.61,12.04-21.47-5.54,13.69,17.43Z"/></g></svg>