<?xml version="1.0" encoding="UTF-8"?><svg id="Layer_2" xmlns="http://www.w3.org/2000/svg" viewBox="0 0 124.44 124.44"><g id="_3"><path d="M91.35,0c-15.18,0-28.37,10.27-32.09,24.97-.67,2.64-1,5.38-1,8.12v25.16h-25.16C14.84,58.26,0,73.1,0,91.35s14.84,33.09,33.09,33.09c15.18,0,28.37-10.27,32.09-24.97,.67-2.64,1.01-5.38,1.01-8.12v-25.16h25.16c18.25,0,33.09-14.84,33.09-33.09S109.59,0,91.35,0ZM58.26,91.35c0,2.09-.26,4.17-.76,6.18-2.82,11.18-12.86,18.98-24.4,18.98-13.88,0-25.16-11.29-25.16-25.16s11.29-25.16,25.16-25.16h25.16v25.16Zm33.09-33.09h-25.16v-25.16c0-2.09,.26-4.17,.76-6.18,2.82-11.18,12.86-18.98,24.4-18.98,13.88,0,25.16,11.29,25.16,25.16s-11.29,25.16-25.16,25.16Z"/></g></svg>