<?xml version="1.0" encoding="UTF-8"?><svg id="Layer_2" xmlns="http://www.w3.org/2000/svg" viewBox="0 0 144.34 142.71"><g id="_0"><g><path d="M144.01,55.98c-1.42-7.8-7.14-13.6-14.91-15.14-8.17-1.62-13.8-9.36-12.84-17.63,.92-7.87-2.84-15.09-9.83-18.84-6.98-3.75-15.08-2.9-21.13,2.22-6.36,5.38-15.92,4.96-21.78-.95C57.93,.02,49.94-1.54,42.66,1.59c-7.28,3.12-11.67,9.99-11.44,17.91,.24,8.32-6.05,15.54-14.33,16.44-7.88,.85-14.08,6.13-16.18,13.77-2.1,7.64,.53,15.35,6.87,20.11,6.66,5,8.38,14.42,3.92,21.45-4.25,6.69-3.99,14.83,.68,21.24,4.67,6.41,12.33,9.15,20,7.17,8.06-2.09,16.5,2.44,19.21,10.31,2.59,7.49,9.11,12.36,17.03,12.71,.3,.01,.6,.02,.89,.02,7.54,0,14.07-4.23,17.18-11.19,3.39-7.6,12.2-11.38,20.04-8.59,7.47,2.65,15.35,.59,20.55-5.39,5.21-5.97,6.18-14.06,2.53-21.1-3.83-7.39-1.29-16.63,5.78-21.03,6.73-4.19,10.03-11.63,8.6-19.43Zm-10.09,17.03c-8.31,5.17-11.29,16.03-6.79,24.72,3.1,5.99,2.27,12.86-2.16,17.94-4.43,5.08-11.13,6.84-17.48,4.58-9.22-3.27-19.58,1.16-23.56,10.1-2.75,6.16-8.64,9.79-15.37,9.5-6.73-.3-12.28-4.44-14.48-10.81-2.67-7.73-10.03-12.72-17.91-12.72-1.55,0-3.12,.19-4.68,.6-6.53,1.69-13.04-.64-17.01-6.09-3.97-5.45-4.19-12.37-.58-18.06,5.24-8.27,3.22-19.34-4.61-25.22-5.39-4.05-7.63-10.6-5.84-17.1,1.79-6.5,7.06-10.99,13.76-11.71,9.73-1.05,17.13-9.54,16.85-19.33-.2-6.74,3.53-12.57,9.73-15.23,6.2-2.66,12.99-1.33,17.74,3.45h0c6.89,6.95,18.14,7.44,25.61,1.12,5.15-4.35,12.03-5.08,17.97-1.89,5.94,3.19,9.14,9.33,8.36,16.02-1.14,9.72,5.49,18.82,15.09,20.73,6.61,1.31,11.47,6.24,12.68,12.87s-1.59,12.96-7.32,16.53Z"/><path d="M117.13,47.79c-6-1.62-10.12-7.78-9.58-14.3,.61-6.28-2.47-12.08-8.04-15.12-5.46-2.99-11.84-2.5-16.64,1.26-4.95,3.85-12.16,3.42-16.75-1.01-4.54-4.39-11.02-5.57-16.9-3.08-5.74,2.44-9.31,7.74-9.31,13.85,0,6.24-4.65,11.49-10.82,12.21-6.17,.72-11.05,4.89-12.73,10.89-1.65,5.9,.28,11.87,5.04,15.59,4.86,3.81,5.99,10.68,2.63,15.99-3.34,5.27-3.16,11.69,.46,16.75,3.53,4.93,9.34,7.13,15.17,5.73,5.86-1.4,11.98,2.07,13.95,7.91,1.99,5.92,7.08,9.8,13.26,10.13,.28,.01,.56,.02,.83,.02,5.66,0,10.57-3.11,12.94-8.26,2.5-5.42,8.95-8,14.69-5.88,5.96,2.44,12.38,1.14,16.75-3.4,4.12-4.27,5.2-10.2,2.81-15.47-2.54-5.66-.08-12.6,5.49-15.47l.09-.05c5.57-3.39,8.45-9.47,7.53-15.86-.89-6.12-5.05-10.89-10.86-12.43Zm1.91,25.85c-6.85,3.56-9.87,12.12-6.73,19.12,1.9,4.19,1.03,8.92-2.27,12.35-2.79,2.89-7.84,5.13-13.67,2.74l-.04-.02c-7.12-2.65-15.14,.57-18.26,7.34-2,4.33-6.24,6.86-11.06,6.6-3.92-.21-8.8-2.48-10.74-8.21-2.09-6.2-7.72-10.16-13.88-10.16-1.12,0-2.26,.13-3.4,.4-4.68,1.13-9.36-.64-12.21-4.62-2.3-3.22-3.61-8.48-.37-13.59,4.14-6.53,2.73-15.01-3.27-19.72-3.85-3-5.4-7.84-4.07-12.61,1.36-4.87,5.32-8.26,10.34-8.84,7.59-.89,13.31-7.35,13.32-15.02,0-4.95,2.91-9.26,7.59-11.25,4.82-2.04,10.12-1.08,13.84,2.51,5.61,5.39,14.4,5.91,20.45,1.2,3.9-3.06,9.09-3.45,13.54-1.01,4.56,2.49,7.08,7.24,6.58,12.4-.65,7.88,4.37,15.31,11.67,17.28,4.71,1.25,8.08,5.12,8.8,10.11,.76,5.24-1.6,10.22-6.16,13.02Z"/><path d="M105.24,54.77c-3.83-1.61-6.52-6.27-6.42-11.07,.27-4.66-2.11-9.01-6.22-11.35-3.92-2.24-8.58-2.13-12.13,.27-3.46,2.28-8.53,1.82-11.79-1.05-3.51-3.13-8.46-3.93-12.92-2.08-4.19,1.74-6.95,5.48-7.19,9.76-.23,4.11-3.31,7.48-7.33,8.03-4.45,.6-8,3.66-9.26,7.99-1.21,4.14,.02,8.39,3.2,11.07,2.97,2.54,3.55,7.07,1.36,10.54-2.43,3.85-2.35,8.54,.22,12.25,2.39,3.46,6.35,5.11,10.32,4.3,3.72-.75,7.46,1.62,8.7,5.49,1.4,4.35,5.03,7.25,9.48,7.57,.27,.02,.53,.03,.79,.03,3.77,0,7.05-1.99,8.69-5.33,1.6-3.25,5.69-4.64,9.32-3.2,5.29,2.68,10.17,1.11,12.97-1.27,3.04-2.58,4.23-6.36,3.12-9.86-.94-3.09,.81-7.81,5.27-10.06l.08-.04c4.38-2.57,6.87-7.24,6.51-12.2-.32-4.47-2.93-8.22-6.78-9.78Zm-1.13,19.52c-5.81,2.96-7.95,9.12-6.65,13.4,.77,2.41-.09,5.04-2.25,6.87-2.12,1.8-5.84,2.97-9.92,.88l-.11-.05c-5.01-2.03-10.7-.04-12.97,4.55-1.24,2.51-3.82,3.94-6.74,3.73-2.57-.19-5.76-1.76-7-5.62-1.47-4.58-5.57-7.59-10.01-7.59-.64,0-1.29,.06-1.94,.19-2.85,.58-5.7-.62-7.44-3.14-1.49-2.16-2.32-5.7-.15-9.14,2.93-4.65,2.11-10.75-1.92-14.2-2.32-1.96-3.21-5.07-2.32-8.13,.74-2.54,2.95-5.45,6.93-5.98,5.35-.72,9.46-5.21,9.77-10.67,.18-3.24,2.22-5.97,5.45-7.31,3.45-1.43,7.27-.82,9.97,1.59,4.25,3.76,10.65,4.3,15.23,1.29,2.71-1.83,6.13-1.89,9.16-.16,3.17,1.81,5.01,5.17,4.8,8.76v.05c-.14,5.93,3.28,11.71,8.16,13.77,2.86,1.16,4.8,3.99,5.04,7.38,.28,3.86-1.67,7.51-5.09,9.54Z"/><path d="M93.58,61.95c-1.67-1.57-2.67-5.04-3.48-8.21-.13-2.97-1.72-5.7-4.29-7.35-2.39-1.53-5.23-1.84-7.55-.85-2.11,.84-5.02,.39-7.05-1.07-2.46-1.82-5.85-2.24-8.86-1.09-2.66,1.01-4.55,3.11-5.07,5.59-.42,2.03-1.99,3.63-3.9,3.98-2.68,.48-4.89,2.41-5.75,5.02-.79,2.4-.31,4.85,1.26,6.52,1.15,1.26,1.22,3.45,.18,5.19-1.5,2.4-1.53,5.35-.09,7.7,1.22,2,3.31,3.12,5.42,2.93,1.52-.12,3.06,1.18,3.57,3.03,.77,2.73,2.98,4.72,5.64,5.08,.28,.04,.55,.06,.82,.06,1.85,0,3.49-.87,4.4-2.37,.59-.96,2.2-1.45,3.91-.64,2.75,2.04,6.09,2.55,8.95,1.37,2.07-.85,3.46-2.44,3.73-4.24,.26-1.25,1.98-3.64,5.06-5.13,3.12-1.52,5.18-4.35,5.64-7.78,.41-3.03-.57-5.99-2.54-7.74Zm-.26,7.36c-.33,2.47-1.82,4.52-4.08,5.62-3.96,1.91-6.2,5.06-6.6,7.17v.07c-.12,.79-.91,1.6-2.03,2.06-1.97,.81-4.32,.4-6.28-1.09l-.11-.08-.12-.06c-2.91-1.46-6.22-.76-7.69,1.65-.46,.76-1.37,1.13-2.43,.98-1.22-.17-2.73-1.05-3.3-3.04-.84-3.02-3.36-5.1-6.11-5.1-.14,0-.28,0-.42,.02-1.07,.09-2.11-.5-2.78-1.6-.69-1.13-1.03-2.96,.09-4.75,1.71-2.85,1.5-6.37-.51-8.58-.87-.93-1.12-2.31-.65-3.72,.42-1.28,1.58-2.77,3.57-3.13,3.03-.55,5.51-3.04,6.16-6.18,.32-1.56,1.53-2.85,3.31-3.53,2.11-.81,4.48-.53,6.18,.73,2.83,2.04,6.75,2.61,9.79,1.4,1.5-.64,3.35-.41,4.95,.61,1.83,1.17,2.95,3.12,3,5.21v.16l.04,.15c.95,3.77,2.08,7.63,4.34,9.74l.03,.03c1.29,1.13,1.91,3.14,1.62,5.25Z"/><path d="M75.23,57.78c-2.73-1.09-5.73-1.06-8.44,.1-2.71,1.16-4.8,3.31-5.89,6.04-1.09,2.73-1.06,5.73,.1,8.44,1.16,2.71,3.31,4.8,6.04,5.89,1.32,.53,2.71,.79,4.09,.79,1.47,0,2.95-.3,4.34-.9,2.71-1.16,4.8-3.31,5.89-6.04,1.09-2.73,1.06-5.73-.1-8.44-1.16-2.71-3.31-4.8-6.04-5.89Zm3.52,13.28c-.81,2.03-2.37,3.63-4.38,4.49-2.01,.86-4.24,.89-6.28,.08-2.03-.81-3.63-2.37-4.49-4.38-.86-2.01-.89-4.24-.08-6.28s2.37-3.63,4.38-4.49c1.04-.45,2.13-.67,3.23-.67,1.03,0,2.06,.2,3.05,.59,2.03,.81,3.63,2.37,4.49,4.38,.86,2.01,.89,4.24,.08,6.28Z"/></g></g></svg>