<?xml version="1.0" encoding="UTF-8"?><svg id="Layer_2" xmlns="http://www.w3.org/2000/svg" viewBox="0 0 196.65 57.46"><g id="_6"><g><path d="M186.66,2.37h-23c-11.38,0-22.19,5.03-29.52,13.73l-9.39,11.15c-3.28,3.89-8.1,6.13-13.19,6.13h-26.47c-5.08,0-9.91-2.24-13.19-6.13l-9.39-11.15C55.18,7.39,44.38,2.37,32.99,2.37H9.99C4.47,2.37,0,6.84,0,12.36c0,5.52,4.47,9.99,9.99,9.99h22.19c6.01,0,11.72,2.65,15.59,7.25l8.66,10.28c7.2,8.55,17.81,13.48,28.98,13.48h25.83c11.18,0,21.78-4.93,28.98-13.48l8.66-10.28c3.87-4.6,9.58-7.25,15.59-7.25h22.19c5.52,0,9.99-4.47,9.99-9.99s-4.47-9.99-9.99-9.99Z"/><rect x="89.83" y="0" width="16.99" height="16.99" rx="6.43" ry="6.43"/><rect x="165.83" y="40.47" width="16.99" height="16.99" rx="6.43" ry="6.43"/><rect x="10.11" y="40.47" width="16.99" height="16.99" rx="6.43" ry="6.43"/></g></g></svg>