<?xml version="1.0" encoding="UTF-8"?><svg id="Layer_2" xmlns="http://www.w3.org/2000/svg" viewBox="0 0 133.58 88.41"><g id="_2"><g><path d="M126.8,53.77h-15.63c-7.73,0-15.07,3.41-20.05,9.33l-6.38,7.57c-2.23,2.64-5.5,4.17-8.96,4.17h-17.98c-3.45,0-6.73-1.52-8.96-4.17l-6.38-7.57c-4.98-5.91-12.32-9.33-20.05-9.33H6.78c-3.75,0-6.78,3.04-6.78,6.78s3.04,6.78,6.78,6.78h15.07c4.08,0,7.96,1.8,10.59,4.93l5.88,6.98c4.89,5.81,12.1,9.16,19.69,9.16h17.55c7.59,0,14.8-3.35,19.69-9.16l5.88-6.98c2.63-3.12,6.51-4.93,10.59-4.93h15.07c3.75,0,6.78-3.04,6.78-6.78,0-3.75-3.04-6.78-6.78-6.78Z"/><path d="M6.78,34.64h15.63c7.73,0,15.07-3.41,20.05-9.33l6.38-7.57c2.23-2.64,5.5-4.17,8.96-4.17h17.98c3.45,0,6.73,1.52,8.96,4.17l6.38,7.57c4.98,5.91,12.32,9.33,20.05,9.33h15.63c3.75,0,6.78-3.04,6.78-6.78,0-3.75-3.04-6.78-6.78-6.78h-15.07c-4.08,0-7.96-1.8-10.59-4.93l-5.88-6.98C90.36,3.35,83.16,0,75.57,0h-17.55C50.43,0,43.22,3.35,38.33,9.16l-5.88,6.98c-2.63,3.12-6.51,4.93-10.59,4.93H6.78c-3.75,0-6.78,3.04-6.78,6.78s3.04,6.78,6.78,6.78Z"/></g></g></svg>