<?xml version="1.0" encoding="UTF-8"?><svg id="Layer_2" xmlns="http://www.w3.org/2000/svg" viewBox="0 0 135.36 125.55"><g id="_1"><path d="M101.52,57.87c-4.42,0-8.64,.86-12.52,2.4,7.75-6.2,12.72-15.73,12.72-26.43C101.73,15.15,86.57,0,67.88,0S34.04,15.15,34.04,33.84c0,10.9,5.16,20.58,13.16,26.77-4.1-1.76-8.61-2.74-13.36-2.74C15.15,57.87,0,73.02,0,91.71s15.15,33.84,33.84,33.84,33.84-15.15,33.84-33.84c0-10.9-5.16-20.58-13.16-26.77,4.1,1.76,8.61,2.74,13.36,2.74,4.42,0,8.64-.86,12.52-2.4-7.75,6.2-12.72,15.73-12.72,26.43,0,18.69,15.15,33.84,33.84,33.84s33.84-15.15,33.84-33.84-15.15-33.84-33.84-33.84Z"/></g></svg>