<?xml version="1.0" encoding="UTF-8"?><svg id="Layer_2" xmlns="http://www.w3.org/2000/svg" viewBox="0 0 128.09 106"><g id="_9"><g><polygon points="110.89 36.78 93.68 47.34 76.08 36.78 59.66 45.78 59.66 66.11 76.08 75.89 76.08 96.22 92.9 106 110.89 96.61 110.89 76.67 128.09 66.5 128.09 46.17 110.89 36.78"/><path d="M72.2,10.44L53.05,0l-17.16,10.53L18.35,0,0,10.05v22.52l16.42,9.78v20.35l18.65,10.84,19.92-10.39v-20.01l17.21-10.17V10.44Zm-3.76,20.38l-17.21,10.17v19.88l-16.06,8.38-14.99-8.71v-20.32L3.76,30.43V12.28l14.5-7.94,17.65,10.59L53.17,4.34l15.27,8.33V30.82Z"/></g></g></svg>