<?xml version="1.0" encoding="UTF-8"?><svg id="Layer_2" xmlns="http://www.w3.org/2000/svg" viewBox="0 0 215.16 139.72"><defs><style>.cls-1{stroke-width:0px;}</style></defs><g id="Elements"><g id="_03"><path class="cls-1" d="m26.96,0C12.1,0,0,12.1,0,26.96s12.1,26.96,26.96,26.96,26.96-12.1,26.96-26.96S41.83,0,26.96,0Zm0,43.79c-9.28,0-16.82-7.55-16.82-16.82s7.55-16.82,16.82-16.82,16.82,7.55,16.82,16.82-7.55,16.82-16.82,16.82Z"/><path class="cls-1" d="m108.68,0c-14.87,0-26.96,12.1-26.96,26.96s12.1,26.96,26.96,26.96,26.96-12.1,26.96-26.96S123.55,0,108.68,0Zm0,43.79c-9.28,0-16.82-7.55-16.82-16.82s7.55-16.82,16.82-16.82,16.82,7.55,16.82,16.82-7.55,16.82-16.82,16.82Z"/><path class="cls-1" d="m108.68,85.79c-14.87,0-26.96,12.1-26.96,26.96s12.1,26.96,26.96,26.96,26.96-12.1,26.96-26.96-12.1-26.96-26.96-26.96Zm0,43.79c-9.28,0-16.82-7.55-16.82-16.82s7.55-16.82,16.82-16.82,16.82,7.55,16.82,16.82-7.55,16.82-16.82,16.82Z"/><path class="cls-1" d="m188.2,0c-14.87,0-26.96,12.1-26.96,26.96s12.1,26.96,26.96,26.96,26.96-12.1,26.96-26.96S203.07,0,188.2,0Zm0,43.79c-9.28,0-16.82-7.55-16.82-16.82s7.55-16.82,16.82-16.82,16.82,7.55,16.82,16.82-7.55,16.82-16.82,16.82Z"/></g></g></svg>