<?xml version="1.0" encoding="UTF-8"?><svg id="Layer_2" xmlns="http://www.w3.org/2000/svg" viewBox="0 0 101.3 116.61"><g id="_5"><g><path d="M70.62,2.58l-9.57,3.68c-4.64,1.78-9.78,1.78-14.41-.01L34.06,1.39C18.38-4.68,2.66,10.12,7.75,26.14l24.33,76.51c5.82,18.3,31.56,18.71,37.97,.61L96.68,27.96c5.7-16.12-10.11-31.51-26.07-25.37Zm7.83,37.42l-12.53,35.44c-4.79,13.54-24.04,13.23-28.39-.45l-11.59-36.46c-3.81-11.98,7.95-23.04,19.67-18.5l2.58,1c3.47,1.34,7.31,1.34,10.78,.01h0c11.93-4.59,23.75,6.92,19.49,18.97Z"/><path d="M6.77,100.92c-3.74,0-6.77,3.03-6.77,6.77s3.03,6.77,6.77,6.77,6.77-3.03,6.77-6.77-3.03-6.77-6.77-6.77Z"/><circle cx="94.53" cy="107.69" r="6.77"/></g></g></svg>