<?xml version="1.0" encoding="UTF-8"?><svg id="Layer_2" xmlns="http://www.w3.org/2000/svg" viewBox="0 0 112.7 109.79"><g id="_6"><g><path d="M26.07,95.71c-3.82,0-6.93,3.11-6.93,6.93s3.11,6.93,6.93,6.93,6.93-3.11,6.93-6.93-3.11-6.93-6.93-6.93Zm0,9.59c-1.47,0-2.66-1.19-2.66-2.66s1.19-2.66,2.66-2.66,2.66,1.19,2.66,2.66-1.19,2.66-2.66,2.66Z"/><path d="M79.26,19.04c3.82,0,6.93-3.11,6.93-6.93s-3.11-6.93-6.93-6.93-6.93,3.11-6.93,6.93,3.11,6.93,6.93,6.93Zm0-9.59c1.47,0,2.66,1.19,2.66,2.66s-1.19,2.66-2.66,2.66-2.66-1.19-2.66-2.66,1.19-2.66,2.66-2.66Z"/><path d="M40.96,7.26c5.8-2.58,10.14-3.17,12.92-1.77,2.12,1.08,3.6,3.51,4.4,7.22,1.45,6.71,4.15,19.21,17.92,19.95,.38,.02,.77,.03,1.15,.03,12.23,0,23.64-10.3,28.35-20.33l-4.3-2.02c-5.63,11.98-17.06,18-24.95,17.58-8.5-.45-11.4-6.29-13.54-16.21-1.12-5.18-3.44-8.7-6.89-10.45-4.17-2.12-9.73-1.57-16.99,1.66C26.11,8.67,14.42,10.97,1.58,13.18l.8,4.68c13.17-2.26,25.16-4.62,38.57-10.59Z"/><path d="M34.44,23.09c3.77-1.91,9.46-4.79,13.11-3.48,1.45,.52,2.57,1.72,3.42,3.66,.78,1.77,1.28,3.72,1.8,5.78,.85,3.34,1.74,6.79,3.93,9.79,3.89,5.31,10.75,7.86,15.87,8.46,1.09,.13,2.2,.19,3.33,.19,5.6,0,11.61-1.59,17.56-4.66,6.23-3.22,11.7-7.6,16.98-11.84l-2.97-3.7c-5.1,4.09-10.38,8.32-16.2,11.32-6.3,3.26-12.58,4.63-18.15,3.97-5.19-.61-10.14-3.19-12.6-6.55-1.65-2.26-2.39-5.13-3.16-8.16-.55-2.15-1.12-4.38-2.05-6.51-1.38-3.16-3.46-5.25-6.16-6.22-5.58-2-12.36,1.44-16.86,3.71-9.75,4.94-20.75,7.49-31.18,9.69l.98,4.64c10.74-2.26,22.08-4.9,32.35-10.1Z"/><path d="M83.29,55.87c-6.57,1.29-12.67,.95-17.65-.99-8.46-3.28-10.43-9.26-12.95-18.75-1.12-4.23-3.35-9.67-7.6-11.62-1.64-.75-4.31-1.3-7.76,.37-2.48,1.2-4.35,3.05-6.16,4.83-.32,.31-.63,.62-.95,.93-6.58,6.34-15.38,9.84-23.89,13.22-1.6,.64-3.25,1.29-4.87,1.96l1.81,4.39c1.59-.65,3.23-1.31,4.81-1.94,8.94-3.55,18.18-7.23,25.43-14.21,.33-.32,.66-.64,.99-.97,1.6-1.58,3.12-3.08,4.9-3.94,1.45-.7,2.66-.81,3.71-.33,1.98,.91,3.8,4.01,5,8.52,2.41,9.07,4.68,17.63,15.82,21.95,3.55,1.38,7.54,2.07,11.81,2.07,2.73,0,5.56-.28,8.47-.85,10.48-2.05,19.54-6.27,26.93-12.54l-3.07-3.62c-6.77,5.74-15.11,9.61-24.78,11.5Z"/><path d="M20.9,55.17c4.88-3.94,9.49-7.66,14.86-10.29,1.5-.73,2.75-.9,3.8-.49,2.67,1.01,4.53,5.49,6.02,9.09,.33,.8,.64,1.55,.96,2.27,4.7,10.55,12.75,17.99,22.67,20.96,3.02,.9,6.12,1.31,9.25,1.31,12.03,0,24.29-6.06,32.38-13.29l-3.17-3.53c-9.2,8.24-24.24,14.82-37.1,10.97-8.57-2.57-15.56-9.08-19.7-18.35-.3-.67-.6-1.39-.91-2.15-1.84-4.44-4.14-9.97-8.72-11.71-2.32-.88-4.86-.65-7.56,.67-5.85,2.86-10.89,6.92-15.76,10.86-5.46,4.41-10.61,8.57-16.81,11.18l1.84,4.37c6.82-2.87,12.48-7.44,17.96-11.86Z"/><path d="M27.49,63.02c.91-.89,1.82-1.79,2.72-2.68,1.37-1.34,3.41-2.6,5.02-2.09,3.86,1.21,5.93,7.44,7.76,12.94,.94,2.81,1.82,5.47,2.94,7.45,5.88,10.38,15.72,15.63,29.27,15.63,.84,0,1.69-.02,2.55-.06,13.01-.6,26.18-5.63,34.94-9.74l-2.02-4.29c-6.85,3.22-20.26,8.7-33.14,9.3-12.94,.6-22.19-3.83-27.48-13.17-.89-1.58-1.71-4.02-2.57-6.61-2.19-6.58-4.67-14.03-10.84-15.97-3.11-.98-6.67,.2-9.76,3.23-.91,.89-1.82,1.79-2.73,2.69-7.58,7.47-15.41,15.19-24.16,21.42l2.75,3.86c9.06-6.45,17.03-14.31,24.74-21.91Z"/><path d="M77.28,104.61c-26.81,2.98-33.64-8.59-35.33-13.7-.62-1.87-.87-4.29-1.13-6.85-.42-4.07-.85-8.27-2.87-11.5-1.15-1.84-3.06-2.85-5.37-2.84-3.2,.02-6.95,2.09-8.54,4.7-1.33,2.19-2.23,4.26-3.02,6.09-1.56,3.59-2.79,6.43-6.63,8.93-3.88,2.53-8.48,4.08-12.93,5.57l1.51,4.5c4.73-1.59,9.61-3.24,14-6.09,5.04-3.28,6.67-7.04,8.39-11.02,.77-1.77,1.56-3.6,2.72-5.51,.66-1.09,2.82-2.41,4.51-2.42,.91,0,1.19,.41,1.31,.61,1.43,2.3,1.81,5.95,2.17,9.48,.28,2.7,.57,5.5,1.35,7.86,4.83,14.57,20.62,17.38,32.09,17.38,3.2,0,6.07-.22,8.27-.46,11.89-1.32,23.48-5.36,33.71-8.93l-1.56-4.48c-9.99,3.48-21.31,7.43-32.67,8.69Z"/></g></g></svg>