<?xml version="1.0" encoding="UTF-8"?><svg id="Layer_2" xmlns="http://www.w3.org/2000/svg" viewBox="0 0 114.08 114.58"><g id="_4"><g><path d="M113.53,27.56c0-14.84-12.07-26.92-26.92-26.92-12.35,0-23.08,8.35-26.1,20.31-.54,2.15-.82,4.37-.82,6.61v26.92h26.92c14.84,0,26.92-12.07,26.92-26.92Zm-49.84,0c0-1.91,.23-3.8,.7-5.63,2.57-10.18,11.71-17.29,22.23-17.29,12.64,0,22.92,10.28,22.92,22.92s-10.28,22.92-22.92,22.92h-22.92V27.56Z"/><path d="M.8,86.95c0,14.78,12.02,26.8,26.8,26.8,12.29,0,22.98-8.32,25.99-20.22,.54-2.14,.81-4.36,.81-6.58v-26.8H27.6c-14.78,0-26.8,12.02-26.8,26.8Zm49.62,0c0,1.9-.23,3.78-.69,5.6-2.56,10.13-11.66,17.21-22.12,17.21-12.58,0-22.81-10.23-22.81-22.81s10.23-22.81,22.81-22.81h22.81v22.81Z"/><path d="M93.55,60.96c-2.14-.54-4.38-.83-6.69-.83h-27.22v27.22c0,15.03,12.19,27.22,27.22,27.22s27.22-12.19,27.22-27.22c0-12.73-8.73-23.41-20.54-26.39Z"/><path d="M27.22,0C12.19,0,0,12.19,0,27.22c0,12.73,8.73,23.41,20.54,26.39,2.14,.54,4.38,.83,6.69,.83h27.22V27.22C54.44,12.19,42.26,0,27.22,0Z"/></g></g></svg>