<?xml version="1.0" encoding="UTF-8"?><svg id="Layer_2" xmlns="http://www.w3.org/2000/svg" viewBox="0 0 338.65 164.73"><defs><style>.cls-1{stroke-width:0px;}</style></defs><g id="Elements"><g id="_01"><path class="cls-1" d="m82.37,57.97c-13.45,0-24.4,10.94-24.4,24.4s10.94,24.4,24.4,24.4,24.4-10.94,24.4-24.4-10.94-24.4-24.4-24.4Zm0,39.62c-8.39,0-15.22-6.83-15.22-15.22s6.83-15.22,15.22-15.22,15.22,6.83,15.22,15.22-6.83,15.22-15.22,15.22Z"/><path class="cls-1" d="m198.31,57.97c-13.45,0-24.4,10.94-24.4,24.4s10.94,24.4,24.4,24.4,24.4-10.94,24.4-24.4-10.94-24.4-24.4-24.4Zm0,39.62c-8.39,0-15.22-6.83-15.22-15.22s6.83-15.22,15.22-15.22,15.22,6.83,15.22,15.22-6.83,15.22-15.22,15.22Z"/><path class="cls-1" d="m256.28,57.97c-13.45,0-24.4,10.94-24.4,24.4s10.94,24.4,24.4,24.4,24.4-10.94,24.4-24.4-10.94-24.4-24.4-24.4Zm0,39.62c-8.39,0-15.22-6.83-15.22-15.22s6.83-15.22,15.22-15.22,15.22,6.83,15.22,15.22-6.83,15.22-15.22,15.22Z"/><path class="cls-1" d="m24.4,57.97c-13.45,0-24.4,10.94-24.4,24.4s10.94,24.4,24.4,24.4,24.4-10.94,24.4-24.4-10.94-24.4-24.4-24.4Zm0,39.62c-8.39,0-15.22-6.83-15.22-15.22s6.83-15.22,15.22-15.22,15.22,6.83,15.22,15.22-6.83,15.22-15.22,15.22Z"/><path class="cls-1" d="m140.34,57.97c-13.45,0-24.4,10.94-24.4,24.4s10.94,24.4,24.4,24.4,24.4-10.94,24.4-24.4-10.94-24.4-24.4-24.4Zm0,39.62c-8.39,0-15.22-6.83-15.22-15.22s6.83-15.22,15.22-15.22,15.22,6.83,15.22,15.22-6.83,15.22-15.22,15.22Z"/><path class="cls-1" d="m140.34,115.94c-13.45,0-24.4,10.94-24.4,24.4s10.94,24.4,24.4,24.4,24.4-10.94,24.4-24.4-10.94-24.4-24.4-24.4Zm0,39.62c-8.39,0-15.22-6.83-15.22-15.22s6.83-15.22,15.22-15.22,15.22,6.83,15.22,15.22-6.83,15.22-15.22,15.22Z"/><path class="cls-1" d="m256.28,115.94c-13.45,0-24.4,10.94-24.4,24.4s10.94,24.4,24.4,24.4,24.4-10.94,24.4-24.4-10.94-24.4-24.4-24.4Zm0,39.62c-8.39,0-15.22-6.83-15.22-15.22s6.83-15.22,15.22-15.22,15.22,6.83,15.22,15.22-6.83,15.22-15.22,15.22Z"/><path class="cls-1" d="m314.25,115.94c-13.45,0-24.4,10.94-24.4,24.4s10.94,24.4,24.4,24.4,24.4-10.94,24.4-24.4-10.94-24.4-24.4-24.4Zm0,39.62c-8.39,0-15.22-6.83-15.22-15.22s6.83-15.22,15.22-15.22,15.22,6.83,15.22,15.22-6.83,15.22-15.22,15.22Z"/><path class="cls-1" d="m140.34,0c-13.45,0-24.4,10.94-24.4,24.4s10.94,24.4,24.4,24.4,24.4-10.94,24.4-24.4S153.79,0,140.34,0Zm0,39.62c-8.39,0-15.22-6.83-15.22-15.22s6.83-15.22,15.22-15.22,15.22,6.83,15.22,15.22-6.83,15.22-15.22,15.22Z"/></g></g></svg>