<?xml version="1.0" encoding="UTF-8"?><svg id="Layer_2" xmlns="http://www.w3.org/2000/svg" viewBox="0 0 170.1 116.42"><g id="_3"><path d="M144.23,42.63c-1.07-.25-2.17-.49-3.3-.72C133.87,17.72,111.49,0,85.05,0S36.24,17.72,29.17,41.91c-1.12,.23-2.22,.48-3.3,.72C8.7,46.62,0,51.86,0,58.21s8.7,11.59,25.87,15.58c1.07,.25,2.17,.49,3.3,.72,7.07,24.19,29.44,41.91,55.88,41.91s48.82-17.72,55.88-41.91c1.12-.23,2.22-.48,3.3-.72,17.17-3.99,25.87-9.23,25.87-15.58s-8.7-11.59-25.87-15.58ZM85.05,4c23.9,0,44.23,15.54,51.43,37.04-14.65-2.66-32.57-4.1-51.43-4.1s-36.78,1.44-51.43,4.1C40.82,19.53,61.16,4,85.05,4Zm54.22,54.22c0,4.44-.54,8.75-1.55,12.88-14.75,2.85-33.18,4.41-52.67,4.41s-37.91-1.55-52.67-4.41c-1.01-4.13-1.55-8.44-1.55-12.88s.54-8.75,1.55-12.88c14.75-2.85,33.18-4.41,52.67-4.41s37.91,1.55,52.67,4.41c1.01,4.13,1.55,8.44,1.55,12.88Zm-112.49,11.69c-16.8-3.9-22.78-8.59-22.78-11.69s5.98-7.79,22.78-11.69c.43-.1,.87-.2,1.31-.3-.81,3.87-1.24,7.88-1.24,11.98s.43,8.12,1.24,11.98c-.44-.1-.88-.2-1.31-.3Zm58.28,42.53c-23.9,0-44.23-15.54-51.43-37.04,14.65,2.66,32.57,4.1,51.43,4.1s36.78-1.44,51.43-4.1c-7.2,21.5-27.53,37.04-51.43,37.04Zm58.28-42.53c-.43,.1-.87,.2-1.31,.3,.81-3.87,1.24-7.88,1.24-11.98s-.43-8.12-1.24-11.98c.44,.1,.88,.2,1.31,.3,16.8,3.9,22.78,8.59,22.78,11.69s-5.98,7.79-22.78,11.69Z"/></g></svg>