<?xml version="1.0" encoding="UTF-8"?><svg id="Layer_2" xmlns="http://www.w3.org/2000/svg" viewBox="0 0 117.89 115.23"><g id="_9"><path d="M112.57,0H57.38c-1.34,0-2.62,.5-3.6,1.41L1.71,46.21c-1.09,1.01-1.71,2.43-1.71,3.91v59.8c0,2.94,2.38,5.32,5.32,5.32h59.28c1.4,0,2.75-.55,3.75-1.54l.83-.82h.34v-.33l46.81-45.36c1.01-1,1.57-2.36,1.57-3.78V5.32c0-2.94-2.38-5.32-5.32-5.32ZM59.23,4.73h37.24c4.79,0,7.14,5.83,3.69,9.15l-35.57,32.31,.25,.26H22.05c-4.84,0-7.17-5.95-3.6-9.23L55.62,6.14c.98-.9,2.27-1.41,3.6-1.41Zm5.55,51.77v.18c0,2.94-2.38,5.32-5.32,5.32H10.05c-2.94,0-5.32-2.38-5.32-5.32v-.18c0-2.94,2.38-5.32,5.32-5.32H59.46c2.94,0,5.32,2.38,5.32,5.32Zm0,15.55v1.1c0,2.94-2.38,5.32-5.32,5.32H10.05c-2.94,0-5.32-2.38-5.32-5.32v-1.1c0-2.94,2.38-5.32,5.32-5.32H59.46c2.94,0,5.32,2.38,5.32,5.32Zm0,16.47v1.28c0,2.94-2.38,5.32-5.32,5.32H10.05c-2.94,0-5.32-2.38-5.32-5.32v-1.28c0-2.94,2.38-5.32,5.32-5.32H59.46c2.94,0,5.32,2.38,5.32,5.32Zm-54.73,11.33H59.46c2.94,0,5.32,2.38,5.32,5.32h0c0,2.94-2.38,5.32-5.32,5.32H10.05c-2.94,0-5.32-2.38-5.32-5.32h0c0-2.94,2.38-5.32,5.32-5.32Zm59.46-6.77V50.28c0-1.45,.59-2.83,1.63-3.83l33.01-29.84c3.38-3.25,9.01-.86,9.01,3.83V61.43c0,1.42-.57,2.78-1.57,3.78l-33.01,31.66c-3.36,3.33-9.07,.95-9.07-3.78Z"/></g></svg>