<?xml version="1.0" encoding="UTF-8"?><svg id="Layer_2" xmlns="http://www.w3.org/2000/svg" viewBox="0 0 210.31 245.24"><defs><style>.cls-1{stroke-width:0px;}</style></defs><g id="Elements"><g id="_08"><path class="cls-1" d="m95.39,11.51l-7.39-7.39c-2.64-2.64-6.22-4.12-9.95-4.12h-5.47c-3.73,0-7.31,1.48-9.95,4.12l-11.9,11.9c-5.5,5.5-5.5,14.41,0,19.91h0c5.5,5.5,5.5,14.41,0,19.91L4.12,102.44c-2.64,2.64-4.12,6.22-4.12,9.95v21.13c0,3.73,1.48,7.31,4.12,9.95l46.6,46.6c5.5,5.5,5.5,14.41,0,19.91h0c-5.5,5.5-5.5,14.41,0,19.91l11.23,11.23c2.64,2.64,6.22,4.12,9.95,4.12h6.81c3.73,0,7.31-1.48,9.95-4.12l6.72-6.72c5.5-5.5,14.41-5.5,19.91,0l6.72,6.72c2.64,2.64,6.22,4.12,9.95,4.12h6.81c3.73,0,7.31-1.48,9.95-4.12l11.23-11.23c5.5-5.5,5.5-14.41,0-19.91h0c-5.5-5.5-5.5-14.41,0-19.91l46.22-46.22c2.64-2.64,4.12-6.22,4.12-9.95v-21.88c0-3.73-1.48-7.31-4.12-9.95l-46.22-46.22c-5.5-5.5-5.5-14.41,0-19.91h0c5.5-5.5,5.5-14.41,0-19.91l-11.9-11.9c-2.64-2.64-6.22-4.12-9.95-4.12h-5.47c-3.73,0-7.31,1.48-9.95,4.12l-7.39,7.39c-5.5,5.5-14.41,5.5-19.91,0Zm52.65,101.49c5.5,5.5,5.5,14.41,0,19.91l-32.57,32.57-.17.17c-5.5,5.5-14.41,5.5-19.91,0l-.17-.17-32.57-32.57c-5.5-5.5-5.5-14.41,0-19.91l32.57-32.57.17-.17c5.5-5.5,14.41-5.5,19.91,0l.17.17,32.57,32.57Z"/></g></g></svg>