<?xml version="1.0" encoding="UTF-8"?><svg id="Layer_2" xmlns="http://www.w3.org/2000/svg" viewBox="0 0 162.21 109.02"><g id="_3"><path d="M107.7,0l-26.6,26.6L54.51,0,0,54.51l54.51,54.51,26.6-26.6,26.6,26.6,54.51-54.51L107.7,0Zm43,45.65l-7.54,7.54-7.54-7.54,7.54-7.54,7.54,7.54Zm-97.52,8.87l-7.54,7.54-7.54-7.54,7.54-7.54,7.54,7.54Zm-6.22-8.87l7.54-7.54,7.54,7.54-7.54,7.54-7.54-7.54Zm7.54,10.19l7.54,7.54-7.54,7.54-7.54-7.54,7.54-7.54Zm1.32-1.32l7.54-7.54,7.54,7.54-7.54,7.54-7.54-7.54Zm8.87-8.86l7.54-7.54,7.54,7.54-7.54,7.54-7.54-7.54Zm-1.32-1.32l-7.54-7.54,7.54-7.54,7.54,7.54-7.54,7.54Zm-8.87-8.87l-7.54-7.54,7.54-7.54,7.54,7.54-7.54,7.54Zm-1.32,1.32l-7.54,7.54-7.54-7.54,7.54-7.54,7.54,7.54Zm-8.87,8.87l-7.54,7.54-7.54-7.54,7.54-7.54,7.54,7.54Zm-8.87,8.87l-7.54,7.54-7.54-7.54,7.54-7.54,7.54,7.54Zm1.32,1.32l7.54,7.54-7.54,7.54-7.54-7.54,7.54-7.54Zm8.87,8.87l7.54,7.54-7.54,7.54-7.54-7.54,7.54-7.54Zm8.87,8.87l7.54,7.54-7.54,7.54-7.54-7.54,7.54-7.54Zm1.32-1.32l7.54-7.54,7.54,7.54-7.54,7.54-7.54-7.54Zm8.87-8.87l7.54-7.54,7.54,7.54-7.54,7.54-7.54-7.54Zm8.87-8.86l7.54-7.54,7.54,7.54-7.54,7.54-7.54-7.54Zm32.82,0l-7.54,7.54-7.54-7.54,7.54-7.54,7.54,7.54Zm-6.22-8.87l7.54-7.54,7.54,7.54-7.54,7.54-7.54-7.54Zm7.54,10.19l7.54,7.54-7.54,7.54-7.54-7.54,7.54-7.54Zm1.32-1.32h0l7.54-7.54,7.54,7.54-7.54,7.54-7.54-7.54Zm8.86-8.87l7.54-7.54,7.54,7.54-7.54,7.54-7.54-7.54Zm-1.32-1.32l-7.54-7.54,7.54-7.54,7.54,7.54-7.54,7.54Zm-8.87-8.87l-7.54-7.54,7.54-7.54,7.54,7.54-7.54,7.54Zm-1.32,1.32l-7.54,7.54-7.54-7.54,7.54-7.54,7.54,7.54Zm-8.87,8.86l-7.54,7.54-7.54-7.54,7.54-7.54,7.54,7.54Zm-7.54,10.19l7.54,7.54-7.54,7.54-7.54-7.54,7.54-7.54Zm8.87,8.87l7.54,7.54-7.54,7.54-7.54-7.54,7.54-7.54Zm8.86,8.86l7.54,7.54-7.54,7.54-7.54-7.54,7.54-7.54Zm1.32-1.32l7.54-7.54,7.54,7.54-7.54,7.54-7.54-7.54Zm8.87-8.87l7.54-7.54,7.54,7.54-7.54,7.54-7.54-7.54Zm8.87-8.87l7.54-7.54,7.54,7.54-7.54,7.54-7.54-7.54Zm15.09-17.73l-7.54,7.54-7.54-7.54,7.54-7.54,7.54,7.54Zm-8.87-8.87l-7.54,7.54-7.54-7.54,7.54-7.54,7.54,7.54Zm-8.87-8.87l-7.54,7.54-7.54-7.54,7.54-7.54,7.54,7.54ZM107.7,2.64l7.54,7.54-7.54,7.54-7.54-7.54,7.54-7.54Zm-8.87,8.87l7.54,7.54-7.54,7.54-7.54-7.54,7.54-7.54Zm-8.87,8.87l7.54,7.54-7.54,7.54-7.54-7.54,7.54-7.54Zm-1.32,16.41l-7.54,7.54-7.54-7.54,7.54-7.54,7.54,7.54Zm-8.87-8.87l-7.54,7.54-7.54-7.54,7.54-7.54,7.54,7.54Zm-8.87-8.86l-7.54,7.54-7.54-7.54,7.54-7.54,7.54,7.54ZM54.51,2.64l7.54,7.54-7.54,7.54-7.54-7.54,7.54-7.54Zm-8.87,8.86l7.54,7.54-7.54,7.54-7.54-7.54,7.54-7.54Zm-8.87,8.87l7.54,7.54-7.54,7.54-7.54-7.54,7.54-7.54Zm-8.87,8.86l7.54,7.54-7.54,7.54-7.54-7.54,7.54-7.54Zm-8.87,8.86l7.54,7.54-7.54,7.54-7.54-7.54,7.54-7.54ZM2.64,54.51l7.54-7.54,7.54,7.54-7.54,7.54-7.54-7.54Zm8.87,8.86l7.54-7.54,7.54,7.54-7.54,7.54-7.54-7.54Zm8.87,8.87l7.54-7.54,7.54,7.54-7.54,7.54-7.54-7.54Zm8.87,8.86l7.54-7.54,7.54,7.54-7.54,7.54-7.54-7.54Zm8.87,8.86l7.54-7.54,7.54,7.54-7.54,7.54-7.54-7.54Zm16.41,16.41l-7.54-7.54,7.54-7.54,7.54,7.54-7.54,7.54Zm8.87-8.86l-7.54-7.54,7.54-7.54,7.54,7.54-7.54,7.54Zm8.87-8.87l-7.54-7.54,7.54-7.54,7.54,7.54-7.54,7.54Zm1.32-16.41l7.54-7.54,7.54,7.54-7.54,7.54-7.54-7.54Zm8.87,8.87l7.54-7.54,7.54,7.54-7.54,7.54-7.54-7.54Zm8.86,8.86l7.54-7.54,7.54,7.54-7.54,7.54-7.54-7.54Zm16.41,16.41l-7.54-7.54,7.54-7.54,7.54,7.54-7.54,7.54Zm8.87-8.87l-7.54-7.54,7.54-7.54,7.54,7.54-7.54,7.54Zm8.87-8.87l-7.54-7.54,7.54-7.54,7.54,7.54-7.54,7.54Zm8.87-8.87l-7.54-7.54,7.54-7.54,7.54,7.54-7.54,7.54Zm8.87-8.87l-7.54-7.54,7.54-7.54,7.54,7.54-7.54,7.54Zm1.32-16.41l7.54-7.54,7.54,7.54-7.54,7.54-7.54-7.54Z"/></g></svg>