<?xml version="1.0" encoding="UTF-8"?><svg id="Layer_2" xmlns="http://www.w3.org/2000/svg" viewBox="0 0 116.8 116.8"><g id="_8"><path d="M0,26.48v63.83c0,14.63,11.86,26.48,26.48,26.48h63.83c14.63,0,26.48-11.86,26.48-26.48V26.48c0-14.63-11.86-26.48-26.48-26.48H26.48C11.86,0,0,11.86,0,26.48Zm86.7,30.11h0c-14.63,0-26.48-11.86-26.48-26.48h0c0-14.63,11.86-26.48,26.48-26.48h0c14.63,0,26.48,11.86,26.48,26.48h0c0,14.63-11.86,26.48-26.48,26.48Zm-30.11-26.48h0c0,14.63-11.86,26.48-26.48,26.48h0c-14.63,0-26.48-11.86-26.48-26.48h0C3.62,15.48,15.48,3.62,30.11,3.62h0c14.63,0,26.48,11.86,26.48,26.48Zm-26.48,30.11h0c14.63,0,26.48,11.86,26.48,26.48h0c0,14.63-11.86,26.48-26.48,26.48h0c-14.63,0-26.48-11.86-26.48-26.48h0c0-14.63,11.86-26.48,26.48-26.48Zm30.11,26.48h0c0-14.63,11.86-26.48,26.48-26.48h0c14.63,0,26.48,11.86,26.48,26.48h0c0,14.63-11.86,26.48-26.48,26.48h0c-14.63,0-26.48-11.86-26.48-26.48Z"/></g></svg>