<?xml version="1.0" encoding="UTF-8"?><svg id="Layer_2" xmlns="http://www.w3.org/2000/svg" viewBox="0 0 269.34 261.04"><g id="Elements"><g id="_45"><path d="m255.62,145.12l-2.56.57c-4.92,1.09-9.9,1.85-14.89,2.28v-43.48c5.05.45,10.08,1.23,15.06,2.36l16.1,3.65-31.16-31.16v-24.02s-7.66,0-7.66,0l-1.41,2.21c-1.64,2.58-3.39,5.09-5.23,7.52l-29.8-29.8c2.49-1.87,5.05-3.64,7.69-5.31l13.97-8.8h-35.76S158.84,0,158.84,0l-5.41,5.41.57,2.56c.97,4.35,1.67,8.75,2.12,13.17h-42.88c.45-4.42,1.15-8.82,2.12-13.17l.57-2.56-5.41-5.41-21.14,21.14h-29.9s0,7.66,0,7.66l2.21,1.41c3.76,2.39,7.37,5.01,10.81,7.81l-30.32,30.32c-2.8-3.44-5.42-7.05-7.81-10.81l-1.41-2.21h-7.66s0,29.89,0,29.89L0,110.5l16.1-3.65c3.04-.69,6.11-1.25,9.19-1.68v42.14c-3.02-.42-6.03-.96-9.02-1.62l-2.56-.57-5.41,5.41,16.99,16.99v44.07s8.8-13.97,8.8-13.97c2.72-4.32,5.73-8.42,8.98-12.32l30.75,30.75c-3.84,3.22-7.89,6.21-12.14,8.91l-2.21,1.41v7.66s32.32,0,32.32,0l27.01,27.01-3.65-16.1c-.82-3.61-1.45-7.25-1.92-10.91h42.87c-.46,3.66-1.1,7.3-1.92,10.91l-3.65,16.1,27.01-27.01h38.2s-13.97-8.8-13.97-8.8c-3.13-1.97-6.16-4.1-9.07-6.36l30.31-30.31c2.26,2.91,4.38,5.94,6.36,9.07l8.8,13.97v-38.2s22.86-22.86,22.86-22.86l-5.41-5.41Zm-32.05,29.38c-6.89-7.46-14.66-14.06-23.1-19.64,9.23,2.07,18.68,3.1,28.17,3.06v11.52l-5.06,5.06Zm-78.32-33.41c-1.74,1.74-2.98,3.84-3.67,6.1-2.09-1.11-4.45-1.72-6.91-1.72-5.07,0-9.74,2.57-12.47,6.86-.05.08-.1.16-.15.24.28-4.22-1.25-8.36-4.3-11.4-2.11-2.1-4.75-3.47-7.56-4.03,3.15-2.79,4.98-6.77,4.97-11.06,0-3.35-1.13-6.52-3.13-9.07,2.08-.72,4.02-1.9,5.64-3.52h0c3.61-3.61,5.09-8.74,3.95-13.73-.15-.67-.34-1.33-.5-2,.36.59.69,1.18,1.06,1.76,2.72,4.33,7.4,6.91,12.5,6.91h0c2.29,0,4.5-.53,6.48-1.49.39,3.22,1.83,6.25,4.19,8.63,3.03,3.04,7.14,4.56,11.34,4.31-1.6,2.38-2.5,5.22-2.5,8.2,0,4.31,1.84,8.31,5.02,11.1-.09-.02-.18-.05-.28-.07-4.97-1.1-10.08.38-13.67,3.97Zm-49.51,83.39l-8.14-8.14c6.73-6.68,12.69-14.09,17.75-22.08-2.02,9.92-2.85,20.07-2.45,30.22h-7.16Zm-60.92-60.92v-5.8c8.66.44,17.33-.02,25.87-1.35-6.42,4.45-12.43,9.51-17.94,15.08l-7.93-7.93Zm0-74.41l6.93-6.93c4.63,4.79,9.63,9.2,14.94,13.19-7.24-.88-14.56-1.14-21.87-.75v-5.51Zm58.49-58.49h9.79c-.19,11,1.08,21.98,3.72,32.63-5.66-9.39-12.53-18.06-20.44-25.7l6.93-6.93Zm82.71,0l3.9,3.9c-5.44,4.89-10.43,10.26-14.93,16,.93-6.58,1.35-13.24,1.24-19.9h9.8Zm48.51,48.52l4.1,4.1v11.22c-7.84-.05-15.66.63-23.35,2.02,6.98-5.09,13.44-10.91,19.25-17.34Zm4.1,69.22c-21.99.1-43.86-6.04-62.48-17.86-1.55-.99-2.45-2.6-2.44-4.43,0-1.83.9-3.44,2.46-4.42,18.64-11.76,40.5-17.82,62.47-17.67v44.38Zm11.83-53.29c-.76-.08-1.53-.12-2.29-.18v-2.1l2.29,2.29Zm-22.67-22.67c-16,17.86-37.4,30.6-60.84,35.82-1.8.4-3.57-.11-4.86-1.4-1.29-1.29-1.8-3.07-1.39-4.86,5.3-23.41,18.08-44.74,35.96-60.68l31.12,31.12Zm-52.18-52.18l.87.87h-.8c-.03-.29-.04-.58-.07-.87Zm-8.93,10.41c.42,22.4-5.63,44.79-17.59,63.79-.98,1.56-2.6,2.46-4.43,2.46s-3.44-.9-4.43-2.46c-11.96-19-18.02-41.39-17.6-63.8h44.04Zm-52.97-10.41c-.03.29-.04.58-.07.87h-.8s.87-.87.87-.87Zm-25.13,10.41h1.23l-.57.57c-.22-.19-.44-.38-.66-.57Zm1.05,13.67c16.14,15.54,27.69,35.65,32.67,57.55.41,1.8-.1,3.57-1.39,4.87-1.29,1.29-3.07,1.8-4.87,1.39-21.9-4.98-42.01-16.53-57.55-32.67l31.14-31.14Zm-44.81,30.09c.18.23.38.44.57.67l-.57.57v-1.23Zm0,29.78c23.91-1.38,48.04,4.67,68.33,17.47,1.56.98,2.46,2.59,2.46,4.42,0,1.83-.89,3.44-2.44,4.43-20.27,12.88-44.41,19.01-68.35,17.69v-44.01Zm0,76.08v-3.24l1.49,1.49c-.49.58-1,1.15-1.49,1.75Zm14.66-2.06c15.42-15.64,35.17-26.81,56.66-31.68,1.8-.41,3.57.1,4.86,1.39,1.29,1.29,1.8,3.06,1.4,4.86-4.8,21.53-15.93,41.33-31.55,56.81l-31.38-31.38Zm29.1,46.25c.67-.55,1.32-1.12,1.98-1.68l1.68,1.68h-3.66Zm33.84,0c-1.01-23.51,5.14-47.11,17.82-67.02.99-1.55,2.6-2.45,4.42-2.45s3.43.89,4.42,2.44c2.21,3.47,4.21,7.05,6.02,10.73,1.62,4.67,3.51,9.23,5.67,13.67,4.66,13.66,6.75,28.16,6.13,42.63h-44.48Zm61.16,0h-7.16c.25-6.3.04-12.61-.65-18.87,3.93,4.91,8.25,9.52,12.88,13.8l-5.06,5.07Zm11.8-11.8c-10.67-9.79-19.44-21.53-25.8-34.47-1.61-4.66-3.5-9.23-5.66-13.68-1.32-3.88-2.44-7.83-3.33-11.84-.4-1.8.11-3.57,1.4-4.86,1.29-1.29,3.06-1.8,4.86-1.4,23.04,5.11,44.08,17.46,59.99,34.79l-31.45,31.45Zm52.79-52.79v-2.38c.86-.07,1.73-.12,2.59-.21l-2.59,2.59Z"/></g></g></svg>