<?xml version="1.0" encoding="UTF-8"?><svg id="Layer_2" xmlns="http://www.w3.org/2000/svg" viewBox="0 0 139.68 139.68"><g id="_8"><path d="M139.68,67.55h-27.7c-1.15-21.45-18.4-38.69-39.85-39.85V0h-4.59V27.7c-21.45,1.15-38.69,18.4-39.85,39.85H0v4.59H27.7c1.15,21.45,18.4,38.69,39.85,39.85v27.7h4.59v-27.7c21.45-1.15,38.69-18.4,39.85-39.85h27.7v-4.59Zm-32.3,0h-16.22c-1.07-9.99-9.03-17.96-19.03-19.03v-16.22c18.92,1.14,34.1,16.33,35.24,35.24Zm-39.83,0h-14.4c1.02-7.46,6.94-13.38,14.4-14.4v14.4Zm0,4.59v14.4c-7.46-1.02-13.38-6.94-14.4-14.4h14.4Zm4.59,0h14.4c-1.02,7.46-6.94,13.38-14.4,14.4v-14.4Zm0-4.59v-14.4c7.46,1.02,13.38,6.94,14.4,14.4h-14.4Zm-4.59-35.24v16.22c-10,1.07-17.96,9.03-19.03,19.03h-16.22c1.14-18.92,16.33-34.1,35.24-35.24Zm-35.24,39.83h16.22c1.07,9.99,9.03,17.96,19.03,19.03v16.22c-18.92-1.14-34.1-16.33-35.24-35.24Zm39.83,35.24v-16.22c9.99-1.07,17.96-9.03,19.03-19.03h16.22c-1.14,18.92-16.33,34.1-35.24,35.24Z"/></g></svg>