<?xml version="1.0" encoding="UTF-8"?><svg id="Layer_2" xmlns="http://www.w3.org/2000/svg" viewBox="0 0 139.63 139.63"><g id="_3"><path d="M139.63,69.81c0-11.12-9.04-20.16-20.16-20.16h-.98l.69-.69c3.81-3.81,5.91-8.87,5.91-14.26s-2.1-10.45-5.91-14.26c-3.81-3.81-8.87-5.91-14.26-5.91s-10.45,2.1-14.26,5.91l-.69,.69v-.98c0-11.12-9.04-20.16-20.16-20.16s-20.16,9.04-20.16,20.16v.98l-.69-.69c-3.81-3.81-8.87-5.91-14.26-5.91s-10.45,2.1-14.26,5.91c-7.86,7.86-7.86,20.65,0,28.51l.69,.69h-.98C9.04,49.65,0,58.7,0,69.81s9.04,20.16,20.16,20.16h.98l-.69,.69c-7.86,7.86-7.86,20.65,0,28.51,3.81,3.81,8.87,5.91,14.26,5.91s10.45-2.1,14.26-5.91l.69-.69v.98c0,11.12,9.04,20.16,20.16,20.16s20.16-9.04,20.16-20.16v-.98l.69,.69c3.81,3.81,8.87,5.91,14.26,5.91s10.45-2.1,14.26-5.91c3.81-3.81,5.91-8.87,5.91-14.26s-2.1-10.45-5.91-14.26l-.69-.69h.98c11.12,0,20.16-9.04,20.16-20.16ZM20.16,86.04c-8.95,0-16.22-7.28-16.22-16.22s7.28-16.22,16.22-16.22h4.91l16.22,16.22-16.22,16.22h-4.91Zm29.49,26.88l-3.47,3.47c-3.06,3.06-7.14,4.75-11.47,4.75s-8.41-1.69-11.47-4.75c-6.33-6.33-6.33-16.62,0-22.95l3.47-3.47h22.95v22.95Zm0-26.88H30.64l13.44-13.44,5.57,5.57v7.87Zm0-13.44l-2.78-2.78,2.78-2.78v5.57Zm0-11.14l-5.57,5.57-13.44-13.44h19.01v7.87Zm0-11.81H26.71l-3.47-3.47c-6.33-6.33-6.33-16.62,0-22.95,3.06-3.06,7.14-4.75,11.47-4.75s8.41,1.69,11.47,4.75l3.47,3.47v22.95Zm3.94-19.01l13.44,13.44-5.57,5.57h-7.87V30.64Zm0,22.95h3.94l-3.94,3.94v-3.94Zm0,28.51l3.94,3.94h-3.94v-3.94Zm0,7.87h7.87l5.57,5.57-13.44,13.44v-19.01Zm32.45,29.49c0,8.95-7.28,16.22-16.22,16.22s-16.22-7.28-16.22-16.22v-4.91l16.22-16.22,16.22,16.22v4.91Zm-19.01-29.49h5.57l-2.78,2.78-2.78-2.78Zm19.01,19.01l-13.44-13.44,5.57-5.57h7.87v19.01Zm0-22.95h-3.94l3.94-3.94v3.94Zm0-9.5l-9.5,9.5h-13.44l-9.5-9.5v-13.44l9.5-9.5h13.44l9.5,9.5v13.44Zm-19.01-26.88l2.78-2.78,2.78,2.78h-5.57Zm19.01,7.87l-3.94-3.94h3.94v3.94Zm0-7.87h-7.87l-5.57-5.57,13.44-13.44v19.01Zm0-24.58l-16.22,16.22-16.22-16.22v-4.91c0-8.95,7.28-16.22,16.22-16.22s16.22,7.28,16.22,16.22v4.91Zm3.94,1.63l3.47-3.47c3.06-3.06,7.14-4.75,11.47-4.75s8.41,1.69,11.47,4.75c3.06,3.06,4.75,7.14,4.75,11.47s-1.69,8.41-4.75,11.47l-3.47,3.47h-22.95V26.71Zm0,26.88h19.01l-13.44,13.44-5.57-5.57v-7.87Zm0,13.44l2.78,2.78-2.78,2.78v-5.57Zm0,11.14l5.57-5.57,13.44,13.44h-19.01v-7.87Zm31.17,26.76c0,4.33-1.69,8.41-4.75,11.47-3.06,3.06-7.14,4.75-11.47,4.75s-8.41-1.69-11.47-4.75l-3.47-3.47v-22.95h22.95l3.47,3.47c3.06,3.06,4.75,7.14,4.75,11.47Zm-6.6-18.88l-16.22-16.22,16.22-16.22h4.91c8.95,0,16.22,7.28,16.22,16.22s-7.28,16.22-16.22,16.22h-4.91Z"/></g></svg>