<?xml version="1.0" encoding="UTF-8"?><svg id="Layer_2" xmlns="http://www.w3.org/2000/svg" viewBox="0 0 288.3 134.55"><defs><style>.cls-1{stroke-width:0px;}</style></defs><g id="Elements"><g id="_23"><path class="cls-1" d="m221.03,0c-15.89,0-30.5,5.55-42.02,14.79-11.52-9.24-26.13-14.79-42.02-14.79-12.75,0-24.69,3.57-34.86,9.75C91.96,3.57,80.03,0,67.27,0,30.18,0,0,30.18,0,67.27s30.18,67.27,67.27,67.27c12.75,0,24.69-3.57,34.86-9.75,10.17,6.19,22.11,9.75,34.86,9.75,15.89,0,30.5-5.55,42.02-14.79,11.52,9.24,26.13,14.79,42.02,14.79,37.09,0,67.27-30.18,67.27-67.27S258.12,0,221.03,0Zm-42.02,106.85c-9.75-10.35-15.75-24.27-15.75-39.58s6-29.23,15.75-39.58c9.75,10.35,15.75,24.27,15.75,39.58s-6,29.23-15.75,39.58Zm-111.74,18.19c-31.85,0-57.77-25.91-57.77-57.77S35.42,9.51,67.27,9.51c9.49,0,18.45,2.32,26.36,6.39-14.61,12.35-23.91,30.79-23.91,51.38s9.3,39.03,23.91,51.38c-7.91,4.07-16.86,6.39-26.36,6.39Zm57.77-57.77c0,18.77-9,35.47-22.91,46.02-13.91-10.56-22.91-27.26-22.91-46.02s9-35.47,22.91-46.02c13.91,10.56,22.91,27.26,22.91,46.02Zm-14.4,51.38c14.61-12.35,23.91-30.79,23.91-51.38s-9.3-39.03-23.91-51.38c7.91-4.07,16.86-6.39,26.36-6.39,13.13,0,25.25,4.41,34.96,11.82-11.27,12.04-18.2,28.19-18.2,45.94s6.92,33.91,18.2,45.94c-9.71,7.41-21.83,11.82-34.96,11.82-9.49,0-18.45-2.32-26.36-6.39Zm110.39,6.39c-13.13,0-25.25-4.41-34.96-11.82,11.27-12.04,18.2-28.19,18.2-45.94s-6.92-33.91-18.2-45.94c9.71-7.41,21.83-11.82,34.96-11.82,31.85,0,57.77,25.91,57.77,57.77s-25.91,57.77-57.77,57.77Z"/></g></g></svg>