<?xml version="1.0" encoding="UTF-8"?><svg id="Layer_2" xmlns="http://www.w3.org/2000/svg" viewBox="0 0 166.24 131.89"><g id="_7"><path d="M159.66,.44C158.73,.14,157.77,0,156.83,0c-3.63,0-7.09,2.12-8.63,5.67l-31.22,72.13V9.3c0-4.18-2.77-7.71-6.58-8.86C109.47,.14,108.51,0,107.57,0c-3.63,0-7.09,2.12-8.63,5.67l-31.24,72.17V9.3c0-4.18-2.77-7.71-6.58-8.86C60.19,.14,59.24,0,58.29,0c-3.63,0-7.09,2.12-8.63,5.67L.81,118.56c-1.94,4.47-.3,9.8,3.97,12.15,1.46,.81,3.03,1.18,4.56,1.18,3.63,0,7.09-2.12,8.63-5.67L49.2,54.05V122.56c0,3.14,1.56,5.9,3.95,7.58,.03,.02,.06,.04,.09,.06,.1,.07,.2,.12,.3,.19,.43,.27,.87,.52,1.35,.73,1.22,.53,2.48,.78,3.73,.78,3.63,0,7.09-2.12,8.63-5.67l31.24-72.18V122.39s0,.03,0,.04v.13c0,.17,.02,.34,.03,.51,0,.09,0,.19,.01,.28,.18,2.15,1.1,4.09,2.5,5.57,.03,.03,.05,.06,.08,.09,.13,.13,.27,.26,.4,.38,.1,.1,.21,.19,.31,.29,.04,.04,.09,.07,.13,.1,.65,.53,1.38,.99,2.19,1.34,1.22,.53,2.48,.78,3.73,.78,3.63,0,7.09-2.12,8.63-5.67l31.24-72.18V122.35c0,4.82,3.61,9,8.41,9.42,5.49,.48,10.09-3.83,10.09-9.21V9.3c0-4.18-2.77-7.71-6.58-8.86ZM13.43,124.26c-.71,1.63-2.31,2.69-4.09,2.69-.85,0-1.68-.25-2.44-.73-.45-.29-.85-.66-1.16-1.1-.94-1.33-1.1-2.96-.48-4.39L49.2,19.18v22.41L13.43,124.26Zm54.28-11.55v-22.41L98.48,19.18v22.41l-30.78,71.11Zm49.28-.04v-22.41l30.76-71.07v22.41l-30.76,71.07Z"/></g></svg>