<?xml version="1.0" encoding="UTF-8"?><svg id="Layer_2" xmlns="http://www.w3.org/2000/svg" viewBox="0 0 264.56 272.53"><g id="Elements"><g id="_54"><path d="m256.13,115.92l-45.23-45.23c-.61-.61-1.24-1.17-1.88-1.71-1.51-5.3-4.34-10.16-8.34-14.17l-45.23-45.23c-12.78-12.78-33.57-12.78-46.35,0l-45.22,45.23c-4,4-6.84,8.87-8.34,14.17-.65.54-1.28,1.11-1.88,1.71L8.43,115.92c-11.24,11.24-11.24,29.46,0,40.69l45.23,45.23c.61.61,1.24,1.17,1.88,1.71,1.51,5.3,4.34,10.16,8.34,14.17l45.22,45.23c6.39,6.39,14.78,9.58,23.17,9.58s16.79-3.2,23.18-9.58l45.23-45.23c4-4,6.84-8.87,8.34-14.17.64-.54,1.27-1.11,1.88-1.71l45.23-45.23c11.24-11.24,11.24-29.46,0-40.69Zm-157.25,40.69h0c-11.24-11.24-11.24-29.46,0-40.69h0c.61-.61,1.17-1.24,1.71-1.88,5.3-1.51,10.16-4.34,14.17-8.34,9.66-9.66,25.38-9.66,35.04,0,4.07,4.07,8.96,6.84,14.15,8.32.55.65,1.12,1.29,1.73,1.9h0c11.24,11.24,11.24,29.46,0,40.69h0c-.61.61-1.19,1.25-1.74,1.91-5.18,1.48-10.07,4.25-14.15,8.32-9.66,9.66-25.38,9.66-35.04,0-4-4-8.87-6.84-14.17-8.34-.54-.64-1.11-1.28-1.71-1.88Zm-29.34-96.14L114.76,15.24c9.66-9.66,25.38-9.66,35.04,0l45.23,45.23c.82.82,1.54,1.69,2.21,2.58-9.4-2.23-19.7.31-27.03,7.64l-4.53,4.53c-7.33,7.33-9.88,17.63-7.64,27.03-.89-.68-1.77-1.4-2.58-2.21-6.19-6.19-14.42-9.6-23.18-9.6s-16.98,3.41-23.17,9.6c-.82.82-1.69,1.54-2.58,2.21,2.23-9.4-.31-19.7-7.64-27.03l-4.53-4.53c-7.33-7.33-17.63-9.88-27.03-7.64.68-.89,1.4-1.77,2.21-2.58Zm125.49,151.59l-45.23,45.23c-9.66,9.66-25.38,9.66-35.04,0l-45.22-45.23c-.82-.82-1.54-1.69-2.21-2.58,9.4,2.23,19.7-.31,27.03-7.64l4.53-4.53c7.33-7.33,9.88-17.63,7.64-27.03.89.68,1.77,1.4,2.58,2.21,6.19,6.19,14.42,9.6,23.17,9.6s16.99-3.41,23.18-9.6c.82-.82,1.69-1.54,2.58-2.21-2.23,9.4.31,19.7,7.64,27.03l4.53,4.53c7.33,7.33,17.63,9.88,27.03,7.64-.68.89-1.4,1.77-2.21,2.58Z"/></g></g></svg>