<?xml version="1.0" encoding="UTF-8"?><svg id="Layer_2" xmlns="http://www.w3.org/2000/svg" viewBox="0 0 174.7 85.26"><g id="_6"><path d="M148.45,12.02C133.57,4.97,114.27,.8,93.56,.11c-1.29-.06-2.59-.11-3.9-.11-.19,0-.38,0-.57,.01-.58,0-1.16-.01-1.74-.01-23.04,0-44.74,4.27-61.1,12.02C9.32,20.04,0,30.91,0,42.63s9.32,22.6,26.25,30.61c16.36,7.75,38.06,12.02,61.1,12.02,.58,0,1.16,0,1.74-.01,.19,0,.38,.01,.57,.01,1.31,0,2.61-.04,3.9-.11,20.71-.7,40.01-4.86,54.89-11.91,16.93-8.02,26.25-18.89,26.25-30.61s-9.32-22.6-26.25-30.61Zm-39.97,30.61c0,20.22-8.37,37.34-18.38,37.84-.22,0-.44,0-.67,.01-10.1-.25-18.6-17.48-18.6-37.85S79.33,5.04,89.43,4.78c.22,0,.44,0,.67,.01,10.01,.49,18.38,17.61,18.38,37.84Zm-42.42,0c0,.16,0,.32,0,.48,.11,19.21-28.55,20.44-29.78,1.27-.04-.58-.06-1.16-.06-1.74,0-17.96,17.73-33.03,41.44-36.9-7,7.32-11.61,20.95-11.61,36.9Zm47.19,0c0-.16,0-.32,0-.48-.11-19.21,28.55-20.44,29.78-1.27,.04,.58,.06,1.16,.06,1.74,0,17.96-17.73,33.03-41.44,36.9,7-7.32,11.61-20.95,11.61-36.9ZM28.29,68.93c-15.17-7.18-23.52-16.52-23.52-26.3S13.13,23.51,28.29,16.33c5.8-2.74,12.3-5.03,19.33-6.83,1.62-.42,2.61,1.71,1.25,2.69l-.07,.05c-11.18,8.06-17.34,18.86-17.34,30.39s6.16,22.33,17.34,30.39l.07,.05c1.36,.98,.38,3.1-1.25,2.69-7.02-1.8-13.53-4.09-19.33-6.83Zm118.11,0c-4.63,2.19-9.72,4.1-15.16,5.69-.96,.28-1.58-.98-.77-1.56l.05-.03c11.18-8.06,17.34-18.86,17.34-30.39s-6.16-22.33-17.34-30.39l-.05-.03c-.81-.58-.19-1.84,.77-1.56,5.44,1.59,10.53,3.5,15.16,5.69,15.17,7.18,23.52,16.52,23.52,26.3s-8.35,19.12-23.52,26.3Z"/></g></svg>