<?xml version="1.0" encoding="UTF-8"?><svg id="Layer_2" xmlns="http://www.w3.org/2000/svg" viewBox="0 0 286.74 164.8"><defs><style>.cls-1{stroke-width:0px;}</style></defs><g id="Elements"><g id="_18"><path class="cls-1" d="m177.52,17.1h100.67c4.72,0,8.55-3.83,8.55-8.55h0c0-4.72-3.83-8.55-8.55-8.55h-126.31v156.25c0,4.72,3.83,8.55,8.55,8.55h0c4.72,0,8.55-3.83,8.55-8.55v-20.79c0-4.72,3.83-8.55,8.55-8.55h100.67c4.72,0,8.55-3.83,8.55-8.55h0c0-4.72-3.83-8.55-8.55-8.55h-100.67c-4.72,0-8.55-3.83-8.55-8.55v-2.42c0-4.72,3.83-8.55,8.55-8.55h100.67c4.72,0,8.55-3.83,8.55-8.55h0c0-4.72-3.83-8.55-8.55-8.55h-100.67c-4.72,0-8.55-3.83-8.55-8.55v-2.42c0-4.72,3.83-8.55,8.55-8.55h100.67c4.72,0,8.55-3.83,8.55-8.55h0c0-4.72-3.83-8.55-8.55-8.55h-100.67c-4.72,0-8.55-3.83-8.55-8.55v-2.42c0-4.72,3.83-8.55,8.55-8.55Z"/><path class="cls-1" d="m126.31,0c-4.72,0-8.55,3.83-8.55,8.55v20.79c0,4.72-3.83,8.55-8.55,8.55H8.55c-4.72,0-8.55,3.83-8.55,8.55h0c0,4.72,3.83,8.55,8.55,8.55h100.67c4.72,0,8.55,3.83,8.55,8.55v2.42c0,4.72-3.83,8.55-8.55,8.55H8.55c-4.72,0-8.55,3.83-8.55,8.55h0c0,4.72,3.83,8.55,8.55,8.55h100.67c4.72,0,8.55,3.83,8.55,8.55v2.42c0,4.72-3.83,8.55-8.55,8.55H8.55c-4.72,0-8.55,3.83-8.55,8.55h0c0,4.72,3.83,8.55,8.55,8.55h100.67c4.72,0,8.55,3.83,8.55,8.55v2.42c0,4.72-3.83,8.55-8.55,8.55H8.55c-4.72,0-8.55,3.83-8.55,8.55h0c0,4.72,3.83,8.55,8.55,8.55h126.32V8.55c0-4.72-3.83-8.55-8.55-8.55Z"/></g></g></svg>