<?xml version="1.0" encoding="UTF-8"?><svg id="Layer_2" xmlns="http://www.w3.org/2000/svg" viewBox="0 0 127.01 127.01"><g id="_2"><path d="M63.51,0C28.49,0,0,28.49,0,63.51s28.49,63.51,63.51,63.51,63.51-28.49,63.51-63.51S98.52,0,63.51,0Zm58.15,43.55l-7.98,2.59c-7.11-20.47-26.4-35.28-49.16-35.71V2.04c26.48,.43,48.93,17.68,57.14,41.51Zm-17.5,19.96c0,13.13-6.27,24.82-15.96,32.26l-4.93-6.79c7.6-5.91,12.5-15.13,12.5-25.47,0-3.12-.45-6.14-1.29-9l7.98-2.59c1.1,3.68,1.69,7.56,1.69,11.59ZM24.55,51.91l7.98,2.59c-.83,2.86-1.29,5.88-1.29,9,0,10.35,4.9,19.57,12.5,25.47l-4.93,6.79c-9.69-7.44-15.96-19.13-15.96-32.26,0-4.03,.6-7.92,1.69-11.59Zm69.19,11.59c0,9.67-4.57,18.29-11.66,23.83l-4.93-6.79c5-4.01,8.21-10.16,8.21-17.05,0-2-.28-3.94-.78-5.78l7.98-2.59c.77,2.66,1.19,5.47,1.19,8.37Zm-59.28-8.37l7.98,2.59c-.51,1.84-.78,3.78-.78,5.78,0,6.89,3.21,13.04,8.21,17.05l-4.93,6.79c-7.09-5.54-11.66-14.16-11.66-23.83,0-2.9,.42-5.71,1.19-8.37Zm48.86,8.37c0,6.22-2.88,11.77-7.37,15.41l-4.94-6.8c2.4-2.1,3.92-5.18,3.92-8.61,0-.88-.1-1.73-.29-2.55l8-2.6c.44,1.64,.68,3.37,.68,5.15Zm-38.95-5.15l8,2.6c-.19,.82-.29,1.68-.29,2.55,0,3.43,1.52,6.51,3.92,8.61l-4.94,6.8c-4.49-3.64-7.37-9.19-7.37-15.41,0-1.78,.24-3.51,.68-5.15Zm28.54,5.15c0,2.76-1.2,5.23-3.1,6.95l-4.66-6.42,7.56-2.46c.13,.62,.2,1.26,.2,1.92Zm-18.8,0c0-.66,.07-1.3,.2-1.92l7.56,2.46-4.67,6.42c-1.9-1.72-3.1-4.2-3.1-6.95Zm.83-3.85c1.34-2.97,4.18-5.13,7.55-5.5v7.95l-7.55-2.45Zm8.57,5.57l4.67,6.42c-1.38,.79-2.97,1.25-4.67,1.25s-3.29-.46-4.67-1.25l4.67-6.42Zm1.01-3.12v-7.95c3.37,.36,6.21,2.52,7.55,5.5l-7.55,2.45Zm-2.03-9.99c-4.27,.38-7.88,3.12-9.5,6.9l-7.99-2.6c2.74-7.14,9.5-12.31,17.49-12.71v8.41Zm-4.86,21.18c1.72,1.03,3.72,1.63,5.87,1.63s4.15-.59,5.87-1.63l4.94,6.8c-3.11,2.03-6.82,3.22-10.81,3.22s-7.7-1.19-10.81-3.22l4.94-6.8Zm16.38-14.28c-1.62-3.78-5.23-6.52-9.5-6.9v-8.41c8,.4,14.75,5.57,17.49,12.71l-7.99,2.6Zm-11.53-17.34c-8.89,.41-16.41,6.16-19.42,14.11l-7.99-2.59c4.11-11.31,14.8-19.49,27.41-19.91v8.39Zm-10.99,40.06c3.45,2.27,7.57,3.6,12,3.6s8.55-1.33,12-3.6l4.93,6.79c-4.83,3.28-10.66,5.2-16.93,5.2s-12.1-1.92-16.93-5.2l4.93-6.79Zm32.44-25.95c-3.01-7.95-10.53-13.7-19.42-14.11v-8.39c12.61,.42,23.3,8.59,27.41,19.91l-7.99,2.6Zm-21.45-24.53c-13.51,.42-24.96,9.18-29.34,21.31l-7.98-2.59c5.48-15.48,20.08-26.68,37.31-27.1v8.39Zm-17.11,58.91c5.17,3.52,11.41,5.59,18.12,5.59s12.96-2.06,18.12-5.59l4.93,6.78c-6.56,4.53-14.5,7.19-23.05,7.19s-16.5-2.66-23.05-7.19l4.93-6.78Zm48.48-37.6c-4.38-12.12-15.82-20.89-29.34-21.31v-8.39c17.23,.43,31.84,11.62,37.31,27.1l-7.98,2.59Zm-31.36-31.72c-18.13,.43-33.5,12.21-39.24,28.5l-7.99-2.59C22.1,27.11,40.64,12.88,62.49,12.46v8.4ZM22.62,51.29c-1.16,3.87-1.79,7.97-1.79,12.22,0,13.81,6.59,26.09,16.79,33.9l-4.93,6.79c-12.29-9.33-20.25-24.1-20.25-40.69,0-5.15,.77-10.12,2.19-14.81l7.99,2.59Zm16.64,47.31c6.89,4.78,15.24,7.58,24.24,7.58s17.35-2.81,24.24-7.58l4.93,6.79c-8.28,5.78-18.34,9.18-29.18,9.18s-20.9-3.4-29.18-9.18l4.93-6.79Zm50.13-1.19c10.2-7.81,16.79-20.09,16.79-33.9,0-4.25-.63-8.34-1.79-12.22l7.99-2.59c1.42,4.69,2.19,9.66,2.19,14.81,0,16.59-7.95,31.36-20.25,40.69l-4.93-6.79Zm14.37-48.04c-5.74-16.29-21.11-28.08-39.24-28.5V12.46c21.86,.43,40.39,14.65,47.23,34.31l-7.99,2.59ZM62.49,2.04V10.43c-22.76,.43-42.05,15.24-49.16,35.71l-7.98-2.59C13.56,19.72,36.02,2.47,62.49,2.04ZM2.03,63.51c0-6.27,.95-12.33,2.7-18.03l7.98,2.59c-1.49,4.89-2.29,10.07-2.29,15.44,0,17.26,8.28,32.63,21.08,42.33l-4.93,6.79C11.67,101.39,2.03,83.55,2.03,63.51Zm26.18,50.31l4.93-6.79c8.61,6.03,19.08,9.57,30.37,9.57s21.76-3.54,30.37-9.57l4.93,6.78c-10,7.03-22.17,11.17-35.3,11.17s-25.3-4.14-35.3-11.17Zm72.23-1.19l-4.93-6.79c12.8-9.7,21.08-25.07,21.08-42.33,0-5.37-.8-10.55-2.29-15.44l7.98-2.59c1.75,5.7,2.7,11.76,2.7,18.03,0,20.05-9.65,37.88-24.54,49.11Z"/></g></svg>