<?xml version="1.0" encoding="UTF-8"?><svg id="Layer_2" xmlns="http://www.w3.org/2000/svg" viewBox="0 0 126.28 128.85"><g id="_5"><path d="M63.14,0C28.32,0,0,28.32,0,63.14s28.32,63.14,63.14,63.14c7.3,0,14.43-1.23,21.23-3.66,2.99,3.79,7.63,6.24,12.82,6.24,9.01,0,16.34-7.33,16.34-16.34s-7.33-16.34-16.34-16.34-16.34,7.33-16.34,16.34c0,2.31,.49,4.51,1.36,6.51-6.12,2.09-12.52,3.15-19.07,3.15-32.55,0-59.04-26.49-59.04-59.04S30.58,4.1,63.14,4.1s59.04,26.49,59.04,59.04c0,1.13,.92,2.05,2.05,2.05s2.05-.92,2.05-2.05C126.28,28.32,97.96,0,63.14,0Zm34.05,100.28c6.75,0,12.24,5.49,12.24,12.24s-5.49,12.24-12.24,12.24-12.24-5.49-12.24-12.24,5.49-12.24,12.24-12.24Z"/></g></svg>