<?xml version="1.0" encoding="UTF-8"?><svg id="Layer_2" xmlns="http://www.w3.org/2000/svg" viewBox="0 0 415.97 185.68"><defs><style>.cls-1{stroke-width:0px;}</style></defs><g id="Elements"><g id="_05"><path class="cls-1" d="m310.14,0h-51.47c-4.82,0-8.73,3.91-8.73,8.73v20.55c0,2.32-.92,4.54-2.56,6.17l-103.87,103.87c-1.64,1.64-2.56,3.86-2.56,6.17v31.43c0,4.82,3.91,8.73,8.73,8.73h52.01c2.32,0,4.54-.92,6.17-2.56l14.83-14.83c1.64-1.64,2.56-3.86,2.56-6.17v-17.6c0-4.82-3.91-8.73-8.73-8.73h0c-7.78,0-11.68-9.41-6.17-14.91L316.31,14.91c5.5-5.5,1.61-14.91-6.17-14.91Z"/><path class="cls-1" d="m349.05,2.56l-14.83,14.83c-1.64,1.64-2.56,3.86-2.56,6.17v17.6c0,4.82,3.91,8.73,8.73,8.73h0c7.78,0,11.68,9.41,6.17,14.91l-105.97,105.97c-5.5,5.5-1.61,14.91,6.17,14.91h51.47c4.82,0,8.73-3.91,8.73-8.73v-20.55c0-2.32.92-4.54,2.56-6.17l103.87-103.87c1.64-1.64,2.56-3.86,2.56-6.17V8.73c0-4.82-3.91-8.73-8.73-8.73h-52.01c-2.32,0-4.54.92-6.17,2.56Z"/><path class="cls-1" d="m206.11,0h-52.01c-2.32,0-4.54.92-6.17,2.56l-14.83,14.83c-1.64,1.64-2.56,3.86-2.56,6.17v17.6c0,4.82,3.91,8.73,8.73,8.73h0c7.78,0,11.68,9.41,6.17,14.91l-105.97,105.97c-5.5,5.5-1.61,14.91,6.17,14.91h51.47c4.82,0,8.73-3.91,8.73-8.73v-20.55c0-2.32.92-4.54,2.56-6.17l103.87-103.87c1.64-1.64,2.56-3.86,2.56-6.17V8.73c0-4.82-3.91-8.73-8.73-8.73Z"/><rect class="cls-1" x="249.74" y="98.51" width="24.14" height="24.14" rx="8.73" ry="8.73" transform="translate(-1.51 217.52) rotate(-45)"/><rect class="cls-1" x="277.31" y="70.95" width="24.14" height="24.14" rx="8.73" ry="8.73" transform="translate(26.05 228.93) rotate(-45)"/><rect class="cls-1" x="86.04" y="70.95" width="24.14" height="24.14" rx="8.73" ry="8.73" transform="translate(-29.97 93.69) rotate(-45)"/><rect class="cls-1" x="1.38" y="155.61" width="24.14" height="24.14" rx="8.73" ry="8.73" transform="translate(-114.63 58.62) rotate(-45)"/></g></g></svg>