<?xml version="1.0" encoding="UTF-8"?><svg id="Layer_2" xmlns="http://www.w3.org/2000/svg" viewBox="0 0 254.94 265.5"><defs><style>.cls-1{stroke-width:0px;}</style></defs><g id="Elements"><g id="_17"><path class="cls-1" d="m176.77,71.9h66.97c6.19,0,11.2-5.02,11.2-11.2h0c0-6.19-5.02-11.2-11.2-11.2h-66.97s0-38.29,0-38.29c0-6.19-5.02-11.2-11.2-11.2-6.19,0-11.2,5.02-11.2,11.2v27.25c0,5.56-4.06,10.17-9.38,11.04h-66.81,0s0,.16,0,.16H11.2c-6.19,0-11.2,5.02-11.2,11.2h0c0,6.19,5.02,11.2,11.2,11.2h66.97s0,25.41,0,25.41v.16s-66.97,0-66.97,0C5.02,97.64,0,102.65,0,108.84h0c0,6.19,5.02,11.2,11.2,11.2h66.97s0,25.41,0,25.41v.16s-66.97,0-66.97,0c-6.19,0-11.2,5.02-11.2,11.2H0c0,6.19,5.02,11.2,11.2,11.2h66.97s0,25.41,0,25.41v.16s-66.97,0-66.97,0c-6.19,0-11.2,5.02-11.2,11.2H0c0,6.19,5.02,11.2,11.2,11.2h66.97s0,38.29,0,38.29c0,6.19,5.02,11.2,11.2,11.2h0c6.19,0,11.2-5.02,11.2-11.2v-27.25c0-5.56,4.06-10.17,9.38-11.04h66.81,0s0-.16,0-.16h66.97c6.19,0,11.2-5.02,11.2-11.2h0c0-6.19-5.02-11.2-11.2-11.2h-66.97s0-25.41,0-25.41v-.16s66.97,0,66.97,0c6.19,0,11.2-5.02,11.2-11.2h0c0-6.19-5.02-11.2-11.2-11.2h-66.97s0-25.41,0-25.41v-.16s66.97,0,66.97,0c6.19,0,11.2-5.02,11.2-11.2h0c0-6.19-5.02-11.2-11.2-11.2h-66.97s0-25.41,0-25.41v-.16Zm-64.99,121.54c-6.19,0-11.2-5.02-11.2-11.2v-3.17c0-5.56,4.06-10.17,9.38-11.04h33.2c6.19,0,11.2,5.02,11.2,11.2v3.17c0,5.56-4.06,10.17-9.38,11.04h-33.2Zm0-47.98c-6.19,0-11.2-5.02-11.2-11.2v-3.17c0-5.57,4.06-10.17,9.38-11.04h33.2c6.19,0,11.2,5.02,11.2,11.2v3.17c0,5.56-4.06,10.17-9.38,11.04h-33.2Zm0-47.98c-6.19,0-11.2-5.02-11.2-11.2v-3.17c0-5.56,4.06-10.17,9.38-11.04h33.2c6.19,0,11.2,5.02,11.2,11.2v3.17c0,5.56-4.06,10.17-9.38,11.04h-33.2Z"/></g></g></svg>