<?xml version="1.0" encoding="UTF-8"?><svg id="Layer_2" xmlns="http://www.w3.org/2000/svg" viewBox="0 0 324.77 227.76"><defs><style>.cls-1{stroke-width:0px;}</style></defs><g id="Elements"><g id="_02"><path class="cls-1" d="m198.2,144.33l12.41-12.41-18.04-18.04-5.64,5.64c-1.94,1.94-5.1,1.94-7.04,0l-5.64-5.64-7.7,7.7c-1.94,1.94-1.94,5.1,0,7.04l18.1,18.1c1.94,1.94,1.94,5.1,0,7.04l-22.26,22.26-22.26-22.26c-1.94-1.94-1.94-5.1,0-7.04l18.1-18.1c1.94-1.94,1.94-5.1,0-7.04l-7.7-7.7-5.64,5.64c-1.94,1.94-5.1,1.94-7.04,0l-5.64-5.64-18.04,18.04,12.41,12.41c1.94,1.94,1.94,5.1,0,7.04l-12.41,12.41,15.87,15.87c1.94,1.94,5.1,1.94,7.04,0l.53-.53c1.94-1.94,5.1-1.94,7.04,0l7.33,7.33-8.53,8.53c-1.94,1.94-5.1,1.94-7.04,0l-18.1-18.1c-1.94-1.94-5.1-1.94-7.04,0l-13.34,13.34c-1.94,1.94-1.94,5.1,0,7.04l11.22,11.22c1.94,1.94,5.1,1.94,7.04,0,1.94-1.94,5.1-1.94,7.04,0l17.83,17.83c1.94,1.94,5.1,1.94,7.04,0l14.3-14.3,14.3,14.3c1.94,1.94,5.1,1.94,7.04,0l17.83-17.83c1.94-1.94,5.1-1.94,7.04,0,1.94,1.94,5.1,1.94,7.04,0l11.22-11.22c1.94-1.94,1.94-5.1,0-7.04l-13.34-13.34c-1.94-1.94-5.1-1.94-7.04,0l-18.1,18.1c-1.94,1.94-5.1,1.94-7.04,0l-8.53-8.53,7.33-7.33c1.94-1.94,5.1-1.94,7.04,0l.53.53c1.94,1.94,5.1,1.94,7.04,0l15.87-15.87-12.41-12.41c-1.94-1.94-1.94-5.1,0-7.04Z"/><path class="cls-1" d="m309.97,176.87c-1.94-1.94-5.1-1.94-7.04,0l-18.1,18.1c-1.94,1.94-5.1,1.94-7.04,0l-41.21-41.21c-1.94-1.94-1.94-5.1,0-7.04l18.1-18.1c1.94-1.94,1.94-5.1,0-7.04l-7.7-7.7-5.64,5.64c-1.94,1.94-5.1,1.94-7.04,0l-5.64-5.64-18.04,18.04,12.41,12.41c1.94,1.94,1.94,5.1,0,7.04l-12.41,12.41,15.87,15.87c1.94,1.94,5.1,1.94,7.04,0l.53-.53c1.94-1.94,5.1-1.94,7.04,0l11.34,11.34c1.94,1.94,1.94,5.1,0,7.04l-.53.53c-1.94,1.94-1.94,5.1,0,7.04l21.24,21.24c1.94,1.94,5.1,1.94,7.04,0l17.83-17.83c1.94-1.94,5.1-1.94,7.04,0,1.94,1.94,5.1,1.94,7.04,0l11.22-11.22c1.94-1.94,1.94-5.1,0-7.04l-13.34-13.34Z"/><path class="cls-1" d="m223.02,83.43l-12.41,12.41,18.04,18.04,5.64-5.64c1.94-1.94,5.1-1.94,7.04,0l5.64,5.64,7.7-7.7c1.94-1.94,1.94-5.1,0-7.04l-18.1-18.1c-1.94-1.94-1.94-5.1,0-7.04l41.21-41.21c1.94-1.94,5.1-1.94,7.04,0l18.1,18.1c1.94,1.94,5.1,1.94,7.04,0l13.34-13.34c1.94-1.94,1.94-5.1,0-7.04l-11.22-11.22c-1.94-1.94-5.1-1.94-7.04,0s-5.1,1.94-7.04,0l-17.83-17.83c-1.94-1.94-5.1-1.94-7.04,0l-21.24,21.24c-1.94,1.94-1.94,5.1,0,7.04l.53.53c1.94,1.94,1.94,5.1,0,7.04l-11.34,11.34c-1.94,1.94-5.1,1.94-7.04,0l-.53-.53c-1.94-1.94-5.1-1.94-7.04,0l-15.87,15.87,12.41,12.41c1.94,1.94,1.94,5.1,0,7.04Z"/><path class="cls-1" d="m101.75,144.33l12.41-12.41-18.04-18.04-5.64,5.64c-1.94,1.94-5.1,1.94-7.04,0l-5.64-5.64-7.7,7.7c-1.94,1.94-1.94,5.1,0,7.04l18.1,18.1c1.94,1.94,1.94,5.1,0,7.04l-41.21,41.21c-1.94,1.94-5.1,1.94-7.04,0l-18.1-18.1c-1.94-1.94-5.1-1.94-7.04,0l-13.34,13.34c-1.94,1.94-1.94,5.1,0,7.04l11.22,11.22c1.94,1.94,5.1,1.94,7.04,0,1.94-1.94,5.1-1.94,7.04,0l17.83,17.83c1.94,1.94,5.1,1.94,7.04,0l21.24-21.24c1.94-1.94,1.94-5.1,0-7.04l-.53-.53c-1.94-1.94-1.94-5.1,0-7.04l11.34-11.34c1.94-1.94,5.1-1.94,7.04,0l.53.53c1.94,1.94,5.1,1.94,7.04,0l15.87-15.87-12.41-12.41c-1.94-1.94-1.94-5.1,0-7.04Z"/><path class="cls-1" d="m126.57,83.43l-12.41,12.41,18.04,18.04,5.64-5.64c1.94-1.94,5.1-1.94,7.04,0l5.64,5.64,7.7-7.7c1.94-1.94,1.94-5.1,0-7.04l-18.1-18.1c-1.94-1.94-1.94-5.1,0-7.04l22.26-22.26,22.26,22.26c1.94,1.94,1.94,5.1,0,7.04l-18.1,18.1c-1.94,1.94-1.94,5.1,0,7.04l7.7,7.7,5.64-5.64c1.94-1.94,5.1-1.94,7.04,0l5.64,5.64,18.04-18.04-12.41-12.41c-1.94-1.94-1.94-5.1,0-7.04l12.41-12.41-15.87-15.87c-1.94-1.94-5.1-1.94-7.04,0l-.53.53c-1.94,1.94-5.1,1.94-7.04,0l-7.33-7.33,8.53-8.53c1.94-1.94,5.1-1.94,7.04,0l18.1,18.1c1.94,1.94,5.1,1.94,7.04,0l13.34-13.34c1.94-1.94,1.94-5.1,0-7.04l-11.22-11.22c-1.94-1.94-5.1-1.94-7.04,0s-5.1,1.94-7.04,0L183.73,1.46c-1.94-1.94-5.1-1.94-7.04,0l-14.3,14.3-14.3-14.3c-1.94-1.94-5.1-1.94-7.04,0l-17.83,17.83c-1.94,1.94-5.1,1.94-7.04,0s-5.1-1.94-7.04,0l-11.22,11.22c-1.94,1.94-1.94,5.1,0,7.04l13.34,13.34c1.94,1.94,5.1,1.94,7.04,0l18.1-18.1c1.94-1.94,5.1-1.94,7.04,0l8.53,8.53-7.33,7.33c-1.94,1.94-5.1,1.94-7.04,0l-.53-.53c-1.94-1.94-5.1-1.94-7.04,0l-15.87,15.87,12.41,12.41c1.94,1.94,1.94,5.1,0,7.04Z"/><path class="cls-1" d="m90.47,108.24l5.64,5.64,18.04-18.04-12.41-12.41c-1.94-1.94-1.94-5.1,0-7.04l12.41-12.41-15.87-15.87c-1.94-1.94-5.1-1.94-7.04,0l-.53.53c-1.94,1.94-5.1,1.94-7.04,0l-11.34-11.34c-1.94-1.94-1.94-5.1,0-7.04l.53-.53c1.94-1.94,1.94-5.1,0-7.04L51.63,1.46c-1.94-1.94-5.1-1.94-7.04,0l-17.83,17.83c-1.94,1.94-5.1,1.94-7.04,0-1.94-1.94-5.1-1.94-7.04,0L1.46,30.51c-1.94,1.94-1.94,5.1,0,7.04l13.34,13.34c1.94,1.94,5.1,1.94,7.04,0l18.1-18.1c1.94-1.94,5.1-1.94,7.04,0l41.21,41.21c1.94,1.94,1.94,5.1,0,7.04l-18.1,18.1c-1.94,1.94-1.94,5.1,0,7.04l7.7,7.7,5.64-5.64c1.94-1.94,5.1-1.94,7.04,0Z"/></g></g></svg>