<?xml version="1.0" encoding="UTF-8"?><svg id="Layer_2" xmlns="http://www.w3.org/2000/svg" viewBox="0 0 236.4 223.04"><defs><style>.cls-1{stroke-width:0px;}</style></defs><g id="Elements"><g id="_32"><path class="cls-1" d="m58.12,161.45c-5.2-4.53-8.23-11.06-8.23-17.95v-.24c0-6.87,2.95-13.44,8.15-17.93,8.73-7.54,13.69-19.31,11.73-32.13-2.33-15.19-14.42-27.07-29.64-29.18C18.5,61.02,0,77.74,0,98.77,0,108.94,4.32,118.09,11.23,124.5c5.24,4.86,8.19,11.71,8.19,18.85s-2.98,14-8.22,18.88C4.32,168.63.02,177.76,0,187.89c-.03,19.34,15.69,35.11,35.03,35.15,19.41.04,35.16-15.69,35.16-35.09,0-10.57-4.68-20.06-12.07-26.49Z"/><path class="cls-1" d="m224.32,161.45c-5.2-4.53-8.23-11.06-8.23-17.95v-.24c0-6.87,2.95-13.44,8.15-17.93,8.73-7.54,13.69-19.31,11.73-32.13-2.33-15.19-14.42-27.07-29.64-29.18-21.62-3-40.12,13.71-40.12,34.74,0,10.17,4.32,19.32,11.23,25.73,5.24,4.86,8.19,11.71,8.19,18.85s-2.97,14-8.22,18.88c-6.88,6.4-11.19,15.52-11.2,25.65-.03,19.34,15.69,35.11,35.03,35.15,19.41.04,35.16-15.69,35.16-35.09,0-10.57-4.68-20.06-12.07-26.49Z"/><path class="cls-1" d="m141.22,97.78c-5.2-4.53-8.23-11.06-8.23-17.95v-.24c0-6.87,2.95-13.44,8.15-17.93,8.72-7.54,13.69-19.31,11.73-32.13-2.33-15.19-14.42-27.07-29.64-29.18-21.62-3-40.12,13.71-40.12,34.74,0,10.17,4.32,19.32,11.23,25.73,5.24,4.86,8.19,11.71,8.19,18.85s-2.97,14-8.22,18.88c-6.88,6.4-11.19,15.52-11.2,25.65-.03,19.34,15.69,35.11,35.03,35.15,19.41.04,35.16-15.69,35.16-35.09,0-10.57-4.68-20.06-12.07-26.49Z"/></g></g></svg>