<?xml version="1.0" encoding="UTF-8"?><svg id="Layer_2" xmlns="http://www.w3.org/2000/svg" viewBox="0 0 136.66 136.66"><g id="_2"><path d="M68.33,0C30.65,0,0,30.65,0,68.33s30.65,68.33,68.33,68.33,68.33-30.65,68.33-68.33S106.01,0,68.33,0Zm36.26,40.45c0,10.45-4.45,19.88-11.55,26.51-6.68-5.63-15.3-9.03-24.72-9.03s-18.04,3.4-24.72,9.03c-7.1-6.62-11.55-16.06-11.55-26.51,0-20,16.27-36.26,36.26-36.26s36.26,16.27,36.26,36.26ZM4.18,68.33c0-25.93,15.46-48.31,37.65-58.42-8.54,7.42-13.94,18.36-13.94,30.53s4.87,22,12.68,29.38c-6.56,6.88-10.58,16.2-10.58,26.46,0,14.28,7.8,26.73,19.37,33.34C23.22,121.5,4.18,97.1,4.18,68.33Zm83.13,61.28c11.57-6.6,19.37-19.06,19.37-33.34,0-10.26-4.03-19.57-10.58-26.46,7.8-7.38,12.68-17.82,12.68-29.38,0-12.17-5.41-23.11-13.94-30.53,22.19,10.11,37.65,32.49,37.65,58.42,0,28.77-19.03,53.17-45.17,61.28Z"/></g></svg>