<?xml version="1.0" encoding="UTF-8"?><svg id="Layer_2" xmlns="http://www.w3.org/2000/svg" viewBox="0 0 117.9 117.9"><g id="_5"><path d="M0,12.01V105.89c0,6.63,5.38,12.01,12.01,12.01H105.89c6.63,0,12.01-5.38,12.01-12.01V12.01c0-6.63-5.38-12.01-12.01-12.01H12.01C5.38,0,0,5.38,0,12.01ZM102.14,29.3h-1.54c-6.63,0-12.01-5.38-12.01-12.01v-1.54c0-6.63,5.38-12.01,12.01-12.01h1.54c6.63,0,12.01,5.38,12.01,12.01v1.54c0,6.63-5.38,12.01-12.01,12.01Zm-41.31-12.01v-1.54c0-6.63,5.38-12.01,12.01-12.01h0c6.63,0,12.01,5.38,12.01,12.01v1.54c0,6.63-5.38,12.01-12.01,12.01h0c-6.63,0-12.01-5.38-12.01-12.01Zm24.02,27.77h0c0,6.63-5.38,12.01-12.01,12.01h0c-6.63,0-12.01-5.38-12.01-12.01h0c0-6.63,5.38-12.01,12.01-12.01h0c6.63,0,12.01,5.38,12.01,12.01Zm-39.78-15.76h0c-6.63,0-12.01-5.38-12.01-12.01v-1.54c0-6.63,5.38-12.01,12.01-12.01h0c6.63,0,12.01,5.38,12.01,12.01v1.54c0,6.63-5.38,12.01-12.01,12.01Zm12.01,15.76h0c0,6.63-5.38,12.01-12.01,12.01h0c-6.63,0-12.01-5.38-12.01-12.01h0c0-6.63,5.38-12.01,12.01-12.01h0c6.63,0,12.01,5.38,12.01,12.01Zm-39.78,12.01h-1.54c-6.63,0-12.01-5.38-12.01-12.01h0c0-6.63,5.38-12.01,12.01-12.01h1.54c6.63,0,12.01,5.38,12.01,12.01h0c0,6.63-5.38,12.01-12.01,12.01Zm12.01,15.76h0c0,6.63-5.38,12.01-12.01,12.01h-1.54c-6.63,0-12.01-5.38-12.01-12.01h0c0-6.63,5.38-12.01,12.01-12.01h1.54c6.63,0,12.01,5.38,12.01,12.01Zm15.76-12.01h0c6.63,0,12.01,5.38,12.01,12.01h0c0,6.63-5.38,12.01-12.01,12.01h0c-6.63,0-12.01-5.38-12.01-12.01h0c0-6.63,5.38-12.01,12.01-12.01Zm12.01,39.78v1.54c0,6.63-5.38,12.01-12.01,12.01h0c-6.63,0-12.01-5.38-12.01-12.01v-1.54c0-6.63,5.38-12.01,12.01-12.01h0c6.63,0,12.01,5.38,12.01,12.01Zm15.76-12.01h0c6.63,0,12.01,5.38,12.01,12.01v1.54c0,6.63-5.38,12.01-12.01,12.01h0c-6.63,0-12.01-5.38-12.01-12.01v-1.54c0-6.63,5.38-12.01,12.01-12.01Zm-12.01-15.76h0c0-6.63,5.38-12.01,12.01-12.01h0c6.63,0,12.01,5.38,12.01,12.01h0c0,6.63-5.38,12.01-12.01,12.01h0c-6.63,0-12.01-5.38-12.01-12.01Zm39.78-12.01h1.54c6.63,0,12.01,5.38,12.01,12.01h0c0,6.63-5.38,12.01-12.01,12.01h-1.54c-6.63,0-12.01-5.38-12.01-12.01h0c0-6.63,5.38-12.01,12.01-12.01Zm-12.01-15.76h0c0-6.63,5.38-12.01,12.01-12.01h1.54c6.63,0,12.01,5.38,12.01,12.01h0c0,6.63-5.38,12.01-12.01,12.01h-1.54c-6.63,0-12.01-5.38-12.01-12.01ZM29.3,15.76v1.54c0,6.63-5.38,12.01-12.01,12.01h-1.54c-6.63,0-12.01-5.38-12.01-12.01v-1.54C3.75,9.13,9.13,3.75,15.76,3.75h1.54c6.63,0,12.01,5.38,12.01,12.01ZM15.76,88.59h1.54c6.63,0,12.01,5.38,12.01,12.01v1.54c0,6.63-5.38,12.01-12.01,12.01h-1.54c-6.63,0-12.01-5.38-12.01-12.01v-1.54c0-6.63,5.38-12.01,12.01-12.01Zm72.83,13.55v-1.54c0-6.63,5.38-12.01,12.01-12.01h1.54c6.63,0,12.01,5.38,12.01,12.01v1.54c0,6.63-5.38,12.01-12.01,12.01h-1.54c-6.63,0-12.01-5.38-12.01-12.01Z"/></g></svg>