<?xml version="1.0" encoding="UTF-8"?><svg id="Layer_2" xmlns="http://www.w3.org/2000/svg" viewBox="0 0 279.71 263.97"><defs><style>.cls-1{stroke-width:0px;}</style></defs><g id="Elements"><g id="_10"><path class="cls-1" d="m279.71,137.23V47.5c0-5.95-4.82-10.78-10.78-10.78h0c-5.95,0-10.78,4.82-10.78,10.78v68.18c0,5.95-4.82,10.78-10.78,10.78h-85.98c-5.95,0-10.78-4.82-10.78-10.78V47.5c0-5.95-4.82-10.78-10.78-10.78h0c-5.95,0-10.78,4.82-10.78,10.78v68.18c0,5.95-4.82,10.78-10.78,10.78H32.33c-5.95,0-10.78-4.82-10.78-10.78V47.5c0-5.95-4.82-10.78-10.78-10.78h0c-5.95,0-10.78,4.82-10.78,10.78v89.73c0,5.95,4.82,10.78,10.78,10.78h107.53c5.95,0,10.78,4.82,10.78,10.78v16.56c0,5.95-4.82,10.78-10.78,10.78h-30.86c-5.95,0-10.78,4.82-10.78,10.78v56.31c0,5.95,4.82,10.78,10.78,10.78h0c5.95,0,10.78-4.82,10.78-10.78v-34.76c0-5.95,4.82-10.78,10.78-10.78h9.31c5.95,0,10.78,4.82,10.78,10.78v34.76c0,5.95,4.82,10.78,10.78,10.78h0c5.95,0,10.78-4.82,10.78-10.78v-34.76c0-5.95,4.82-10.78,10.78-10.78h9.31c5.95,0,10.78,4.82,10.78,10.78v34.76c0,5.95,4.82,10.78,10.78,10.78h0c5.95,0,10.78-4.82,10.78-10.78v-56.31c0-5.95-4.82-10.78-10.78-10.78h-30.86c-5.95,0-10.78-4.82-10.78-10.78v-16.56c0-5.95,4.82-10.78,10.78-10.78h107.53c5.95,0,10.78-4.82,10.78-10.78Z"/><rect class="cls-1" x="63.28" y="0" width="21.55" height="93.08" rx="10.78" ry="10.78"/><rect class="cls-1" x="195.64" y="0" width="21.55" height="93.08" rx="10.78" ry="10.78"/></g></g></svg>