<?xml version="1.0" encoding="UTF-8"?><svg id="Layer_2" xmlns="http://www.w3.org/2000/svg" viewBox="0 0 472.63 150.39"><defs><style>.cls-1{stroke-width:0px;}</style></defs><g id="Elements"><g id="_21"><path class="cls-1" d="m86.52,0c-17.86,0-22.63,47.27-22.63,75.2s4.77,75.2,22.63,75.2,22.63-47.27,22.63-75.2S104.38,0,86.52,0Zm7.76,121.33c-3.03,13.27-6.51,17.8-7.76,18.57-1.25-.77-4.73-5.3-7.76-18.57-2.87-12.56-4.45-28.95-4.45-46.13s1.58-33.57,4.45-46.13c3.03-13.27,6.51-17.8,7.76-18.57,1.25.77,4.73,5.3,7.76,18.57,2.87,12.56,4.45,28.95,4.45,46.13s-1.58,33.57-4.45,46.13Z"/><path class="cls-1" d="m141.19,0c-10.34,0-16.44,13.17-19.73,24.22-4.08,13.69-6.32,31.79-6.32,50.97s2.24,37.29,6.32,50.97c3.29,11.05,9.38,24.22,19.73,24.22s16.44-13.17,19.73-24.22c4.07-13.69,6.32-31.79,6.32-50.97s-2.24-37.29-6.32-50.97c-3.29-11.05-9.38-24.22-19.73-24.22Zm0,139.97c-4.67,0-15.63-22.04-15.63-64.78s10.95-64.78,15.63-64.78,15.63,22.04,15.63,64.78-10.95,64.78-15.63,64.78Z"/><path class="cls-1" d="m26.05,0C15.7,0,9.61,13.17,6.32,24.22,2.24,37.91,0,56.01,0,75.2s2.24,37.29,6.32,50.97c3.29,11.05,9.38,24.22,19.73,24.22s16.44-13.17,19.73-24.22c4.08-13.69,6.32-31.79,6.32-50.97s-2.24-37.29-6.32-50.97C42.48,13.17,36.39,0,26.05,0Zm0,139.97c-4.67,0-15.63-22.04-15.63-64.78S21.37,10.42,26.05,10.42s15.63,22.04,15.63,64.78-10.95,64.78-15.63,64.78Z"/><path class="cls-1" d="m225.28,0c-13.4,0-25.81,8.16-34.94,22.97-8.65,14.03-13.41,32.58-13.41,52.22s4.76,38.19,13.41,52.22c9.13,14.81,21.54,22.97,34.94,22.97s25.81-8.16,34.94-22.97c8.65-14.03,13.41-32.58,13.41-52.22s-4.76-38.19-13.41-52.22C251.09,8.16,238.68,0,225.28,0Zm0,139.97c-20.56,0-37.94-29.66-37.94-64.78S204.71,10.42,225.28,10.42s37.94,29.66,37.94,64.78-17.37,64.78-37.94,64.78Z"/><path class="cls-1" d="m457.77,22.78c-10-14.69-23.49-22.78-38-22.78s-28,8.09-38,22.78c-9.58,14.07-14.86,32.69-14.86,52.42s5.28,38.35,14.86,52.42c10,14.69,23.49,22.78,38,22.78s28-8.09,38-22.78c9.58-14.07,14.86-32.69,14.86-52.42s-5.28-38.35-14.86-52.42Zm-38,117.2c-23.4,0-42.44-29.06-42.44-64.78s19.04-64.78,42.44-64.78,42.43,29.06,42.43,64.78-19.04,64.78-42.43,64.78Z"/><ellipse class="cls-1" cx="296.78" cy="75.2" rx="11.15" ry="69.99"/><ellipse class="cls-1" cx="338.98" cy="75.2" rx="11.15" ry="69.99"/></g></g></svg>