<?xml version="1.0" encoding="UTF-8"?><svg id="Layer_2" xmlns="http://www.w3.org/2000/svg" viewBox="0 0 140.57 140.57"><g id="_7"><g><path d="M96.66,43.78c-7.27,0-13.86,2.95-18.63,7.71-4.77,4.77-7.72,11.36-7.72,18.63h43.91c14.55,0,26.34-11.79,26.34-26.34h-43.91Z"/><path d="M51.5,62.54c4.77,4.77,11.35,7.71,18.63,7.71V26.35c0-14.55-11.8-26.35-26.35-26.35V43.91c0,7.28,2.95,13.86,7.72,18.63Z"/><path d="M0,96.79H43.91c7.27,0,13.86-2.95,18.63-7.72,4.77-4.77,7.71-11.36,7.71-18.63H26.34C11.79,70.45,0,82.24,0,96.79Z"/><path d="M70.45,70.32v43.91c0,14.55,11.79,26.34,26.34,26.34v-43.91c0-7.28-2.94-13.86-7.71-18.63-4.77-4.77-11.36-7.72-18.63-7.72Z"/></g></g></svg>