<?xml version="1.0" encoding="UTF-8"?><svg id="Layer_2" xmlns="http://www.w3.org/2000/svg" viewBox="0 0 139.96 148.43"><g id="_2"><g><path d="M6.31,58.58c-3.49,0-6.31,2.83-6.31,6.31v18.63c0,3.49,2.83,6.31,6.31,6.31s6.31-2.83,6.31-6.31v-18.63c0-3.49-2.83-6.31-6.31-6.31Z"/><path d="M133.64,58.58c-3.49,0-6.31,2.83-6.31,6.31v18.63c0,3.49,2.83,6.31,6.31,6.31s6.31-2.83,6.31-6.31v-18.63c0-3.49-2.83-6.31-6.31-6.31Z"/><path d="M117.4,69.8h-9.27v-29.57c0-3.49-2.83-6.31-6.31-6.31h0c-3.49,0-6.31,2.83-6.31,6.31v7.72c-.55-.24-1.15-.39-1.79-.39h-17.42v-13.41h.19c2.44,0,4.41-1.97,4.41-4.41s-1.97-4.41-4.41-4.41h-.19V6.31c0-3.49-2.83-6.31-6.31-6.31s-6.31,2.83-6.31,6.31V25.34h-.19c-2.44,0-4.41,1.97-4.41,4.41s1.97,4.41,4.41,4.41h.19v13.41h-17.42c-.64,0-1.24,.14-1.79,.39v-7.72c0-3.49-2.83-6.31-6.31-6.31s-6.31,2.83-6.31,6.31v29.57h-9.27c-2.44,0-4.41,1.97-4.41,4.41s1.97,4.41,4.41,4.41h9.27v29.57c0,3.49,2.83,6.31,6.31,6.31s6.31-2.83,6.31-6.31v-7.72c.55,.24,1.15,.39,1.79,.39h17.42v13.41h-.19c-2.44,0-4.41,1.97-4.41,4.41s1.97,4.41,4.41,4.41h.19v19.03c0,3.49,2.83,6.31,6.31,6.31s6.31-2.83,6.31-6.31v-19.03h.19c2.44,0,4.41-1.97,4.41-4.41s-1.97-4.41-4.41-4.41h-.19v-13.41h17.42c.64,0,1.24-.14,1.79-.39v7.72c0,3.49,2.83,6.31,6.31,6.31h0c3.49,0,6.31-2.83,6.31-6.31v-29.57h9.27c2.44,0,4.41-1.97,4.41-4.41s-1.97-4.41-4.41-4.41Zm-23.69-13.41c.64,0,1.24-.14,1.79-.39v13.8h-19.21v-13.41h17.42Zm-49.25-.39c.55,.24,1.15,.39,1.79,.39h17.42v13.41h-19.21v-13.8Zm1.79,36.03c-.64,0-1.24,.14-1.79,.39v-13.8h19.21v13.41h-17.42Zm49.25,.39c-.55-.24-1.15-.39-1.79-.39h-17.42v-13.41h19.21v13.8Z"/></g></g></svg>