<?xml version="1.0" encoding="UTF-8"?><svg id="Layer_2" xmlns="http://www.w3.org/2000/svg" viewBox="0 0 285.02 214.9"><defs><style>.cls-1{stroke-width:0px;}</style></defs><g id="Elements"><g id="_07"><path class="cls-1" d="m276.32,144.26l-26.56,2.22c-2.33.2-4.45,1.39-5.82,3.28l-23.31,32.11c-1.41,1.94-3.61,3.15-6.01,3.3l-56.2,3.4c-4.1.25-7.35,3.55-7.53,7.65l-.46,10.31c-.2,4.57,3.44,8.38,8.02,8.38h61.96c2.94,0,5.64-1.61,7.05-4.19l9.35-17.17c1.29-2.37,3.69-3.93,6.38-4.16l13.97-1.17c4.9-.41,9.02,3.65,8.67,8.56l-.67,9.54c-.33,4.74,3.51,8.75,8.3,8.58,4.15-.15,7.44-3.57,7.73-7.71l1.39-19.83c.17-2.39-1.73-4.43-4.13-4.43s-4.14-1.85-4.14-4.14v-13.15c0-2.29,1.85-4.14,4.14-4.14h2.09c2.17,0,3.98-1.68,4.13-3.85l.34-4.83c.34-4.91-3.77-8.97-8.67-8.56Z"/><path class="cls-1" d="m158.42,26.34l56.2,3.4c2.4.14,4.6,1.35,6.01,3.3l23.31,32.11c1.37,1.89,3.5,3.09,5.82,3.28l26.56,2.23c4.9.41,9.02-3.65,8.67-8.56l-.34-4.83c-.15-2.17-1.96-3.85-4.13-3.85h-2.09c-2.29,0-4.14-1.85-4.14-4.14v-13.15c0-2.29,1.85-4.14,4.14-4.14,2.4,0,4.3-2.03,4.13-4.43l-1.39-19.83c-.29-4.14-3.58-7.56-7.73-7.71-4.79-.17-8.63,3.84-8.3,8.58l.67,9.54c.34,4.91-3.77,8.97-8.67,8.56l-13.97-1.17c-2.69-.23-5.09-1.79-6.38-4.16l-9.35-17.17C226.05,1.61,223.34,0,220.41,0h-61.96c-4.57,0-8.22,3.81-8.02,8.38l.46,10.3c.18,4.1,3.43,7.4,7.53,7.65Z"/><path class="cls-1" d="m126.57,0h-61.96c-2.94,0-5.64,1.61-7.05,4.18l-9.35,17.17c-1.29,2.37-3.69,3.93-6.38,4.16l-13.97,1.17c-4.9.41-9.02-3.65-8.67-8.56l.67-9.54C20.2,3.85,16.36-.17,11.57,0,7.42.15,4.13,3.58,3.84,7.72l-1.39,19.83c-.17,2.39,1.73,4.43,4.13,4.43,2.29,0,4.14,1.85,4.14,4.14v13.15c0,2.29-1.85,4.14-4.14,4.14h-2.09c-2.17,0-3.98,1.68-4.13,3.85L.02,62.08c-.34,4.91,3.77,8.97,8.67,8.56l26.56-2.23c2.33-.19,4.45-1.39,5.82-3.28l23.31-32.11c1.41-1.94,3.61-3.15,6.01-3.3l56.2-3.4c4.1-.25,7.35-3.55,7.53-7.65l.46-10.3C134.79,3.81,131.15,0,126.57,0Z"/><path class="cls-1" d="m126.6,188.56l-56.2-3.4c-2.4-.14-4.6-1.35-6.01-3.3l-23.31-32.11c-1.37-1.89-3.5-3.09-5.82-3.28l-26.56-2.23c-4.9-.41-9.02,3.65-8.67,8.56l.34,4.83c.15,2.17,1.96,3.85,4.13,3.85h2.09c2.29,0,4.14,1.85,4.14,4.14v13.15c0,2.29-1.85,4.14-4.14,4.14-2.4,0-4.3,2.03-4.13,4.43l1.39,19.83c.29,4.14,3.58,7.56,7.73,7.71,4.79.17,8.63-3.84,8.3-8.58l-.67-9.54c-.34-4.91,3.77-8.97,8.67-8.56l13.97,1.17c2.69.23,5.08,1.79,6.38,4.16l9.35,17.17c1.41,2.58,4.11,4.18,7.05,4.18h61.96c4.57,0,8.22-3.81,8.02-8.38l-.46-10.31c-.18-4.1-3.43-7.4-7.53-7.65Z"/></g></g></svg>