<?xml version="1.0" encoding="UTF-8"?><svg id="Layer_2" xmlns="http://www.w3.org/2000/svg" viewBox="0 0 103.82 112.65"><g id="_0"><g><path d="M87.13,25.52V0H0V87.13H16.68v25.52H103.82V25.52h-16.68Zm13.37,17.48H20v-14.16H100.5v14.16ZM83.81,3.32v14l-80.5,.15V3.32H83.81ZM3.32,83.81V20.8l80.5-.15v4.88H16.68v58.29H3.32Zm16.68,25.52V46.32H100.5v63.02H20Z"/><path d="M27.69,39.12c2.23,.34,4.12-1.55,3.78-3.78-.21-1.39-1.35-2.53-2.74-2.74-2.23-.34-4.12,1.55-3.78,3.78,.21,1.39,1.35,2.53,2.74,2.74Z"/><path d="M37.39,39.12c2.23,.34,4.12-1.55,3.78-3.78-.21-1.39-1.35-2.53-2.74-2.74-2.23-.34-4.12,1.55-3.78,3.78,.21,1.39,1.35,2.53,2.74,2.74Z"/><path d="M47.48,39.12c2.23,.34,4.12-1.55,3.78-3.78-.21-1.39-1.35-2.53-2.74-2.74-2.23-.34-4.12,1.55-3.78,3.78,.21,1.39,1.35,2.53,2.74,2.74Z"/><path d="M11.01,13.6c2.23,.34,4.12-1.55,3.78-3.78-.21-1.39-1.35-2.53-2.74-2.74-2.23-.34-4.12,1.55-3.78,3.78,.21,1.39,1.35,2.53,2.74,2.74Z"/><path d="M20.71,13.6c2.23,.34,4.12-1.55,3.78-3.78-.21-1.39-1.35-2.53-2.74-2.74-2.23-.34-4.12,1.55-3.78,3.78,.21,1.39,1.35,2.53,2.74,2.74Z"/><path d="M30.8,13.6c2.23,.34,4.12-1.55,3.78-3.78-.21-1.39-1.35-2.53-2.74-2.74-2.23-.34-4.12,1.55-3.78,3.78,.21,1.39,1.35,2.53,2.74,2.74Z"/></g></g></svg>