<?xml version="1.0" encoding="UTF-8"?><svg id="Layer_2" xmlns="http://www.w3.org/2000/svg" viewBox="0 0 218.71 247.44"><defs><style>.cls-1{stroke-width:0px;}</style></defs><g id="Elements"><g id="_22"><path class="cls-1" d="m148.66,174.36c-7.46-.58-14.48,1.09-20.47,4.4-11.8,6.51-26.07,6.47-37.91.05-5.95-3.22-12.91-4.84-20.28-4.26-17.83,1.4-32.2,15.91-33.45,33.76-1.49,21.35,15.38,39.13,36.41,39.13,10.9,0,20.67-4.78,27.35-12.36,4.82-5.47,13.42-5.46,18.27-.02,6.67,7.48,16.38,12.2,27.2,12.2,21.03,0,37.9-17.78,36.41-39.13-1.19-16.93-16.58-32.45-33.51-33.76Z"/><path class="cls-1" d="m70.05,73.07c7.46.58,14.48-1.09,20.47-4.4,11.8-6.51,26.07-6.47,37.91-.05,5.95,3.22,12.91,4.84,20.28,4.26,17.83-1.4,32.2-15.91,33.45-33.76,1.49-21.35-15.38-39.13-36.41-39.13-10.9,0-20.67,4.78-27.35,12.36-4.82,5.47-13.42,5.46-18.27.02C93.48,4.9,83.77.19,72.95.19,51.92.19,35.05,17.97,36.54,39.31c1.19,16.93,16.58,32.45,33.51,33.76Z"/><path class="cls-1" d="m218.62,121c-1.25-17.87-15.65-32.38-33.51-33.76-7.46-.58-14.48,1.09-20.47,4.4-11.31,6.24-24.88,6.44-36.42.8-4.75-2.9-10.2-4.75-16.02-5.2-7.46-.58-14.48,1.09-20.47,4.4-11.8,6.51-26.07,6.47-37.92.05-5.95-3.22-12.91-4.84-20.28-4.26C15.71,88.83,1.34,103.34.09,121.19c-1.49,21.35,15.38,39.13,36.41,39.13,6.22,0,12.08-1.56,17.2-4.31,11.56-6.2,25.14-6.42,36.94-.89,5.48,3.29,11.9,5.2,18.76,5.2,6.22,0,12.08-1.56,17.2-4.31,12.14-6.51,26.51-6.44,38.71-.04,5.05,2.65,10.8,4.15,16.91,4.15,21.03,0,37.9-17.78,36.41-39.13Z"/></g></g></svg>