<?xml version="1.0" encoding="UTF-8"?><svg id="Layer_2" xmlns="http://www.w3.org/2000/svg" viewBox="0 0 143.18 143.18"><g id="_5"><g><polygon points="72.89 70.29 72.89 0 70.29 0 70.29 70.29 0 70.29 0 72.89 70.29 72.89 70.29 143.18 72.89 143.18 72.89 72.89 143.18 72.89 143.18 70.29 72.89 70.29"/><path d="M57.06,57.8c0-6.56,1.99-12.65,5.4-17.7,3.99-5.91-.3-13.93-7.43-13.98-.06,0-.13,0-.19,0-17.59,0-31.84,14.34-31.67,31.97H57.06c0-.1,0-.2,0-.3Z"/><path d="M86.52,57.8c0,.1,0,.2,0,.3h33.89c.16-17.63-14.08-31.97-31.68-31.97-.06,0-.12,0-.19,0-7.13,.04-11.42,8.07-7.43,13.98,3.41,5.05,5.4,11.14,5.4,17.7Z"/><path d="M86.52,86.65c0,6.56-1.99,12.65-5.4,17.7-3.99,5.91,.3,13.93,7.43,13.98,.06,0,.13,0,.19,0,17.59,0,31.84-14.34,31.67-31.97h-33.89c0,.1,0,.2,0,.3Z"/><path d="M57.06,86.65c0-.1,0-.2,0-.3H23.17c-.16,17.63,14.08,31.97,31.68,31.97,.06,0,.12,0,.19,0,7.13-.04,11.42-8.07,7.43-13.98-3.41-5.05-5.4-11.14-5.4-17.7Z"/></g></g></svg>