<?xml version="1.0" encoding="UTF-8"?><svg id="Layer_2" xmlns="http://www.w3.org/2000/svg" viewBox="0 0 102.85 106.15"><g id="_2"><path d="M102.85,51.42c0-5.17-.77-10.16-2.2-14.87h1.32v-1.75h-1.88c-1.97-5.74-4.92-11.02-8.66-15.65h10.54v-1.75h-12.02c-1.24-1.41-2.56-2.75-3.95-4.01V.88h-1.75V11.87c-4.46-3.71-9.56-6.68-15.1-8.72V.88h-1.75v1.67c-5.03-1.65-10.4-2.54-15.97-2.54s-10.94,.89-15.97,2.54V.88h-1.75V3.15c-5.54,2.04-10.64,5.01-15.1,8.72V.88h-1.75V13.39c-1.39,1.26-2.71,2.6-3.95,4.01H.88v1.75H11.42c-3.74,4.63-6.69,9.91-8.66,15.65H.88v1.75h1.32c-1.43,4.71-2.2,9.7-2.2,14.87v3.3c0,5.17,.77,10.16,2.2,14.87H.88v1.75h1.88c1.97,5.74,4.92,11.02,8.66,15.65H.88v1.75H12.9c1.24,1.41,2.56,2.75,3.95,4.01v12.51h1.75v-10.99c4.46,3.71,9.56,6.68,15.1,8.72v2.27h1.75v-1.67c5.03,1.65,10.4,2.54,15.97,2.54s10.94-.89,15.97-2.54v1.67h1.75v-2.27c5.54-2.04,10.64-5.01,15.1-8.72v10.99h1.75v-12.51c1.39-1.26,2.71-2.6,3.95-4.01h12.02v-1.75h-10.54c3.74-4.63,6.69-9.91,8.66-15.65h1.88v-1.75h-1.32c1.43-4.71,2.2-9.7,2.2-14.87v-3.3Zm-1.75,0v.78h-15.1v-15.65h12.82c1.48,4.7,2.28,9.69,2.28,14.87Zm-33.7-16.62h-15.1v-15.65h15.1v15.65Zm1.75-15.65h15.1v15.65h-15.1v-15.65Zm-18.6,34.8v15.65h-15.1v-15.65h15.1Zm-15.1-1.75v-15.65h15.1v15.65h-15.1Zm16.85,1.75h15.1v15.65h-15.1v-15.65Zm0-1.75v-15.65h15.1v15.65h-15.1Zm-1.75-17.4h-15.1v-15.65h15.1v15.65Zm-16.85,0h-15.1v-15.65h15.1v15.65Zm0,1.75v15.65h-15.1v-15.65h15.1Zm0,17.4v15.65h-15.1v-15.65h15.1Zm0,17.4v15.65h-15.1v-15.65h15.1Zm1.75,0h15.1v15.65h-15.1v-15.65Zm16.85,0h15.1v15.65h-15.1v-15.65Zm16.85,0h15.1v15.65h-15.1v-15.65Zm0-1.75v-15.65h15.1v15.65h-15.1Zm0-17.4v-15.65h15.1v15.65h-15.1Zm29.08-17.4h-12.23v-15.65h3.15c3.92,4.57,7.02,9.87,9.08,15.65Zm-10.65-17.4h-1.58v-1.6c.54,.52,1.06,1.06,1.58,1.6Zm-3.33-3.22v3.22h-15.1V5.02c5.58,2.14,10.69,5.26,15.1,9.15Zm-16.85,3.22h-15.1V1.76c5.27,.09,10.34,1.01,15.1,2.62v13.01ZM50.55,1.76v15.64h-15.1V4.39c4.75-1.62,9.83-2.53,15.1-2.62Zm-16.85,3.26v12.38h-15.1v-3.22c4.41-3.89,9.51-7.01,15.1-9.15ZM16.85,15.8v1.6h-1.58c.51-.55,1.04-1.08,1.58-1.6Zm-3.15,3.35h3.15v15.65H4.62c2.06-5.78,5.16-11.07,9.08-15.65ZM4.03,36.55h12.82v15.65H1.75v-.78c0-5.18,.8-10.17,2.28-14.87ZM1.75,54.73v-.78h15.1v15.65H4.03c-1.48-4.7-2.28-9.69-2.28-14.87Zm2.86,16.62h12.23v15.65h-3.15c-3.92-4.57-7.02-9.87-9.08-15.65Zm10.65,17.4h1.58v1.6c-.54-.52-1.06-1.06-1.58-1.6Zm3.33,3.22v-3.22h15.1v12.38c-5.58-2.14-10.69-5.26-15.1-9.15Zm16.85-3.22h15.1v15.64c-5.27-.09-10.34-1.01-15.1-2.62v-13.01Zm16.85,15.64v-15.64h15.1v13.01c-4.75,1.62-9.83,2.53-15.1,2.62Zm16.85-3.26v-12.38h15.1v3.22c-4.41,3.89-9.51,7.01-15.1,9.15Zm16.85-10.77v-1.6h1.58c-.51,.55-1.04,1.08-1.58,1.6Zm3.15-3.35h-3.15v-15.65h12.23c-2.06,5.78-5.16,11.07-9.08,15.65Zm9.67-17.4h-12.82v-15.65h15.1v.78c0,5.18-.8,10.17-2.28,14.87Z"/></g></svg>