<?xml version="1.0" encoding="UTF-8"?><svg id="Layer_2" xmlns="http://www.w3.org/2000/svg" viewBox="0 0 136.56 136.56"><g id="_3"><g><path d="M0,16.63V119.93c0,9.18,7.44,16.63,16.63,16.63H119.93c9.18,0,16.63-7.44,16.63-16.63V16.63c0-9.18-7.44-16.63-16.63-16.63H16.63C7.44,0,0,7.44,0,16.63Zm115.35,115.35H21.21c-9.18,0-16.63-7.44-16.63-16.63V21.21C4.59,12.03,12.03,4.59,21.21,4.59H115.35c9.18,0,16.63,7.44,16.63,16.63V115.35c0,9.18-7.44,16.63-16.63,16.63Z"/><path d="M47.77,111.58l13.53-6.11c4.42-2,9.49-1.96,13.88,.09l12.09,5.65c14.14,6.61,28.77-8.15,22.04-22.23l-6.33-13.25c-2.23-4.68-2.16-10.12,.2-14.74l5.35-10.46c7.32-14.31-7.91-29.64-22.27-22.43l-10.61,5.33c-4.7,2.36-10.25,2.36-14.95,0l-11.59-5.84c-14.22-7.17-29.41,7.83-22.42,22.14l5.77,11.82c2.27,4.65,2.24,10.09-.07,14.72l-6.36,12.75c-6.99,14,7.46,29.02,21.72,22.58Zm11.46-73.78l1.49,.75c4.7,2.37,10.24,2.37,14.95,0l.14-.07c14.36-7.22,29.59,8.12,22.27,22.43h0c-2.36,4.61-2.43,10.06-.2,14.74l1.79,3.75c6.73,14.08-7.9,28.84-22.04,22.23l-2.4-1.12c-4.39-2.05-9.46-2.09-13.88-.09l-3.71,1.67c-14.26,6.44-28.7-8.58-21.72-22.58l1.62-3.24c2.31-4.63,2.33-10.07,.07-14.72l-.79-1.62c-6.98-14.31,8.2-29.31,22.42-22.14Z"/></g></g></svg>