<?xml version="1.0" encoding="UTF-8"?><svg id="Layer_2" xmlns="http://www.w3.org/2000/svg" viewBox="0 0 145.01 146.81"><g id="_2"><path d="M123.45,60.37c-8.09,1.87-8.56-2.02-8.38-7.76-.96-.86-1.76-2.18-2.53-3.7-.77-1.53-1.5-3.26,.14-2.74-4.11-5.57-6.12-8.72,3.51-5.56-14.28-8.94-16.91-11.57-4.71-28.86-17.98,12.65-21.13,10.64-33.31-2.07,5.46,9.41,1.89,8.12-5.02,5-.55,1.37-4.44,.91-8.43,.91s-7.88,.46-10.42-.65c-4.92,2.86-8.49,4.15-10.58-3.79-4.64,11.23-7.79,13.24-23.57-11.15,10,29.04,7.37,31.67-15.93,45.83,18.66-8.38,16.65-5.23,11.12,5.09,2.24-3.6,.95-.03,.07,3.7-.44,1.86-.77,3.77-1,5.71-.23,1.94-.34,3.91-.34,5.91,0,4,.46,7.89-4.05,7.46,6.27,7.89,7.55,11.46-10,14.16,20.85,4.02,22.86,7.17,17.7,30.85,9.8-17.9,12.43-15.26,18.88-2.99-.67-7.63,2.48-5.62,6.03-3.79,1.49,.64,3.23,1.38,4.18,1.98s1.12,1.08-.34,1.38c10.36,1.14,14.25,1.6-1.38,11.25,22.62-9.64,25.56-9.9,35.91,20.28-4.65-31.18-1.87-31.92,12.9-25.78-9.43-8.05-6.87-9.23,.75-8.86-2.74-3.1-.43-4.67,2.93-6.19,.25-1.38,1.63-2.62,2.87-3.32,.79-.74,1.43-.95,1.44-.05,1.53-2.53,2.8-4.57,3.84-5.57,2.09-2.01,3.27,.12,4.15,10.68,1.98-22.58,3.26-26.15,35.13-29.32-30.12-4.29-29.66-8.17-21.56-18.04Z"/></g></svg>