<?xml version="1.0" encoding="UTF-8"?><svg id="Layer_2" xmlns="http://www.w3.org/2000/svg" viewBox="0 0 126.47 126.47"><g id="_9"><path d="M126.38,59.89h0c-.07-1.26-.17-2.56-.32-3.89-.24-2.09-.58-4.18-1.03-6.22l-.04-.19c-.14-.67-.31-1.38-.51-2.15-.59-2.29-1.32-4.58-2.18-6.82l-.14-.37c-.4-1.01-.83-2.04-1.29-3.06l-.19-.41c-.18-.4-.37-.79-.55-1.16v-.36l-.36-.37c-1.15-2.29-2.45-4.53-3.87-6.65-1.39-2.09-2.92-4.12-4.55-6.02-1.3-1.53-2.69-3-4.11-4.37-1.79-1.74-3.71-3.39-5.72-4.92-1.63-1.25-3.33-2.41-5.03-3.46-1.89-1.18-3.87-2.26-5.87-3.22-.82-.4-1.66-.78-2.48-1.13l-.4-.17h0c-1.69-.71-3.42-1.35-5.15-1.91l-.28-.09c-4.92-1.56-10.04-2.51-15.23-2.81-1.27-.08-2.56-.12-3.84-.12h-.38c-1.95,.01-3.92,.11-5.85,.3-.93,.09-1.76,.19-2.53,.3-2.87,.39-5.74,1-8.54,1.79l-.35,.09c-.28,.08-.54,.16-.82,.25l-.27,.08c-.37,.12-.75,.24-1.11,.36C17.43,11.76,0,35.89,0,63.23c0,14.04,4.5,27.33,13.02,38.44,4.79,6.24,10.73,11.54,17.41,15.6,.13,.1,.26,.18,.41,.25,4.72,2.82,9.79,5.04,15.08,6.54l.06,.02c.36,.29,.8,.47,1.3,.47,.11,0,.21-.02,.31-.03,1.57,.4,3.16,.74,4.72,1.01l.18,.03h0c2.08,.35,4.19,.61,6.29,.76h.08c.9,.07,1.78,.11,2.67,.13,.43,.01,.85,.02,1.28,.02,.02,0,.04,0,.06,0,.02,0,.03,0,.05,0,.11,0,.21,0,.32,0,1.76,0,3.53-.07,5.25-.22,1.01-.08,2.03-.19,3.03-.32,1.92-.25,3.83-.59,5.69-1.01,4.76-1.07,9.39-2.7,13.77-4.84,2.24-1.1,4.46-2.35,6.58-3.72l.95-.62h0c1.09-.75,2.18-1.53,3.25-2.36l.16,.07,.9-.9c1.73-1.4,3.41-2.89,4.97-4.44,1.57-1.56,3.08-3.22,4.47-4.93,1.58-1.94,3.05-3.98,4.36-6.04,1.22-1.91,2.33-3.89,3.31-5.88l.21-.44h0c.61-1.26,1.18-2.53,1.69-3.79,.32-.78,.62-1.56,.89-2.33,.86-2.39,1.58-4.83,2.14-7.26,.19-.82,.36-1.64,.51-2.43l.04-.19h0c.36-1.95,.63-3.94,.81-5.91v-.1c.12-1.28,.19-2.57,.23-3.81,.02-.58,.03-1.17,.03-1.75,0-1.09-.03-2.21-.09-3.34ZM44.69,7.13c.17-.06,.34-.11,.51-.17V119.49c-3.98-1.28-7.81-2.98-11.43-5.07V12.17c0-.06-.01-.11-.02-.16,3.42-1.96,7.07-3.61,10.93-4.88ZM4.16,63.23c0-11.97,3.58-23.28,9.87-32.75V95.94c-6.47-9.69-9.87-20.91-9.87-32.71Zm14.03,38.21V24.96c3.32-3.91,7.15-7.39,11.43-10.34V111.79c-4.23-2.93-8.08-6.41-11.43-10.35Zm40.82,20.72c-1.99-.14-4.01-.39-5.99-.73l-.13-.02c-1.17-.21-2.35-.45-3.53-.74V5.81c1.88-.45,3.78-.82,5.69-1.08,.72-.1,1.5-.2,2.36-.28,1.12-.11,2.25-.18,3.38-.23V122.26c-.57-.02-1.14-.05-1.71-.09h-.06Zm63.27-57.29c-.03,1.2-.1,2.43-.21,3.65v.09c-.18,1.88-.44,3.77-.79,5.62l-.02,.13c-.13,.7-.28,1.42-.45,2.14-.52,2.27-1.19,4.55-1.99,6.78-.26,.71-.54,1.44-.83,2.17-.53,1.31-1.13,2.64-1.78,3.95l-.18,.36c-.87,1.74-1.85,3.46-2.92,5.14-1.22,1.93-2.59,3.83-4.07,5.64-1.3,1.6-2.71,3.15-4.17,4.6-1.38,1.37-2.85,2.69-4.38,3.93l-.36,.29c-1.58,1.26-3.21,2.44-4.84,3.49l-.42,.27c-1.85,1.17-3.78,2.25-5.73,3.2-4.08,2-8.41,3.52-12.86,4.52-1.73,.39-3.52,.71-5.31,.95-.93,.12-1.88,.22-2.83,.3-1.05,.09-2.12,.15-3.2,.18V4.19c.63,.02,1.26,.04,1.88,.08,4.94,.29,9.81,1.21,14.49,2.71l.31,.1c1.64,.53,3.27,1.15,4.87,1.83l.29,.12c.68,.29,1.36,.61,2.04,.93,1.87,.9,3.72,1.91,5.49,3.01,1.6,.98,3.18,2.07,4.7,3.23,1.87,1.43,3.67,2.97,5.34,4.6,1.33,1.28,2.62,2.66,3.84,4.09,1.52,1.78,2.95,3.67,4.25,5.62,1.29,1.94,2.48,3.97,3.53,6.06v.36l.36,.37c.13,.26,.25,.52,.38,.78l.19,.42c.45,.97,.87,1.96,1.26,2.93l.13,.33c.86,2.2,1.59,4.45,2.17,6.71,.16,.64,.3,1.22,.43,1.77l.05,.23c.44,1.97,.77,3.99,1,6,.14,1.24,.24,2.47,.3,3.63,.05,1.06,.08,2.11,.08,3.13,0,.55,0,1.09-.02,1.64Z"/></g></svg>