<?xml version="1.0" encoding="UTF-8"?><svg id="Layer_2" xmlns="http://www.w3.org/2000/svg" viewBox="0 0 122.31 124.96"><g id="_6"><path d="M61.15,124.96c33.72,0,61.15-28.03,61.15-62.48S94.87,0,61.15,0,0,28.03,0,62.48s27.43,62.48,61.15,62.48Zm53.65-62.48c0,8.08-1.72,15.74-4.78,22.66-.53,1.19-1.5,2.13-2.7,2.62-6.25,2.55-12.87,3.85-19.72,3.85-29.58,0-53.65-24.66-53.65-54.97,0-7.8,1.64-15.55,4.75-22.62,.53-1.19,1.5-2.14,2.7-2.63,6.12-2.49,12.78-3.87,19.75-3.87,29.58,0,53.65,24.66,53.65,54.97ZM17.32,30.82c2.88-4.18,9.4-1.9,9.19,3.17-.04,.88-.06,1.76-.06,2.65,0,34.45,27.43,62.48,61.15,62.48h.15c5-.01,7.07,6.43,2.94,9.23-8.48,5.75-18.63,9.11-29.54,9.11-29.58,0-53.65-24.66-53.65-54.97,0-11.78,3.63-22.7,9.81-31.66Z"/></g></svg>