<?xml version="1.0" encoding="UTF-8"?><svg id="Layer_2" xmlns="http://www.w3.org/2000/svg" viewBox="0 0 137.22 63.32"><g id="_4"><path d="M136.76,28.97c-1.68-9.27-6.88-17.32-14.62-22.69C114.39,.92,105.02-1.11,95.76,.58c-11.48,2.09-21.45,8.52-28.09,18.11-6.39,9.24-8.95,20.34-7.27,31.4-5.46,4.83-12.15,8.1-19.5,9.44-8.41,1.53-16.91-.31-23.93-5.17-7.03-4.86-11.74-12.17-13.26-20.58-1.21-6.64,.24-13.35,4.08-18.9,3.84-5.55,9.61-9.27,16.25-10.48,10.79-1.96,21.16,5.22,23.12,16.01,.74,4.09-.15,8.23-2.52,11.66-2.37,3.42-5.93,5.72-10.02,6.46-3.19,.58-6.41-.12-9.08-1.96-2.67-1.85-4.45-4.62-5.03-7.81-.45-2.47,.09-4.96,1.52-7.02,1.43-2.06,3.57-3.44,6.04-3.89,3.89-.71,7.64,1.88,8.35,5.78,.53,2.94-1.42,5.76-4.36,6.3-2.17,.39-4.26-1.05-4.66-3.22l-3.22,.59c.35,1.91,1.42,3.58,3.02,4.68,1.6,1.11,3.53,1.52,5.45,1.18,4.71-.86,7.85-5.39,6.99-10.1-1.03-5.67-6.48-9.44-12.15-8.41-6.87,1.25-11.44,7.85-10.19,14.72,.74,4.05,3.01,7.57,6.39,9.91,3.38,2.34,7.48,3.23,11.53,2.49,4.95-.9,9.26-3.68,12.13-7.82,2.87-4.14,3.95-9.15,3.05-14.1-1.11-6.09-4.52-11.38-9.6-14.9C35.68,1.39,29.53,.07,23.44,1.17,15.94,2.53,9.42,6.74,5.08,13.01,.74,19.27-.9,26.85,.47,34.35c1.68,9.27,6.88,17.32,14.62,22.69,5.97,4.13,12.89,6.28,20,6.28,2.12,0,4.25-.19,6.38-.58,11.48-2.09,21.45-8.52,28.09-18.11,6.39-9.24,8.95-20.34,7.27-31.4,5.46-4.83,12.15-8.1,19.5-9.44,8.41-1.53,16.91,.31,23.93,5.17,7.03,4.86,11.74,12.17,13.26,20.58,2.49,13.71-6.63,26.88-20.34,29.38-10.79,1.96-21.16-5.22-23.12-16.01-.74-4.09,.15-8.23,2.52-11.66,2.37-3.42,5.93-5.72,10.02-6.46,3.19-.58,6.41,.12,9.08,1.96,2.67,1.85,4.45,4.62,5.03,7.81,.45,2.47-.09,4.96-1.52,7.02-1.43,2.06-3.57,3.44-6.04,3.89-3.89,.71-7.64-1.88-8.35-5.78-.53-2.94,1.42-5.76,4.36-6.3,1.05-.19,2.12,.04,3,.65,.88,.61,1.47,1.52,1.66,2.58l3.22-.59c-.35-1.91-1.42-3.58-3.02-4.68-1.6-1.11-3.53-1.52-5.45-1.18-4.71,.86-7.85,5.39-6.99,10.1,1.03,5.67,6.48,9.44,12.15,8.41,3.33-.6,6.22-2.47,8.14-5.25,1.92-2.78,2.65-6.14,2.05-9.47-.74-4.05-3.01-7.57-6.39-9.91-3.38-2.34-7.48-3.23-11.53-2.49-4.95,.9-9.26,3.68-12.13,7.82-2.87,4.14-3.95,9.15-3.05,14.1,2.03,11.17,11.8,19.02,22.77,19.02,1.37,0,2.76-.12,4.15-.38,15.48-2.81,25.79-17.7,22.97-33.18Zm-69.89,13.8c-1.09,1.57-2.27,3.04-3.54,4.42-.87-9.42,1.57-18.77,7.02-26.64,1.09-1.57,2.27-3.04,3.54-4.42,.87,9.42-1.57,18.77-7.02,26.64Z"/></g></svg>