<?xml version="1.0" encoding="UTF-8"?><svg id="Layer_2" xmlns="http://www.w3.org/2000/svg" viewBox="0 0 142.18 148.99"><g id="_2"><path d="M119.5,110.78c2.39-2.39,2.39-6.28,0-8.67l-25.84-25.84h0l4.34,4.33c2.39,2.39,6.28,2.39,8.67,0l33.71-33.71c2.39-2.39,2.39-6.28,0-8.67l-12.19-12.19c-2.39-2.39-6.28-2.39-8.67,0l-.06,.06c-2.39,2.39-6.28,2.39-8.67,0l-3.41-3.41c-2.39-2.39-6.28-2.39-8.67,0l-12.84,12.84c-2.39,2.39-6.28,2.39-8.67,0L43.48,1.8c-2.39-2.39-6.28-2.39-8.67,0l-15.6,15.6c-2.39,2.39-2.39,6.28,0,8.67l3.47,3.47c2.39,2.39,2.39,6.28,0,8.67h0c-2.39,2.39-2.39,6.28,0,8.67l25.84,25.84h0l-4.34-4.33c-2.39-2.39-6.28-2.39-8.67,0L1.8,102.11c-2.39,2.39-2.39,6.28,0,8.67l12.19,12.19c2.39,2.39,6.28,2.39,8.67,0l.06-.06c2.39-2.39,6.28-2.39,8.67,0l3.41,3.41c2.39,2.39,6.28,2.39,8.67,0l12.84-12.84c2.39-2.39,6.28-2.39,8.67,0l33.72,33.72c2.39,2.39,6.28,2.39,8.67,0l15.6-15.6c2.39-2.39,2.39-6.28,0-8.67l-3.47-3.47c-2.39-2.39-2.39-6.28,0-8.67h0Zm-29.25-37.92l-8.73-8.73h0l8.73,8.72h0Zm17.12-34.69l-21.51,21.51c-2.39,2.39-6.28,2.39-8.67,0h0c-2.39-2.39-2.39-6.28,0-8.67l21.51-21.51c2.39-2.39,6.28-2.39,8.67,0h0c2.39,2.39,2.39,6.28,0,8.67ZM26.02,17.39l8.79-8.79c2.39-2.39,6.28-2.39,8.67,0l30.3,30.3c2.39,2.39,2.39,6.28,0,8.67h0c-2.39,2.39-6.28,2.39-8.67,0l-21.57-21.57c-2.39-2.39-6.28-2.39-8.67,0l-.11,.11c-2.39,2.39-6.28,2.39-8.67,0l-.06-.06c-2.39-2.39-2.39-6.28,0-8.67Zm25.91,58.74l8.73,8.73h0l-8.73-8.72h0Zm-17.12,34.69l21.51-21.51c2.39-2.39,6.28-2.39,8.67,0h0c2.39,2.39,2.39,6.28,0,8.67l-21.51,21.51c-2.39,2.39-6.28,2.39-8.67,0h0c-2.39-2.39-2.39-6.28,0-8.67Zm81.35,20.77l-8.79,8.79c-2.39,2.39-6.28,2.39-8.67,0l-30.3-30.3c-2.39-2.39-2.39-6.28,0-8.67h0c2.39-2.39,6.28-2.39,8.67,0l21.57,21.57c2.39,2.39,6.28,2.39,8.67,0l.11-.11c2.39-2.39,6.28-2.39,8.67,0l.06,.06c2.39,2.39,2.39,6.28,0,8.67Z"/></g></svg>