<?xml version="1.0" encoding="UTF-8"?><svg id="Layer_2" xmlns="http://www.w3.org/2000/svg" viewBox="0 0 98.7 97.76"><g id="_1"><path d="M98.7,31.81V.57h-34.08V3.71h28.66l-25.95,25.38H32.19L7.36,3.71h26.72V.57H4.29l-.56-.57-.58,.57H0V31.81H3.14V3.88l28.08,28.71v31.83L3.14,91.89v-25.94H0v31.25H34.08v-3.14H5.42l28.95-28.32h29.26l27.71,28.32h-26.72v3.14h29.79l.56,.57,.58-.57h3.15v-31.25h-3.14v27.93l-27.7-28.32V32.97L95.56,5.87V31.81h3.14Zm-34.58,.42l-14.75,14.43-14.11-14.43h28.86Zm-29.76,3.57l12.77,13.05-12.77,12.49v-25.55Zm3.22,26.79l11.74-11.49,11.24,11.49h-22.98Zm27.14-.24l-13.15-13.44,13.15-12.86v26.3Z"/></g></svg>