<?xml version="1.0" encoding="UTF-8"?><svg id="Layer_2" xmlns="http://www.w3.org/2000/svg" viewBox="0 0 242.2 239.14"><defs><style>.cls-1{stroke-width:0px;}</style></defs><g id="Elements"><g id="_29"><path class="cls-1" d="m158.95,72.04h-22.14c-34.4,0-62.39,27.99-62.39,62.39v104.39h12.6v-72.04h22.14c34.4,0,62.39-27.99,62.39-62.39V0h-12.6v72.04Zm-49.79,82.14h-22.14v-19.75c0-27.46,22.34-49.79,49.79-49.79h22.14v19.75c0,27.46-22.34,49.79-49.79,49.79Z"/><path class="cls-1" d="m98.57,45.34c12.5,0,22.66-10.17,22.66-22.66S111.07.01,98.57.01s-22.66,10.17-22.66,22.66,10.17,22.66,22.66,22.66Zm0-32.73c5.55,0,10.07,4.52,10.07,10.07s-4.52,10.07-10.07,10.07-10.07-4.52-10.07-10.07,4.52-10.07,10.07-10.07Z"/><path class="cls-1" d="m22.66.01C10.17.01,0,10.18,0,22.68s10.17,22.66,22.66,22.66,22.66-10.17,22.66-22.66S35.16.01,22.66.01Zm0,32.73c-5.55,0-10.07-4.52-10.07-10.07s4.52-10.07,10.07-10.07,10.07,4.52,10.07,10.07-4.52,10.07-10.07,10.07Z"/><path class="cls-1" d="m22.66,92.67c-12.5,0-22.66,10.17-22.66,22.66s10.17,22.66,22.66,22.66,22.66-10.17,22.66-22.66-10.17-22.66-22.66-22.66Zm0,32.73c-5.55,0-10.07-4.52-10.07-10.07s4.52-10.07,10.07-10.07,10.07,4.52,10.07,10.07-4.52,10.07-10.07,10.07Z"/><path class="cls-1" d="m22.66,193.81c-12.5,0-22.66,10.17-22.66,22.66s10.17,22.66,22.66,22.66,22.66-10.17,22.66-22.66-10.17-22.66-22.66-22.66Zm0,32.73c-5.55,0-10.07-4.52-10.07-10.07s4.52-10.07,10.07-10.07,10.07,4.52,10.07,10.07-4.52,10.07-10.07,10.07Z"/><path class="cls-1" d="m219.53,45.34c12.5,0,22.66-10.17,22.66-22.66S232.03.01,219.53.01s-22.66,10.17-22.66,22.66,10.17,22.66,22.66,22.66Zm0-32.73c5.55,0,10.07,4.52,10.07,10.07s-4.52,10.07-10.07,10.07-10.07-4.52-10.07-10.07,4.52-10.07,10.07-10.07Z"/><path class="cls-1" d="m219.53,92.67c-12.5,0-22.66,10.17-22.66,22.66s10.17,22.66,22.66,22.66,22.66-10.17,22.66-22.66-10.17-22.66-22.66-22.66Zm0,32.73c-5.55,0-10.07-4.52-10.07-10.07s4.52-10.07,10.07-10.07,10.07,4.52,10.07,10.07-4.52,10.07-10.07,10.07Z"/><path class="cls-1" d="m219.53,193.81c-12.5,0-22.66,10.17-22.66,22.66s10.17,22.66,22.66,22.66,22.66-10.17,22.66-22.66-10.17-22.66-22.66-22.66Zm0,32.73c-5.55,0-10.07-4.52-10.07-10.07s4.52-10.07,10.07-10.07,10.07,4.52,10.07,10.07-4.52,10.07-10.07,10.07Z"/><path class="cls-1" d="m148.88,193.81c-12.5,0-22.66,10.17-22.66,22.66s10.17,22.66,22.66,22.66,22.66-10.17,22.66-22.66-10.17-22.66-22.66-22.66Zm0,32.73c-5.55,0-10.07-4.52-10.07-10.07s4.52-10.07,10.07-10.07,10.07,4.52,10.07,10.07-4.52,10.07-10.07,10.07Z"/></g></g></svg>