<?xml version="1.0" encoding="UTF-8"?><svg id="Layer_2" xmlns="http://www.w3.org/2000/svg" viewBox="0 0 903.52 126.76"><defs><style>.cls-1{stroke-width:0px;}</style></defs><g id="Elements"><g id="_24"><rect class="cls-1" width="9.77" height="56.49"/><rect class="cls-1" x="69.59" width="9.77" height="56.49"/><rect class="cls-1" x="128.71" width="5.73" height="56.49"/><rect class="cls-1" x="168.1" width="19.53" height="56.49"/><rect class="cls-1" x="268.55" width="9.77" height="56.49"/><rect class="cls-1" x="375.63" width="9.77" height="56.49"/><rect class="cls-1" x="478.49" width="5.2" height="56.49"/><rect class="cls-1" x="520.19" width="5.2" height="56.49"/><rect class="cls-1" x="696.32" width="9.77" height="56.49"/><rect class="cls-1" x="898.64" width="4.88" height="56.49"/><rect class="cls-1" x="735.8" width="19.53" height="56.49"/><rect class="cls-1" x="826.38" width="21.79" height="56.49"/><rect class="cls-1" x="893.76" y="70.27" width="9.77" height="56.49"/><rect class="cls-1" x="824.17" y="70.27" width="9.77" height="56.49"/><rect class="cls-1" x="769.08" y="70.27" width="5.73" height="56.49"/><rect class="cls-1" x="715.9" y="70.27" width="19.53" height="56.49"/><rect class="cls-1" x="625.21" y="70.27" width="9.77" height="56.49"/><rect class="cls-1" x="518.13" y="70.27" width="9.77" height="56.49"/><rect class="cls-1" x="419.83" y="70.27" width="5.2" height="56.49"/><rect class="cls-1" x="378.14" y="70.27" width="5.2" height="56.49"/><rect class="cls-1" x="197.44" y="70.27" width="9.77" height="56.49"/><rect class="cls-1" y="70.27" width="4.88" height="56.49"/><rect class="cls-1" x="148.19" y="70.27" width="19.53" height="56.49"/><rect class="cls-1" x="55.36" y="70.27" width="21.79" height="56.49"/></g></g></svg>