<?xml version="1.0" encoding="UTF-8"?><svg id="Layer_2" xmlns="http://www.w3.org/2000/svg" viewBox="0 0 114.33 114.33"><g id="_6"><path d="M101.73,44.56h-31.96V12.61c0-3.48-1.41-6.63-3.69-8.91-2.28-2.28-5.43-3.69-8.91-3.69-6.96,0-12.61,5.64-12.61,12.61v31.96H12.6c-3.48,0-6.63,1.41-8.91,3.69-2.28,2.28-3.69,5.43-3.69,8.91,0,6.96,5.64,12.61,12.6,12.61h31.96v31.96c0,3.48,1.41,6.63,3.69,8.91,2.28,2.28,5.43,3.69,8.91,3.69,6.96,0,12.61-5.64,12.61-12.6v-31.96h31.96c3.48,0,6.63-1.41,8.91-3.69,2.28-2.28,3.69-5.43,3.69-8.91,0-6.96-5.64-12.61-12.61-12.61ZM57.17,7.55c3.03,0,5.48,2.46,5.48,5.48s-2.46,5.48-5.48,5.48-5.48-2.46-5.48-5.48,2.46-5.48,5.48-5.48ZM13.49,62.65c-3.03,0-5.48-2.46-5.48-5.48s2.46-5.48,5.48-5.48,5.48,2.46,5.48,5.48-2.45,5.48-5.48,5.48Zm43.68,43.68c-3.03,0-5.48-2.46-5.48-5.48s2.46-5.48,5.48-5.48,5.48,2.45,5.48,5.48-2.46,5.48-5.48,5.48Zm44.14-43.68c-3.03,0-5.48-2.46-5.48-5.48s2.46-5.48,5.48-5.48,5.48,2.46,5.48,5.48-2.46,5.48-5.48,5.48Z"/></g></svg>