<?xml version="1.0" encoding="UTF-8"?><svg id="Layer_2" xmlns="http://www.w3.org/2000/svg" viewBox="0 0 144.95 144.95"><g id="_5"><path d="M144.95,70.02h-50.72c-.87-10.37-9.01-18.69-19.3-19.85V0h-4.91V50.17c-10.28,1.16-18.42,9.48-19.3,19.85H0v4.91H50.85c1.38,9.8,9.28,17.52,19.16,18.63v51.38h4.91v-51.38c9.88-1.11,17.78-8.84,19.16-18.63h50.85v-4.91Zm-55.65,0h-14.37v-14.9c7.57,1.11,13.53,7.24,14.37,14.9Zm-19.28-14.9v14.9h-14.37c.84-7.65,6.8-13.79,14.37-14.9Zm-14.19,19.81h14.19v13.68c-7.17-1.05-12.89-6.6-14.19-13.68Zm19.1,13.68v-13.68h14.19c-1.3,7.08-7.02,12.64-14.19,13.68Z"/></g></svg>