<?xml version="1.0" encoding="UTF-8"?><svg id="Layer_2" xmlns="http://www.w3.org/2000/svg" viewBox="0 0 122.37 122.37"><g id="_6"><path d="M95.35,76.09c-4.62,.75-9.31-.8-12.61-4.1l-7.11-7.11c-2.04-2.04-2.04-5.34,0-7.38l7.11-7.11c3.36-3.36,8.13-4.79,12.83-4.07,7.07,1.08,14.54-1.11,19.99-6.55,9.49-9.49,9.08-25.11-1.21-34.08-8.79-7.66-22.11-7.55-30.79,.24-6.16,5.52-8.65,13.48-7.48,20.97,.73,4.66-.75,9.4-4.08,12.74l-7.11,7.11c-2.04,2.04-5.34,2.04-7.38,0l-7.11-7.11c-3.36-3.36-4.79-8.13-4.07-12.83,1.08-7.07-1.11-14.54-6.55-19.99C30.28-2.66,14.65-2.26,5.69,8.04c-7.66,8.79-7.55,22.12,.24,30.79,5.52,6.16,13.47,8.65,20.96,7.48,4.67-.73,9.4,.75,12.74,4.08l7.11,7.11c2.04,2.04,2.04,5.34,0,7.38l-7.11,7.11c-3.36,3.36-8.13,4.79-12.83,4.07-7.07-1.08-14.54,1.11-19.99,6.55-9.48,9.48-9.08,25.12,1.21,34.08,8.67,7.55,21.81,7.56,30.5,.02,6.41-5.56,8.99-13.71,7.76-21.35-.75-4.62,.8-9.31,4.1-12.61l7.11-7.11c2.04-2.04,5.34-2.04,7.38,0l7.11,7.11c3.36,3.36,4.79,8.13,4.07,12.83-1.08,7.07,1.11,14.54,6.55,19.99,9.49,9.49,25.12,9.08,34.08-1.21,7.55-8.67,7.56-21.81,.02-30.5-5.56-6.41-13.71-8.99-21.36-7.76Z"/></g></svg>