<?xml version="1.0" encoding="UTF-8"?><svg id="Layer_2" xmlns="http://www.w3.org/2000/svg" viewBox="0 0 296.88 246.25"><defs><style>.cls-1{stroke-width:0px;}</style></defs><g id="Elements"><g id="_15"><path class="cls-1" d="m11.98,20.42c-6.62,0-11.98,5.36-11.98,11.98v181.45c0,6.62,5.36,11.98,11.98,11.98s11.98-5.36,11.98-11.98V32.4c0-6.62-5.36-11.98-11.98-11.98Z"/><path class="cls-1" d="m148.44,0h0C155.05,0,160.42,5.37,160.42,11.98v222.29c0,6.61-5.37,11.98-11.98,11.98h0c-6.61,0-11.98-5.37-11.98-11.98V11.98C136.46,5.37,141.83,0,148.44,0Z"/><path class="cls-1" d="m284.9,20.42c-6.62,0-11.98,5.36-11.98,11.98v181.45c0,6.62,5.36,11.98,11.98,11.98s11.98-5.36,11.98-11.98V32.4c0-6.62-5.36-11.98-11.98-11.98Z"/><rect class="cls-1" x="204.69" y="60.44" width="23.96" height="125.38" rx="11.98" ry="11.98"/><rect class="cls-1" x="68.23" y="60.44" width="23.96" height="125.38" rx="11.98" ry="11.98"/></g></g></svg>