<?xml version="1.0" encoding="UTF-8"?><svg id="Layer_2" xmlns="http://www.w3.org/2000/svg" viewBox="0 0 167.75 145.28"><g id="_6"><path d="M146.78,108.96c-54.36-35.79-47.67-38.08,20.97-36.32-68.64-1.76-76.11-4.15-20.97-36.32-57.72,27.69-56.64,21.59-20.97-36.32-35.67,57.91-40.87,62.53-41.94,0-3.65,62.53-8.28,58.57-41.94,0,33.65,58.57,34.78,64.61-20.97,36.32C74.38,68.67,67.9,70.84,0,72.64c67.9-1.8,73.67,.29,20.97,36.32,55.25-31.61,53.61-24.02,20.97,36.32,32.64-60.34,37.89-64.88,41.94,0,1.52-64.88,7.38-59.58,41.94,0-34.56-59.58-36.19-67.25,20.97-36.32Z"/></g></svg>