<?xml version="1.0" encoding="UTF-8"?><svg id="Layer_2" xmlns="http://www.w3.org/2000/svg" viewBox="0 0 100.9 136.2"><g id="_6"><path d="M100.9,1.65l-3.42-1.65-30.78,63.73-14.14-29.27L68.41,1.65l-3.42-1.65-14.53,30.09L35.91,0l-3.42,1.65,15.85,32.81-14.14,29.27L3.42,0,0,1.65,32.09,68.1,0,134.55l3.42,1.65,30.78-63.73,14.14,29.27-15.85,32.81,3.42,1.65,14.53-30.09,14.53,30.09,3.42-1.65-15.85-32.81,14.14-29.27,30.78,63.73,3.42-1.65-32.09-66.45L100.9,1.65ZM50.45,97.37l-14.14-29.27,14.14-29.27,14.14,29.27-14.14,29.27Z"/></g></svg>