<?xml version="1.0" encoding="UTF-8"?><svg id="Layer_2" xmlns="http://www.w3.org/2000/svg" viewBox="0 0 120.17 120.17"><g id="_4"><path d="M88.41,60.08c9.2-10.36,17-20.53,22.64-29.57,9.01-14.45,11.35-24,6.98-28.38-4.38-4.38-13.92-2.03-28.38,6.98-9.04,5.64-19.21,13.43-29.57,22.64-10.36-9.2-20.53-17-29.57-22.64C16.06,.11,6.51-2.24,2.14,2.14-2.24,6.51,.11,16.06,9.12,30.51c5.64,9.05,13.43,19.21,22.64,29.57-9.2,10.36-17,20.53-22.64,29.57C.11,104.11-2.24,113.65,2.14,118.03c1.43,1.43,3.4,2.14,5.92,2.14,5.2,0,12.72-3.05,22.46-9.12,9.05-5.64,19.21-13.43,29.57-22.64,10.36,9.2,20.53,17,29.57,22.64,9.74,6.07,17.25,9.12,22.46,9.12,2.52,0,4.49-.71,5.92-2.14,4.38-4.38,2.03-13.92-6.98-28.38-5.64-9.05-13.43-19.21-22.64-29.57Zm3.43-47.45c6.93-4.32,15.48-8.51,20.31-8.51,1.27,0,2.29,.29,2.94,.95,3.15,3.15-2.11,14.49-7.56,23.25-5.46,8.76-13,18.6-21.91,28.66-3.49-3.83-7.15-7.67-10.96-11.48-3.81-3.81-7.65-7.48-11.48-10.96,10.06-8.91,19.91-16.45,28.66-21.91Zm-9,47.45c-3.53,3.88-7.24,7.78-11.11,11.65-3.87,3.87-7.77,7.59-11.65,11.11-3.88-3.53-7.78-7.24-11.65-11.11-3.87-3.87-7.59-7.77-11.11-11.65,3.53-3.88,7.24-7.78,11.11-11.65,3.87-3.87,7.77-7.59,11.65-11.11,3.88,3.53,7.78,7.24,11.65,11.11,3.87,3.87,7.59,7.77,11.11,11.65ZM12.63,28.32C7.18,19.56,1.92,8.22,5.07,5.07c.66-.66,1.67-.95,2.94-.95,4.83,0,13.38,4.19,20.31,8.51,8.76,5.46,18.6,13,28.66,21.91-3.83,3.49-7.67,7.15-11.48,10.96-3.81,3.81-7.48,7.65-10.96,11.48-8.91-10.06-16.45-19.91-21.91-28.66Zm15.69,79.21c-8.76,5.46-20.1,10.71-23.25,7.57-3.15-3.15,2.11-14.49,7.57-23.25,5.46-8.76,13-18.6,21.91-28.66,3.49,3.83,7.15,7.67,10.96,11.48,3.81,3.81,7.65,7.48,11.48,10.96-10.06,8.91-19.91,16.45-28.66,21.91Zm86.78,7.57c-.66,.66-1.67,.95-2.94,.95-4.83,0-13.38-4.19-20.31-8.51-8.75-5.46-18.6-13-28.66-21.91,3.83-3.49,7.67-7.15,11.48-10.96,3.81-3.81,7.48-7.65,10.96-11.48,8.91,10.06,16.45,19.91,21.91,28.66,5.46,8.76,10.71,20.1,7.56,23.25Z"/></g></svg>