<?xml version="1.0" encoding="UTF-8"?><svg id="Layer_2" xmlns="http://www.w3.org/2000/svg" viewBox="0 0 109.76 109.74"><g id="_2"><g><path d="M38.41,22.12c-.56,0-1.01,.45-1.01,1.01v8.08c0,3.45-2.81,6.26-6.26,6.26h-7.86c-.56,0-1.01,.45-1.01,1.01s.45,1.01,1.01,1.01h7.86c4.56,0,8.28-3.71,8.28-8.28v-8.08c0-.56-.45-1.01-1.01-1.01Z"/><path d="M78.66,39.48h7.86c.56,0,1.01-.45,1.01-1.01s-.45-1.01-1.01-1.01h-7.86c-3.45,0-6.26-2.81-6.26-6.26v-8.08c0-.56-.45-1.01-1.01-1.01s-1.01,.45-1.01,1.01v8.08c0,4.56,3.71,8.28,8.28,8.28Z"/><path d="M31.14,69.63h-7.86c-.56,0-1.01,.45-1.01,1.01s.45,1.01,1.01,1.01h7.86c3.45,0,6.26,2.81,6.26,6.26v8.08c0,.56,.45,1.01,1.01,1.01s1.01-.45,1.01-1.01v-8.08c0-4.56-3.71-8.28-8.28-8.28Z"/><path d="M86.51,71.65c.56,0,1.01-.45,1.01-1.01s-.45-1.01-1.01-1.01h-7.86c-4.56,0-8.28,3.71-8.28,8.28v8.08c0,.56,.45,1.01,1.01,1.01s1.01-.45,1.01-1.01v-8.08c0-3.45,2.81-6.26,6.26-6.26h7.86Z"/><path d="M107.75,74.05c-1.11,0-2.01,.9-2.01,2.01v16.67c0,7.16-5.82,12.98-12.98,12.98h-16.2c-1.11,0-2.01,.9-2.01,2.01s.9,2.01,2.01,2.01h16.2c9.38,0,17.01-7.63,17.01-17.01v-16.67c0-1.11-.9-2.01-2.01-2.01Z"/><path d="M92.75,0h-16.2c-1.11,0-2.01,.9-2.01,2.01s.9,2.01,2.01,2.01h16.2c7.16,0,12.98,5.82,12.98,12.98v16.67c0,1.11,.9,2.01,2.01,2.01s2.01-.9,2.01-2.01V17.01c0-9.38-7.63-17.01-17.01-17.01Z"/><path d="M33.21,105.72H17.01c-7.16,0-12.98-5.82-12.98-12.98v-16.67c0-1.11-.9-2.01-2.01-2.01s-2.01,.9-2.01,2.01v16.67c0,9.38,7.63,17.01,17.01,17.01h16.2c1.11,0,2.01-.9,2.01-2.01s-.9-2.01-2.01-2.01Z"/><path d="M2.01,35.69c1.11,0,2.01-.9,2.01-2.01V17.01c0-7.16,5.82-12.98,12.98-12.98h16.2c1.11,0,2.01-.9,2.01-2.01s-.9-2.01-2.01-2.01H17.01C7.63,0,0,7.63,0,17.01v16.67c0,1.11,.9,2.01,2.01,2.01Z"/></g></g></svg>